<svg xmlns="http://www.w3.org/2000/svg" xmlns:xlink="http://www.w3.org/1999/xlink" width="1881.415" height="1115.613" viewBox="0 0 1881.415 1115.613">
  <defs>
    <linearGradient id="linear-gradient" x1="0.5" y1="0.019" x2="0.515" y2="1" gradientUnits="objectBoundingBox">
      <stop offset="0" stop-color="#ef5488"/>
      <stop offset="1" stop-color="#6c245a"/>
    </linearGradient>
    <linearGradient id="linear-gradient-2" x1="0.5" x2="0.5" y2="1" gradientUnits="objectBoundingBox">
      <stop offset="0" stop-color="#feefd7"/>
      <stop offset="1" stop-color="#fabf77"/>
    </linearGradient>
    <linearGradient id="linear-gradient-3" x1="-8.892" y1="1.229" x2="-8.885" y2="1.229" gradientUnits="objectBoundingBox">
      <stop offset="0" stop-color="#717982"/>
      <stop offset="0.516" stop-color="#39414d"/>
      <stop offset="1" stop-color="#282f39"/>
    </linearGradient>
    <linearGradient id="linear-gradient-4" x1="0.858" y1="0.147" x2="0.03" y2="0.976" gradientUnits="objectBoundingBox">
      <stop offset="0" stop-color="#414954"/>
      <stop offset="0.516" stop-color="#39414d"/>
      <stop offset="1" stop-color="#282f39"/>
    </linearGradient>
    <clipPath id="clip-path">
      <rect id="Rectangle_225" data-name="Rectangle 225" width="1293.443" height="1115.613" transform="translate(0 -0.003)" fill="#ffe8f0"/>
    </clipPath>
    <clipPath id="clip-path-2">
      <rect id="Rectangle_206" data-name="Rectangle 206" width="1881.415" height="767.323" fill="none"/>
    </clipPath>
    <clipPath id="clip-path-3">
      <path id="Path_765" data-name="Path 765" d="M642.339,147.069v91.242H582.062Zm1.353-130.424L492.674,253.894v55.867H642.339v76.661h84.728V309.761h36.677v-71.45H727.067V16.645ZM1237.84,147.069v91.242h-60.276Zm1.353-130.424L1088.176,253.894v55.867H1237.84v76.661h84.778V309.761H1359.3v-71.45h-36.677V16.645ZM896.522,304.751c-8.868-13.829-10.721-33.721-10.721-49.705V147.57c0-15.833,1.9-35.325,10.522-49.053,6.714-10.672,16.083-16.134,28.71-16.134,12.676,0,22,5.612,28.91,16.134,8.869,13.678,10.823,33.12,10.823,49.053V255.046c0,15.933-1.753,35.925-10.622,49.705-6.714,10.571-16.034,16.033-28.61,16.033-12.677,0-22.2-5.361-29.012-16.033M830.935,49.263c-26.606,28.41-35.274,66.14-35.274,104.119v96.453c0,38.03,8.818,75.659,35.524,104.019,25.253,26.806,57.872,37.879,94.349,37.879,36.376,0,68.694-11.173,93.847-37.879,26.756-28.36,35.625-65.939,35.625-104.019V153.382c0-38.18-8.919-75.659-35.776-104.069-25.3-26.756-57.72-37.879-94.2-37.879-36.326,0-68.9,10.873-94.1,37.829" fill="#8f235c"/>
    </clipPath>
    <clipPath id="clip-path-4">
      <path id="Path_766" data-name="Path 766" d="M645.295,137.148V241.267H576.5Zm0-117.5L495.63,254.745V306.8H645.295v76.661H724.11V306.8h36.678V241.267H724.11V19.651Zm595.551,117.5V241.267h-68.794Zm0-117.5L1091.182,254.745V306.8h149.664v76.661h78.765V306.8h36.678V241.267h-36.678V19.651Zm-346.879,286.7q-11.122-17.361-11.173-51.308V147.57c0-22.1,3.708-39.082,11.023-50.657Q904.79,79.4,925.033,79.427c13.378,0,23.8,5.812,31.365,17.486,7.616,11.575,11.375,28.561,11.375,50.657V255.046c0,22.647-3.658,39.734-11.124,51.308-7.415,11.624-17.738,17.386-31.115,17.386-13.629,0-24.1-5.762-31.567-17.386M833.089,51.268q-34.422,36.826-34.422,102.114v96.453q0,65.087,34.673,101.964,34.8,36.9,92.194,36.928,57.043-.075,91.693-36.928,34.8-36.827,34.772-101.964V153.382c0-43.341-11.674-77.263-34.923-102.014q-35.1-36.978-92.043-36.928-57.422,0-91.944,36.828" fill="url(#linear-gradient)"/>
    </clipPath>
    <linearGradient id="linear-gradient-6" x1="0.177" y1="0.158" x2="0.95" y2="0.964" gradientUnits="objectBoundingBox">
      <stop offset="0" stop-color="#434b57"/>
      <stop offset="1" stop-color="#282f39"/>
    </linearGradient>
    <clipPath id="clip-path-6">
      <path id="Path_777" data-name="Path 777" d="M888.456,370.94l-24.5,5.812a5.554,5.554,0,0,0-4.058,6.614l30.664,128.37a5.481,5.481,0,0,0,6.565,4.059l24.451-5.863a5.449,5.449,0,0,0,4.058-6.564l-30.615-128.42a5.461,5.461,0,0,0-5.294-4.16,5.368,5.368,0,0,0-1.269.152" fill="none"/>
    </clipPath>
    <linearGradient id="linear-gradient-7" x1="-5.091" y1="2.972" x2="-5.085" y2="2.972" gradientUnits="objectBoundingBox">
      <stop offset="0" stop-color="#80234e"/>
      <stop offset="0.194" stop-color="#8c2854"/>
      <stop offset="0.548" stop-color="#ad3665"/>
      <stop offset="1" stop-color="#e04d80"/>
    </linearGradient>
    <clipPath id="clip-path-7">
      <path id="Path_778" data-name="Path 778" d="M821.264,394.739A63.877,63.877,0,0,0,850.927,519l39.133-9.319L860.4,385.42Z" fill="none"/>
    </clipPath>
    <linearGradient id="linear-gradient-8" x1="-4.452" y1="2.256" x2="-4.446" y2="2.256" gradientUnits="objectBoundingBox">
      <stop offset="0" stop-color="#80234e"/>
      <stop offset="0.099" stop-color="#8c2854"/>
      <stop offset="0.281" stop-color="#ad3665"/>
      <stop offset="0.513" stop-color="#e04d80"/>
      <stop offset="1" stop-color="#9f315e"/>
    </linearGradient>
    <clipPath id="clip-path-8">
      <path id="Path_779" data-name="Path 779" d="M737.889,355.256c1.1,4.711-1.3,18.139-6.864,19.241,4.71,6.714,32.919,24.4,32.017,14.781-9.82-7.516-1.152-21.244-1.152-21.244l-20.242-12.978Z" fill="none"/>
    </clipPath>
    <linearGradient id="linear-gradient-9" x1="-13.211" y1="7.733" x2="-13.192" y2="7.733" gradientUnits="objectBoundingBox">
      <stop offset="0" stop-color="#fef0d9"/>
      <stop offset="0.191" stop-color="#fde9cc"/>
      <stop offset="0.541" stop-color="#fcd9ab"/>
      <stop offset="1" stop-color="#fabf77"/>
    </linearGradient>
    <clipPath id="clip-path-9">
      <path id="Path_780" data-name="Path 780" d="M754.274,314.471c-16.184-1.3-20.894,21.145-20.894,21.145-9.871-1.5-4.008,13.328,2.456,19.591a.9.9,0,0,0,1.309.087c.271-.194.451-.39.545-.087,3.206,12.025,29.962,25.5,31.766,19.991,2.856-8.868,2.705-9.419,4.659-14.329.351-.953,6.013-.051,6.163-1.4s-3.907-9.22-3.457-13.329c1.453-6.965,4.008-14.731-1.4-23.8-1.7-7.084-12.8-7.962-18.2-7.962-1.782,0-2.944.1-2.944.1" fill="url(#linear-gradient-2)"/>
    </clipPath>
    <clipPath id="clip-path-11">
      <path id="Path_782" data-name="Path 782" d="M733.781,441.087c.952,9.52,5.611,20.493,6.914,31.066,20.443,16.935,66.14,9.069,79.718,19.34,12.175,4.359,15.883,4.961,24.151.15,9.369-5.461,7.766-9.77,6.363-11.474-2.155-2-1.553,1.4-13.228,1.5-.1,0-3.307-.752-3.257-2.406.1-1.452,5.211-4.459,5.161-5.311-.089-2.6-5.443-.188-9.83,2.221-3.062,1.681-5.652,3.361-5.652,3.34-.7,0-1,.853-3.257.351-20.042-9.369-41.387-14.53-58.223-19.089-.551-7.767-2.1-15.132-4.609-24.2Z" fill="none"/>
    </clipPath>
    <linearGradient id="linear-gradient-11" x1="0.882" y1="0.897" x2="0.148" y2="0.215" xlink:href="#linear-gradient-9"/>
    <linearGradient id="linear-gradient-12" x1="0.921" y1="0.57" x2="0.092" y2="0.624" gradientUnits="objectBoundingBox">
      <stop offset="0" stop-color="#eef1f6"/>
      <stop offset="1" stop-color="#d3d8e0"/>
    </linearGradient>
    <clipPath id="clip-path-13">
      <path id="Path_789" data-name="Path 789" d="M1197.054,504.971a368.557,368.557,0,0,0,3.708,109.28c4.76,25.754,36.126,60.828,38.531,93.7,0,0,32.869.5,30.815-4.409-12.327-29.913-8.268-59.525-34.924-89.788-1.8-19.291-3.507-40.285,6.163-65.187,4.009-10.422,11.875-31.467,1.1-54.816Z" fill="url(#linear-gradient-3)"/>
    </clipPath>
    <clipPath id="clip-path-14">
      <path id="Path_790" data-name="Path 790" d="M1179.517,496.3c-7.666,40.285-26.956,76.511-33.219,108.829-2.1,32.869-1.7,79.468-4.811,107.526,10.723,2.6,21.445,3.107,31.667,0-2.605-40.435,14.831-68.644,6.714-100.16,11.625-28.711,31.416-45.6,48.753-72.6,11.674-18.288,11.323-36.126,6.062-48.6-18.038,2.205-37.128,2.806-55.166,5.011" fill="url(#linear-gradient-4)"/>
    </clipPath>
    <clipPath id="clip-path-16">
      <path id="Path_795" data-name="Path 795" d="M1085.319,352.7l-33.871,137.79a5.927,5.927,0,0,0,4.31,7.115l26.3,6.463a5.858,5.858,0,0,0,7.065-4.309L1123,361.921a5.858,5.858,0,0,0-4.308-7.065l-26.256-6.464a5.967,5.967,0,0,0-1.389-.164,5.864,5.864,0,0,0-5.726,4.473" fill="none"/>
    </clipPath>
    <linearGradient id="linear-gradient-15" x1="-14.383" y1="2.676" x2="-14.369" y2="2.676" xlink:href="#linear-gradient-7"/>
    <clipPath id="clip-path-17">
      <path id="Path_796" data-name="Path 796" d="M1089.679,497.556l42.038,10.321a68.673,68.673,0,0,0,32.769-133.38l-42.038-10.322Z" fill="none"/>
    </clipPath>
    <linearGradient id="linear-gradient-16" x1="-8.124" y1="2.64" x2="-8.117" y2="2.64" xlink:href="#linear-gradient-8"/>
    <clipPath id="clip-path-18">
      <path id="Path_797" data-name="Path 797" d="M1229.536,327.857l-25.6,12.726s10.422,16.335,2.555,22.1c-1.2,9.921,28.41-7.566,33.52-14.43,0,0-2.555-.551-2.906-2.3,0,0-3.106-9.57-.6-18.99Z" fill="none"/>
    </clipPath>
    <linearGradient id="linear-gradient-17" x1="-33.373" y1="9.645" x2="-33.345" y2="9.645" xlink:href="#linear-gradient-9"/>
    <clipPath id="clip-path-19">
      <path id="Path_798" data-name="Path 798" d="M1207.577,439.033c-17.287,4.159-39.233,8.818-59.977,17.787-2.3.5-2.555-.4-3.307-.451,0,.022-2.628-1.795-5.731-3.611-4.4-2.572-9.747-5.144-9.951-2.5-.051.851,5.11,4.108,5.16,5.611,0,1.653-3.257,2.355-3.407,2.355-11.875-.451-11.224-3.908-13.428-1.9-1.5,1.7-3.257,6.013,6.163,11.876,8.268,5.16,12.125,4.609,24.651.5,14.13-10.071,60.578-.752,81.923-17.437,1.6-10.772,6.664-21.9,7.967-31.565l-24.652-5.262a124.447,124.447,0,0,0-5.411,24.6" fill="none"/>
    </clipPath>
    <linearGradient id="linear-gradient-18" x1="-8.984" y1="5.989" x2="-8.976" y2="5.989" xlink:href="#linear-gradient-9"/>
    <linearGradient id="linear-gradient-19" x1="0.913" y1="0.574" x2="-0.085" y2="0.38" gradientUnits="objectBoundingBox">
      <stop offset="0" stop-color="#dfe6ef"/>
      <stop offset="1" stop-color="#f6f7fb"/>
    </linearGradient>
  </defs>
  <g id="_404" data-name="404" transform="translate(3826 8580.145)">
    <g id="Group_461" data-name="Group 461" transform="translate(-3532.014 -8580.142)">
      <g id="Group_460" data-name="Group 460" clip-path="url(#clip-path)">
        <path id="Path_834" data-name="Path 834" d="M330.93,87.493C153.056-63.074-85.947,182.643,31,369.887,155.51,569.256,267.5,452.36,147.394,713.66,61.263,901.1,61.363,1036.589,245.8,1098.469,442.814,1164.608,419.766,962.884,647.995,948.8c201.875-12.426,186.492,113.79,373.435,160.638,203.127,50.857,366.62-225.173,208.889-373.235C1071.836,587.394,949.83,633.592,1151.2,278.495,1252.866,99.268,1006.7-27.9,882.289,5.27,622.842,74.365,637.423,346.939,330.93,87.493" fill="#ffe8f0" fill-rule="evenodd"/>
      </g>
    </g>
    <g id="Group_459" data-name="Group 459" transform="translate(-3826 -8406)">
      <g id="Group_422" data-name="Group 422">
        <g id="Group_421" data-name="Group 421" clip-path="url(#clip-path-2)">
          <path id="Path_756" data-name="Path 756" d="M1084.518,238.41c-.251,33.17-6.364,65.688-26.406,93a120.12,120.12,0,0,1-34.823,31.667l-2.756,1.6L991.021,376.05a117.857,117.857,0,0,0,37.579-33.27c19.942-27.107,26.255-59.926,26.406-92.945V153.382c-.151-44.644-12.076-86.582-48.151-115.493-27.057-21.7-61.229-28.611-95.251-25.9a141.858,141.858,0,0,0-22.547,3.558L918.569,4.118c3.908-1.2,14.831-2.806,19.241-3.257,32.468-3.257,66.339,2.455,93.3,21.695,36.176,25.755,51.157,65.589,53.161,108.679l.251,10.723ZM915.162,83.685l29.462-11.424c-17.186,5.161-24.351,22.247-27.308,38.581a142.49,142.49,0,0,0-2,25.3V243.621c.051,22.648,3.959,58.323,30.815,64.737a36.765,36.765,0,0,0,23.6-2.105l-29.512,11.424a34.2,34.2,0,0,1-15.834,3.107c-32.668-.9-38.38-38.632-38.581-64.235V147.569c.05-22.447,3.808-56.268,29.362-63.884" fill="#6d1845" fill-rule="evenodd"/>
          <path id="Path_757" data-name="Path 757" d="M727.067,238.311l29.512-11.424h36.677l-29.512,11.424Z" fill="#6d1845" fill-rule="evenodd"/>
          <path id="Path_758" data-name="Path 758" d="M727.067,309.761l29.512-11.424v76.711l-29.512,11.374Zm0-293.116L756.579,5.271V226.887l-29.512,11.424ZM642.339,147.069,671.8,135.645l-60.277,91.242-29.462,11.424Zm121.405,91.242,29.512-11.424v71.45l-29.512,11.424Z" fill="#6d1845" fill-rule="evenodd"/>
          <path id="Path_759" data-name="Path 759" d="M643.692,16.644,673.154,5.271h83.425L727.067,16.644Z" fill="#6d1845" fill-rule="evenodd"/>
          <path id="Path_760" data-name="Path 760" d="M1322.618,238.311l29.512-11.424h36.677l-29.512,11.424Z" fill="#6d1845" fill-rule="evenodd"/>
          <path id="Path_761" data-name="Path 761" d="M1239.193,16.644,1268.7,5.271h83.425l-29.512,11.374Z" fill="#6d1845" fill-rule="evenodd"/>
          <path id="Path_762" data-name="Path 762" d="M582.062,238.311l29.462-11.424H671.8l-29.462,11.424Z" fill="#6d1845" fill-rule="evenodd"/>
          <path id="Path_763" data-name="Path 763" d="M1177.563,238.311l29.512-11.424h60.277l-29.512,11.424Z" fill="#6d1845" fill-rule="evenodd"/>
          <path id="Path_764" data-name="Path 764" d="M1237.84,147.068l29.512-11.424-60.277,91.242-29.512,11.424Zm84.778,162.693,29.512-11.425v76.712l-29.512,11.374ZM1359.3,238.31l29.512-11.424v71.45L1359.3,309.761ZM1322.618,16.644,1352.13,5.271V226.886l-29.512,11.424Z" fill="#6d1845" fill-rule="evenodd"/>
        </g>
      </g>
      <g id="Group_424" data-name="Group 424">
        <g id="Group_423" data-name="Group 423" clip-path="url(#clip-path-3)">
          <rect id="Rectangle_207" data-name="Rectangle 207" width="866.621" height="380.299" transform="translate(492.674 11.434)" fill="#8f235c"/>
        </g>
      </g>
      <g id="Group_426" data-name="Group 426">
        <g id="Group_425" data-name="Group 425" clip-path="url(#clip-path-4)">
          <rect id="Rectangle_208" data-name="Rectangle 208" width="754.472" height="932.496" transform="matrix(0.5, -0.866, 0.866, 0.5, 333.559, 295.155)" fill="url(#linear-gradient)"/>
        </g>
      </g>
      <g id="Group_428" data-name="Group 428">
        <g id="Group_427" data-name="Group 427" clip-path="url(#clip-path-2)">
          <path id="Path_767" data-name="Path 767" d="M785.991,730.646c77.713,0,140.746,8.217,140.746,18.339S863.7,767.323,785.991,767.323c-77.763,0-140.8-8.217-140.8-18.338s63.033-18.339,140.8-18.339" fill="#f9edf2" fill-rule="evenodd"/>
          <path id="Path_768" data-name="Path 768" d="M691.492,713.41s-7.115,15.332-5.562,19.391c.6,1.553.2,11.324.1,15.633-.05,1.854,1.6,1.052,1.9,1.4.9.952,2.907-10.272,2.907-10.272s6.062-6.013,14.079,15.182c7.065,4.76,25.855,4.309,32.218,1.9,1.353-1.954,1.553-8.869-3.007-9.069-4.208-.2-13.628-1.8-14.831-12.527a37.108,37.108,0,0,0-8.568-15.181s-5.11-4.309-7.365-2.706c-2.255,1.653-11.875-3.758-11.875-3.758" fill="#131417" fill-rule="evenodd"/>
          <path id="Path_769" data-name="Path 769" d="M783.185,511.185,767.953,622.769c-9.019,22-40.335,59.075-57.822,96.3-9.469.6-19.44-1.854-23.148-4.76,23.549-32.669,30.013-81.121,51.508-95.852,7.616-28.359-24.6-99.459-3.407-117.1Z" fill="#343c47" fill-rule="evenodd"/>
          <path id="Path_770" data-name="Path 770" d="M797.966,724.032s3.107,19.491,6.714,21.846c1.453.9,4.459,9.019,6.915,12.576,1.052,1.5,2.254.4,2.705.451,1.253.251-1.653-10.472-1.653-10.472s.852-7.566,19.541,7.666c8.818,3.808,28.159,1.1,30.614-9.269,0,0-.1-4.109-5.812-6.915a34.121,34.121,0,0,1-25.854-11.824s-3.909-5.111-13.98-7.266c0,0-5.661-1.8-6.564.8-.851,2.655-12.626,2.4-12.626,2.4" fill="#131417" fill-rule="evenodd"/>
          <path id="Path_771" data-name="Path 771" d="M820.764,721.978s-28.159,6.815-26.756,1.854c7.866-28.109-19.692-71.3-9.821-105.572,3.107-10.923-15.933-43.241-30.163-65.087-8.769-13.428-17.888-28.059-7.466-51.107l47.55,11.975c11.374,20.443,19.09,73.454,17.988,103.417-.551,14.681,2.3,68.795,8.668,104.52" fill-rule="evenodd" fill="url(#linear-gradient-6)"/>
          <path id="Path_772" data-name="Path 772" d="M736.336,371.791c-3.307-1.153-5.061.2-11.574,9.871-5.963,8.868-16.235,24.752-2.806,62.782,22.848,64.585,2.1,41.287,4.459,69.947.4,5.111,4.159,9.019,7.767,11.925,0,0,50.806,5.511,63.834-13.729,1.753-5.061-3.307-17.036-7.566-22.6-11.174-14.48-9.32-26-9.069-46.9.05-4.86,16.785-18.138,7.165-31.767-6.414-9.169-15.433-15.733-23.9-24.451a20.209,20.209,0,0,0-4.259-2.957c-6.364-2.555-16.485-9.77-24.051-12.125" fill="#dae2ec" fill-rule="evenodd"/>
          <path id="Path_773" data-name="Path 773" d="M781.231,450.357a54.688,54.688,0,0,0-3.057-9.169c-1.854-4.46-12.075-5.512-14.481-9.721-1.052-1.854-2.154-3.758-3.357-5.562-3.307-9.069-8.167-20.192-14.88-27.207-3.859-4.058-9.17-7.515-14.881-5.812-7.517,2.255-7.416,10.823-8.067,17.988,1.552,35.725,95.7,64.235,15.031,96a96.61,96.61,0,0,0,31.817-5.762c-13.478,10.873-25.353,16.535-41.637,17.837a23.488,23.488,0,0,0,6.463,7.366c13.078,3.056,57.821.551,63.834-13.729,1.252-6.664-2.956-15.783-6.815-21.5-10.321-13.078-10.321-23.45-9.97-40.736" fill="#c5d2e1" fill-rule="evenodd"/>
          <path id="Path_774" data-name="Path 774" d="M792.354,461.33a4.515,4.515,0,1,1,1.052,8.969c-93.747,10.873-128.169,72.552-161.99,133.13-58.573,104.97-115.443,206.785-456.76,54.915-22.447-9.971-60.377-16.384-96.5-10.422-26.856,4.46-52.66,15.784-70.147,37.629A4.491,4.491,0,0,1,.991,679.94c19.04-23.851,46.849-36.126,75.709-40.886,37.93-6.313,77.864.5,101.614,11.073,333.8,148.512,388.667,50.2,445.235-51.057,34.924-62.632,70.5-126.366,168.8-137.74" fill="#282f39"/>
          <path id="Path_775" data-name="Path 775" d="M951.889,397.546l-73.054,17.437a1.313,1.313,0,0,0-1,1.553l1.4,5.862a1.391,1.391,0,0,0,1.6,1l73.1-17.436a1.358,1.358,0,0,0,.952-1.6l-1.4-5.862a1.294,1.294,0,0,0-1.6-.952" fill="#1f232b" fill-rule="evenodd"/>
          <path id="Path_776" data-name="Path 776" d="M964.215,449.1l-73.1,17.437a1.358,1.358,0,0,0-.952,1.6l1.4,5.862a1.245,1.245,0,0,0,1.554.952l73.1-17.386a1.391,1.391,0,0,0,1-1.6l-1.4-5.862a1.392,1.392,0,0,0-1.6-1" fill="#1f232b" fill-rule="evenodd"/>
        </g>
      </g>
      <g id="Group_430" data-name="Group 430">
        <g id="Group_429" data-name="Group 429" clip-path="url(#clip-path-6)">
          <rect id="Rectangle_210" data-name="Rectangle 210" width="159.689" height="130.932" transform="matrix(0.5, -0.866, 0.866, 0.5, 796.173, 480.031)" fill="url(#linear-gradient-7)"/>
        </g>
      </g>
      <g id="Group_432" data-name="Group 432">
        <g id="Group_431" data-name="Group 431" clip-path="url(#clip-path-7)">
          <rect id="Rectangle_211" data-name="Rectangle 211" width="167.193" height="177.151" transform="translate(717.91 404.046) rotate(-21.253)" fill="url(#linear-gradient-8)"/>
        </g>
      </g>
      <g id="Group_434" data-name="Group 434">
        <g id="Group_433" data-name="Group 433" clip-path="url(#clip-path-8)">
          <rect id="Rectangle_212" data-name="Rectangle 212" width="54.519" height="53.968" transform="translate(709.16 378.538) rotate(-47.042)" fill="url(#linear-gradient-9)"/>
        </g>
      </g>
      <g id="Group_436" data-name="Group 436">
        <g id="Group_435" data-name="Group 435" clip-path="url(#clip-path-9)">
          <rect id="Rectangle_213" data-name="Rectangle 213" width="85.607" height="88.172" transform="translate(691.865 335.143) rotate(-34.778)" fill="url(#linear-gradient-2)"/>
        </g>
      </g>
      <g id="Group_438" data-name="Group 438">
        <g id="Group_437" data-name="Group 437" clip-path="url(#clip-path-2)">
          <path id="Path_781" data-name="Path 781" d="M759.134,374.3c-.651,1.7-1.8,10.271.6,10.322,4.009.05,6.514,2.254,6.063,5.01-.4,2.455,1.754,4.76,3.608,6.063,9.269,6.614-1.954,11.073,5.812,12.175,5.812.8,4.66,12.427,12.175,1.353,5.412-8.016-12.376-23.649-2.555-35.374,5.662-6.764-3.457-13.027-2.355-25.4.6-7.165,4.86-3.708,4.359-13.429-.751-15.933-6.313-21.044-11.724-25-11.976-10.522-31.667-9.32-40.586-2.656-3.156,2.4-4.76,1.8-7.966,3.808-5.863,3.608-11.324,14.13-6.765,23.55,2.606,5.311-2.856,8.868-2.254,12.877.7,4.509,4.559,3.908,1,10.021-1.654,2.856,1.1,5.01,1.1,8.267-.05,7.065-10.522,5.562-7.065,13.228,4.109,9.27-5.311,5.311-2.1,12.025,1.7,3.558-.251,5.612-2.956,7.516-3.809,2.656,2.705,5.913.2,9.27-3.808,5.01,5.812,1.252-.251,10.622-4.709,7.265,8.268,5.562,5.562,11.174-1.252,2.555,1.854,11.524,4.66,5.01,4.96-11.524,3.507-2.856,5.762-3.758,7.816-3.006-.5-10.171,2.605-14.43,3.758-5.111-3.407-8.318.3-11.174,10.623-8.067-2.3-15.482,8.067-18.589,6.414-1.9,14.481-2.305,5.462-13.729-5.712-7.315,2.054-7.916-2.2-17.988-1.7.5-3.758-2-4.91-4.208-6.865-9.52-.1-18.79,4.459-9.671,3.307,6.464,12.677-5.511,10.572-13.528,6.163,10.121,29.161.551,29.663,12.226.651.1,1.052-2.857,1.252-5.061-.1,3.808-1.052,7.015-1.7,10.221-.1.552-.552,1.6,1.5,9.12.9,3.206,2.154,4.559,1.6,5.611-.5.9-5.562.1-6.012,1.1-2.406,4.96-2.706,8.468-4.41,13.278-1.5,4.309-9.72-1.052-10.572.15" fill="#3e4651" fill-rule="evenodd"/>
        </g>
      </g>
      <g id="Group_440" data-name="Group 440">
        <g id="Group_439" data-name="Group 439" clip-path="url(#clip-path-11)">
          <rect id="Rectangle_215" data-name="Rectangle 215" width="120.152" height="59.876" transform="translate(733.781 436.578)" fill="url(#linear-gradient-11)"/>
        </g>
      </g>
      <g id="Group_442" data-name="Group 442">
        <g id="Group_441" data-name="Group 441" clip-path="url(#clip-path-2)">
          <path id="Path_783" data-name="Path 783" d="M759.034,428.611l2.054,20.543c-7.766,3.107-17.085,4.259-25.4,4.059l-5.963-24.051c-9.269-41.287,30.915-65.037,29.312-.551" fill-rule="evenodd" fill="url(#linear-gradient-12)"/>
          <path id="Path_784" data-name="Path 784" d="M947.48,514.742l-24.451,55.867,17.737-.35-10.222,47.85,27.608-57.871-19.039-.351Z" fill="#5e153f" fill-rule="evenodd"/>
          <path id="Path_785" data-name="Path 785" d="M1174.607,728.091c-66.991,0-121.255,8.768-121.255,19.591,0,10.873,54.264,19.641,121.255,19.641s121.3-8.768,121.3-19.641c0-10.823-54.314-19.591-121.3-19.591" fill="#f9edf2" fill-rule="evenodd"/>
          <path id="Path_786" data-name="Path 786" d="M1145.2,705.944l1.5,16.485,21.746,1.653,1.353-19.791Z" fill="#3c4550" fill-rule="evenodd"/>
          <path id="Path_787" data-name="Path 787" d="M1168.594,718.621c2.856,1.153.7,25-6.464,28.159-11.875,5.111-9.57-7.015-34.272,6.865,0,0-10.923,6.163-23,.9,0,0-9.42-2.556-10.171-11.675,0,0,.451-4.71,7.215-7.466,0,0,15.783-1.3,27.207-12.175,0,0,4.259-8.468,11.073-9.47,0,0,10.222-.2,10.071,2.956-.551,9.47,18.289,5.111,18.339,1.9" fill="#131417" fill-rule="evenodd"/>
          <path id="Path_788" data-name="Path 788" d="M1241.247,702.086l3.407,15.332,20.694-1.152-1.153-18.84Z" fill="#38404b" fill-rule="evenodd"/>
        </g>
      </g>
      <g id="Group_444" data-name="Group 444">
        <g id="Group_443" data-name="Group 443" clip-path="url(#clip-path-13)">
          <rect id="Rectangle_217" data-name="Rectangle 217" width="131.162" height="227.945" transform="matrix(0.969, -0.248, 0.248, 0.969, 1133.149, 506.689)" fill="url(#linear-gradient-3)"/>
        </g>
      </g>
      <g id="Group_446" data-name="Group 446">
        <g id="Group_445" data-name="Group 445" clip-path="url(#clip-path-14)">
          <rect id="Rectangle_218" data-name="Rectangle 218" width="209.196" height="240.735" transform="translate(1005.32 541.325) rotate(-34.778)" fill="url(#linear-gradient-4)"/>
        </g>
      </g>
      <g id="Group_448" data-name="Group 448">
        <g id="Group_447" data-name="Group 447" clip-path="url(#clip-path-2)">
          <path id="Path_791" data-name="Path 791" d="M1265.5,712.358c2.656.8,2.806,22.447-3.407,25.854-10.222,5.612-9.17-5.461-30.214,9.12,0,0-9.269,6.463-20.543,2.805,0,0-8.718-1.5-10.171-9.62,0,0,0-4.259,5.812-7.315,0,0,14.08-2.555,23.449-13.328,0,0,3.107-7.967,9.12-9.42,0,0,9.169-1.1,9.319,1.754.3,8.568,16.836,3.056,16.635.15" fill="#131417" fill-rule="evenodd"/>
          <path id="Path_792" data-name="Path 792" d="M1223.309,371.992c4.56-3.708,7.566-5.912,13.529-4.109,7.866,2.456,8.968,12.727,9.57,20.243,3.407,41.187-85.38,85.48-10.472,99.008a100.98,100.98,0,0,1-33.27-6.363c14.179,11.674,26.656,17.737,44.042,19.14l-4.309,4.059-.1.05c-2.355,1.152-40.736,18.739-65.087-3.909-1.7-5.06.351-13.578,4.66-19.09,3.958-5.01,5.912-11.975,6.764-19.791a7.067,7.067,0,0,0,.5-1.6c38.882-6.062,23.4-78.816,34.172-87.634" fill="#e3e8f0" fill-rule="evenodd"/>
          <path id="Path_793" data-name="Path 793" d="M1236.788,348.492c3.307-1.1,6.213-.251,12.627,9.47,6.363,9.67,19.39,34.973-.251,80.519-6.363,19.892,2.505,38.581,1.1,53.713-.451,5.061-4.208,8.919-7.816,11.775,0,0-40.084,19.491-65.237-3.858-1.7-5.061.351-13.579,4.66-19.09,11.223-14.33,6.413-44.594,5.461-65.338-.451-10.171,3.357-35.825,19.541-53.512a20.582,20.582,0,0,1,4.259-2.906c6.313-2.455,18.088-8.518,25.654-10.773" fill="#f2f4f9" fill-rule="evenodd"/>
          <path id="Path_794" data-name="Path 794" d="M1179.217,456.369a4.522,4.522,0,0,1,1.5-8.919c138.541,24.1,187.244,101.714,231.487,172.112,52.159,82.975,97.855,155.728,284.3,113.339,21.9-5.011,34.973-13.479,45.7-20.394,20.694-13.378,33.57-21.745,76.611,3.357,10.322,6.013,25.8-2.3,38.13-8.918,8.167-4.309,15.082-8.067,20.393-7.566a4.5,4.5,0,0,1-.8,8.969c-2.6-.251-8.468,2.906-15.332,6.564-14.33,7.666-32.268,17.286-46.9,8.768-38.28-22.347-49.4-15.132-67.191-3.658-11.324,7.366-25.153,16.335-48.6,21.646-192.655,43.842-240-31.466-293.918-117.3-43.24-68.794-90.84-144.6-225.373-168" fill="#282f39"/>
        </g>
      </g>
      <g id="Group_450" data-name="Group 450">
        <g id="Group_449" data-name="Group 449" clip-path="url(#clip-path-16)">
          <rect id="Rectangle_220" data-name="Rectangle 220" width="73.053" height="156.593" transform="translate(1050.697 348.228)" fill="url(#linear-gradient-15)"/>
        </g>
      </g>
      <g id="Group_452" data-name="Group 452">
        <g id="Group_451" data-name="Group 451" clip-path="url(#clip-path-17)">
          <rect id="Rectangle_221" data-name="Rectangle 221" width="134.131" height="152.721" transform="translate(1089.679 364.175)" fill="url(#linear-gradient-16)"/>
        </g>
      </g>
      <g id="Group_454" data-name="Group 454">
        <g id="Group_453" data-name="Group 453" clip-path="url(#clip-path-18)">
          <rect id="Rectangle_222" data-name="Rectangle 222" width="36.075" height="45.646" transform="translate(1203.932 326.955)" fill="url(#linear-gradient-17)"/>
        </g>
      </g>
      <g id="Group_456" data-name="Group 456">
        <g id="Group_455" data-name="Group 455" clip-path="url(#clip-path-19)">
          <rect id="Rectangle_223" data-name="Rectangle 223" width="123.961" height="58.924" transform="translate(1113.679 414.431)" fill="url(#linear-gradient-18)"/>
        </g>
      </g>
      <g id="Group_458" data-name="Group 458">
        <g id="Group_457" data-name="Group 457" clip-path="url(#clip-path-2)">
          <path id="Path_799" data-name="Path 799" d="M1212.186,406.264l-2.706,20.944c7.867,3.357,17.337,4.81,25.855,4.81l6.764-24.4c10.672-41.838-29.713-67.191-29.913-1.353" fill-rule="evenodd" fill="url(#linear-gradient-19)"/>
          <path id="Path_800" data-name="Path 800" d="M1195.6,316.375c-.4,4.409-6.965,11.775-7.115,13.278-.15,1.4,7.165,1.553,7.315,2.656.952,5.561,2.907,8.267,3.508,18.438.351,5.562,22.247-2.755,26.455-5.812,5.211-3.257,7.015-6.514,8.318-10.522.2-.651.351-5.311,1.6-5.862,14.13-6.414,12.176-17.738,10.472-23.55,0,0-2.405-20.092-19.741-22.347,0,0-27.107-1.4-31.617,8.017-7.666,8.318-.7,17.787.8,25.7" fill="#fdd29d" fill-rule="evenodd"/>
          <path id="Path_801" data-name="Path 801" d="M1196.353,304.851s6.263,7.466,15.182-1.9c0,0,4.61,5.662,11.774-1.052-.851,2.054,3.057,9.319,8.118,9.62,0,0,1.7,7.516,2.154,9.37l1.1.1,1.3-8.769c.2-1.6,7.516-2.505,6.714,3.257,0,0-1.854,7.867-4.659,11.274a2.54,2.54,0,0,1-3.708.4c.551,2.455,2.154,12.226.451,14.029,0,0,6.012-2.555,6.914-6.714.6.552,6.263-1.152,6.113-5.962.8.05,4.209-3.908,1.4-6.213,0,0,4.56-2.1,4.91-6.815,0,0,1.7-7.816-3.307-8.117.552.1,6.564-7.866-1-12.977,2.606-3.357-2-12.226-9.67-8.568,1.653-3.157-5.562-9.269-9.019-5.211.751-6.063-11.274-8.217-14.23-3.157-2-3.407-15.432-4.058-16.384,5.261-.6-4.81-15.633-3.858-15.132,3.658-4.86-2-14.08,9.921-1.353,13.829-1.8,5.211,7.917,9.721,12.326,4.66" fill="#282f39" fill-rule="evenodd"/>
          <path id="Path_802" data-name="Path 802" d="M1194.2,332.809a4.306,4.306,0,0,1,2.2-.3c-.2-.45,4.559-4.409,7.916.151,2.505-5.011,9.821-3.257,10.071-1.253,2.1-3.357,8.819-2.154,9.37.251,7.015-.351,10.222-5.963,9.921-9.52l1.1.05c.251,5.511.6,8.718.6,8.718,4.459,4.109-1.3,7.566-2.055,6.413,4.359,6.414-3.557,10.172-5.862,9.02-1.1,6.664-7.215,5.01-7.215,5.01-2.856,4.159-6.564,4.91-9.57,4.259-.752,3.658-9.27,4.359-9.17-.751-4.108-.752-5.511-5.262-3.557-7.516-2.555-1.3-2.555-4.41-1.654-6.815,2.756-.1,6.664.4,9.571-3.106-4.41.451-6.865,1.8-10.272.4-1.6-1.153-1.453-3.257-1.4-5.011" fill="#282f39" fill-rule="evenodd"/>
          <path id="Path_803" data-name="Path 803" d="M1039.373,492.9l24.451,55.867-17.737-.3,10.171,47.851L1028.7,538.392l19.04-.3Z" fill="#5e153f" fill-rule="evenodd"/>
          <path id="Path_804" data-name="Path 804" d="M1413.158,459.325a62.747,62.747,0,0,1,9.62-9.67l-6.213-12.927a2.169,2.169,0,0,1,.852-2.806l11.725-6.765a2.143,2.143,0,0,1,2.806.652l8.167,11.875a63.538,63.538,0,0,1,13.127-3.508l1.1-14.33a2.1,2.1,0,0,1,2.1-2h13.528a2.09,2.09,0,0,1,2.1,1.954l1.152,14.38a61.9,61.9,0,0,1,13.128,3.508l8.117-11.875a2.131,2.131,0,0,1,2.806-.652l11.724,6.765a2.122,2.122,0,0,1,.852,2.755L1503.7,449.7a62,62,0,0,1,9.57,9.62l12.978-6.263a2.128,2.128,0,0,1,2.756.9l6.764,11.674a2.143,2.143,0,0,1-.652,2.856l-11.825,8.167a68.51,68.51,0,0,1,3.508,13.128l14.33,1.052a2.137,2.137,0,0,1,1.954,2.155v13.528a2.126,2.126,0,0,1-1.954,2.105l-14.33,1.152a63.668,63.668,0,0,1-3.558,13.128l11.875,8.067a2.143,2.143,0,0,1,.652,2.856L1529,545.556a2.159,2.159,0,0,1-2.756.852l-12.978-6.213a63.994,63.994,0,0,1-9.57,9.57l6.163,12.978a2.168,2.168,0,0,1-.852,2.8l-11.724,6.765a2.131,2.131,0,0,1-2.806-.652l-8.117-11.875a65.921,65.921,0,0,1-13.128,3.508l-1.152,14.38a2.09,2.09,0,0,1-2.1,1.954h-13.528a2.133,2.133,0,0,1-2.1-2l-1.1-14.28a62.83,62.83,0,0,1-13.127-3.558l-8.167,11.875a2.143,2.143,0,0,1-2.806.652l-11.725-6.765a2.183,2.183,0,0,1-.852-2.8l6.213-12.928a64.674,64.674,0,0,1-9.62-9.62l-12.977,6.213a2.159,2.159,0,0,1-2.756-.852l-6.764-11.724a2.142,2.142,0,0,1,.651-2.856l11.875-8.067a66.971,66.971,0,0,1-3.557-13.128l-14.33-1.152a2.125,2.125,0,0,1-1.954-2.105V493a2.136,2.136,0,0,1,1.954-2.155l14.33-1.052a65.051,65.051,0,0,1,3.507-13.128l-11.825-8.167a2.142,2.142,0,0,1-.651-2.856l6.764-11.674a2.128,2.128,0,0,1,2.756-.9Zm26.1,26.606a27.622,27.622,0,1,0,37.779-10.121,27.654,27.654,0,0,0-37.779,10.121" fill="#4f1436" fill-rule="evenodd"/>
          <path id="Path_805" data-name="Path 805" d="M1472.633,436.628a67.063,67.063,0,0,1,13.93,3.707l8.367-12.225a1.617,1.617,0,0,1,2.1-.451l11.675,6.764a1.555,1.555,0,0,1,.651,2.054L1503,449.856a64.776,64.776,0,0,1,10.121,10.171l13.378-6.464a1.558,1.558,0,0,1,2,.652l6.766,11.724a1.541,1.541,0,0,1-.453,2.105l-12.224,8.367a61.706,61.706,0,0,1,3.706,13.879l14.781,1.1a1.59,1.59,0,0,1,1.454,1.6v13.529a1.579,1.579,0,0,1-1.454,1.553L1526.3,509.23a61.692,61.692,0,0,1-3.706,13.879l12.224,8.318a1.54,1.54,0,0,1,.453,2.1l-6.766,11.725a1.543,1.543,0,0,1-2,.651l-13.428-6.413a62.7,62.7,0,0,1-10.122,10.171l6.414,13.328a1.556,1.556,0,0,1-.651,2.055l-11.675,6.764a1.618,1.618,0,0,1-2.1-.451l-8.418-12.226a66.52,66.52,0,0,1-13.879,3.708l-1.1,14.781a1.579,1.579,0,0,1-1.554,1.453h-13.528a1.544,1.544,0,0,1-1.554-1.453l-1.2-14.781a65.613,65.613,0,0,1-13.779-3.708l-8.418,12.226a1.618,1.618,0,0,1-2.1.451l-11.725-6.764a1.586,1.586,0,0,1-.6-2.055l6.414-13.328a62.661,62.661,0,0,1-10.122-10.171l-13.428,6.413a1.62,1.62,0,0,1-2.054-.651l-6.764-11.725a1.6,1.6,0,0,1,.5-2.1l12.226-8.318a61.588,61.588,0,0,1-3.709-13.879l-14.781-1.152a1.542,1.542,0,0,1-1.453-1.553V493a1.554,1.554,0,0,1,1.453-1.6l14.781-1.1a64.326,64.326,0,0,1,3.658-13.879l-12.175-8.367a1.6,1.6,0,0,1-.5-2.105l6.764-11.724a1.619,1.619,0,0,1,2.054-.652l13.378,6.464a62.661,62.661,0,0,1,10.121-10.171l-6.363-13.379a1.585,1.585,0,0,1,.6-2.054l11.725-6.764a1.617,1.617,0,0,1,2.1.451l8.318,12.276a64.432,64.432,0,0,1,13.879-3.758l1.2-14.781a1.545,1.545,0,0,1,1.554-1.454h13.528a1.58,1.58,0,0,1,1.554,1.454Zm-9.419,34.923a28.185,28.185,0,1,1-28.16,28.159,28.184,28.184,0,0,1,28.16-28.159" fill="#8e235c" fill-rule="evenodd"/>
          <path id="Path_806" data-name="Path 806" d="M1425.133,478.716a44.029,44.029,0,1,1-4.359,33.32,43.8,43.8,0,0,1,4.359-33.32m29.513-10.071a33.113,33.113,0,1,0,25.152,3.307,32.9,32.9,0,0,0-25.152-3.307" fill="#c53469" fill-rule="evenodd"/>
          <path id="Path_807" data-name="Path 807" d="M1463.214,456.419a43.366,43.366,0,1,1-30.615,12.727,43,43,0,0,1,30.615-12.727m23.9,19.391a33.81,33.81,0,1,0,9.921,23.9,33.747,33.747,0,0,0-9.921-23.9" fill="#ef5488"/>
          <path id="Path_808" data-name="Path 808" d="M1490.37,499.71a27.157,27.157,0,1,0-27.157,27.208,27.179,27.179,0,0,0,27.157-27.208m-51.558-14.079a28.185,28.185,0,1,1,10.322,38.481,28.118,28.118,0,0,1-10.322-38.481" fill="#ef8fb4" fill-rule="evenodd"/>
          <path id="Path_809" data-name="Path 809" d="M1563.775,405.111a36.373,36.373,0,0,1,4.81-4.809l-3.107-6.364a1.078,1.078,0,0,1,.451-1.4l5.763-3.307a1.028,1.028,0,0,1,1.4.3l4.059,5.862a31.593,31.593,0,0,1,6.463-1.754l.552-7.065a1.048,1.048,0,0,1,1.052-1h6.664a1.084,1.084,0,0,1,1.052,1l.551,7.065a32.958,32.958,0,0,1,6.514,1.754l4.008-5.862a.98.98,0,0,1,1.353-.3l5.812,3.307a1.109,1.109,0,0,1,.4,1.4l-3.056,6.414a30.568,30.568,0,0,1,4.76,4.759l6.413-3.106a1,1,0,0,1,1.353.451l3.357,5.762a1.078,1.078,0,0,1-.3,1.4l-5.863,4.009a32.792,32.792,0,0,1,1.7,6.513l7.115.551a1.008,1.008,0,0,1,.952,1.053v6.664a1.041,1.041,0,0,1-.952,1.052l-7.115.551a29.863,29.863,0,0,1-1.754,6.514l5.913,3.958a1.1,1.1,0,0,1,.3,1.4l-3.357,5.812a1.032,1.032,0,0,1-1.353.4l-6.413-3.056a30.572,30.572,0,0,1-4.76,4.76l3.056,6.413a1.031,1.031,0,0,1-.4,1.353l-5.812,3.357a1.043,1.043,0,0,1-1.353-.351L1600,454.716a32.958,32.958,0,0,1-6.514,1.754l-.551,7.114a1.04,1.04,0,0,1-1.052.952h-6.664a1.043,1.043,0,0,1-1.052-.952l-.552-7.114a32.814,32.814,0,0,1-6.513-1.7l-4.009,5.862a1.078,1.078,0,0,1-1.4.3l-5.763-3.357a1,1,0,0,1-.451-1.353l3.107-6.413a30.572,30.572,0,0,1-4.76-4.76l-6.414,3.056a1.11,1.11,0,0,1-1.4-.4l-3.306-5.812a1.048,1.048,0,0,1,.3-1.4l5.862-3.958a32.979,32.979,0,0,1-1.753-6.514l-7.065-.551a1.041,1.041,0,0,1-.952-1.052v-6.664a1.008,1.008,0,0,1,.952-1.053l7.065-.551a32.932,32.932,0,0,1,1.753-6.513L1553,409.621a1.028,1.028,0,0,1-.3-1.4l3.306-5.762a1.078,1.078,0,0,1,1.4-.451Zm12.927,13.128a13.648,13.648,0,1,0,18.639-5.01,13.67,13.67,0,0,0-18.639,5.01" fill="#561a3c" fill-rule="evenodd"/>
          <path id="Path_810" data-name="Path 810" d="M1593.187,393.888a29.342,29.342,0,0,1,6.914,1.854l4.109-6.063a.8.8,0,0,1,1.052-.251l5.762,3.357a.747.747,0,0,1,.3,1l-3.107,6.613a33.868,33.868,0,0,1,5.011,5.011l6.564-3.157a.779.779,0,0,1,1,.3l3.357,5.812a.766.766,0,0,1-.2,1l-6.063,4.159a35.686,35.686,0,0,1,1.854,6.865l7.265.551a.817.817,0,0,1,.752.8v6.664a.771.771,0,0,1-.752.752l-7.316.6a31.467,31.467,0,0,1-1.8,6.865l6.012,4.108a.8.8,0,0,1,.251,1.052l-3.357,5.763a.733.733,0,0,1-1,.3l-6.614-3.156a29.618,29.618,0,0,1-5.011,5.01l3.157,6.614a.733.733,0,0,1-.3,1l-5.762,3.357a.8.8,0,0,1-1.052-.25l-4.159-6.013a30.717,30.717,0,0,1-6.864,1.8l-.551,7.315a.771.771,0,0,1-.752.752h-6.664a.818.818,0,0,1-.8-.752l-.6-7.315a31.766,31.766,0,0,1-6.814-1.8l-4.109,6.013a.8.8,0,0,1-1.052.25l-5.812-3.357a.779.779,0,0,1-.3-1l3.157-6.614a33.811,33.811,0,0,1-5.011-5.01l-6.614,3.156a.746.746,0,0,1-1-.3l-3.357-5.763a.8.8,0,0,1,.251-1.052l6.062-4.108a31.619,31.619,0,0,1-1.854-6.865l-7.315-.6a.728.728,0,0,1-.7-.752v-6.664a.774.774,0,0,1,.7-.8l7.315-.551a32.231,32.231,0,0,1,1.8-6.865l-6.012-4.159a.73.73,0,0,1-.251-1l3.357-5.812a.8.8,0,0,1,1-.3l6.614,3.157a33.868,33.868,0,0,1,5.011-5.011l-3.157-6.613a.8.8,0,0,1,.3-1l5.812-3.357a.73.73,0,0,1,1,.251l4.159,6.063a31.1,31.1,0,0,1,6.814-1.854l.6-7.316a.776.776,0,0,1,.8-.7h6.664a.728.728,0,0,1,.752.7Zm-4.66,17.236a13.93,13.93,0,1,1-13.929,13.929,13.931,13.931,0,0,1,13.929-13.929" fill="#8e235c" fill-rule="evenodd"/>
          <path id="Path_811" data-name="Path 811" d="M1569.737,414.681a21.718,21.718,0,1,1,24.4,31.817,21.709,21.709,0,0,1-24.4-31.817m14.581-5.01a16.514,16.514,0,0,0-9.971,7.666,16.36,16.36,0,0,0,6.013,22.4,16.359,16.359,0,0,0,22.4-6.012,16.478,16.478,0,0,0-6.013-22.4,16.582,16.582,0,0,0-12.426-1.653" fill="#ef5488" fill-rule="evenodd"/>
          <path id="Path_812" data-name="Path 812" d="M1588.527,403.659a21.383,21.383,0,1,1-15.132,6.263,21.36,21.36,0,0,1,15.132-6.263m11.825,9.569a16.723,16.723,0,1,0-11.825,28.561,16.724,16.724,0,0,0,11.825-28.561" fill="#ef5488"/>
          <path id="Path_813" data-name="Path 813" d="M1601.954,425.054a13.427,13.427,0,1,0-13.428,13.428,13.428,13.428,0,0,0,13.428-13.428m-25.452-6.965a13.918,13.918,0,1,1,5.06,19.04,13.853,13.853,0,0,1-5.06-19.04" fill="#ef8fb4" fill-rule="evenodd"/>
          <path id="Path_814" data-name="Path 814" d="M1484.909,316.726a24.464,24.464,0,0,1,2.556-2.555l-1.654-3.407a.642.642,0,0,1,.251-.752l3.106-1.8a.639.639,0,0,1,.752.2l2.155,3.156a16.885,16.885,0,0,1,3.457-.952l.3-3.808a.548.548,0,0,1,.551-.5h3.608a.516.516,0,0,1,.551.5l.3,3.808a17.334,17.334,0,0,1,3.507.952l2.1-3.156a.561.561,0,0,1,.751-.151l3.107,1.754a.643.643,0,0,1,.25.752l-1.653,3.457a17.164,17.164,0,0,1,2.555,2.505l3.407-1.6a.553.553,0,0,1,.752.2l1.8,3.107a.565.565,0,0,1-.2.751l-3.106,2.155a17.224,17.224,0,0,1,.9,3.506l3.808.252a.636.636,0,0,1,.551.551v3.607a.556.556,0,0,1-.551.551l-3.808.3a17.226,17.226,0,0,1-.9,3.508l3.106,2.154a.506.506,0,0,1,.2.7l-1.8,3.107a.53.53,0,0,1-.752.251l-3.407-1.654a15.442,15.442,0,0,1-2.555,2.556l1.653,3.457a.577.577,0,0,1-.25.7l-3.107,1.8a.62.62,0,0,1-.751-.15l-2.1-3.157a17.134,17.134,0,0,1-3.507.9l-.3,3.808a.555.555,0,0,1-.551.551h-3.608a.592.592,0,0,1-.551-.551l-.3-3.759a16.755,16.755,0,0,1-3.457-.951l-2.155,3.157a.621.621,0,0,1-.752.15l-3.106-1.8a.576.576,0,0,1-.251-.7l1.654-3.457a20.634,20.634,0,0,1-2.556-2.556l-3.407,1.654a.53.53,0,0,1-.752-.251l-1.8-3.107a.506.506,0,0,1,.2-.7l3.157-2.154a17.3,17.3,0,0,1-.952-3.508l-3.808-.3a.514.514,0,0,1-.5-.551v-3.607a.583.583,0,0,1,.5-.551l3.808-.252a19.952,19.952,0,0,1,.9-3.506l-3.107-2.155a.565.565,0,0,1-.2-.751l1.8-3.107a.554.554,0,0,1,.752-.2Zm6.965,7.064a7.318,7.318,0,1,0,9.971-2.655,7.311,7.311,0,0,0-9.971,2.655" fill="#8e235c" fill-rule="evenodd"/>
          <path id="Path_815" data-name="Path 815" d="M1500.692,310.763a15.5,15.5,0,0,1,3.708.952l2.2-3.207a.4.4,0,0,1,.551-.15l3.106,1.8a.4.4,0,0,1,.151.552l-1.7,3.507a17.267,17.267,0,0,1,2.706,2.706l3.557-1.7a.437.437,0,0,1,.551.2l1.754,3.057a.444.444,0,0,1-.1.551l-3.257,2.255a17.892,17.892,0,0,1,1,3.658l3.908.3a.431.431,0,0,1,.4.4v3.608a.431.431,0,0,1-.4.4l-3.908.35a17.91,17.91,0,0,1-1,3.658l3.257,2.2a.445.445,0,0,1,.1.552l-1.754,3.106a.415.415,0,0,1-.551.151l-3.557-1.654a19.432,19.432,0,0,1-2.706,2.656l1.7,3.557a.415.415,0,0,1-.151.551l-3.106,1.754a.356.356,0,0,1-.551-.1l-2.255-3.257a14.592,14.592,0,0,1-3.658,1l-.3,3.908a.43.43,0,0,1-.4.4h-3.608a.431.431,0,0,1-.4-.4l-.3-3.908a17.07,17.07,0,0,1-3.658-1l-2.255,3.257a.356.356,0,0,1-.551.1l-3.107-1.754a.474.474,0,0,1-.15-.551l1.7-3.557a19.432,19.432,0,0,1-2.706-2.656l-3.557,1.654a.357.357,0,0,1-.5-.151l-1.8-3.106a.445.445,0,0,1,.1-.552l3.257-2.2a17.91,17.91,0,0,1-1-3.658l-3.908-.35a.387.387,0,0,1-.351-.4v-3.608a.387.387,0,0,1,.351-.4l3.908-.3a17.892,17.892,0,0,1,1-3.658l-3.257-2.255a.444.444,0,0,1-.1-.551l1.8-3.057a.38.38,0,0,1,.5-.2l3.557,1.7a17.267,17.267,0,0,1,2.706-2.706l-1.7-3.507a.457.457,0,0,1,.15-.552l3.107-1.8a.4.4,0,0,1,.551.15l2.2,3.207a15.5,15.5,0,0,1,3.708-.952l.3-3.959a.387.387,0,0,1,.4-.35h3.608a.386.386,0,0,1,.4.35Zm-2.505,9.219a7.465,7.465,0,1,1-7.466,7.466,7.484,7.484,0,0,1,7.466-7.466" fill="#8e235c" fill-rule="evenodd"/>
          <path id="Path_816" data-name="Path 816" d="M1488.116,321.887a11.628,11.628,0,1,1,13.077,17.086,11.781,11.781,0,0,1-8.818-1.153,11.722,11.722,0,0,1-4.259-15.933m7.816-2.656a8.675,8.675,0,0,0-5.361,4.109,8.828,8.828,0,0,0-.852,6.664,8.775,8.775,0,0,0,16.084,2.1,8.844,8.844,0,0,0,.9-6.664,9.2,9.2,0,0,0-4.109-5.361,8.853,8.853,0,0,0-6.664-.852" fill="#ef5488" fill-rule="evenodd"/>
          <path id="Path_817" data-name="Path 817" d="M1498.187,315.974a11.479,11.479,0,0,1,8.117,19.591,11.492,11.492,0,0,1-16.234,0,11.474,11.474,0,0,1,8.117-19.591m6.363,5.161a8.891,8.891,0,0,0-6.363-2.656,9.068,9.068,0,0,0-8.969,8.969,8.979,8.979,0,0,0,8.969,8.969,8.9,8.9,0,0,0,8.968-8.969,8.941,8.941,0,0,0-2.6-6.313" fill="#ef5488"/>
          <path id="Path_818" data-name="Path 818" d="M1505.4,327.448a7.215,7.215,0,1,0-7.215,7.215,7.207,7.207,0,0,0,7.215-7.215m-13.679-3.708a7.464,7.464,0,1,1,2.756,10.172,7.464,7.464,0,0,1-2.756-10.172" fill="#ef8fb4" fill-rule="evenodd"/>
          <path id="Path_819" data-name="Path 819" d="M431.2,424.8a48.589,48.589,0,0,1,5.111-9.37l-7.516-8.317a1.687,1.687,0,0,1,.05-2.255l7.315-7.616a1.689,1.689,0,0,1,2.255-.15l8.668,7.115a50.746,50.746,0,0,1,9.069-5.462l-2.3-10.973a1.643,1.643,0,0,1,1.153-1.954l10.121-2.956a1.631,1.631,0,0,1,2,1l4.009,10.472a53.231,53.231,0,0,1,10.572-.2l3.507-10.623a1.612,1.612,0,0,1,1.954-1.1l10.272,2.505a1.628,1.628,0,0,1,1.2,1.854l-1.8,11.073a52.448,52.448,0,0,1,9.319,5.111l8.318-7.465a1.633,1.633,0,0,1,2.255.05l7.615,7.265a1.64,1.64,0,0,1,.151,2.255l-7.115,8.718a49.242,49.242,0,0,1,5.511,9.069l10.974-2.355a1.638,1.638,0,0,1,1.9,1.2l2.957,10.121a1.655,1.655,0,0,1-1,2l-10.472,3.958a50.194,50.194,0,0,1,.2,10.623l10.673,3.457a1.74,1.74,0,0,1,1.1,2l-2.556,10.222a1.619,1.619,0,0,1-1.853,1.252l-11.074-1.8a50.436,50.436,0,0,1-5.06,9.269l7.465,8.368a1.685,1.685,0,0,1-.05,2.254l-7.315,7.617a1.686,1.686,0,0,1-2.255.1l-8.668-7.115a50.561,50.561,0,0,1-9.019,5.511l2.255,10.973a1.735,1.735,0,0,1-1.153,1.954l-10.121,2.957a1.718,1.718,0,0,1-2.054-1.053L483.855,493.9a50.179,50.179,0,0,1-10.622.25l-3.507,10.622a1.613,1.613,0,0,1-1.954,1.1L457.5,503.368a1.637,1.637,0,0,1-1.2-1.9l1.8-11.023a50.55,50.55,0,0,1-9.269-5.111l-8.368,7.466a1.687,1.687,0,0,1-2.255-.05l-7.615-7.265a1.64,1.64,0,0,1-.151-2.255l7.115-8.668a52.176,52.176,0,0,1-5.511-9.069l-10.973,2.254a1.643,1.643,0,0,1-1.955-1.152l-2.906-10.121a1.655,1.655,0,0,1,1-2l10.472-3.959a49.775,49.775,0,0,1-.2-10.572l-10.672-3.507a1.74,1.74,0,0,1-1.1-2l2.505-10.222a1.674,1.674,0,0,1,1.9-1.253Zm25.353,14.23A21.534,21.534,0,1,0,482.6,423.2a21.5,21.5,0,0,0-26.055,15.833" fill="#4c1136" fill-rule="evenodd"/>
          <path id="Path_820" data-name="Path 820" d="M470.778,394.839a49.673,49.673,0,0,1,11.224-.25l3.607-10.973a1.238,1.238,0,0,1,1.453-.8l10.272,2.506a1.238,1.238,0,0,1,.9,1.4l-1.854,11.424a48.69,48.69,0,0,1,9.77,5.361l8.618-7.717a1.231,1.231,0,0,1,1.654.051l7.616,7.265a1.244,1.244,0,0,1,.1,1.7l-7.315,8.918a53.076,53.076,0,0,1,5.812,9.571l11.274-2.355a1.243,1.243,0,0,1,1.453.851l2.956,10.122a1.292,1.292,0,0,1-.752,1.5l-10.823,4.108A49.113,49.113,0,0,1,527,448.7l10.973,3.557a1.271,1.271,0,0,1,.8,1.5l-2.506,10.221a1.238,1.238,0,0,1-1.4.9l-11.423-1.854a49.163,49.163,0,0,1-5.362,9.821l7.716,8.568a1.242,1.242,0,0,1-.05,1.7l-7.265,7.616a1.232,1.232,0,0,1-1.653.1l-8.969-7.316a47.13,47.13,0,0,1-9.57,5.762l2.355,11.324a1.2,1.2,0,0,1-.852,1.453l-10.121,2.906a1.213,1.213,0,0,1-1.5-.7l-4.058-10.823a52.225,52.225,0,0,1-11.174.25l-3.607,10.974a1.237,1.237,0,0,1-1.453.8l-10.272-2.5a1.269,1.269,0,0,1-.9-1.4l1.9-11.424a49.171,49.171,0,0,1-9.82-5.361l-8.618,7.716a1.23,1.23,0,0,1-1.654-.05l-7.616-7.316a1.138,1.138,0,0,1-.1-1.653l7.315-8.919a49.758,49.758,0,0,1-5.812-9.57l-11.324,2.355a1.189,1.189,0,0,1-1.4-.852l-2.956-10.121a1.2,1.2,0,0,1,.752-1.5l10.822-4.059a46.448,46.448,0,0,1-.25-11.173l-10.973-3.658a1.212,1.212,0,0,1-.8-1.453l2.505-10.221a1.23,1.23,0,0,1,1.4-.952l11.374,1.9a48.77,48.77,0,0,1,5.362-9.77l-7.667-8.668a1.18,1.18,0,0,1,0-1.654l7.316-7.616a1.231,1.231,0,0,1,1.653-.1l8.919,7.316A47.181,47.181,0,0,1,456.6,399l-2.355-11.323a1.291,1.291,0,0,1,.852-1.453l10.171-2.957a1.207,1.207,0,0,1,1.453.752Zm.551,28.21a21.969,21.969,0,1,1-14.982,27.207,21.932,21.932,0,0,1,14.982-27.207" fill="#8e235c" fill-rule="evenodd"/>
          <path id="Path_821" data-name="Path 821" d="M444.373,436.678a34.272,34.272,0,1,1,4.009,25.955,34.3,34.3,0,0,1-4.009-25.955m19.892-13.929a25.908,25.908,0,1,0,19.541-3.006,25.732,25.732,0,0,0-19.541,3.006" fill="#ae2d60" fill-rule="evenodd"/>
          <path id="Path_822" data-name="Path 822" d="M468.023,411.725A33.757,33.757,0,1,1,447.88,427.91a33.689,33.689,0,0,1,20.143-16.185m22.146,9.27a26.376,26.376,0,0,0-35.825,10.422,26.371,26.371,0,1,0,35.825-10.422" fill="#ef5488"/>
          <path id="Path_823" data-name="Path 823" d="M497.785,438.232a21.184,21.184,0,1,0-14.38,26.255,21.161,21.161,0,0,0,14.38-26.255m-41.637.651a21.954,21.954,0,1,1,16.084,26.606,21.925,21.925,0,0,1-16.084-26.606" fill="#ea86ad" fill-rule="evenodd"/>
          <path id="Path_824" data-name="Path 824" d="M440.465,578.225a22.845,22.845,0,0,1,2.054-3.758l-3.006-3.307a.634.634,0,0,1,0-.9l2.956-3.106a.679.679,0,0,1,.9-.05l3.457,2.856a20.817,20.817,0,0,1,3.658-2.205l-.9-4.409a.614.614,0,0,1,.451-.752l4.058-1.2a.657.657,0,0,1,.8.4L456.5,566a20.151,20.151,0,0,1,4.259-.051l1.4-4.309a.737.737,0,0,1,.8-.45l4.108,1.052a.637.637,0,0,1,.5.751l-.7,4.409a20.559,20.559,0,0,1,3.708,2.055l3.357-3.007a.69.69,0,0,1,.9.05l3.056,2.906a.637.637,0,0,1,.05.9l-2.856,3.508a20.817,20.817,0,0,1,2.2,3.658l4.409-.952a.738.738,0,0,1,.8.451l1.152,4.108a.655.655,0,0,1-.4.8l-4.209,1.6a20.146,20.146,0,0,1,.1,4.259l4.259,1.4a.614.614,0,0,1,.451.752l-1,4.108a.625.625,0,0,1-.752.5l-4.459-.7a17.893,17.893,0,0,1-2.055,3.708l3.007,3.357a.636.636,0,0,1,0,.9l-2.956,3.106a.679.679,0,0,1-.9.05l-3.458-2.906a21.1,21.1,0,0,1-3.657,2.255l.952,4.409a.665.665,0,0,1-.5.752l-4.059,1.2a.656.656,0,0,1-.8-.4l-1.6-4.208a20.171,20.171,0,0,1-4.259.05l-1.4,4.309a.738.738,0,0,1-.8.451l-4.108-1.053a.636.636,0,0,1-.5-.751l.751-4.409a22.888,22.888,0,0,1-3.758-2.055l-3.357,3.007a.69.69,0,0,1-.9-.05l-3.056-2.907a.689.689,0,0,1-.05-.9l2.856-3.507a20.488,20.488,0,0,1-2.2-3.607l-4.409.9a.737.737,0,0,1-.8-.451l-1.152-4.108a.657.657,0,0,1,.4-.8l4.209-1.553a20.092,20.092,0,0,1-.1-4.259l-4.259-1.4a.688.688,0,0,1-.451-.8l1-4.108a.624.624,0,0,1,.751-.5Zm10.171,5.712a8.671,8.671,0,1,0,10.472-6.313,8.661,8.661,0,0,0-10.472,6.313" fill="#4c1136" fill-rule="evenodd"/>
          <path id="Path_825" data-name="Path 825" d="M456.4,566.2a22.674,22.674,0,0,1,4.51-.1l1.4-4.409a.511.511,0,0,1,.6-.3l4.11,1a.544.544,0,0,1,.4.551l-.753,4.61a19.79,19.79,0,0,1,3.908,2.154l3.458-3.106a.533.533,0,0,1,.7,0l3.056,2.956a.468.468,0,0,1,0,.651l-2.906,3.608a17.5,17.5,0,0,1,2.3,3.858l4.56-1a.461.461,0,0,1,.551.351l1.2,4.108a.537.537,0,0,1-.3.6l-4.359,1.6a19.513,19.513,0,0,1,.1,4.51l4.409,1.453a.516.516,0,0,1,.352.6l-1,4.108a.514.514,0,0,1-.6.351l-4.56-.751a23.229,23.229,0,0,1-2.156,3.958l3.108,3.457a.472.472,0,0,1-.051.651l-2.906,3.057a.472.472,0,0,1-.651.05l-3.607-2.956a21.536,21.536,0,0,1-3.858,2.355l.952,4.509a.548.548,0,0,1-.352.6l-4.058,1.2a.573.573,0,0,1-.6-.3l-1.652-4.36a22.119,22.119,0,0,1-4.461.1l-1.452,4.41a.51.51,0,0,1-.6.3l-4.109-1a.46.46,0,0,1-.35-.551l.751-4.559a20.5,20.5,0,0,1-3.957-2.205l-3.457,3.106a.534.534,0,0,1-.7,0l-3.056-2.956a.466.466,0,0,1,0-.651l2.906-3.558a23.039,23.039,0,0,1-2.3-3.858l-4.56.952a.46.46,0,0,1-.55-.35l-1.2-4.059a.485.485,0,0,1,.3-.6l4.36-1.654a19.443,19.443,0,0,1-.1-4.509l-4.408-1.453a.464.464,0,0,1-.352-.551l1-4.159a.514.514,0,0,1,.6-.351l4.559.752a19.878,19.878,0,0,1,2.155-3.909l-3.107-3.507a.472.472,0,0,1,.051-.651l2.9-3.057a.539.539,0,0,1,.7-.05l3.556,2.956a19.987,19.987,0,0,1,3.858-2.355l-.952-4.509a.547.547,0,0,1,.352-.6l4.058-1.153a.468.468,0,0,1,.6.3Zm.2,11.324a8.841,8.841,0,1,1-6.013,10.973,8.838,8.838,0,0,1,6.013-10.973" fill="#8e235c" fill-rule="evenodd"/>
          <path id="Path_826" data-name="Path 826" d="M445.775,583.036a13.755,13.755,0,1,1,1.6,10.422,13.609,13.609,0,0,1-1.6-10.422m7.967-5.612a10.248,10.248,0,0,0-4.71,6.413,10.559,10.559,0,0,0,1.2,7.867,10.709,10.709,0,0,0,6.413,4.71,10.395,10.395,0,0,0,12.577-7.616,10.4,10.4,0,0,0-15.483-11.374" fill="#ae2d60" fill-rule="evenodd"/>
          <path id="Path_827" data-name="Path 827" d="M455.245,573.014a13.535,13.535,0,0,1,16.836,9.22,13.56,13.56,0,0,1-9.22,16.785,13.535,13.535,0,0,1-16.835-9.22,13.364,13.364,0,0,1,1.152-10.321,13.621,13.621,0,0,1,8.067-6.464m8.919,3.708A10.624,10.624,0,0,0,448.882,589a10.544,10.544,0,0,0,5.06,6.313,10.528,10.528,0,0,0,14.381-4.209,10.567,10.567,0,0,0-4.159-14.38" fill="#ef5488"/>
          <path id="Path_828" data-name="Path 828" d="M467.221,583.637a8.507,8.507,0,1,0-5.762,10.572,8.5,8.5,0,0,0,5.762-10.572m-16.735.3a8.817,8.817,0,1,1,6.464,10.673,8.822,8.822,0,0,1-6.464-10.673" fill="#ea86ad" fill-rule="evenodd"/>
          <path id="Path_829" data-name="Path 829" d="M291.952,312.166a33.316,33.316,0,0,1,3.057-5.562l-4.46-4.96a1,1,0,0,1,.05-1.353l4.309-4.509a1.007,1.007,0,0,1,1.353-.1l5.211,4.208a30.564,30.564,0,0,1,5.362-3.256l-1.353-6.514a1.018,1.018,0,0,1,.651-1.153l6.063-1.753a.974.974,0,0,1,1.2.6l2.355,6.213a29.494,29.494,0,0,1,6.314-.1l2.054-6.363a1.078,1.078,0,0,1,1.2-.652l6.063,1.5a1.01,1.01,0,0,1,.752,1.153l-1.053,6.563a29.632,29.632,0,0,1,5.512,3.057l4.96-4.46a1,1,0,0,1,1.353,0l4.51,4.36a1,1,0,0,1,.1,1.353L343.31,305.6a30.987,30.987,0,0,1,3.257,5.411l6.514-1.4a1,1,0,0,1,1.152.7l1.754,6.013a.953.953,0,0,1-.6,1.2l-6.212,2.356a29.617,29.617,0,0,1,.1,6.313l6.363,2.1a1.017,1.017,0,0,1,.651,1.153l-1.5,6.112a1.031,1.031,0,0,1-1.1.752l-6.614-1.1a27.957,27.957,0,0,1-3.006,5.511l4.409,5.011a.938.938,0,0,1,0,1.3l-4.359,4.559a1,1,0,0,1-1.353.05l-5.111-4.209a32.954,32.954,0,0,1-5.411,3.257l1.353,6.564a1,1,0,0,1-.7,1.153l-6.012,1.753a1.077,1.077,0,0,1-1.2-.6l-2.355-6.263a33.315,33.315,0,0,1-6.313.15l-2.105,6.313a.928.928,0,0,1-1.152.652l-6.113-1.5a.924.924,0,0,1-.7-1.1l1.052-6.564a34.937,34.937,0,0,1-5.512-3.056l-4.96,4.459a1,1,0,0,1-1.353-.05l-4.56-4.309a1,1,0,0,1-.05-1.352l4.209-5.161a31.1,31.1,0,0,1-3.257-5.412l-6.563,1.353a.929.929,0,0,1-1.153-.651l-1.754-6.063a1.111,1.111,0,0,1,.6-1.2L289.9,327.5a33.147,33.147,0,0,1-.15-6.313l-6.314-2.1a.929.929,0,0,1-.651-1.153l1.5-6.112a.957.957,0,0,1,1.1-.752Zm15.132,8.468a12.821,12.821,0,1,0,15.483-9.42,12.767,12.767,0,0,0-15.483,9.42" fill="#4c1136" fill-rule="evenodd"/>
          <path id="Path_830" data-name="Path 830" d="M315.552,294.329a29.735,29.735,0,0,1,6.664-.15l2.155-6.514a.777.777,0,0,1,.852-.5l6.113,1.5a.781.781,0,0,1,.551.852l-1.1,6.764a31.154,31.154,0,0,1,5.812,3.207l5.111-4.56a.762.762,0,0,1,1,0l4.56,4.359a.7.7,0,0,1,.05.952L342.96,305.6a28.022,28.022,0,0,1,3.457,5.661l6.714-1.4a.747.747,0,0,1,.852.5l1.754,6.062a.7.7,0,0,1-.451.852l-6.414,2.455a29.732,29.732,0,0,1,.151,6.664l6.513,2.155a.7.7,0,0,1,.5.852l-1.5,6.113a.7.7,0,0,1-.852.5l-6.764-1.1a31.611,31.611,0,0,1-3.207,5.863l4.56,5.11a.711.711,0,0,1,0,1l-4.359,4.509a.651.651,0,0,1-.952.05L337.6,347.14a27.872,27.872,0,0,1-5.662,3.407l1.4,6.764a.778.778,0,0,1-.5.852l-6.063,1.754a.7.7,0,0,1-.852-.451L323.469,353a29.351,29.351,0,0,1-6.614.151l-2.154,6.563a.754.754,0,0,1-.9.451l-6.063-1.5a.65.65,0,0,1-.551-.8l1.1-6.814a28.371,28.371,0,0,1-5.812-3.156l-5.161,4.559a.761.761,0,0,1-1,0l-4.51-4.359a.711.711,0,0,1-.05-1l4.36-5.311a28.061,28.061,0,0,1-3.458-5.662l-6.764,1.352a.708.708,0,0,1-.852-.5l-1.753-6.013a.779.779,0,0,1,.451-.9l6.463-2.4a29.668,29.668,0,0,1-.15-6.664l-6.564-2.154a.7.7,0,0,1-.451-.852l1.5-6.113a.723.723,0,0,1,.8-.551l6.814,1.152a33.075,33.075,0,0,1,3.157-5.862l-4.56-5.111a.762.762,0,0,1,0-1l4.359-4.56a.764.764,0,0,1,1-.05l5.311,4.359a28,28,0,0,1,5.662-3.457l-1.353-6.714a.667.667,0,0,1,.5-.852l6.012-1.753a.779.779,0,0,1,.9.451Zm.3,16.785a13.074,13.074,0,1,1-8.869,16.234,13.08,13.08,0,0,1,8.869-16.234" fill="#8e235c" fill-rule="evenodd"/>
          <path id="Path_831" data-name="Path 831" d="M299.819,319.23a20.4,20.4,0,1,1,30.414,22.3,20.586,20.586,0,0,1-15.432,2.4,20.517,20.517,0,0,1-14.982-24.7m11.825-8.317a15.8,15.8,0,0,0-6.965,9.52,15.4,15.4,0,0,0,22.949,16.835,15.4,15.4,0,0,0-4.31-28.109,15.356,15.356,0,0,0-11.674,1.754" fill="#ae2d60" fill-rule="evenodd"/>
          <path id="Path_832" data-name="Path 832" d="M313.9,304.4a20.138,20.138,0,1,1-11.975,9.62A20.072,20.072,0,0,1,313.9,304.4m13.178,5.512a15.73,15.73,0,0,0-22.648,18.138,15.706,15.706,0,1,0,22.648-18.138" fill="#ef5488"/>
          <path id="Path_833" data-name="Path 833" d="M331.636,320.133a12.606,12.606,0,1,0-8.568,15.633,12.628,12.628,0,0,0,8.568-15.633m-24.8.451a13.076,13.076,0,1,1,9.57,15.783,13.069,13.069,0,0,1-9.57-15.783" fill="#ea86ad" fill-rule="evenodd"/>
        </g>
      </g>
    </g>
  </g>
</svg>
