<svg xmlns="http://www.w3.org/2000/svg" xmlns:xlink="http://www.w3.org/1999/xlink" width="217.609" height="65" viewBox="0 0 217.609 65">
  <defs>
    <clipPath id="clip-path">
      <path id="Path_11531" data-name="Path 11531" d="M0,0H217.609V65H0ZM0,0"/>
    </clipPath>
  </defs>
  <g id="appstore_black" data-name="appstore black" transform="translate(5788 -4567)">
    <path id="Path_11529" data-name="Path 11529" d="M209.426,63.242H8.191A7.382,7.382,0,0,1,.809,55.859V8.188A7.382,7.382,0,0,1,8.191.8H209.426a7.382,7.382,0,0,1,7.383,7.384V55.859a7.382,7.382,0,0,1-7.384,7.383" transform="translate(-5788 4567)"/>
    <g id="Group_1995" data-name="Group 1995" transform="translate(-5788 4567)" clip-path="url(#clip-path)">
      <path id="Path_11530" data-name="Path 11530" d="M8.188,1.613A6.582,6.582,0,0,0,1.613,8.188V55.859a6.582,6.582,0,0,0,6.574,6.574H209.426A6.582,6.582,0,0,0,216,55.859V8.188a6.582,6.582,0,0,0-6.574-6.574ZM209.426,64.051H8.188A8.2,8.2,0,0,1,0,55.859V8.188A8.2,8.2,0,0,1,8.188,0H209.426a8.2,8.2,0,0,1,8.187,8.191V55.859a8.2,8.2,0,0,1-8.187,8.191" fill="#a7a9ab"/>
    </g>
    <path id="Path_11532" data-name="Path 11532" d="M75.461,16.762l-.828-2.594c-.2-.641-.375-1.356-.531-1.965H74.07c-.152.609-.312,1.34-.5,1.965l-.812,2.594Zm-3.012,1.449L71.543,21.2H69.559l3.375-10.523h2.449L78.8,21.2H76.742l-.953-2.984" transform="translate(-5788 4567)" fill="#fff"/>
    <path id="Path_11533" data-name="Path 11533" d="M81.672,13.594l1.234,3.851c.219.672.371,1.281.512,1.906h.047c.141-.625.313-1.219.516-1.906L85.2,13.594h2.012l-2.9,7.6h-1.89l-2.828-7.6" transform="translate(-5788 4567)" fill="#fff"/>
    <path id="Path_11534" data-name="Path 11534" d="M93,17.477c-1.359-.016-2.656.266-2.656,1.422a1.009,1.009,0,0,0,1.094,1.094,1.573,1.573,0,0,0,1.512-1.047,1.2,1.2,0,0,0,.05-.423Zm1.871,1.891A10.193,10.193,0,0,0,95,21.191H93.266l-.137-.84h-.051a2.776,2.776,0,0,1-2.246,1.012A2.252,2.252,0,0,1,88.445,19.1c0-1.906,1.7-2.887,4.508-2.871V16.1c0-.5-.2-1.328-1.543-1.328a4.03,4.03,0,0,0-2.047.563l-.375-1.25a5.484,5.484,0,0,1,2.75-.668c2.434,0,3.137,1.543,3.137,3.215" transform="translate(-5788 4567)" fill="#fff"/>
    <path id="Path_11535" data-name="Path 11535" d="M97.59,13.594h1.918v7.6H97.59Zm.949-1.094a1.085,1.085,0,1,1,.02,0" transform="translate(-5788 4567)" fill="#fff"/>
    <path id="Path_11536" data-name="Path 11536" d="M102.27,21.2h1.921V10.1H102.27Zm0,0" transform="translate(-5788 4567)" fill="#fff"/>
    <path id="Path_11537" data-name="Path 11537" d="M111,17.477c-1.359-.016-2.656.266-2.656,1.422a1.009,1.009,0,0,0,1.094,1.094,1.577,1.577,0,0,0,1.515-1.047,1.294,1.294,0,0,0,.047-.422Zm1.871,1.891A10.165,10.165,0,0,0,113,21.192h-1.73l-.141-.84h-.047a2.79,2.79,0,0,1-2.25,1.012,2.254,2.254,0,0,1-2.386-2.262c0-1.906,1.7-2.887,4.511-2.871v-.125c0-.5-.2-1.328-1.547-1.328a4,4,0,0,0-2.043.563l-.375-1.25a5.468,5.468,0,0,1,2.746-.668c2.434,0,3.137,1.543,3.137,3.215" transform="translate(-5788 4567)" fill="#fff"/>
    <path id="Path_11538" data-name="Path 11538" d="M117.5,18.055a2.137,2.137,0,0,0,.047.453,1.754,1.754,0,0,0,1.7,1.344c1.2,0,1.938-.953,1.938-2.5,0-1.344-.641-2.437-1.922-2.437a1.783,1.783,0,0,0-1.7,1.406,2.314,2.314,0,0,0-.062.5Zm-1.922-7.961H117.5v4.543h.031a2.744,2.744,0,0,1,2.434-1.215c1.859,0,3.183,1.543,3.168,3.855,0,2.73-1.731,4.09-3.449,4.09a2.613,2.613,0,0,1-2.4-1.312h-.031L117.16,21.2h-1.64c.031-.516.062-1.359.062-2.125" transform="translate(-5788 4567)" fill="#fff"/>
    <path id="Path_11539" data-name="Path 11539" d="M125.4,21.2h1.918V10.1H125.4Zm0,0" transform="translate(-5788 4567)" fill="#fff"/>
    <path id="Path_11540" data-name="Path 11540" d="M134.793,16.59a1.635,1.635,0,0,0-1.574-1.859,1.88,1.88,0,0,0-1.766,1.859Zm-3.34,1.34A2.068,2.068,0,0,0,133.8,19.9a6.116,6.116,0,0,0,2.1-.344l.282,1.309a6.763,6.763,0,0,1-2.653.484,3.6,3.6,0,0,1-3.922-3.836c0-2.109,1.282-4.09,3.719-4.09,2.465,0,3.277,2.027,3.277,3.7a4.677,4.677,0,0,1-.062.809" transform="translate(-5788 4567)" fill="#fff"/>
    <path id="Path_11541" data-name="Path 11541" d="M146.141,19.977c1.089,0,1.855-1.062,1.855-2.606,0-1.187-.531-2.562-1.84-2.562-1.359,0-1.906,1.328-1.906,2.594,0,1.465.734,2.574,1.871,2.574Zm-.063,1.391a3.675,3.675,0,0,1-3.808-3.918,3.75,3.75,0,0,1,3.933-4.027,3.646,3.646,0,0,1,3.777,3.9,3.763,3.763,0,0,1-3.886,4.043" transform="translate(-5788 4567)" fill="#fff"/>
    <path id="Path_11542" data-name="Path 11542" d="M152.238,15.856c0-.875-.027-1.609-.058-2.266h1.668l.093,1.141h.047a2.792,2.792,0,0,1,2.438-1.309c1.324,0,2.7.855,2.7,3.262v4.508H157.2V16.9c0-1.094-.406-1.922-1.449-1.922a1.612,1.612,0,0,0-1.5,1.125,1.772,1.772,0,0,0-.094.609v4.477h-1.922" transform="translate(-5788 4567)" fill="#fff"/>
    <path id="Path_11543" data-name="Path 11543" d="M167.973,11.641V13.59H169.8v1.438h-1.824v3.34c0,.938.25,1.406.98,1.406a2.5,2.5,0,0,0,.75-.078l.031,1.449a4.108,4.108,0,0,1-1.39.2,2.213,2.213,0,0,1-1.653-.621,3,3,0,0,1-.609-2.141V15.027H165V13.59h1.078V12.172" transform="translate(-5788 4567)" fill="#fff"/>
    <path id="Path_11544" data-name="Path 11544" d="M171.934,10.094h1.921v4.527h.032a2.523,2.523,0,0,1,.953-.859,2.733,2.733,0,0,1,1.324-.34c1.3,0,2.652.855,2.652,3.293V21.2H176.9V16.918c0-1.094-.406-1.937-1.468-1.937a1.6,1.6,0,0,0-1.5,1.078,1.714,1.714,0,0,0-.079.578V21.2h-1.921" transform="translate(-5788 4567)" fill="#fff"/>
    <path id="Path_11545" data-name="Path 11545" d="M186.246,16.59a1.636,1.636,0,0,0-1.578-1.859,1.876,1.876,0,0,0-1.762,1.859Zm-3.34,1.34a2.064,2.064,0,0,0,2.34,1.969,6.092,6.092,0,0,0,2.106-.344l.285,1.309a6.769,6.769,0,0,1-2.657.484,3.594,3.594,0,0,1-3.917-3.836c0-2.109,1.281-4.09,3.714-4.09,2.465,0,3.278,2.027,3.278,3.7a4.656,4.656,0,0,1-.063.809" transform="translate(-5788 4567)" fill="#fff"/>
    <path id="Path_11546" data-name="Path 11546" d="M48.566,31.4a9.352,9.352,0,0,1,4.461-7.859,9.59,9.59,0,0,0-7.559-4.086c-3.176-.332-6.258,1.906-7.875,1.906-1.652,0-4.148-1.871-6.832-1.816a10.067,10.067,0,0,0-8.469,5.164c-3.656,6.34-.93,15.652,2.578,20.777,1.758,2.508,3.8,5.313,6.488,5.211,2.625-.109,3.6-1.672,6.773-1.672,3.141,0,4.063,1.672,6.8,1.609,2.816-.047,4.59-2.52,6.281-5.055a20.6,20.6,0,0,0,2.875-5.851A9.057,9.057,0,0,1,48.566,31.4" transform="translate(-5788 4567)" fill="#fff"/>
    <path id="Path_11547" data-name="Path 11547" d="M43.4,16.086a9.211,9.211,0,0,0,2.1-6.609,9.408,9.408,0,0,0-6.07,3.141,8.768,8.768,0,0,0-2.16,6.362,7.747,7.747,0,0,0,6.125-2.9" transform="translate(-5788 4567)" fill="#fff"/>
    <path id="Path_11548" data-name="Path 11548" d="M80.246,41.34l-1.812-5.6q-.287-.855-1.082-4.035H77.29c-.211.91-.555,2.258-1.02,4.035l-1.781,5.6Zm6.266,8.941h-3.66l-2-6.3H73.887l-1.91,6.3H68.414L75.32,28.844h4.258" transform="translate(-5788 4567)" fill="#fff"/>
    <path id="Path_11549" data-name="Path 11549" d="M100.762,42.488a6.363,6.363,0,0,0-1.02-3.723,3.519,3.519,0,0,0-2.988-1.527,3.565,3.565,0,0,0-2.3.844,3.953,3.953,0,0,0-1.36,2.218,4.458,4.458,0,0,0-.156,1.043v2.578a4.132,4.132,0,0,0,1.031,2.848,3.423,3.423,0,0,0,2.688,1.16,3.5,3.5,0,0,0,3.019-1.5,6.536,6.536,0,0,0,1.086-3.941m3.5-.129a8.781,8.781,0,0,1-2.133,6.234,6.232,6.232,0,0,1-4.738,2.035A4.742,4.742,0,0,1,93,48.434h-.062v8.144H89.5V39.91q0-2.479-.125-5.09h3.02l.191,2.453h.066a6.106,6.106,0,0,1,9.778-.6,8.532,8.532,0,0,1,1.832,5.691" transform="translate(-5788 4567)" fill="#fff"/>
    <path id="Path_11550" data-name="Path 11550" d="M118.539,42.488a6.369,6.369,0,0,0-1.019-3.723,3.521,3.521,0,0,0-2.989-1.527,3.571,3.571,0,0,0-2.3.844,3.9,3.9,0,0,0-1.348,2.215,4.312,4.312,0,0,0-.16,1.043v2.578a4.131,4.131,0,0,0,1.027,2.848,3.427,3.427,0,0,0,2.692,1.16,3.5,3.5,0,0,0,3.019-1.5,6.585,6.585,0,0,0,1.082-3.941m3.5-.129a8.779,8.779,0,0,1-2.129,6.234,6.223,6.223,0,0,1-4.738,2.035,4.751,4.751,0,0,1-4.391-2.2h-.058v8.144h-3.438V39.91q0-2.479-.125-5.09h3.02l.191,2.453h.067a6.1,6.1,0,0,1,9.777-.605,8.523,8.523,0,0,1,1.824,5.691" transform="translate(-5788 4567)" fill="#fff"/>
    <path id="Path_11551" data-name="Path 11551" d="M141.918,44.27a5.719,5.719,0,0,1-1.906,4.453,8.445,8.445,0,0,1-5.836,1.875,10.252,10.252,0,0,1-5.563-1.336l.8-2.859a9.443,9.443,0,0,0,4.969,1.363A4.7,4.7,0,0,0,137.4,46.9a2.87,2.87,0,0,0,1.078-2.344,2.991,2.991,0,0,0-.886-2.2,8.352,8.352,0,0,0-2.961-1.656Q129,38.592,129,34.547a5.439,5.439,0,0,1,1.973-4.332,7.787,7.787,0,0,1,5.246-1.691,10.435,10.435,0,0,1,4.867,1.02l-.86,2.8a8.447,8.447,0,0,0-4.1-.988,4.14,4.14,0,0,0-2.828.891,2.557,2.557,0,0,0-.86,1.941,2.61,2.61,0,0,0,.985,2.1,11.188,11.188,0,0,0,3.117,1.656,10.565,10.565,0,0,1,4.07,2.606,5.473,5.473,0,0,1,1.3,3.723" transform="translate(-5788 4567)" fill="#fff"/>
    <path id="Path_11552" data-name="Path 11552" d="M153.27,37.4h-3.786v7.5q0,2.865,2.008,2.863a6.178,6.178,0,0,0,1.524-.156l.093,2.6a7.622,7.622,0,0,1-2.668.383,4.133,4.133,0,0,1-3.183-1.238,6.1,6.1,0,0,1-1.145-4.168V37.4h-2.258V34.82h2.258V31.992l3.371-1.02V34.82h3.786" transform="translate(-5788 4567)" fill="#fff"/>
    <path id="Path_11553" data-name="Path 11553" d="M166.789,42.535a6.963,6.963,0,0,0-.926-3.668,3.384,3.384,0,0,0-3.082-1.852,3.441,3.441,0,0,0-3.148,1.852,7.1,7.1,0,0,0-.918,3.734,6.937,6.937,0,0,0,.918,3.664,3.466,3.466,0,0,0,3.121,1.852,3.429,3.429,0,0,0,3.082-1.883,6.941,6.941,0,0,0,.953-3.7m3.563-.109a8.465,8.465,0,0,1-2.036,5.852,7.261,7.261,0,0,1-5.66,2.352,6.922,6.922,0,0,1-5.426-2.258,8.229,8.229,0,0,1-2.015-5.691A8.383,8.383,0,0,1,157.3,36.8a7.192,7.192,0,0,1,5.609-2.293,7.066,7.066,0,0,1,5.473,2.258,8.157,8.157,0,0,1,1.973,5.664" transform="translate(-5788 4567)" fill="#fff"/>
    <path id="Path_11554" data-name="Path 11554" d="M181.516,37.844a5.976,5.976,0,0,0-1.082-.094,3.253,3.253,0,0,0-2.8,1.367,5.165,5.165,0,0,0-.856,3.051v8.113h-3.433l.027-10.59q0-2.678-.125-4.871h2.992l.125,2.961h.09a5.311,5.311,0,0,1,1.719-2.449,4.173,4.173,0,0,1,2.484-.828,5.682,5.682,0,0,1,.86.063" transform="translate(-5788 4567)" fill="#fff"/>
    <path id="Path_11555" data-name="Path 11555" d="M193.6,40.93a4.679,4.679,0,0,0-.664-2.641,3.011,3.011,0,0,0-2.739-1.434,3.267,3.267,0,0,0-2.734,1.4,5.077,5.077,0,0,0-1.012,2.672Zm3.273.891a8.388,8.388,0,0,1-.121,1.559h-10.3a4.463,4.463,0,0,0,1.492,3.5,5.093,5.093,0,0,0,3.372,1.078,11.4,11.4,0,0,0,4.167-.73l.54,2.387a13,13,0,0,1-5.188.957,7.486,7.486,0,0,1-5.644-2.121,7.812,7.812,0,0,1-2.051-5.676,8.837,8.837,0,0,1,1.91-5.82,6.57,6.57,0,0,1,5.4-2.48,5.76,5.76,0,0,1,5.063,2.48,8.34,8.34,0,0,1,1.359,4.867" transform="translate(-5788 4567)" fill="#fff"/>
  </g>
</svg>
