<svg width="16" height="16" viewBox="0 0 16 16" fill="none" xmlns="http://www.w3.org/2000/svg">
<g opacity="1" clip-path="url(#clip0_1736_6016)">
<path d="M11.667 0H4.33366C3.36158 0.00123484 2.42966 0.38794 1.7423 1.07531C1.05493 1.76267 0.668227 2.69459 0.666992 3.66667V13.648C0.667494 14.1149 0.808061 14.5709 1.07052 14.9571C1.33297 15.3433 1.70524 15.6418 2.13919 15.8141C2.57314 15.9864 3.04881 16.0246 3.50468 15.9237C3.96055 15.8227 4.37566 15.5874 4.69633 15.248L7.97099 11.7813L11.313 15.2813C11.6347 15.6181 12.0498 15.851 12.5049 15.9498C12.96 16.0487 13.4343 16.0091 13.8668 15.8362C14.2992 15.6633 14.67 15.3649 14.9314 14.9794C15.1929 14.5939 15.3329 14.1391 15.3337 13.6733V3.66667C15.3324 2.69459 14.9457 1.76267 14.2584 1.07531C13.571 0.38794 12.6391 0.00123484 11.667 0ZM13.3337 13.6733C13.3335 13.7398 13.3135 13.8047 13.2762 13.8598C13.2389 13.9148 13.186 13.9574 13.1243 13.9821C13.0626 14.0068 12.9949 14.0126 12.9299 13.9985C12.865 13.9845 12.8057 13.9513 12.7597 13.9033L8.69299 9.64267C8.59929 9.54455 8.48661 9.46654 8.3618 9.41336C8.23699 9.36018 8.10266 9.33295 7.96699 9.33333C7.83137 9.33374 7.69725 9.36172 7.57279 9.41559C7.44832 9.46945 7.33612 9.54807 7.24299 9.64667L3.24299 13.8767C3.19835 13.9271 3.13892 13.9621 3.07318 13.9767C3.00745 13.9913 2.93878 13.9848 2.87699 13.958C2.81334 13.9357 2.75855 13.8936 2.72073 13.8377C2.68291 13.7819 2.66407 13.7154 2.66699 13.648V3.66667C2.66699 3.22464 2.84259 2.80072 3.15515 2.48816C3.46771 2.17559 3.89163 2 4.33366 2H11.667C12.109 2 12.5329 2.17559 12.8455 2.48816C13.1581 2.80072 13.3337 3.22464 13.3337 3.66667V13.6733Z" fill="#090029"/>
</g>
<defs>
<clipPath id="clip0_1736_6016">
<rect width="16" height="16" fill="white"/>
</clipPath>
</defs>
</svg>
