<?xml version="1.0" encoding="utf-8"?>
<!-- Generator: Adobe Illustrator 27.9.0, SVG Export Plug-In . SVG Version: 6.00 Build 0)  -->
<svg version="1.1" id="Layer_1" xmlns="http://www.w3.org/2000/svg" xmlns:xlink="http://www.w3.org/1999/xlink" x="0px" y="0px"
	 viewBox="0 0 823 820" style="enable-background:new 0 0 823 820;" xml:space="preserve">
<style type="text/css">
	.st0{fill:url(#SVGID_1_);stroke:#594A0A;stroke-width:4;stroke-miterlimit:10;}
	.st1{fill:#594A0A;}
</style>
<linearGradient id="SVGID_1_" gradientUnits="userSpaceOnUse" x1="262.2099" y1="259.6277" x2="557.9411" y2="555.3589" gradientTransform="matrix(1 0 0 -1 0 820)">
	<stop  offset="0" style="stop-color:#F4C04E"/>
	<stop  offset="0.2002" style="stop-color:#9E7312"/>
	<stop  offset="0.3752" style="stop-color:#E2B042"/>
	<stop  offset="0.621" style="stop-color:#A07515"/>
	<stop  offset="0.811" style="stop-color:#DFAE40"/>
	<stop  offset="1" style="stop-color:#986E11"/>
</linearGradient>
<path class="st0" d="M615.9,458.4c8.2,23.9-0.1,49.6-21.1,63.4c-3.4,2.2-8.8,4.7-16.3,7.5c-9,3.3-17.9,6.8-26.9,10.2
	c-6.5,2.5-11.2,5.9-13.5,12c-3.5,9.3-7.1,18.7-10.6,28c-3.2,8.5-6,14.6-8.4,18.1c-11.8,17.8-33.6,26.7-54.6,22.9
	c-4-0.7-9.2-2.5-15.6-5.3c-9.9-4.4-19.7-8.8-29.5-13.4c-8.1-3.8-13.8-2.1-22.4,1.8c-8.8,4-17.7,8-26.5,12
	c-25.7,11.6-54.7,5.4-70.1-19c-2.1-3.4-4.9-9.5-8.2-18.2c-3-8.2-6.1-16.3-9.2-24.4c-2.9-7.7-6.1-11.1-14-14.3
	c-9-3.6-18.2-6.8-27.3-10.3c-6.5-2.5-11.2-4.6-14.1-6.3c-24.4-14.5-32.8-44-21.1-69.6c3.8-8.4,7.6-16.8,11.3-25.2
	c4.9-11,7.4-15.3,2.6-25.8c-3.8-8.2-7.5-16.5-11.2-24.7s-6-14.5-6.9-18.7c-4.4-20.7,4.2-43.2,22.2-55.3c3.4-2.3,8.8-4.8,16.2-7.7
	c8.5-3.3,17-6.5,25.5-9.6c9.9-3.7,14.4-7.1,17.5-17c1.3-4.2,4.5-12.7,9.6-25.8c3.2-8,6-13.8,8.5-17.4c11.9-16.9,33.1-25.6,53.4-21.9
	c11.5,2.1,25.6,9.6,37.5,15c11.4,5.1,16.2,8.4,26.7,3.7c8.5-3.8,17-7.7,25.5-11.5c8.4-3.8,14.6-6.1,18.7-7
	c21.7-4.6,44.9,5.3,56.5,24.2c2,3.3,4.6,9.3,8,18.3c3.1,8.2,6.2,16.4,9.3,24.6c3.2,8.4,7.4,11,16.2,14.4c8.9,3.4,17.8,6.8,26.7,10.2
	c6.8,2.6,11.8,5,15.2,7.3c17.9,12,26.8,34,22.5,55.2c-2.3,11.2-9.7,24.9-15,36.5c-5.4,11.9-8,16.6-2.8,28.1
	C605.4,434.7,613,449.9,615.9,458.4z"/>
<path class="st1" d="M514.5,387.8c-5.1,29.7-10.3,59.4-15.3,89.1c-1.5,9-8.5,10-16.9,10H332.8c-2.7,0-5.4-0.9-8-2.7
	c-4.5-4.4-4.2-8.9-5.3-14.8c-3.2-18-6.3-36.1-9.3-54.2c-2.7-14.6-4.5-25.9-5.7-33.8c-0.5-3.7,0.9-7.4,3.6-9.9
	c3.7-3.4,8.4-3.7,13.9-1.1c14.1,6.7,28.1,13.5,42.1,20.3c0.2,0.1,0.3,0,0.4-0.1c11.4-20.6,22.9-41.2,34.3-61.7
	c1.6-2.8,3-4.7,4.2-5.7c4.5-3.3,12.4-2.8,15.7,1.6c0.5,0.8,1.7,2.6,3.4,5.5l33.4,60c0.2,0.3,0.4,0.4,0.6,0.2
	c14.8-7.1,29.5-14.3,44.3-21.6c0.7-0.4,2.2-0.6,4.6-0.8c5.6,1.1,8.9,3.9,10.2,8C515.7,378.5,515.5,382.3,514.5,387.8z"/>
</svg>
