<svg width="16" height="16" viewBox="0 0 16 16" fill="none" xmlns="http://www.w3.org/2000/svg">
<g opacity="1" clip-path="url(#clip0_1736_6024)">
<path d="M8.00046 0C6.0436 0.00575273 4.15631 0.726525 2.69379 2.02667L1.80512 1.138C1.71189 1.04479 1.59311 0.981323 1.46381 0.955611C1.33451 0.929899 1.20049 0.943101 1.07869 0.993548C0.956887 1.04399 0.852778 1.12942 0.779522 1.23903C0.706266 1.34863 0.667151 1.4775 0.667123 1.60933V4.66667C0.667123 4.84348 0.737361 5.01305 0.862385 5.13807C0.98741 5.26309 1.15698 5.33333 1.33379 5.33333H4.39112C4.52296 5.3333 4.65182 5.29419 4.76143 5.22093C4.87104 5.14768 4.95646 5.04357 5.00691 4.92177C5.05735 4.79997 5.07056 4.66595 5.04485 4.53665C5.01913 4.40734 4.95566 4.28857 4.86246 4.19533L4.10579 3.43867C4.98879 2.68436 6.07172 2.20251 7.22319 2.05159C8.37466 1.90067 9.54519 2.08715 10.5928 2.58842C11.6403 3.08969 12.5199 3.8842 13.1248 4.87555C13.7297 5.8669 14.0339 7.01249 14.0005 8.17333C13.9576 9.67324 13.3542 11.1026 12.3094 12.1796C11.2646 13.2566 9.85418 13.9031 8.35626 13.9914C6.85834 14.0798 5.38168 13.6037 4.21749 12.657C3.05329 11.7103 2.28607 10.3618 2.06712 8.87733C2.03586 8.63597 1.91821 8.4141 1.73595 8.2528C1.55369 8.0915 1.31917 8.00169 1.07579 8C0.934566 7.99818 0.794579 8.02651 0.66518 8.08311C0.535781 8.13971 0.41995 8.22327 0.325423 8.32821C0.230896 8.43314 0.15985 8.55705 0.117031 8.69164C0.0742129 8.82622 0.0606072 8.9684 0.0771233 9.10867C0.354597 11.0726 1.35071 12.8639 2.87272 14.1358C4.39473 15.4077 6.33442 16.0698 8.31646 15.994C10.3216 15.8974 12.2189 15.0575 13.6384 13.6379C15.0579 12.2184 15.8978 10.3212 15.9945 8.316C16.0358 7.23995 15.8597 6.16661 15.4767 5.16018C15.0937 4.15374 14.5116 3.23489 13.7653 2.45856C13.0191 1.68223 12.1239 1.06438 11.1334 0.641946C10.1429 0.219513 9.0773 0.00117886 8.00046 0Z" fill="#090029"/>
<path d="M7.66699 4.66797C7.40178 4.66797 7.14742 4.77333 6.95989 4.96086C6.77235 5.1484 6.66699 5.40275 6.66699 5.66797V8.52997C6.66707 8.88356 6.80759 9.22265 7.05766 9.47264L8.25299 10.668C8.44159 10.8501 8.6942 10.9509 8.95639 10.9486C9.21859 10.9464 9.4694 10.8412 9.65481 10.6558C9.84022 10.4704 9.94539 10.2196 9.94767 9.95737C9.94994 9.69517 9.84915 9.44257 9.66699 9.25397L8.66699 8.25397V5.66797C8.66699 5.40275 8.56164 5.1484 8.3741 4.96086C8.18656 4.77333 7.93221 4.66797 7.66699 4.66797Z" fill="#090029"/>
</g>
<defs>
<clipPath id="clip0_1736_6024">
<rect width="16" height="16" fill="white"/>
</clipPath>
</defs>
</svg>
