<svg width="200" height="150" viewBox="0 0 200 150" fill="none" xmlns="http://www.w3.org/2000/svg">
<g clip-path="url(#clip0_821_31813)">
<g filter="url(#filter0_b_821_31813)">
<path d="M2.79785 61.3359C2.8063 64.8657 4.21226 68.2485 6.70823 70.7445C9.2042 73.2405 12.587 74.6464 16.1169 74.6549H76.3168C79.7079 74.6549 82.9601 76.002 85.3579 78.3998C87.7558 80.7977 89.1029 84.0498 89.1029 87.4409C89.1029 90.8319 87.7558 94.0841 85.3579 96.4819C82.9601 98.8798 79.7079 100.227 76.3168 100.227H32.6319C30.3711 100.227 28.203 101.125 26.6045 102.723C25.0059 104.322 24.1079 106.49 24.1079 108.751C24.1079 111.012 25.0059 113.18 26.6045 114.778C28.203 116.377 30.3711 117.275 32.6319 117.275H75.2519C77.5126 117.275 79.6807 118.173 81.2792 119.771C82.8778 121.37 83.7758 123.538 83.7758 125.799C83.7758 128.06 82.8778 130.228 81.2792 131.826C79.6807 133.425 77.5126 134.323 75.2519 134.323H36.8979C35.4849 134.323 34.1298 134.884 33.1307 135.883C32.1316 136.882 31.5704 138.237 31.5704 139.65C31.5704 141.063 32.1316 142.418 33.1307 143.417C34.1298 144.417 35.4849 144.978 36.8979 144.978H129.598C131.011 144.978 132.366 144.417 133.365 143.417C134.364 142.418 134.925 141.063 134.925 139.65C134.925 138.237 134.364 136.882 133.365 135.883C132.366 134.884 131.011 134.323 129.598 134.323H114.674C112.413 134.323 110.245 133.425 108.646 131.826C107.048 130.228 106.15 128.06 106.15 125.799C106.15 123.538 107.048 121.37 108.646 119.771C110.245 118.173 112.413 117.275 114.674 117.275H190.324C192.585 117.275 194.753 116.377 196.351 114.778C197.95 113.18 198.848 111.012 198.848 108.751C198.848 106.49 197.95 104.322 196.351 102.723C194.753 101.125 192.585 100.227 190.324 100.227H178.604C175.213 100.227 171.961 98.8798 169.563 96.4819C167.165 94.0841 165.818 90.8319 165.818 87.4409C165.818 84.0498 167.165 80.7977 169.563 78.3998C171.961 76.002 175.213 74.6549 178.604 74.6549H185.53C189.042 74.6244 192.4 73.2078 194.873 70.7134C197.346 68.219 198.733 64.8488 198.733 61.3364C198.733 57.8239 197.346 54.4537 194.873 51.9593C192.4 49.4649 189.042 48.0483 185.53 48.0179H121.598C119.212 47.9928 116.933 47.0276 115.255 45.3319C113.577 43.6362 112.636 41.347 112.636 38.9614C112.636 36.5758 113.577 34.2865 115.255 32.5908C116.933 30.8951 119.212 29.9299 121.598 29.9049H148.235C149.885 29.903 151.495 29.3898 152.842 28.4359C154.189 27.482 155.207 26.1342 155.757 24.5779C156.07 23.7247 156.229 22.8227 156.226 21.9139C156.224 19.7954 155.381 17.7643 153.884 16.2661C152.386 14.7678 150.355 13.9248 148.237 13.9219L64.0639 13.9219C61.9459 13.9264 59.916 14.7697 58.4183 16.2673C56.9207 17.765 56.0773 19.7949 56.0729 21.9129C56.0699 22.8217 56.2287 23.7237 56.5419 24.5769C57.09 26.1342 58.108 27.483 59.4553 28.4371C60.8027 29.3913 62.4129 29.9038 64.0639 29.9039H81.1109C83.4963 29.9289 85.7755 30.8941 87.4535 32.5898C89.1315 34.2855 90.0727 36.5748 90.0727 38.9604C90.0727 41.346 89.1315 43.6352 87.4535 45.3309C85.7755 47.0266 83.4963 47.9918 81.1109 48.0169H16.1169C12.587 48.0253 9.2042 49.4313 6.70823 51.9273C4.21226 54.4232 2.8063 57.8061 2.79785 61.3359Z" fill="white" fill-opacity="0.97"/>
</g>
<path d="M104.475 139.632C93.5002 139.631 82.7898 136.262 73.7906 129.98C64.7915 123.698 57.9371 114.805 54.1532 104.503C50.3694 94.201 49.8385 82.9859 52.6323 72.3724C55.426 61.759 61.4097 52.2586 69.7752 45.1545C70.2383 44.7611 70.8387 44.5677 71.4443 44.6169C72.05 44.6661 72.6113 44.9539 73.0047 45.417C73.3982 45.8801 73.5915 46.4805 73.5423 47.0861C73.4931 47.6918 73.2053 48.2531 72.7422 48.6465C67.5735 53.0359 63.3714 58.4497 60.4016 64.5458C57.4318 70.6419 55.7588 77.2877 55.4884 84.0634C55.2179 90.839 56.3559 97.597 58.8303 103.91C61.3048 110.224 65.0619 115.955 69.8644 120.743C74.6668 125.53 80.4101 129.269 86.7312 131.724C93.0524 134.179 99.814 135.295 106.589 135.004C113.363 134.712 120.004 133.018 126.091 130.029C132.178 127.04 137.578 122.821 141.951 117.639C142.145 117.406 142.382 117.215 142.65 117.075C142.918 116.935 143.21 116.85 143.511 116.823C143.812 116.797 144.116 116.831 144.404 116.922C144.691 117.013 144.959 117.161 145.189 117.356C145.42 117.551 145.61 117.789 145.748 118.058C145.886 118.327 145.97 118.62 145.994 118.921C146.019 119.222 145.983 119.525 145.89 119.813C145.797 120.1 145.648 120.366 145.451 120.596C140.422 126.563 134.149 131.36 127.071 134.648C119.993 137.936 112.282 139.637 104.477 139.632" fill="#090029"/>
<path d="M155.795 88.3094C155.188 88.3094 154.605 88.068 154.175 87.6383C153.746 87.2087 153.504 86.626 153.504 86.0184C153.497 78.5281 151.776 71.1387 148.472 64.4164C145.168 57.6942 140.369 51.8174 134.443 47.2365C128.517 42.6555 121.621 39.4919 114.283 37.988C106.945 36.4841 99.3607 36.6799 92.1103 38.5604C91.5221 38.7131 90.8974 38.626 90.3735 38.3182C89.8497 38.0103 89.4695 37.507 89.3168 36.9189C89.164 36.3307 89.2511 35.706 89.559 35.1821C89.8668 34.6583 90.3701 34.2781 90.9583 34.1254C98.886 32.0688 107.179 31.8544 115.203 33.4986C123.226 35.1428 130.767 38.602 137.247 43.6111C143.726 48.6202 148.973 55.0462 152.586 62.3967C156.198 69.7473 158.08 77.8272 158.086 86.0174C158.086 86.625 157.845 87.2077 157.415 87.6373C156.986 88.067 156.403 88.3094 155.795 88.3094Z" fill="#090029"/>
<path d="M42.1582 122.683C42.1582 122.139 41.9969 121.607 41.6949 121.155C41.3928 120.703 40.9635 120.351 40.4612 120.143C39.9588 119.935 39.4061 119.88 38.8729 119.986C38.3396 120.092 37.8498 120.354 37.4653 120.739C37.0809 121.123 36.819 121.613 36.713 122.146C36.6069 122.68 36.6613 123.232 36.8694 123.735C37.0775 124.237 37.4298 124.666 37.8819 124.968C38.334 125.27 38.8655 125.432 39.4092 125.432C40.1382 125.432 40.8375 125.142 41.353 124.626C41.8685 124.111 42.1582 123.412 42.1582 122.683Z" fill="#1A496D"/>
<path d="M62.3183 26.4541C62.3183 26.0916 62.2108 25.7372 62.0094 25.4357C61.808 25.1343 61.5217 24.8994 61.1868 24.7606C60.8519 24.6219 60.4833 24.5856 60.1278 24.6563C59.7722 24.727 59.4456 24.9016 59.1892 25.158C58.9329 25.4143 58.7583 25.7409 58.6876 26.0965C58.6168 26.4521 58.6531 26.8206 58.7919 27.1556C58.9306 27.4905 59.1655 27.7768 59.467 27.9782C59.7684 28.1796 60.1228 28.2871 60.4853 28.2871C60.7261 28.2872 60.9645 28.2399 61.187 28.1478C61.4094 28.0558 61.6115 27.9207 61.7818 27.7505C61.952 27.5803 62.087 27.3782 62.1791 27.1557C62.2712 26.9333 62.3185 26.6948 62.3183 26.4541Z" fill="#1A496D"/>
<path d="M160.377 146.509C160.377 146.146 160.269 145.792 160.068 145.49C159.867 145.189 159.58 144.954 159.245 144.815C158.91 144.677 158.542 144.64 158.186 144.711C157.831 144.782 157.504 144.956 157.248 145.213C156.991 145.469 156.817 145.796 156.746 146.151C156.675 146.507 156.712 146.875 156.85 147.21C156.989 147.545 157.224 147.831 157.526 148.033C157.827 148.234 158.181 148.342 158.544 148.342C158.785 148.342 159.023 148.295 159.246 148.203C159.468 148.11 159.67 147.975 159.84 147.805C160.011 147.635 160.146 147.433 160.238 147.21C160.33 146.988 160.377 146.75 160.377 146.509Z" fill="#1A496D"/>
<path d="M171.374 122.682C170.105 122.682 168.865 122.305 167.81 121.6C166.755 120.896 165.933 119.894 165.447 118.721C164.962 117.549 164.835 116.259 165.082 115.015C165.33 113.771 165.941 112.628 166.838 111.73C167.735 110.833 168.878 110.222 170.122 109.975C171.367 109.727 172.657 109.854 173.829 110.34C175.001 110.825 176.003 111.648 176.708 112.703C177.413 113.758 177.789 114.998 177.789 116.267C177.787 117.967 177.111 119.598 175.908 120.801C174.705 122.003 173.075 122.68 171.374 122.682ZM171.374 111.682C170.468 111.682 169.583 111.951 168.83 112.455C168.076 112.959 167.49 113.674 167.143 114.511C166.797 115.349 166.706 116.27 166.883 117.158C167.06 118.047 167.496 118.863 168.137 119.504C168.778 120.144 169.594 120.58 170.482 120.757C171.371 120.934 172.292 120.844 173.129 120.497C173.966 120.151 174.682 119.564 175.186 118.811C175.689 118.058 175.958 117.173 175.959 116.267C175.958 115.052 175.474 113.887 174.615 113.028C173.756 112.169 172.592 111.686 171.377 111.685" fill="#EF5456"/>
<path d="M162.21 45.6992C161.304 45.6992 160.418 45.4304 159.664 44.9269C158.911 44.4235 158.324 43.7079 157.977 42.8706C157.63 42.0334 157.539 41.1121 157.716 40.2233C157.893 39.3344 158.329 38.518 158.97 37.8772C159.611 37.2364 160.427 36.8 161.316 36.6232C162.205 36.4464 163.126 36.5371 163.963 36.8839C164.801 37.2307 165.516 37.818 166.02 38.5715C166.523 39.325 166.792 40.2109 166.792 41.1172C166.791 42.332 166.307 43.4967 165.448 44.3557C164.589 45.2147 163.425 45.6978 162.21 45.6992ZM162.21 38.3672C161.666 38.3672 161.135 38.5284 160.683 38.8304C160.231 39.1325 159.878 39.5618 159.67 40.0642C159.462 40.5665 159.408 41.1192 159.514 41.6525C159.62 42.1857 159.882 42.6755 160.266 43.06C160.651 43.4444 161.14 43.7063 161.674 43.8123C162.207 43.9184 162.76 43.864 163.262 43.6559C163.764 43.4478 164.194 43.0955 164.496 42.6434C164.798 42.1913 164.959 41.6599 164.959 41.1162C164.958 40.3874 164.668 39.6888 164.153 39.1735C163.637 38.6582 162.939 38.3682 162.21 38.3672Z" fill="#EF5456"/>
<path d="M79.7324 12.7109C78.6446 12.7109 77.5813 12.3884 76.6768 11.784C75.7723 11.1797 75.0674 10.3207 74.6511 9.3157C74.2348 8.31071 74.1259 7.20484 74.3381 6.13794C74.5503 5.07105 75.0742 4.09104 75.8433 3.32185C76.6125 2.55266 77.5925 2.02884 78.6594 1.81662C79.7263 1.6044 80.8322 1.71332 81.8372 2.1296C82.8422 2.54588 83.7012 3.25083 84.3055 4.1553C84.9099 5.05977 85.2324 6.12314 85.2324 7.21094C85.2324 8.66963 84.653 10.0686 83.6215 11.1C82.5901 12.1315 81.1911 12.7109 79.7324 12.7109ZM79.7324 3.54694C79.0072 3.54654 78.2981 3.76127 77.6949 4.16394C77.0918 4.56661 76.6216 5.13914 76.3439 5.8091C76.0661 6.47905 75.9934 7.21633 76.1348 7.92765C76.2762 8.63897 76.6253 9.29237 77.1382 9.80519C77.651 10.318 78.3044 10.6672 79.0157 10.8086C79.727 10.95 80.4643 10.8772 81.1343 10.5995C81.8042 10.3218 82.3768 9.85159 82.7794 9.24841C83.1821 8.64524 83.3968 7.93618 83.3964 7.21094C83.3959 6.23907 83.0098 5.30712 82.3229 4.61962C81.6359 3.93213 80.7043 3.54526 79.7324 3.54394" fill="#EF5456"/>
<path d="M4.582 75.9413C3.67577 75.9413 2.78989 75.6726 2.03638 75.1691C1.28287 74.6657 0.695587 73.9501 0.348786 73.1128C0.00198528 72.2755 -0.0887536 71.3543 0.0880439 70.4654C0.264841 69.5766 0.701235 68.7602 1.34204 68.1194C1.98284 67.4786 2.79928 67.0422 3.6881 66.8654C4.57692 66.6886 5.49821 66.7793 6.33546 67.1261C7.17271 67.4729 7.88832 68.0602 8.3918 68.8137C8.89527 69.5672 9.164 70.4531 9.164 71.3593C9.16268 72.5742 8.67951 73.7388 7.8205 74.5978C6.9615 75.4569 5.79682 75.94 4.582 75.9413ZM4.582 68.6093C4.0383 68.6093 3.50681 68.7706 3.05474 69.0726C2.60267 69.3747 2.25032 69.804 2.04226 70.3064C1.83419 70.8087 1.77975 71.3614 1.88582 71.8946C1.99189 72.4279 2.25371 72.9177 2.63817 73.3022C3.02262 73.6866 3.51244 73.9484 4.0457 74.0545C4.57895 74.1606 5.13168 74.1062 5.634 73.8981C6.13631 73.69 6.56565 73.3377 6.86771 72.8856C7.16978 72.4335 7.331 71.902 7.331 71.3583C7.32994 70.6296 7.03998 69.931 6.52467 69.4157C6.00936 68.9004 5.31076 68.6104 4.582 68.6093Z" fill="#EF5456"/>
<path d="M123.262 13.1655C123.261 13.4082 123.165 13.6407 122.993 13.8123C122.821 13.9839 122.589 14.0807 122.346 14.0815H119.138V17.2895C119.138 17.5326 119.042 17.7657 118.87 17.9376C118.698 18.1094 118.465 18.206 118.222 18.206C117.979 18.206 117.745 18.1094 117.574 17.9376C117.402 17.7657 117.305 17.5326 117.305 17.2895V14.0825H114.097C113.854 14.0825 113.621 13.9859 113.449 13.8141C113.277 13.6422 113.181 13.4091 113.181 13.166C113.181 12.9229 113.277 12.6898 113.449 12.5179C113.621 12.3461 113.854 12.2495 114.097 12.2495H117.305V9.0415C117.305 8.79843 117.402 8.56531 117.574 8.39344C117.745 8.22156 117.979 8.125 118.222 8.125C118.465 8.125 118.698 8.22156 118.87 8.39344C119.042 8.56531 119.138 8.79843 119.138 9.0415V12.2495H122.346C122.589 12.2503 122.821 12.3471 122.993 12.5187C123.165 12.6903 123.261 12.9228 123.262 13.1655Z" fill="#2FDF84"/>
<path d="M34.8257 40.2012C34.8251 40.3776 34.7548 40.5467 34.63 40.6715C34.5052 40.7963 34.3361 40.8666 34.1597 40.8672H31.8257V43.2002C31.8257 43.3768 31.7555 43.5462 31.6306 43.6711C31.5057 43.796 31.3363 43.8662 31.1597 43.8662C30.983 43.8662 30.8136 43.796 30.6887 43.6711C30.5638 43.5462 30.4937 43.3768 30.4937 43.2002V40.8672H28.1597C27.9829 40.8672 27.8134 40.7969 27.6884 40.6719C27.5634 40.547 27.4932 40.3774 27.4932 40.2007C27.4932 40.0239 27.5634 39.8544 27.6884 39.7294C27.8134 39.6044 27.9829 39.5342 28.1597 39.5342H30.4937V37.2012C30.4937 37.0245 30.5638 36.8551 30.6887 36.7302C30.8136 36.6053 30.983 36.5352 31.1597 36.5352C31.3363 36.5352 31.5057 36.6053 31.6306 36.7302C31.7555 36.8551 31.8257 37.0245 31.8257 37.2012V39.5352H34.1587C34.3351 39.5357 34.5042 39.606 34.629 39.7308C34.7538 39.8556 34.8251 40.0247 34.8257 40.2012Z" fill="#2FDF84"/>
<path d="M199.784 75.0273C199.784 75.2481 199.696 75.4596 199.54 75.6157C199.383 75.7718 199.172 75.8598 198.951 75.8603H196.035V78.7763C196.035 78.8857 196.014 78.994 195.972 79.0951C195.93 79.1961 195.868 79.288 195.791 79.3653C195.714 79.4427 195.622 79.504 195.521 79.5459C195.42 79.5878 195.312 79.6093 195.202 79.6093C195.093 79.6093 194.984 79.5878 194.883 79.5459C194.782 79.504 194.69 79.4427 194.613 79.3653C194.536 79.288 194.474 79.1961 194.433 79.0951C194.391 78.994 194.369 78.8857 194.369 78.7763V75.8603H191.453C191.232 75.8603 191.02 75.7726 190.864 75.6163C190.708 75.4601 190.62 75.2482 190.62 75.0273C190.62 74.8064 190.708 74.5945 190.864 74.4383C191.02 74.2821 191.232 74.1943 191.453 74.1943H194.369V71.2783C194.369 71.0574 194.457 70.8455 194.613 70.6893C194.769 70.5331 194.981 70.4453 195.202 70.4453C195.423 70.4453 195.635 70.5331 195.791 70.6893C195.947 70.8455 196.035 71.0574 196.035 71.2783V74.1943H198.951C199.172 74.1948 199.383 74.2828 199.54 74.4389C199.696 74.595 199.784 74.8066 199.784 75.0273Z" fill="#2FDF84"/>
<path opacity="0.5" d="M128.003 61H82.0029C80.4116 61 78.8855 61.6321 77.7603 62.7574C76.6351 63.8826 76.0029 65.4087 76.0029 67V72.472C76.0029 72.8773 76.1639 73.2659 76.4505 73.5525C76.737 73.839 77.1257 74 77.5309 74H132.475C132.88 74 133.269 73.839 133.555 73.5525C133.842 73.2659 134.003 72.8773 134.003 72.472V67C134.003 65.4087 133.371 63.8826 132.246 62.7574C131.12 61.6321 129.594 61 128.003 61Z" fill="#090029"/>
<path opacity="0.43" d="M83.0029 67V72.47C83.0021 72.6711 83.0412 72.8705 83.1178 73.0564C83.1944 73.2424 83.3071 73.4114 83.4493 73.5536C83.5915 73.6959 83.7605 73.8085 83.9465 73.8852C84.1325 73.9618 84.3318 74.0008 84.5329 74H77.5329C77.3318 74.0008 77.1325 73.9618 76.9465 73.8852C76.7605 73.8085 76.5915 73.6959 76.4493 73.5536C76.3071 73.4114 76.1944 73.2424 76.1178 73.0564C76.0412 72.8705 76.0021 72.6711 76.0029 72.47V67C76.0029 65.4087 76.6351 63.8826 77.7603 62.7574C78.8855 61.6321 80.4116 61 82.0029 61H89.0029C87.4116 61 85.8855 61.6321 84.7603 62.7574C83.6351 63.8826 83.0029 65.4087 83.0029 67Z" fill="#090029"/>
<path d="M128.003 59H119.003V55.76C119 54.4985 118.498 53.2894 117.606 52.3974C116.714 51.5053 115.504 51.0029 114.243 51H95.7629C94.5014 51.0029 93.2924 51.5053 92.4003 52.3974C91.5083 53.2894 91.0058 54.4985 91.0029 55.76V59H82.0029C79.8821 59.0029 77.849 59.8467 76.3493 61.3464C74.8496 62.846 74.0058 64.8792 74.0029 67V72.47C74.0028 72.9336 74.094 73.3927 74.2714 73.821C74.4487 74.2494 74.7087 74.6386 75.0365 74.9664C75.3644 75.2942 75.7536 75.5542 76.1819 75.7316C76.6102 75.9089 77.0693 76.0001 77.5329 76H79.0029V111C79.0058 113.121 79.8496 115.154 81.3493 116.654C82.849 118.153 84.8821 118.997 87.0029 119H122.003C124.124 118.997 126.157 118.153 127.657 116.654C129.156 115.154 130 113.121 130.003 111V76H132.473C132.937 76.0001 133.396 75.9089 133.824 75.7316C134.252 75.5542 134.641 75.2942 134.969 74.9664C135.297 74.6386 135.557 74.2494 135.734 73.821C135.912 73.3927 136.003 72.9336 136.003 72.47V67C136 64.8792 135.156 62.846 133.657 61.3464C132.157 59.8467 130.124 59.0029 128.003 59ZM95.0029 55.76C95.0029 55.5584 95.083 55.3651 95.2255 55.2226C95.3681 55.0801 95.5614 55 95.7629 55H114.243C114.444 55 114.638 55.0801 114.78 55.2226C114.923 55.3651 115.003 55.5584 115.003 55.76V59H95.0029V55.76ZM132.003 72H121.003C120.472 72 119.964 72.2107 119.589 72.5858C119.214 72.9609 119.003 73.4696 119.003 74C119.003 74.5304 119.214 75.0391 119.589 75.4142C119.964 75.7893 120.472 76 121.003 76H126.003V111C126.003 112.061 125.582 113.078 124.831 113.828C124.081 114.579 123.064 115 122.003 115H87.0029C85.9421 115 84.9246 114.579 84.1745 113.828C83.4244 113.078 83.0029 112.061 83.0029 111V76H111.003C111.533 76 112.042 75.7893 112.417 75.4142C112.792 75.0391 113.003 74.5304 113.003 74C113.003 73.4696 112.792 72.9609 112.417 72.5858C112.042 72.2107 111.533 72 111.003 72H78.0029V67C78.0029 65.9391 78.4244 64.9217 79.1745 64.1716C79.9246 63.4214 80.9421 63 82.0029 63H128.003C129.064 63 130.081 63.4214 130.831 64.1716C131.582 64.9217 132.003 65.9391 132.003 67V72Z" fill="#090029"/>
<path d="M93.0029 103C92.4725 103 91.9638 102.789 91.5887 102.414C91.2136 102.039 91.0029 101.53 91.0029 101V91C91.0029 90.4696 91.2136 89.9609 91.5887 89.5858C91.9638 89.2107 92.4725 89 93.0029 89C93.5334 89 94.0421 89.2107 94.4171 89.5858C94.7922 89.9609 95.0029 90.4696 95.0029 91V101C95.0029 101.53 94.7922 102.039 94.4171 102.414C94.0421 102.789 93.5334 103 93.0029 103Z" fill="#090029"/>
<path d="M105.003 107C104.472 107 103.964 106.789 103.589 106.414C103.214 106.039 103.003 105.53 103.003 105V87C103.003 86.4696 103.214 85.9609 103.589 85.5858C103.964 85.2107 104.472 85 105.003 85C105.533 85 106.042 85.2107 106.417 85.5858C106.792 85.9609 107.003 86.4696 107.003 87V105C107.003 105.53 106.792 106.039 106.417 106.414C106.042 106.789 105.533 107 105.003 107Z" fill="#090029"/>
<path d="M117.003 103C116.472 103 115.964 102.789 115.589 102.414C115.214 102.039 115.003 101.53 115.003 101V91C115.003 90.4696 115.214 89.9609 115.589 89.5858C115.964 89.2107 116.472 89 117.003 89C117.533 89 118.042 89.2107 118.417 89.5858C118.792 89.9609 119.003 90.4696 119.003 91V101C119.003 101.53 118.792 102.039 118.417 102.414C118.042 102.789 117.533 103 117.003 103Z" fill="#090029"/>
</g>
<defs>
<filter id="filter0_b_821_31813" x="-29.2021" y="-18.0781" width="260.05" height="195.055" filterUnits="userSpaceOnUse" color-interpolation-filters="sRGB">
<feFlood flood-opacity="0" result="BackgroundImageFix"/>
<feGaussianBlur in="BackgroundImageFix" stdDeviation="16"/>
<feComposite in2="SourceAlpha" operator="in" result="effect1_backgroundBlur_821_31813"/>
<feBlend mode="normal" in="SourceGraphic" in2="effect1_backgroundBlur_821_31813" result="shape"/>
</filter>
<clipPath id="clip0_821_31813">
<rect width="200.003" height="150" fill="white"/>
</clipPath>
</defs>
</svg>
