<svg width="16" height="16" viewBox="0 0 16 16" fill="none" xmlns="http://www.w3.org/2000/svg">
<g opacity="1">
<path d="M5.54 16C3.69 16 2.19 14.5 2.19 12.65V4.3H1.96C1.43 4.3 1 3.87 1 3.34C1 2.81 1.43 2.38 1.96 2.38H4.58V2.15C4.58 0.96 5.55 0 6.73 0H9.12C10.31 0 11.27 0.97 11.27 2.15V2.38H13.89C14.42 2.38 14.85 2.81 14.85 3.34C14.85 3.87 14.42 4.3 13.89 4.3H4.11V12.65C4.11 13.44 4.75 14.08 5.54 14.08H10.31C11.1 14.08 11.74 13.44 11.74 12.65V5.73C11.74 5.2 12.17 4.77 12.7 4.77C13.23 4.77 13.66 5.2 13.66 5.73V12.65C13.66 14.49 12.16 16 10.31 16H5.54ZM9.35 2.39V2.16C9.35 2.03 9.24 1.93 9.12 1.93H6.73C6.6 1.93 6.5 2.04 6.5 2.16V2.39H9.36H9.35Z" fill="#090029"/>
<path d="M5.54008 13.6109C5.01008 13.6109 4.58008 13.1809 4.58008 12.6509V6.92094C4.58008 6.39094 5.01008 5.96094 5.54008 5.96094C6.07008 5.96094 6.50008 6.39094 6.50008 6.92094V12.6509C6.50008 13.1809 6.07008 13.6109 5.54008 13.6109Z" fill="#090029"/>
<path d="M7.92973 13.6109C7.39973 13.6109 6.96973 13.1809 6.96973 12.6509V6.92094C6.96973 6.39094 7.39973 5.96094 7.92973 5.96094C8.45973 5.96094 8.88973 6.39094 8.88973 6.92094V12.6509C8.88973 13.1809 8.45973 13.6109 7.92973 13.6109Z" fill="#090029"/>
<path d="M10.3096 13.6109C9.77961 13.6109 9.34961 13.1809 9.34961 12.6509V6.92094C9.34961 6.39094 9.77961 5.96094 10.3096 5.96094C10.8396 5.96094 11.2696 6.39094 11.2696 6.92094V12.6509C11.2696 13.1809 10.8396 13.6109 10.3096 13.6109Z" fill="black"/>
</g>
</svg>
