<svg width="1080" height="1080" viewBox="0 0 1080 1080" fill="none" xmlns="http://www.w3.org/2000/svg">
<g opacity="0.4" clip-path="url(#clip0_940_933)">
<path d="M1080 928.869C1080 956.765 1071.72 984.035 1056.2 1007.23C1040.67 1030.43 1018.6 1048.5 992.787 1059.18C966.97 1069.86 938.56 1072.65 911.151 1067.21C883.743 1061.77 858.566 1048.34 838.805 1028.61C819.044 1008.89 805.586 983.757 800.134 956.397C794.681 929.038 797.479 900.678 808.172 874.906C818.866 849.133 836.976 827.105 860.212 811.606C883.447 796.108 910.765 787.836 938.711 787.836C976.182 787.837 1012.12 802.696 1038.62 829.144C1065.11 855.592 1080 891.464 1080 928.869Z" fill="url(#paint0_linear_940_933)"/>
<path d="M536.938 679.483L612.705 603.84C636.829 576.242 652.347 542.208 657.353 505.923C662.358 469.638 656.632 432.684 640.879 399.604C625.126 366.524 600.032 338.76 568.683 319.726C537.334 300.692 501.096 291.218 464.425 292.468C427.754 293.719 392.248 305.639 362.273 326.763C332.298 347.888 309.16 377.296 295.705 411.371C282.249 445.447 279.063 482.705 286.536 518.565C294.01 554.424 311.818 587.322 337.772 613.214L204.546 746.189C169.509 711.299 141.724 669.84 122.788 624.197C103.852 578.553 94.1379 529.624 94.2047 480.222C94.2047 272.5 262.884 104.114 470.985 104.114C679.087 104.114 847.75 272.498 847.75 480.222C847.828 547.311 829.843 613.189 795.677 670.963L864.027 739.186C914.968 662.403 942.074 572.32 941.951 480.225C941.951 220.573 731.091 10.0781 470.984 10.0781C210.876 10.0781 0 220.573 0 480.225C0 739.877 210.863 950.374 470.982 950.374C563.229 950.496 653.461 923.441 730.372 872.598L536.938 679.483Z" fill="url(#paint1_linear_940_933)"/>
</g>
<defs>
<linearGradient id="paint0_linear_940_933" x1="797.418" y1="917.877" x2="1080" y2="919.575" gradientUnits="userSpaceOnUse">
<stop stop-color="#EE5488"/>
<stop offset="1" stop-color="#6D245A"/>
</linearGradient>
<linearGradient id="paint1_linear_940_933" x1="3.83258e-08" y1="443.555" x2="941.951" y2="449.217" gradientUnits="userSpaceOnUse">
<stop stop-color="#EE5488"/>
<stop offset="1" stop-color="#6D245A"/>
</linearGradient>
<clipPath id="clip0_940_933">
<rect width="1080" height="1080" fill="white"/>
</clipPath>
</defs>
</svg>
