<?xml version="1.0" encoding="UTF-8"?>
<svg id="Layer_2" data-name="Layer 2" xmlns="http://www.w3.org/2000/svg" viewBox="0 0 1292.31 1292.61">
  <defs>
    <style>
      .cls-1 {
        fill: #000;
        stroke-width: 0px;
      }
    </style>
  </defs>
  <g id="Layer_1-2" data-name="Layer 1">
    <g id="exclamation">
      <path class="cls-1" d="M624.53,0c23.59.68,42.1.63,60.52,1.92,18.86,1.31,37.66,3.68,56.43,6.06,11.48,1.46,22.92,3.42,34.23,5.88,14.33,3.13,28.54,6.84,42.73,10.6,11.79,3.13,23.6,6.28,35.15,10.16,12.12,4.08,24.03,8.83,35.87,13.69,12.62,5.17,25.28,10.33,37.5,16.38,14.2,7.02,28.22,14.51,41.78,22.69,15.53,9.37,30.64,19.46,45.62,29.69,24.31,16.62,47.17,35.15,68.26,55.67,17.83,17.34,35.38,35.06,51.97,53.57,18.62,20.78,35.11,43.29,50.53,66.63,16.3,24.67,30.85,50.29,43.42,76.96,8.3,17.6,15.43,35.8,22.24,54.04,6.19,16.58,12.05,33.38,16.61,50.47,5.26,19.71,9.55,39.72,13.16,59.81,3.55,19.79,6.47,39.77,8.29,59.79,2.1,23.17,4.57,46.43,2.98,69.76-.81,11.93-2.47,23.8-3.74,35.7-1.48,13.91-2.54,27.87-4.53,41.7-2.05,14.3-4.61,28.56-7.66,42.68-2.97,13.77-6.43,27.47-10.41,40.99-4.25,14.44-9.03,28.74-14.17,42.89-4.79,13.2-9.84,26.35-15.68,39.11-8,17.48-16.34,34.86-25.51,51.75-8.37,15.42-17.62,30.42-27.24,45.11-15.46,23.62-32.71,45.92-51.39,67.12-27.95,31.7-58.32,60.94-92.11,86.23-22.31,16.7-45.8,31.99-69.66,46.41-18.66,11.27-38.5,20.68-58.2,30.1-15.3,7.32-31.08,13.71-46.89,19.88-10.21,3.99-20.8,7.07-31.34,10.14-16.43,4.78-32.93,9.32-49.46,13.73-5.42,1.45-11.02,2.29-16.57,3.19-9.49,1.54-18.98,3.23-28.53,4.27-20.95,2.28-41.91,4.61-62.92,6.14-16.71,1.22-33.51,1.92-50.25,1.61-10-.19-19.95-2.78-29.92-4.26-1.64-.24-3.31-.31-4.97-.46-15.54-1.43-31.16-2.26-46.6-4.45-15.83-2.25-31.56-5.38-47.15-8.95-14.74-3.37-29.41-7.27-43.79-11.92-14.98-4.84-29.66-10.64-44.31-16.43-12.92-5.11-25.79-10.43-38.38-16.32-12.1-5.66-24.01-11.79-35.64-18.37-12.49-7.06-24.93-14.32-36.7-22.49-20.12-13.99-40.19-28.13-59.38-43.35-29.2-23.16-55.65-49.35-80.18-77.42-19.89-22.75-37.72-47.04-54.58-72.14-15-22.34-28.16-45.7-39.39-69.98-10.58-22.89-19.67-46.57-27.87-70.43-7.25-21.1-12.82-42.83-18.28-64.49-3.76-14.93-6.64-30.15-8.86-45.39-2.69-18.42-3.62-37.1-6.48-55.49-4.57-29.39-3.14-58.79-1.41-88.19,1.02-17.42,2.8-34.87,5.48-52.11,2.91-18.65,7-37.13,11.1-55.56,2.84-12.73,6.05-25.43,10.04-37.83,5.04-15.66,10.78-31.11,16.71-46.47,4.91-12.73,10-25.43,15.96-37.69,8.01-16.5,16.29-32.95,25.63-48.72,10.36-17.5,21.7-34.46,33.25-51.22,19.07-27.68,40.37-53.66,64.43-77.1,19.95-19.43,40.69-38.15,62.07-56,14.82-12.37,31.09-23.06,47.14-33.86,13.29-8.94,26.96-17.4,40.94-25.23,12.54-7.02,25.62-13.12,38.66-19.21,12.79-5.97,25.68-11.81,38.81-16.96,12.57-4.93,25.47-9.06,38.31-13.25,11.74-3.82,23.58-7.33,35.42-10.82,4.43-1.31,8.96-2.36,13.49-3.25,12.65-2.48,25.28-5.12,38.01-7.13,15.06-2.38,30.17-4.49,45.33-6.11,15.66-1.68,31.41-2.63,42.09-3.49ZM646.22,48.01l-.09-.97c-25.16,1.78-50.31,3.56-75.47,5.33-2.99.21-6.03.1-8.97.61-8.56,1.46-17.09,3.16-25.62,4.76-7.44,1.4-14.95,2.5-22.31,4.27-9.61,2.31-19.11,5.12-28.64,7.77-8.49,2.35-17.11,4.37-25.42,7.25-12.17,4.22-24.21,8.87-36.14,13.73-11.85,4.83-23.67,9.8-35.2,15.34-10.64,5.12-20.99,10.87-31.25,16.71-12.77,7.27-25.65,14.43-37.89,22.54-13.42,8.89-26.66,18.19-39.08,28.41-19.63,16.15-39.28,32.4-57.5,50.09-21.89,21.25-41.49,44.69-59.47,69.47-15.97,22.01-30.58,44.84-43.3,68.84-7.32,13.81-14.52,27.74-20.67,42.09-8.23,19.21-15.8,38.73-22.87,58.41-4.66,12.98-8.4,26.35-11.69,39.75-3.58,14.59-6.5,29.37-9.07,44.18-2.41,13.89-4.65,27.87-5.75,41.91-1.57,19.92-3.15,39.96-2.7,59.9.72,31.9,2.09,63.86,8.02,95.35,2.41,12.81,5.18,25.56,8.02,38.29,2.41,10.79,4.68,21.65,7.85,32.23,4.13,13.78,8.77,27.43,13.79,40.92,4.91,13.18,10.07,26.32,16.03,39.05,6.88,14.68,14.43,29.08,22.33,43.25,7.12,12.77,14.72,25.3,22.81,37.47,8.61,12.95,17.97,25.4,27.16,37.96,15.28,20.89,32.28,40.37,51.09,58.08,18.5,17.42,37.78,34.05,57.2,50.45,9.33,7.88,19.59,14.73,29.79,21.51,12.09,8.03,24.4,15.77,36.94,23.08,10.07,5.87,20.53,11.12,31,16.27,9.16,4.51,18.53,8.62,27.91,12.66,11.4,4.92,22.84,9.79,34.41,14.28,6.84,2.65,13.96,4.59,20.98,6.76,12.12,3.73,24.2,7.56,36.41,10.98,6.16,1.73,12.54,2.65,18.82,3.96,12.31,2.58,24.58,5.34,36.92,7.71,6.78,1.3,13.67,2.14,20.55,2.86,11.53,1.21,23.07,2.77,34.64,3.09,28.24.79,56.51,2.35,84.7-1.61,12.44-1.75,25-2.62,37.51-3.86,2.65-.26,5.36-.18,7.95-.7,12.33-2.48,24.66-5.03,36.94-7.72,10.4-2.28,20.87-4.39,31.1-7.3,12.19-3.47,24.17-7.66,36.21-11.65,6.01-1.99,12.04-3.98,17.88-6.42,10.4-4.35,20.72-8.92,30.97-13.62,11.69-5.36,23.58-10.4,34.83-16.58,14.41-7.92,28.66-16.27,42.29-25.45,19.29-12.99,38.65-26.05,56.68-40.68,16.58-13.45,31.78-28.68,46.99-43.74,32.31-31.99,59.52-68.08,83.29-106.74,8.04-13.08,15.19-26.73,22.16-40.42,6.98-13.7,13.65-27.6,19.68-41.74,4.97-11.65,9.08-23.68,13.09-35.71,4.9-14.72,9.98-29.45,13.73-44.48,4.64-18.65,8.72-37.5,11.71-56.48,2.97-18.88,5.06-37.97,6.15-57.05,2.19-38.48,1.59-76.94-4.65-115.1-2.76-16.85-5.25-33.78-9.06-50.4-4.32-18.83-9.42-37.53-15.25-55.95-5.15-16.29-10.97-32.47-17.94-48.06-9.16-20.49-19.49-40.48-29.75-60.46-12.76-24.87-28.29-48.09-45.72-69.85-15.76-19.67-32.22-38.87-49.65-57.06-21.87-22.83-46.13-43.08-71.81-61.67-24.28-17.58-49.19-34.06-76.04-47.42-19.37-9.64-38.83-19.17-58.68-27.75-13.78-5.95-28.15-10.66-42.51-15.08-14.8-4.55-29.83-8.42-44.9-11.96-12-2.81-24.21-4.72-36.35-6.92-2.44-.44-4.99-.29-7.46-.65-10.08-1.47-20.11-3.8-30.24-4.4-19.12-1.14-38.3-1.31-57.45-1.88Z"/>
      <path class="cls-1" d="M747.71,355.78c-2.1,17.73-4.17,35.22-6.24,52.7-1.04,8.75-2.12,17.49-3.11,26.25-2.44,21.65-4.73,43.31-7.27,64.94-2.64,22.45-5.57,44.87-8.24,67.33-3.1,26.08-6.05,52.18-9.05,78.27-2.99,25.93-5.93,51.86-8.95,77.78-2.07,17.83-3.45,35.79-6.61,53.43-2.33,13-9.93,23.5-21.05,31.26-12.22,8.53-25.74,12.29-40.38,10.8-19.4-1.97-40.74-15.35-46.73-37.41-5.08-18.72-6.79-37.84-8.8-56.99-1.51-14.36-3.59-28.67-5.18-43.02-2.42-21.81-4.56-43.64-6.97-65.45-2.88-26.08-5.92-52.14-8.91-78.2-2.99-26.08-6.02-52.16-9.03-78.23-2.02-17.49-4.01-34.99-6.09-52.48-1.77-14.84-4-29.64-5.36-44.51-.7-7.74-.93-15.78.35-23.39,2.59-15.39,9.33-29.26,18.19-42.12,9.6-13.93,22.41-24.35,37.25-31.77,19.8-9.9,41.24-12.42,63.11-9.72,28.28,3.5,51.59,16.49,69.11,38.96,8.11,10.41,13.73,22.39,16.14,35.54,1.57,8.61,2.57,17.33,3.83,26.01Z"/>
      <path class="cls-1" d="M646.62,872.5c44.15-1.57,80.02,37.68,79.35,79.88-.7,44.05-36.25,80.19-81.87,79.11-41.42-.99-77.42-34.2-77.56-80.42-.12-41.71,35.48-80.37,80.08-78.57Z"/>
    </g>
  </g>
</svg>