<svg width="32" height="32" viewBox="0 0 32 32" fill="none" xmlns="http://www.w3.org/2000/svg">
<g clip-path="url(#clip0_2027_8425)">
<path d="M14.4375 32H17.5625C18.5981 32 19.4375 31.1606 19.4375 30.125H12.5625C12.5625 31.1606 13.4019 32 14.4375 32Z" fill="#090029"/>
<path d="M31.0625 10.625H29.1875C28.6697 10.625 28.25 11.0447 28.25 11.5625C28.25 12.0803 28.6697 12.5 29.1875 12.5H31.0625C31.5803 12.5 32 12.0803 32 11.5625C32 11.0447 31.5803 10.625 31.0625 10.625Z" fill="#090029"/>
<path d="M29.0314 7.062L30.6551 6.1245C31.1035 5.86563 31.2571 5.29225 30.9983 4.84388C30.7394 4.3955 30.166 4.24188 29.7176 4.50075L28.0939 5.43825C27.6455 5.69713 27.4919 6.2705 27.7508 6.71888C28.0096 7.16725 28.583 7.32088 29.0314 7.062Z" fill="#090029"/>
<path d="M30.6551 17.0008L29.0314 16.0633C28.583 15.8044 28.0096 15.958 27.7508 16.4064C27.4919 16.8548 27.6455 17.4281 28.0939 17.687L29.7176 18.6245C30.166 18.8834 30.7394 18.7298 30.9983 18.2814C31.2571 17.833 31.1036 17.2596 30.6551 17.0008Z" fill="#090029"/>
<path d="M2.8125 12.5C3.33025 12.5 3.75 12.0803 3.75 11.5625C3.75 11.0447 3.33025 10.625 2.8125 10.625H0.9375C0.41975 10.625 0 11.0447 0 11.5625C0 12.0803 0.41975 12.5 0.9375 12.5H2.8125Z" fill="#090029"/>
<path d="M3.90617 5.43825L2.28236 4.50075C1.83398 4.24188 1.26061 4.3955 1.00173 4.84388C0.742856 5.29225 0.896481 5.86563 1.34486 6.1245L2.96867 7.062C3.41704 7.32088 3.99042 7.16725 4.24929 6.71888C4.50817 6.2705 4.35454 5.69713 3.90617 5.43825Z" fill="#090029"/>
<path d="M4.24929 16.4064C3.99042 15.958 3.41704 15.8044 2.96867 16.0633L1.34486 17.0008C0.896481 17.2596 0.742856 17.833 1.00173 18.2814C1.26061 18.7298 1.83398 18.8834 2.28236 18.6245L3.90617 17.687C4.35454 17.4281 4.50817 16.8548 4.24929 16.4064Z" fill="#090029"/>
<path d="M25.9288 8.8945C26.1814 8.36044 26.3125 7.78206 26.3125 7.1875C26.3125 5.23825 24.9327 3.60525 23.0984 3.21412C22.7073 1.37981 21.0742 0 19.125 0C19.1169 0 19.1089 0 19.1009 6.25e-05C17.9003 0.007125 16.9375 0.998687 16.9375 2.19937V11.5651C17.7215 10.9752 18.6956 10.625 19.75 10.625C20.2678 10.625 20.6875 11.0447 20.6875 11.5625C20.6875 12.0803 20.2678 12.5 19.75 12.5C18.1992 12.5 16.9375 13.7617 16.9375 15.3125V20.9256C16.9375 22.1262 17.9003 23.1179 19.1009 23.1249C19.1089 23.125 19.1169 23.125 19.125 23.125C21.0742 23.125 22.7073 21.7452 23.0984 19.9109C24.9327 19.5198 26.3125 17.8867 26.3125 15.9375C26.3125 15.3429 26.1814 14.7646 25.9288 14.2305C26.5774 13.4973 26.9375 12.5606 26.9375 11.5625C26.9375 10.5644 26.5774 9.62775 25.9288 8.8945Z" fill="#090029"/>
<path d="M12.8991 23.1249C14.0998 23.1179 15.0625 22.1263 15.0625 20.9256V15.3125C15.0625 13.7617 13.8008 12.5 12.25 12.5C11.7322 12.5 11.3125 12.0803 11.3125 11.5625C11.3125 11.0447 11.7322 10.625 12.25 10.625C13.3044 10.625 14.2785 10.9752 15.0625 11.5651V2.19937C15.0625 0.99875 14.0998 0.007125 12.8991 0.000125C12.8911 0 12.8831 0 12.875 0C10.9258 0 9.29275 1.37981 8.90162 3.21412C7.06731 3.60525 5.6875 5.23825 5.6875 7.1875C5.6875 7.78206 5.81856 8.36044 6.07119 8.8945C5.42263 9.62775 5.0625 10.5644 5.0625 11.5625C5.0625 12.5606 5.42263 13.4973 6.07119 14.2305C5.81856 14.7646 5.6875 15.3429 5.6875 15.9375C5.6875 17.8867 7.06731 19.5198 8.90162 19.9109C9.29275 21.7452 10.9258 23.125 12.875 23.125C12.8831 23.125 12.8911 23.125 12.8991 23.1249Z" fill="#090029"/>
<path d="M19.093 25.0018C17.8512 24.9945 16.7398 24.421 16.0001 23.5273C15.2608 24.421 14.1503 24.9945 12.9102 25.0018L12.875 25.0019C12.1225 25.0019 11.3798 24.8564 10.6875 24.5817V26.0644C10.6875 27.2706 11.6688 28.2519 12.875 28.2519H19.125C20.3312 28.2519 21.3125 27.2706 21.3125 26.0644V24.5817C20.6202 24.8565 19.8775 25.0019 19.125 25.0019L19.093 25.0018Z" fill="#090029"/>
</g>
<defs>
<clipPath id="clip0_2027_8425">
<rect width="32" height="32" fill="white"/>
</clipPath>
</defs>
</svg>
