<svg width="16" height="16" viewBox="0 0 16 16" fill="none" xmlns="http://www.w3.org/2000/svg">
<g opacity="1" clip-path="url(#clip0_1736_6033)">
<path d="M4.96833 9.34413C2.12726 9.60093 -0.0372321 12.0016 0.000485458 14.854V14.9986C0.000485458 15.5509 0.44819 15.9986 1.00045 15.9986C1.55272 15.9986 2.00042 15.5509 2.00042 14.9986V14.814C1.97036 13.0626 3.26282 11.5691 5.00033 11.3474C6.83443 11.1655 8.46872 12.5049 8.65059 14.339C8.66134 14.4475 8.66678 14.5563 8.66687 14.6653V14.9986C8.66687 15.5509 9.11458 15.9986 9.66684 15.9986C10.2191 15.9986 10.6668 15.5509 10.6668 14.9986V14.6653C10.6636 11.7166 8.27048 9.32878 5.32176 9.33203C5.20382 9.33216 5.08595 9.33619 4.96833 9.34413Z" fill="#090029"/>
<path d="M5.33386 7.99975C7.54292 7.99975 9.33373 6.20893 9.33373 3.99987C9.33373 1.79082 7.54292 0 5.33386 0C3.1248 0 1.33398 1.79082 1.33398 3.99987C1.3362 6.20802 3.12571 7.99753 5.33386 7.99975ZM5.33386 1.99994C6.43839 1.99994 7.3338 2.89535 7.3338 3.99987C7.3338 5.1044 6.43839 5.99981 5.33386 5.99981C4.22933 5.99981 3.33392 5.1044 3.33392 3.99987C3.33392 2.89535 4.22933 1.99994 5.33386 1.99994Z" fill="#090029"/>
<path d="M14.9998 6.66791H13.9999V5.66794C13.9999 5.11567 13.5522 4.66797 12.9999 4.66797C12.4476 4.66797 11.9999 5.11567 11.9999 5.66794V6.66791H11C10.4477 6.66791 10 7.11561 10 7.66787C10 8.22014 10.4477 8.66784 11 8.66784H11.9999V9.66781C11.9999 10.2201 12.4476 10.6678 12.9999 10.6678C13.5522 10.6678 13.9999 10.2201 13.9999 9.66781V8.66784H14.9998C15.5521 8.66784 15.9998 8.22014 15.9998 7.66787C15.9998 7.11561 15.5521 6.66791 14.9998 6.66791Z" fill="#090029"/>
</g>
<defs>
<clipPath id="clip0_1736_6033">
<rect width="16" height="16" fill="white"/>
</clipPath>
</defs>
</svg>
