<svg width="16" height="16" viewBox="0 0 16 16" fill="none" xmlns="http://www.w3.org/2000/svg">
<g opacity="1" clip-path="url(#clip0_2071_5679)">
<path d="M15.3148 12.7591V4.31858C15.3148 3.69715 14.8165 3.19371 14.2014 3.19371H10.8924V1.12488C10.8924 0.503441 10.3941 0 9.77905 0H6.03404C5.41895 0 4.92066 0.503441 4.92066 1.12488V4.49951H1.61165C0.996567 4.49951 0.49827 5.00295 0.49827 5.62439V12.7591C0.49827 12.8063 0.49827 12.8614 0.49827 12.9243C0.49827 12.94 0.474913 12.9558 0.459341 12.9715C0.443769 12.9872 0.428197 13.0029 0.412625 13.0187C0.381482 13.0501 0.358124 13.0895 0.326981 13.1288C0.272479 13.1996 0.23355 13.2783 0.186835 13.3569C0.10119 13.5221 0.0466887 13.6952 0.0155452 13.8682C-2.66119e-05 13.9705 -0.0078125 14.0728 -0.0078125 14.1829C-0.0078125 15.1898 0.794134 16 1.79073 16H14.1859C15.1825 16 15.9922 15.1898 15.9922 14.1829C15.9922 13.6087 15.7197 13.0895 15.307 12.7591H15.3148ZM10.8924 4.76696H13.7576V12.3658H10.8924V4.76696ZM6.47783 1.57325H9.33525V12.3658H6.47783V1.57325ZM2.05545 6.07276H4.92066V12.3658H2.05545V6.07276ZM14.1936 14.4267H1.79851C1.66615 14.4267 1.55715 14.3166 1.55715 14.1829C1.55715 14.0492 1.66615 13.939 1.79851 13.939H14.2014C14.3416 13.939 14.4428 14.0492 14.4428 14.1829C14.4428 14.3166 14.3338 14.4267 14.1936 14.4267Z" fill="#090029"/>
<path d="M2.77192 7.71707C2.53056 7.71707 2.32812 7.52041 2.32812 7.26869C2.32812 7.01697 2.52277 6.82031 2.77192 6.82031H4.01766C4.25903 6.82031 4.46146 7.01697 4.46146 7.26869C4.46146 7.52041 4.26681 7.71707 4.01766 7.71707H2.77192Z" fill="#090029"/>
<path d="M7.23286 3.13894C6.9915 3.13894 6.78906 2.94229 6.78906 2.69057C6.78906 2.43884 6.98371 2.24219 7.23286 2.24219H8.4786C8.71996 2.24219 8.9224 2.43884 8.9224 2.69057C8.9224 2.94229 8.72775 3.13894 8.4786 3.13894H7.23286Z" fill="black"/>
<path d="M11.7026 6.54519C11.4612 6.54519 11.2588 6.34854 11.2588 6.09682C11.2588 5.84509 11.4534 5.64844 11.7026 5.64844H12.9483C13.1897 5.64844 13.3921 5.84509 13.3921 6.09682C13.3921 6.34854 13.1975 6.54519 12.9483 6.54519H11.7026Z" fill="black"/>
<path d="M7.63014 6.12769C7.51335 6.12769 7.41992 6.22209 7.41992 6.34008C7.41992 6.45808 7.51335 6.55247 7.63014 6.55247H8.46323C8.58002 6.55247 8.67345 6.45808 8.67345 6.34008C8.67345 6.22209 8.58002 6.12769 8.46323 6.12769H8.25301V4.23192C8.25301 4.11393 8.15958 4.01953 8.04279 4.01953C7.98829 4.01953 7.93379 4.04313 7.89486 4.08246L7.48221 4.49937C7.40435 4.5859 7.40435 4.71963 7.48221 4.79829C7.56007 4.87695 7.69243 4.87695 7.77029 4.79829L7.83257 4.73536V6.11983H7.62236L7.63014 6.12769Z" fill="black"/>
<path d="M13.1584 7.89638C13.1584 7.43227 12.7846 7.05469 12.3253 7.05469C11.8659 7.05469 11.4922 7.43227 11.4922 7.89638C11.4922 8.01437 11.5856 8.10877 11.7024 8.10877C11.8192 8.10877 11.9126 8.01437 11.9126 7.89638C11.9126 7.66039 12.0995 7.47947 12.3253 7.47947C12.5511 7.47947 12.7379 7.66826 12.7379 7.89638C12.7379 8.20316 12.5121 8.35262 12.154 8.57288C11.8426 8.7538 11.4922 8.95833 11.4922 9.37524C11.4922 9.49323 11.5856 9.58763 11.7024 9.58763H12.9481C13.0649 9.58763 13.1584 9.49323 13.1584 9.37524C13.1584 9.25724 13.0649 9.16285 12.9481 9.16285H12.0216C12.1306 9.07632 12.2396 9.00552 12.3642 8.93473C12.7224 8.7302 13.1584 8.47062 13.1584 7.89638Z" fill="black"/>
<path d="M3.39496 8.20312C2.99009 8.20312 2.66309 8.53351 2.66309 8.94255C2.66309 9.06055 2.75652 9.15494 2.8733 9.15494C2.99009 9.15494 3.08352 9.06055 3.08352 8.94255C3.08352 8.7695 3.22367 8.6279 3.39496 8.6279C3.56625 8.6279 3.7064 8.7695 3.7064 8.94255C3.7064 9.11561 3.56625 9.25721 3.39496 9.25721C3.27817 9.25721 3.18474 9.3516 3.18474 9.46959C3.18474 9.58759 3.27817 9.68198 3.39496 9.68198C3.56625 9.68198 3.7064 9.82358 3.7064 9.99664C3.7064 10.1697 3.56625 10.3113 3.39496 10.3113C3.22367 10.3113 3.08352 10.1697 3.08352 9.99664C3.08352 9.87864 2.99009 9.78425 2.8733 9.78425C2.75652 9.78425 2.66309 9.87864 2.66309 9.99664C2.66309 10.4057 2.99009 10.7361 3.39496 10.7361C3.79983 10.7361 4.12683 10.4057 4.12683 9.99664C4.12683 9.79998 4.04897 9.61119 3.90883 9.46959C4.19691 9.18641 4.20469 8.7223 3.91661 8.43125C3.77647 8.28965 3.58961 8.21099 3.39496 8.21099V8.20312Z" fill="black"/>
</g>
<defs>
<clipPath id="clip0_2071_5679">
<rect width="16" height="16" fill="white"/>
</clipPath>
</defs>
</svg>
