<svg width="16" height="16" viewBox="0 0 16 16" fill="none" xmlns="http://www.w3.org/2000/svg">
<g opacity="1" clip-path="url(#clip0_2194_5693)">
<path d="M12.2126 11.6038C11.9614 11.6038 11.7102 11.4929 11.5266 11.3114C11.3431 11.1199 11.2465 10.8679 11.2368 10.5957C11.2368 10.3236 11.3334 10.0716 11.517 9.88005L13.6329 7.66239L11.517 5.44474C11.1402 5.05161 11.1402 4.40647 11.517 4.01334C11.7005 3.82182 11.9421 3.71094 12.203 3.71094C12.4638 3.71094 12.7054 3.81174 12.8889 4.01334L15.6908 6.9467C16.0676 7.33983 16.0676 7.98496 15.6908 8.37809L12.8889 11.3114C12.7054 11.503 12.4638 11.6139 12.203 11.6139L12.2126 11.6038Z" fill="#090029"/>
<path d="M5.18872 8.66902C4.64766 8.66902 4.21289 8.21541 4.21289 7.65092C4.21289 7.08642 4.64766 6.63281 5.18872 6.63281H15.0243C15.5653 6.63281 16.0001 7.08642 16.0001 7.65092C16.0001 8.21541 15.5653 8.66902 15.0243 8.66902H5.18872Z" fill="#090029"/>
<path d="M2.37676 16C1.06278 16 0 14.8811 0 13.5203V2.52271C0 1.1518 1.06278 0.0429688 2.37676 0.0429688H8.70513C10.0191 0.0429688 11.0819 1.1518 11.0819 2.52271V3.98435C11.0819 4.54884 10.6471 5.00245 10.1061 5.00245C9.56502 5.00245 9.13024 4.54884 9.13024 3.98435V2.52271C9.13024 2.2707 8.93701 2.0691 8.69547 2.0691H2.37676C2.13522 2.0691 1.94199 2.2707 1.94199 2.52271V13.5203C1.94199 13.7723 2.13522 13.9739 2.37676 13.9739H8.70513C8.94667 13.9739 9.1399 13.7723 9.1399 13.5203V11.3228C9.1399 10.7684 9.57468 10.3047 10.1157 10.3047C10.6568 10.3047 11.0916 10.7583 11.0916 11.3228V13.5203C11.0916 14.8912 10.0288 16 8.71479 16H2.37676Z" fill="#090029"/>
</g>
<defs>
<clipPath id="clip0_2194_5693">
<rect width="16" height="16" fill="white"/>
</clipPath>
</defs>
</svg>
