<svg width="258" height="194" viewBox="0 0 258 194" fill="none" xmlns="http://www.w3.org/2000/svg">
<g clip-path="url(#clip0_821_32692)">
<g filter="url(#filter0_b_821_32692)">
<path d="M258 79.326C257.992 83.8877 256.182 88.2605 252.967 91.4885C249.752 94.7164 245.393 96.5369 240.843 96.5519H163.26C158.886 96.5519 154.69 98.2942 151.597 101.395C148.504 104.497 146.766 108.703 146.766 113.088C146.766 117.474 148.504 121.68 151.597 124.782C154.69 127.883 158.886 129.625 163.26 129.625H219.556C222.472 129.625 225.269 130.787 227.331 132.854C229.393 134.921 230.552 137.726 230.552 140.649C230.552 143.573 229.393 146.377 227.331 148.445C225.269 150.512 222.472 151.674 219.556 151.674H164.635C161.719 151.674 158.922 152.835 156.86 154.903C154.798 156.97 153.639 159.774 153.639 162.698C153.639 165.622 154.798 168.426 156.86 170.494C158.922 172.561 161.719 173.723 164.635 173.723H214.064C215.423 173.722 216.751 174.126 217.881 174.883C219.01 175.64 219.891 176.716 220.41 177.975C220.929 179.234 221.063 180.619 220.796 181.954C220.53 183.29 219.873 184.516 218.911 185.478C218.277 186.12 217.522 186.63 216.69 186.977C215.858 187.325 214.966 187.504 214.064 187.503H94.6102C93.2515 187.504 91.9232 187.1 90.7936 186.343C89.6639 185.586 88.7839 184.51 88.2648 183.251C87.7458 181.992 87.6111 180.607 87.878 179.271C88.1448 177.936 88.8011 176.709 89.7637 175.748C90.3978 175.106 91.1526 174.596 91.9846 174.248C92.8165 173.901 93.7089 173.722 94.6102 173.723H113.831C116.748 173.723 119.544 172.561 121.607 170.494C123.669 168.426 124.827 165.622 124.827 162.698C124.827 159.774 123.669 156.97 121.607 154.903C119.544 152.835 116.748 151.674 113.831 151.674H16.3485C13.4322 151.674 10.6353 150.512 8.57318 148.445C6.51104 146.377 5.35254 143.573 5.35254 140.649C5.35254 137.726 6.51104 134.921 8.57318 132.854C10.6353 130.787 13.4322 129.625 16.3485 129.625H31.4518C35.8263 129.625 40.0216 127.883 43.1148 124.782C46.208 121.68 47.9458 117.474 47.9458 113.088C47.9458 108.703 46.208 104.497 43.1148 101.395C40.0216 98.2942 35.8263 96.5519 31.4518 96.5519H22.5211C17.9903 96.5126 13.6584 94.6804 10.4683 91.4543C7.27833 88.2282 5.48851 83.8694 5.48851 79.3267C5.48851 74.7839 7.27833 70.4251 10.4683 67.199C13.6584 63.9729 17.9903 62.1408 22.5211 62.1014H104.908C107.986 62.069 110.926 60.8207 113.09 58.6275C115.255 56.4344 116.469 53.4737 116.469 50.3883C116.469 47.303 115.255 44.3422 113.09 42.1491C110.926 39.956 107.986 38.7077 104.908 38.6753H70.5827C68.4549 38.6722 66.3803 38.0081 64.6445 36.7743C62.9086 35.5405 61.5968 33.7977 60.8896 31.7857C60.4862 30.6822 60.2818 29.5155 60.2859 28.3402C60.2886 25.6019 61.3739 22.9764 63.304 21.0389C65.234 19.1015 67.8515 18.0101 70.5827 18.0039H179.051C181.782 18.0097 184.4 19.1008 186.33 21.038C188.26 22.9752 189.346 25.6006 189.349 28.3389C189.353 29.5142 189.149 30.6809 188.745 31.7844C188.04 33.7975 186.729 35.5415 184.992 36.7756C183.256 38.0097 181.181 38.673 179.052 38.674H157.084C154.006 38.7064 151.066 39.9547 148.902 42.1478C146.737 44.3409 145.523 47.3017 145.523 50.387C145.523 53.4724 146.737 56.4332 148.902 58.6263C151.066 60.8194 154.006 62.0677 157.084 62.1001H240.838C245.388 62.1151 249.747 63.9356 252.962 67.1636C256.177 70.3915 257.987 74.7643 257.995 79.326" fill="white" fill-opacity="0.97"/>
</g>
<path d="M134.624 180.595C120.467 180.594 106.65 176.237 95.0413 168.112C83.4323 159.987 74.5901 148.486 69.709 135.162C64.8279 121.838 64.1431 107.333 67.747 93.6061C71.3508 79.8794 79.0698 67.5922 89.8614 58.4043C90.4587 57.8954 91.2332 57.6453 92.0145 57.709C92.7958 57.7726 93.5199 58.1449 94.0274 58.7438C94.535 59.3427 94.7844 60.1192 94.7209 60.9025C94.6574 61.6858 94.2862 62.4117 93.6888 62.9206C87.0211 68.5975 81.6005 75.5993 77.7694 83.4836C73.9384 91.3679 71.7802 99.9632 71.4313 108.726C71.0824 117.489 72.5504 126.23 75.7424 134.395C78.9345 142.561 83.7812 149.973 89.9764 156.165C96.1715 162.357 103.58 167.193 111.735 170.367C119.889 173.542 128.611 174.986 137.351 174.609C146.09 174.232 154.657 172.041 162.508 168.175C170.36 164.31 177.327 158.853 182.968 152.15C183.218 151.85 183.524 151.603 183.87 151.422C184.215 151.241 184.593 151.13 184.981 151.096C185.369 151.062 185.76 151.105 186.132 151.223C186.503 151.342 186.848 151.532 187.146 151.784C187.443 152.037 187.688 152.345 187.866 152.693C188.045 153.04 188.153 153.42 188.184 153.809C188.215 154.198 188.17 154.59 188.049 154.962C187.929 155.334 187.737 155.678 187.483 155.975C180.996 163.693 172.903 169.896 163.773 174.149C154.642 178.402 144.695 180.602 134.627 180.595" fill="#090029"/>
<path d="M200.827 114.215C200.043 114.215 199.291 113.903 198.737 113.348C198.183 112.792 197.871 112.038 197.871 111.252C197.863 101.565 195.642 92.008 191.38 83.3139C187.118 74.6198 180.927 67.0192 173.283 61.0945C165.638 55.1697 156.742 51.0781 147.276 49.1331C137.81 47.1881 128.026 47.4413 118.673 49.8734C117.914 50.071 117.109 49.9583 116.433 49.5601C115.757 49.162 115.267 48.511 115.07 47.7504C114.872 46.9897 114.985 46.1818 115.382 45.5042C115.779 44.8267 116.428 44.335 117.187 44.1374C127.414 41.4776 138.112 41.2003 148.463 43.3268C158.813 45.4533 168.54 49.9272 176.899 56.4056C185.258 62.8841 192.027 71.1951 196.687 80.7017C201.346 90.2084 203.774 100.658 203.782 111.251C203.782 112.037 203.471 112.791 202.917 113.346C202.362 113.902 201.611 114.215 200.827 114.215Z" fill="#090029"/>
<path d="M54.3327 158.665C54.3327 157.962 54.1247 157.274 53.735 156.689C53.3453 156.105 52.7915 155.649 52.1435 155.38C51.4955 155.111 50.7825 155.041 50.0946 155.178C49.4067 155.315 48.7748 155.653 48.2789 156.151C47.783 156.648 47.4452 157.281 47.3084 157.971C47.1715 158.661 47.2418 159.376 47.5102 160.025C47.7786 160.675 48.2331 161.23 48.8163 161.621C49.3994 162.012 50.0851 162.22 50.7864 162.22C51.727 162.22 52.629 161.846 53.294 161.179C53.959 160.512 54.3327 159.608 54.3327 158.665Z" fill="#1A496D"/>
<path d="M80.3102 34.2144C80.3102 33.7456 80.1715 33.2872 79.9117 32.8974C79.6519 32.5075 79.2826 32.2036 78.8505 32.0242C78.4184 31.8448 77.943 31.7978 77.4843 31.8893C77.0256 31.9808 76.6043 32.2066 76.2736 32.5381C75.9429 32.8697 75.7177 33.2921 75.6265 33.7519C75.5353 34.2118 75.5821 34.6885 75.761 35.1216C75.94 35.5548 76.2431 35.9251 76.6319 36.1856C77.0208 36.4461 77.478 36.5851 77.9456 36.5851C78.2562 36.5853 78.5638 36.5241 78.8507 36.405C79.1377 36.2859 79.3984 36.1113 79.618 35.8911C79.8376 35.671 80.0118 35.4096 80.1306 35.1219C80.2493 34.8342 80.3104 34.5258 80.3102 34.2144Z" fill="#1A496D"/>
<path d="M206.673 189.48C206.673 189.011 206.534 188.553 206.274 188.163C206.014 187.773 205.645 187.469 205.213 187.29C204.781 187.11 204.305 187.063 203.847 187.155C203.388 187.246 202.967 187.472 202.636 187.804C202.305 188.135 202.08 188.558 201.989 189.018C201.898 189.477 201.944 189.954 202.123 190.387C202.302 190.82 202.605 191.191 202.994 191.451C203.383 191.712 203.84 191.851 204.308 191.851C204.618 191.851 204.926 191.79 205.213 191.671C205.5 191.552 205.761 191.377 205.98 191.157C206.2 190.937 206.374 190.675 206.493 190.387C206.612 190.1 206.673 189.791 206.673 189.48Z" fill="#1A496D"/>
<path d="M220.804 158.664C219.167 158.664 217.567 158.177 216.206 157.266C214.845 156.354 213.785 155.058 213.158 153.542C212.532 152.026 212.368 150.358 212.687 148.748C213.007 147.139 213.795 145.661 214.952 144.5C216.109 143.34 217.584 142.55 219.189 142.23C220.794 141.91 222.458 142.074 223.971 142.702C225.483 143.33 226.775 144.393 227.684 145.758C228.594 147.122 229.079 148.726 229.079 150.367C229.077 152.567 228.204 154.676 226.653 156.231C225.101 157.787 222.998 158.661 220.804 158.664ZM220.804 144.437C219.635 144.438 218.493 144.786 217.521 145.437C216.55 146.089 215.793 147.014 215.346 148.097C214.899 149.18 214.782 150.371 215.011 151.52C215.239 152.669 215.802 153.725 216.628 154.554C217.454 155.382 218.507 155.946 219.653 156.175C220.8 156.404 221.988 156.287 223.068 155.839C224.148 155.391 225.071 154.632 225.721 153.658C226.37 152.684 226.718 151.539 226.718 150.367C226.717 148.796 226.093 147.29 224.985 146.179C223.877 145.068 222.375 144.443 220.808 144.441" fill="#EF5456"/>
<path d="M209.029 59.1021C207.86 59.1021 206.717 58.7545 205.745 58.1034C204.773 57.4522 204.015 56.5267 203.568 55.4439C203.121 54.361 203.004 53.1695 203.232 52.0199C203.46 50.8704 204.023 49.8145 204.849 48.9857C205.676 48.1569 206.729 47.5925 207.876 47.3639C209.022 47.1352 210.211 47.2526 211.291 47.7011C212.371 48.1496 213.294 48.9092 213.944 49.8837C214.593 50.8582 214.94 52.004 214.94 53.1761C214.938 54.7472 214.315 56.2535 213.207 57.3645C212.098 58.4755 210.596 59.1004 209.029 59.1021ZM209.029 49.6194C208.328 49.6194 207.642 49.8279 207.059 50.2186C206.476 50.6092 206.021 51.1645 205.753 51.8142C205.484 52.4638 205.414 53.1787 205.551 53.8684C205.688 54.5581 206.025 55.1916 206.521 55.6888C207.017 56.186 207.649 56.5246 208.337 56.6618C209.025 56.799 209.738 56.7286 210.386 56.4595C211.034 56.1904 211.588 55.7347 211.978 55.15C212.367 54.5653 212.575 53.8779 212.575 53.1748C212.574 52.2322 212.2 51.3287 211.535 50.6622C210.87 49.9958 209.969 49.6208 209.029 49.6194Z" fill="#EF5456"/>
<path d="M102.748 16.4376C101.345 16.4376 99.9733 16.0204 98.8066 15.2388C97.6398 14.4572 96.7304 13.3462 96.1934 12.0464C95.6564 10.7466 95.5159 9.31638 95.7897 7.93653C96.0634 6.55668 96.7392 5.28921 97.7314 4.29439C98.7237 3.29957 99.9879 2.62209 101.364 2.34762C102.74 2.07315 104.167 2.21402 105.463 2.75241C106.76 3.2908 107.868 4.20254 108.648 5.37232C109.427 6.5421 109.843 7.91739 109.843 9.32427C109.843 11.2108 109.096 13.0202 107.765 14.3542C106.435 15.6882 104.63 16.4376 102.748 16.4376ZM102.748 4.5855C101.813 4.58499 100.898 4.8627 100.12 5.38349C99.3419 5.90428 98.7353 6.64475 98.3771 7.51123C98.0188 8.3777 97.925 9.33124 98.1073 10.2512C98.2897 11.1712 98.7402 12.0163 99.4017 12.6795C100.063 13.3428 100.906 13.7944 101.824 13.9772C102.741 14.1601 103.692 14.066 104.557 13.7068C105.421 13.3476 106.16 12.7395 106.679 11.9594C107.198 11.1793 107.475 10.2622 107.475 9.32427C107.474 8.06733 106.976 6.862 106.09 5.97284C105.204 5.08368 104.002 4.58333 102.748 4.58162" fill="#EF5456"/>
<path d="M5.91078 98.2154C4.74174 98.2154 3.59895 97.8678 2.62693 97.2167C1.65491 96.5655 0.897307 95.64 0.449934 94.5571C0.00256101 93.4743 -0.114492 92.2828 0.113577 91.1332C0.341645 89.9837 0.904593 88.9278 1.73123 88.099C2.55787 87.2702 3.61107 86.7058 4.75765 86.4772C5.90423 86.2485 7.09269 86.3658 8.17274 86.8144C9.25279 87.2629 10.1759 88.0225 10.8254 88.997C11.4749 89.9715 11.8216 91.1173 11.8216 92.2893C11.8199 93.8605 11.1966 95.3668 10.0884 96.4778C8.98033 97.5888 7.47789 98.2137 5.91078 98.2154ZM5.91078 88.7327C5.20941 88.7327 4.52379 88.9412 3.94061 89.3319C3.35744 89.7225 2.90292 90.2778 2.63451 90.9275C2.36611 91.5771 2.29588 92.292 2.43271 92.9817C2.56954 93.6713 2.90729 94.3048 3.40323 94.8021C3.89918 95.2993 4.53105 95.6379 5.21895 95.7751C5.90685 95.9123 6.61987 95.8419 7.26786 95.5728C7.91584 95.3037 8.46969 94.848 8.85935 94.2633C9.24901 93.6786 9.45699 92.9912 9.45699 92.288C9.45563 91.3455 9.08157 90.442 8.41682 89.7755C7.75208 89.1091 6.85088 88.734 5.91078 88.7327Z" fill="#EF5456"/>
<path d="M158.847 17.0269C158.846 17.3407 158.721 17.6415 158.5 17.8634C158.278 18.0854 157.978 18.2105 157.665 18.2116H153.527V22.3606C153.527 22.6749 153.402 22.9764 153.181 23.1987C152.959 23.421 152.658 23.5459 152.345 23.5459C152.031 23.5459 151.73 23.421 151.509 23.1987C151.287 22.9764 151.162 22.6749 151.162 22.3606V18.2128H147.024C146.711 18.2128 146.41 18.088 146.188 17.8657C145.966 17.6434 145.842 17.3419 145.842 17.0275C145.842 16.7131 145.966 16.4116 146.188 16.1893C146.41 15.9671 146.711 15.8422 147.024 15.8422H151.162V11.6932C151.162 11.3788 151.287 11.0773 151.509 10.855C151.73 10.6327 152.031 10.5078 152.345 10.5078C152.658 10.5078 152.959 10.6327 153.181 10.855C153.402 11.0773 153.527 11.3788 153.527 11.6932V15.8422H157.665C157.978 15.8432 158.278 15.9683 158.5 16.1903C158.721 16.4122 158.846 16.713 158.847 17.0269Z" fill="#2FDF84"/>
<path d="M44.9238 51.9914C44.9231 52.2196 44.8324 52.4383 44.6714 52.5997C44.5104 52.7611 44.2923 52.852 44.0646 52.8527H41.0538V55.8701C41.0538 56.0985 40.9633 56.3176 40.8021 56.4791C40.641 56.6407 40.4225 56.7314 40.1946 56.7314C39.9668 56.7314 39.7482 56.6407 39.5871 56.4791C39.426 56.3176 39.3355 56.0985 39.3355 55.8701V52.8527H36.3246C36.0966 52.8527 35.8779 52.7619 35.7167 52.6002C35.5554 52.4386 35.4648 52.2193 35.4648 51.9907C35.4648 51.7621 35.5554 51.5428 35.7167 51.3812C35.8779 51.2195 36.0966 51.1287 36.3246 51.1287H39.3355V48.1114C39.3355 47.8829 39.426 47.6638 39.5871 47.5023C39.7482 47.3408 39.9668 47.25 40.1946 47.25C40.4225 47.25 40.641 47.3408 40.8021 47.5023C40.9633 47.6638 41.0538 47.8829 41.0538 48.1114V51.13H44.0633C44.291 51.1307 44.5091 51.2216 44.6701 51.383C44.8311 51.5444 44.9231 51.7631 44.9238 51.9914Z" fill="#2FDF84"/>
<path d="M257.451 97.0315C257.451 97.317 257.337 97.5907 257.136 97.7926C256.935 97.9945 256.662 98.1082 256.377 98.1089H252.615V101.88C252.615 102.022 252.587 102.162 252.533 102.293C252.479 102.423 252.4 102.542 252.3 102.642C252.201 102.742 252.082 102.821 251.952 102.876C251.822 102.93 251.682 102.958 251.541 102.958C251.4 102.958 251.26 102.93 251.129 102.876C250.999 102.821 250.881 102.742 250.781 102.642C250.681 102.542 250.602 102.423 250.548 102.293C250.494 102.162 250.466 102.022 250.466 101.88V98.1089H246.704C246.419 98.1089 246.146 97.9954 245.945 97.7933C245.743 97.5913 245.63 97.3173 245.63 97.0315C245.63 96.7458 245.743 96.4718 245.945 96.2697C246.146 96.0677 246.419 95.9542 246.704 95.9542H250.466V92.1828C250.466 91.8971 250.579 91.6231 250.781 91.421C250.982 91.219 251.256 91.1055 251.541 91.1055C251.826 91.1055 252.099 91.219 252.3 91.421C252.502 91.6231 252.615 91.8971 252.615 92.1828V95.9542H256.377C256.662 95.9549 256.935 96.0686 257.136 96.2705C257.337 96.4724 257.451 96.746 257.451 97.0315Z" fill="#2FDF84"/>
<path opacity="0.2" d="M130.343 90.5631V146.564C130.374 147.007 130.303 147.45 130.137 147.861C129.971 148.272 129.713 148.639 129.383 148.935C129.054 149.168 128.674 149.322 128.276 149.384C127.877 149.445 127.469 149.414 127.084 149.291L111.62 145.479C111.161 145.364 110.721 145.183 110.313 144.941C109.389 144.384 108.616 143.605 108.066 142.674C107.516 141.744 107.205 140.691 107.16 139.61V83.6088C107.129 83.1664 107.2 82.7228 107.366 82.3119C107.533 81.901 107.79 81.5337 108.12 81.2381C108.449 81.0041 108.827 80.8501 109.226 80.7883C109.624 80.7266 110.031 80.7588 110.415 80.8825L125.883 84.6913C127.142 85.0864 128.247 85.8637 129.046 86.9158C129.845 87.9679 130.298 89.2415 130.343 90.5631Z" fill="#090029"/>
<path d="M152.932 101.304C153.601 101.304 154.243 101.037 154.717 100.563C155.19 100.088 155.456 99.4449 155.457 98.7739V83.2966C155.453 80.9377 154.517 78.6764 152.853 77.0084C151.19 75.3404 148.934 74.4019 146.581 74.3984H110.987C108.634 74.4019 106.378 75.3404 104.715 77.0084C103.051 78.6764 102.115 80.9377 102.111 83.2966V139.603C102.162 142.055 102.996 144.426 104.491 146.368C105.986 148.309 108.062 149.719 110.415 150.39L125.883 154.198C126.549 154.367 127.233 154.454 127.919 154.457C129.575 154.473 131.188 153.931 132.499 152.917C133.431 152.148 134.177 151.175 134.677 150.073C135.178 148.971 135.421 147.769 135.388 146.559V144.969H146.571C148.924 144.966 151.179 144.027 152.843 142.359C154.507 140.691 155.443 138.43 155.446 136.071V120.81C155.431 120.148 155.159 119.519 154.687 119.056C154.215 118.594 153.581 118.335 152.921 118.335C152.261 118.335 151.627 118.594 151.155 119.056C150.684 119.519 150.411 120.148 150.396 120.81V136.071C150.395 137.088 149.992 138.063 149.274 138.782C148.557 139.502 147.584 139.906 146.57 139.907H135.388V90.5651C135.338 88.1123 134.504 85.7404 133.008 83.7986C131.513 81.8568 129.435 80.4477 127.081 79.7787L125.791 79.4618H146.56C147.574 79.4629 148.547 79.8673 149.264 80.5865C149.981 81.3057 150.385 82.2808 150.386 83.2979V98.77C150.385 99.4411 150.65 100.085 151.123 100.56C151.596 101.035 152.237 101.303 152.906 101.304H152.932ZM125.885 84.6921C127.143 85.0871 128.249 85.8645 129.047 86.9166C129.846 87.9687 130.299 89.2436 130.344 90.5651V146.559C130.375 147.001 130.305 147.445 130.138 147.856C129.972 148.266 129.714 148.634 129.385 148.929C129.055 149.163 128.676 149.316 128.277 149.378C127.878 149.44 127.47 149.408 127.086 149.285L111.621 145.472C111.162 145.357 110.722 145.176 110.314 144.934C109.389 144.377 108.617 143.597 108.067 142.666C107.517 141.735 107.206 140.682 107.162 139.601V83.607C107.131 83.1646 107.201 82.721 107.368 82.3102C107.534 81.8993 107.792 81.532 108.121 81.2363C108.45 81.0022 108.829 80.8482 109.227 80.7865C109.625 80.7248 110.033 80.757 110.416 80.8806L125.885 84.6921Z" fill="#090029"/>
<path d="M116.288 146.625L111.62 145.473C110.361 145.078 109.256 144.301 108.457 143.25C107.658 142.198 107.205 140.923 107.16 139.602V83.6007C107.129 83.1584 107.2 82.7148 107.366 82.3039C107.533 81.893 107.79 81.5257 108.12 81.2301C108.449 80.9962 108.827 80.8423 109.226 80.7805C109.624 80.7188 110.031 80.7509 110.415 80.8744L111.89 81.2391V138.368C111.913 139.996 112.324 141.594 113.089 143.029C113.855 144.464 114.952 145.695 116.288 146.618" fill="#45536D" fill-opacity="0.3"/>
<path d="M182.277 109.835C182.277 109.901 182.277 109.964 182.268 110.034C182.269 110.054 182.269 110.075 182.268 110.095C182.262 110.161 182.252 110.226 182.239 110.291C182.227 110.359 182.207 110.438 182.189 110.51C182.171 110.582 182.145 110.656 182.117 110.729C182.088 110.808 182.055 110.885 182.016 110.96C181.984 111.023 181.95 111.089 181.912 111.148C181.873 111.206 181.827 111.277 181.783 111.344C181.739 111.411 181.685 111.463 181.632 111.528L169.957 124.42C169.738 124.669 169.472 124.873 169.174 125.019C168.876 125.165 168.553 125.251 168.222 125.271C167.891 125.292 167.559 125.247 167.245 125.139C166.932 125.032 166.642 124.863 166.394 124.643C166.145 124.423 165.942 124.156 165.796 123.857C165.651 123.559 165.565 123.234 165.544 122.903C165.524 122.571 165.568 122.238 165.676 121.924C165.784 121.609 165.952 121.319 166.171 121.07L166.22 121.014L174.038 112.383L148.2 112.446C147.54 112.431 146.913 112.158 146.451 111.685C145.99 111.212 145.731 110.576 145.731 109.914C145.731 109.253 145.99 108.617 146.451 108.144C146.913 107.671 147.54 107.398 148.2 107.383L174.03 107.319L166.228 98.8105C165.783 98.3149 165.551 97.6633 165.582 96.9972C165.614 96.3311 165.906 95.7044 166.396 95.2532C166.886 94.802 167.533 94.5629 168.198 94.5877C168.863 94.6125 169.491 94.8993 169.946 95.3858L181.618 108.116C181.676 108.178 181.731 108.244 181.781 108.313C181.873 108.434 181.952 108.564 182.018 108.701L182.037 108.733C182.065 108.799 182.094 108.862 182.118 108.93C182.175 109.074 182.218 109.223 182.247 109.376C182.26 109.441 182.27 109.506 182.276 109.572V109.625C182.276 109.691 182.285 109.761 182.285 109.828" fill="#090029"/>
</g>
<defs>
<filter id="filter0_b_821_32692" x="-26.6475" y="-13.9961" width="316.647" height="233.5" filterUnits="userSpaceOnUse" color-interpolation-filters="sRGB">
<feFlood flood-opacity="0" result="BackgroundImageFix"/>
<feGaussianBlur in="BackgroundImageFix" stdDeviation="16"/>
<feComposite in2="SourceAlpha" operator="in" result="effect1_backgroundBlur_821_32692"/>
<feBlend mode="normal" in="SourceGraphic" in2="effect1_backgroundBlur_821_32692" result="shape"/>
</filter>
<clipPath id="clip0_821_32692">
<rect width="258" height="194" fill="white"/>
</clipPath>
</defs>
</svg>
