<svg xmlns="http://www.w3.org/2000/svg" xmlns:xlink="http://www.w3.org/1999/xlink" width="2480.475" height="1560.926" viewBox="0 0 2480.475 1560.926">
  <defs>
    <clipPath id="clip-path">
      <rect id="Rectangle_262" data-name="Rectangle 262" width="2480.475" height="1560.926" transform="translate(1 5)" fill="#6c245a"/>
    </clipPath>
    <linearGradient id="linear-gradient" x1="0.5" x2="0.5" y2="1" gradientUnits="objectBoundingBox">
      <stop offset="0" stop-color="#ef5488"/>
      <stop offset="1" stop-color="#6c245a"/>
    </linearGradient>
    <linearGradient id="linear-gradient-2" y1="1" x2="0.429" y2="-0.369" xlink:href="#linear-gradient"/>
    <linearGradient id="linear-gradient-4" x1="0.894" y1="0.943" x2="0.12" y2="0" xlink:href="#linear-gradient"/>
  </defs>
  <g id="_maintenance" data-name=" maintenance" transform="translate(-1 -5)">
    <g id="Group_462" data-name="Group 462" clip-path="url(#clip-path)">
      <path id="Path_835" data-name="Path 835" d="M343.216,264.466c-3.345-10.92-10.994-21.146-21.87-24.645s-24.664,1.8-28.052,12.71c-10-8.356-25.333-1.722-33.366,8.535-13,16.587-2.954,43.754-.787,45.519,2.348,1.9,8.7,1.567,8.7,1.567l97.275-.539s17.845-1.3,26.082-4.583c16.569-6.609,27.841-35.125,17.176-49.427-7.272-9.755-21.617-11.818-33.205-8.12s-22.824,10.945-31.948,18.984" transform="translate(1316.093 1240.039)" fill="#6cdd6c"/>
      <path id="Path_836" data-name="Path 836" d="M269.094,314.091c-2.465,0-6.863-.322-9.334-2.329-3.815-3.1-13.5-32.394.285-49.985,5.8-7.408,14.506-12.555,22.719-13.422a20.229,20.229,0,0,1,11.762,2.075,22.911,22.911,0,0,1,9.6-9.08,27.711,27.711,0,0,1,20.855-1.9c9.675,3.109,17.783,11.279,22.335,22.267,9.477-7.674,19.82-13.509,29.514-16.606,11.62-3.716,28.077-2.391,36.761,9.254,5,6.714,6.163,16.631,3.172,27.216-3.574,12.635-12.1,23.277-21.728,27.117-8.6,3.431-26.293,4.751-27.049,4.806l-97.486.545c-.322.019-.805.037-1.406.037m16.16-59.449a16.8,16.8,0,0,0-1.821.1c-6.435.681-13.633,5-18.334,11-11.409,14.556-2.886,38.854-1.022,41.3.434.31,3.642.743,6.237.595l97.424-.545c-.043-.006,17.231-1.295,24.912-4.361,7.724-3.072,14.927-12.276,17.925-22.893,2.447-8.641,1.672-16.525-2.131-21.629-6.8-9.13-20.149-10.016-29.65-6.974-10.115,3.233-21.053,9.743-30.808,18.328a3.2,3.2,0,0,1-2.992.688,3.237,3.237,0,0,1-2.205-2.155c-3.431-11.223-10.827-19.647-19.777-22.527a21.142,21.142,0,0,0-15.924,1.486,15.706,15.706,0,0,0-8.077,9.117,3.211,3.211,0,0,1-5.122,1.511,13.1,13.1,0,0,0-8.634-3.041" transform="translate(1313.448 1237.352)" fill="#50aa50"/>
      <path id="Path_837" data-name="Path 837" d="M254.311,243.326a30.445,30.445,0,0,0-3.32,17.368c.334,3.047,5.153,3.085,4.819,0a25.844,25.844,0,0,1,2.663-14.933c1.412-2.756-2.744-5.2-4.162-2.434" transform="translate(1302.7 1257.495)" fill="#50aa50"/>
      <path id="Path_838" data-name="Path 838" d="M250.151,244.357a33.374,33.374,0,0,0-.415,16.408c.663,3.029,5.308,1.747,4.645-1.276a28.121,28.121,0,0,1,.415-13.849c.83-2.992-3.815-4.268-4.645-1.282" transform="translate(1292.806 1260.328)" fill="#50aa50"/>
      <path id="Path_839" data-name="Path 839" d="M255.425,245.394c3.1,0,3.1-4.819,0-4.819s-3.1,4.819,0,4.819" transform="translate(1314.556 1249.517)" fill="#50aa50"/>
      <path id="Path_840" data-name="Path 840" d="M255.677,247.064v4.28c0,3.1,4.819,3.109,4.819,0v-4.28c0-3.1-4.819-3.1-4.819,0" transform="translate(1327.955 1271.13)" fill="#50aa50"/>
      <path id="Path_841" data-name="Path 841" d="M268.813,248.274v2.143c0,3.1,4.819,3.1,4.819,0v-2.143c0-3.1-4.819-3.1-4.819,0" transform="translate(1396.182 1277.415)" fill="#50aa50"/>
      <path id="Path_842" data-name="Path 842" d="M267.966,248.837l1.072,1.072c2.193,2.193,5.6-1.214,3.406-3.407l-1.072-1.071c-2.193-2.193-5.605,1.208-3.406,3.406" transform="translate(1388.097 1271.06)" fill="#50aa50"/>
      <path id="Path_843" data-name="Path 843" d="M188.49,239.014H25.4a6.423,6.423,0,0,1,0-12.846H188.49a6.423,6.423,0,0,1,0,12.846" transform="translate(98.621 1174.689)" fill="#6c245a"/>
      <path id="Path_844" data-name="Path 844" d="M297.725,146.694h-4.658a6.987,6.987,0,1,0-13.974,0h-4.658a11.644,11.644,0,1,1,23.289,0" transform="translate(1425.387 701.428)" fill="#fff"/>
      <path id="Path_845" data-name="Path 845" d="M300.415,102.908h-4.658a6.987,6.987,0,1,0-13.973,0h-4.658a11.644,11.644,0,1,1,23.289,0" transform="translate(1439.359 474.014)" fill="#fff"/>
      <path id="Path_846" data-name="Path 846" d="M373.147,334.858H151.493l3.766-8.445c14.531-32.642,16.036-60.593,13.819-92.525l-.446-6.463,186.876-.54.049,6.052c.161,20.637,6.058,67.513,14.934,94ZM170.626,322.694h185.2c-7.129-25.528-11.979-62.422-12.939-83.611l-160.583.469c1.518,28.314-.31,54.071-11.675,83.142" transform="translate(786.836 1182.132)" fill="#64034b"/>
      <path id="Path_847" data-name="Path 847" d="M438.173,777.949c-168.275,0-304.59-.917-310.573-3.054-14.407-5.135-33.23-25.1-33.484-39.257-.545-30.66-1.864-72.413-3.388-120.775-4.614-145.785-10.92-345.451-2.738-455.938a38.338,38.338,0,0,1,38-35.683h.638l970.16,1.443a38.248,38.248,0,0,1,37.448,37.7c.743,32.276,1.79,65.253,2.849,98.687,4.447,139.969,9.031,284.708-6.466,421.58-.613,5.395-.88,11.353-1.158,17.529-1.307,28.715-2.936,64.46-39.944,71.756-18.1,3.574-377.139,6.014-651.342,6.014m-312.1-644.38a28.019,28.019,0,0,0-27.78,26.12c-8.145,109.947-1.846,309.3,2.75,454.854,1.536,48.387,2.855,90.183,3.4,120.917.161,8.932,15.094,25.593,26.628,29.712,20.65,4.218,932.736,1.1,956.446-3.357,29.062-5.742,30.369-34.395,31.626-62.112.3-6.411.582-12.6,1.214-18.222,15.423-136.117,10.833-280.484,6.411-420.087-1.059-33.453-2.112-66.46-2.855-98.768a27.949,27.949,0,0,0-27.266-27.612l-970.11-1.443Z" transform="translate(436.434 640.114)" fill="#64034b"/>
      <path id="Path_848" data-name="Path 848" d="M1039.157,129.879l-914.068-1.2c-16.439-.248-30.232,11.025-31.477,25.754-10.238,122.341,3.723,377.6,5.785,480.341.2,10.009,16.55,25.023,28.325,28.746,13.856,4.373,882.5,1.065,903.73-2.639,38.13-6.658,31.638-45.7,34.834-70.691,18.092-141.295,6.98-294.891,3.382-433.088-.39-14.971-13.856-26.974-30.511-27.222" transform="translate(466.922 668.314)" fill-rule="evenodd" fill="url(#linear-gradient)"/>
      <path id="Path_849" data-name="Path 849" d="M538.286,290.577H157.963c-15.1,0-23-11.874-23-23.6,0-11.744,7.9-23.63,23-23.63H538.286c15.095,0,23,11.867,23,23.6s-7.9,23.63-23,23.63m-380.323-36.9c-10,0-12.666,8.362-12.666,13.3s2.663,13.267,12.666,13.267H538.286c10,0,12.667-8.356,12.667-13.3s-2.67-13.273-12.667-13.273Z" transform="translate(700.992 1263.925)" fill="#64034b"/>
      <path id="Path_850" data-name="Path 850" d="M97.328,220.993h0" transform="translate(496.752 1147.811)" fill="#6c245a" fill-rule="evenodd"/>
      <path id="Path_851" data-name="Path 851" d="M106.663,245.4c17.083,0,17.107-26.547,0-26.547-17.077,0-17.108,26.547,0,26.547" transform="translate(487.416 1136.68)" fill="#6c245a"/>
      <path id="Path_852" data-name="Path 852" d="M105.968,220.993h0" transform="translate(541.627 1147.811)" fill="#6c245a" fill-rule="evenodd"/>
      <path id="Path_853" data-name="Path 853" d="M115.305,245.4c17.083,0,17.107-26.547,0-26.547-17.083,0-17.107,26.547,0,26.547" transform="translate(532.289 1136.68)" fill="#6c245a"/>
      <path id="Path_854" data-name="Path 854" d="M114.608,220.993h0" transform="translate(586.502 1147.811)" fill="#6c245a" fill-rule="evenodd"/>
      <path id="Path_855" data-name="Path 855" d="M123.945,245.4c17.083,0,17.107-26.547,0-26.547-17.083,0-17.108,26.547,0,26.547" transform="translate(577.165 1136.68)" fill="#6c245a"/>
      <path id="Path_856" data-name="Path 856" d="M170.041,126.589h0" transform="translate(879.072 657.488)" fill="#6c245a" fill-rule="evenodd"/>
      <path id="Path_857" data-name="Path 857" d="M174.422,138.034c8.015,0,8.027-12.45,0-12.45-8.009,0-8.027,12.45,0,12.45" transform="translate(874.691 652.268)" fill="#6c245a"/>
      <path id="Path_858" data-name="Path 858" d="M452.445,385.723H321.395L371.8,220.173h30.239Z" transform="translate(1669.284 1143.552)" fill="#ef5488"/>
      <rect id="Rectangle_226" data-name="Rectangle 226" width="152.71" height="18.916" transform="translate(1979.849 1529.275)" fill="#ef5488"/>
      <path id="Path_859" data-name="Path 859" d="M334,240.219l-12.6,41.388H452.45l-12.6-41.388Z" transform="translate(1669.28 1247.669)" fill="#6c245a"/>
      <path id="Path_860" data-name="Path 860" d="M325.463,268.243h80.651l-12.6-41.387H338.062Z" transform="translate(1690.416 1178.258)" fill="#6c245a"/>
      <path id="Path_861" data-name="Path 861" d="M376.6,426.551h29.08V313.958H554.956V426.551h29.08V313.958h30.8v-89.9H590.267v-8.306H547.895v8.306H415.649v-8.306H373.277v8.306H346.315v89.9H376.6ZM605.442,233.438v.384l-17.925,70.74H555.532l18.018-71.124Zm-83.419,71.124H490.032l18.018-71.124h31.991Zm-65.5,0H424.531l18.024-71.124h31.985Zm-79.467-71.124H409.04l-18.018,71.124H359.037Z" transform="translate(1798.718 1120.569)" fill="#ef5488"/>
      <path id="Path_862" data-name="Path 862" d="M229.078,188.167l8.709-8.715a4.5,4.5,0,0,0,0-6.4l-7.594-7.575a6.414,6.414,0,0,1-1.01-7.16l6.181-15.014a6.424,6.424,0,0,1,5.8-4.354h10.74a4.522,4.522,0,0,0,4.521-4.5V122.1a4.508,4.508,0,0,0-4.521-4.509h-10.74a6.43,6.43,0,0,1-5.8-4.342l-6.181-15.008a6.442,6.442,0,0,1,1.01-7.179l7.594-7.575a4.475,4.475,0,0,0,0-6.373l-8.709-8.752a4.531,4.531,0,0,0-6.392,0l-7.594,7.594a6.434,6.434,0,0,1-7.154,1.041L192.906,70.8a6.434,6.434,0,0,1-4.336-5.81V54.249a4.539,4.539,0,0,0-4.515-4.528H171.729a4.545,4.545,0,0,0-4.528,4.528v10.74a6.425,6.425,0,0,1-4.336,5.81l-15.026,6.194a6.428,6.428,0,0,1-7.154-1.041l-7.606-7.581a4.471,4.471,0,0,0-6.361,0l-8.746,8.74a4.5,4.5,0,0,0,0,6.373l7.588,7.575a6.437,6.437,0,0,1,1.034,7.179l-6.188,15.008a6.436,6.436,0,0,1-5.8,4.342H103.85a4.515,4.515,0,0,0-4.515,4.509v12.357a4.528,4.528,0,0,0,4.515,4.5H114.6a6.431,6.431,0,0,1,5.8,4.354l6.188,15.014a6.405,6.405,0,0,1-1.034,7.16l-7.588,7.575a4.527,4.527,0,0,0,0,6.4l8.746,8.715a4.46,4.46,0,0,0,6.361,0l7.606-7.581a6.4,6.4,0,0,1,7.166-1.016l15.014,6.181a6.4,6.4,0,0,1,4.336,5.8v10.759a4.534,4.534,0,0,0,4.528,4.509h12.326a4.527,4.527,0,0,0,4.515-4.509V191.548a6.4,6.4,0,0,1,4.336-5.8l15.033-6.181a6.385,6.385,0,0,1,7.154,1.016l7.594,7.581a4.5,4.5,0,0,0,6.392,0m-51.186-23.859a36.039,36.039,0,1,1,36.042-36.036,36.052,36.052,0,0,1-36.042,36.036" transform="translate(515.934 258.245)" fill="#ef5488"/>
      <path id="Path_863" data-name="Path 863" d="M213.833,108.934l-2.2-7.321a2.822,2.822,0,0,0-3.5-1.877l-6.349,1.933a3.97,3.97,0,0,1-4.231-1.555l-6.4-7.761a4,4,0,0,1-.657-4.441l3.134-5.859a2.819,2.819,0,0,0-1.121-3.8l-6.745-3.6a2.8,2.8,0,0,0-3.791,1.146l-3.153,5.866a3.988,3.988,0,0,1-4.057,1.9l-10.022-1.01a3.939,3.939,0,0,1-3.6-2.657l-1.932-6.367a2.784,2.784,0,0,0-3.481-1.858l-7.321,2.193a2.811,2.811,0,0,0-1.877,3.506l1.939,6.355a3.944,3.944,0,0,1-1.567,4.218l-7.767,6.411a4,4,0,0,1-4.435.65l-5.866-3.146A2.785,2.785,0,0,0,125.056,93l-3.623,6.72a2.821,2.821,0,0,0,1.14,3.8l5.872,3.165a3.934,3.934,0,0,1,1.9,4.045l-1,10.016a3.945,3.945,0,0,1-2.67,3.6l-6.367,1.945a2.785,2.785,0,0,0-1.871,3.487l2.211,7.309a2.787,2.787,0,0,0,3.5,1.864l6.367-1.92a4,4,0,0,1,4.2,1.548l6.4,7.779a4.014,4.014,0,0,1,.669,4.441l-3.153,5.859a2.844,2.844,0,0,0,1.158,3.8l6.727,3.592a2.805,2.805,0,0,0,3.791-1.14l3.159-5.866a3.971,3.971,0,0,1,4.057-1.914l10,1.022a3.984,3.984,0,0,1,3.63,2.67l1.914,6.355a2.809,2.809,0,0,0,3.5,1.871l7.315-2.211a2.837,2.837,0,0,0,1.889-3.481L183.836,155a3.957,3.957,0,0,1,1.524-4.218l7.779-6.4a4.027,4.027,0,0,1,4.447-.675l5.853,3.146a2.79,2.79,0,0,0,3.8-1.14l3.611-6.739a2.8,2.8,0,0,0-1.158-3.791l-5.866-3.153a3.944,3.944,0,0,1-1.9-4.038l1.016-10.04a4,4,0,0,1,2.657-3.611l6.374-1.92a2.8,2.8,0,0,0,1.852-3.487m-28,20.96a22.333,22.333,0,1,1-9.13-30.232,22.328,22.328,0,0,1,9.13,30.232" transform="translate(614.518 371.543)" fill="#ef5488"/>
      <path id="Path_864" data-name="Path 864" d="M367.331,111.124H165.411a6.423,6.423,0,0,1,0-12.846h201.92a6.423,6.423,0,1,1,0,12.846" transform="translate(825.764 510.444)" fill="#6c245a"/>
      <path id="Path_865" data-name="Path 865" d="M405.142,125.934H78.985a6.423,6.423,0,0,1,0-12.846H405.142a6.423,6.423,0,0,1,0,12.846" transform="translate(376.878 587.365)" fill="#6c245a"/>
      <path id="Path_866" data-name="Path 866" d="M657.614,153.973H331.463a6.423,6.423,0,0,1,0-12.846H657.614a6.423,6.423,0,0,1,0,12.846" transform="translate(1688.218 732.996)" fill="#6c245a"/>
      <path id="Path_867" data-name="Path 867" d="M2474.052,262.783H6.423a6.423,6.423,0,1,1,0-12.846H2474.052a6.423,6.423,0,0,1,0,12.846" transform="translate(0 1298.142)" fill="#550340"/>
      <path id="Path_868" data-name="Path 868" d="M336.2,87.328a51.814,51.814,0,0,0-44.683,78.024l.849,1.437-52.45,52.45a9.168,9.168,0,0,0-2.583,5.965c-.025,2.632,1.307,5.314,3.958,7.965,2.818,2.812,5.773,4.243,8.771,4.243a10.653,10.653,0,0,0,6.175-2.1l52.313-52.344,1.449.855a51.808,51.808,0,1,0,26.2-96.494m.006,88.226a36.423,36.423,0,1,1,36.432-36.42,36.467,36.467,0,0,1-36.432,36.42" transform="translate(1232.689 453.571)" fill="#c64a73"/>
      <rect id="Rectangle_227" data-name="Rectangle 227" width="37.516" height="9.601" transform="translate(1549.696 590.679)" fill="#c64a73"/>
      <path id="Path_869" data-name="Path 869" d="M103.371,675.713a6.421,6.421,0,0,1-6.423-6.423V174.566a6.423,6.423,0,0,1,12.846,0V669.29a6.421,6.421,0,0,1-6.423,6.423" transform="translate(503.536 873.314)" fill="#550340"/>
      <path id="Path_870" data-name="Path 870" d="M121.932,675.713a6.421,6.421,0,0,1-6.423-6.423V174.566a6.423,6.423,0,0,1,12.846,0V669.29a6.421,6.421,0,0,1-6.423,6.423" transform="translate(599.94 873.314)" fill="#550340"/>
      <path id="Path_871" data-name="Path 871" d="M218.341,186.447H103.37a6.423,6.423,0,1,1,0-12.846H218.341a6.423,6.423,0,1,1,0,12.846" transform="translate(503.531 901.662)" fill="#550340"/>
      <path id="Path_872" data-name="Path 872" d="M218.341,195.572H103.37a6.423,6.423,0,1,1,0-12.846H218.341a6.423,6.423,0,1,1,0,12.846" transform="translate(503.531 949.057)" fill="#550340"/>
      <path id="Path_873" data-name="Path 873" d="M218.341,204.7H103.37a6.423,6.423,0,1,1,0-12.846H218.341a6.423,6.423,0,1,1,0,12.846" transform="translate(503.531 996.456)" fill="#550340"/>
      <path id="Path_874" data-name="Path 874" d="M218.341,213.823H103.37a6.423,6.423,0,1,1,0-12.846H218.341a6.423,6.423,0,1,1,0,12.846" transform="translate(503.531 1043.85)" fill="#550340"/>
      <path id="Path_875" data-name="Path 875" d="M218.341,222.948H103.37a6.423,6.423,0,1,1,0-12.846H218.341a6.423,6.423,0,1,1,0,12.846" transform="translate(503.531 1091.244)" fill="#550340"/>
      <path id="Path_876" data-name="Path 876" d="M218.341,232.073H103.37a6.423,6.423,0,1,1,0-12.846H218.341a6.423,6.423,0,1,1,0,12.846" transform="translate(503.531 1138.638)" fill="#550340"/>
      <path id="Path_877" data-name="Path 877" d="M218.341,241.2H103.37a6.423,6.423,0,1,1,0-12.846H218.341a6.423,6.423,0,1,1,0,12.846" transform="translate(503.531 1186.032)" fill="#550340"/>
      <path id="Path_878" data-name="Path 878" d="M218.341,250.322H103.37a6.423,6.423,0,0,1,0-12.846H218.341a6.423,6.423,0,0,1,0,12.846" transform="translate(503.531 1233.422)" fill="#550340"/>
      <path id="Path_879" data-name="Path 879" d="M78.091,204.8a6.421,6.421,0,0,1-6.423-6.423V173.365a6.423,6.423,0,0,1,12.846,0v25.011a6.421,6.421,0,0,1-6.423,6.423" transform="translate(372.235 867.076)" fill="#ef5488"/>
      <path id="Path_880" data-name="Path 880" d="M101.083,181.807h-25a6.423,6.423,0,1,1,0-12.846h25a6.423,6.423,0,0,1,0,12.846" transform="translate(361.748 877.563)" fill="#ef5488"/>
      <path id="Path_881" data-name="Path 881" d="M171.358,60.363a6.421,6.421,0,0,1-6.423-6.423V28.929a6.423,6.423,0,0,1,12.846,0V53.94a6.421,6.421,0,0,1-6.423,6.423" transform="translate(856.652 116.893)" fill="#ef5488"/>
      <path id="Path_882" data-name="Path 882" d="M194.35,37.371h-25a6.423,6.423,0,1,1,0-12.846h25a6.423,6.423,0,1,1,0,12.846" transform="translate(846.166 127.38)" fill="#ef5488"/>
      <path id="Path_883" data-name="Path 883" d="M224.22,254.2a6.46,6.46,0,0,1-1.765-.248L198.4,247.094a6.426,6.426,0,0,1,3.531-12.357l24.045,6.863a6.426,6.426,0,0,1-1.759,12.6" transform="translate(1006.293 1217.975)" fill="#ef5488"/>
      <path id="Path_884" data-name="Path 884" d="M201.561,270.005a6.429,6.429,0,0,1-6.182-8.188l6.869-24.051a6.426,6.426,0,1,1,12.357,3.531l-6.869,24.045a6.435,6.435,0,0,1-6.175,4.664" transform="translate(1013.492 1210.772)" fill="#ef5488"/>
      <path id="Path_885" data-name="Path 885" d="M203.822,132.254a6.459,6.459,0,0,1-1.765-.248l-24.045-6.875a6.422,6.422,0,1,1,3.524-12.351l24.051,6.869a6.427,6.427,0,0,1-1.765,12.6" transform="translate(900.336 584.483)" fill="#ef5488"/>
      <path id="Path_886" data-name="Path 886" d="M181.162,148.045a6.429,6.429,0,0,1-6.182-8.188l6.869-24.051a6.423,6.423,0,0,1,12.351,3.531l-6.869,24.045a6.422,6.422,0,0,1-6.169,4.664" transform="translate(907.542 577.276)" fill="#ef5488"/>
      <path id="Path_887" data-name="Path 887" d="M339.609,152.324a89.235,89.235,0,1,1-89.235-89.235,89.233,89.233,0,0,1,89.235,89.235" transform="translate(836.936 327.677)" fill="#ef5488"/>
      <path id="Path_888" data-name="Path 888" d="M298.449,133.554A66.847,66.847,0,1,1,231.6,66.7a66.846,66.846,0,0,1,66.844,66.851" transform="translate(855.712 346.447)" fill="#fff"/>
      <path id="Path_889" data-name="Path 889" d="M233.769,205.153A69.433,69.433,0,1,1,303.2,135.719a69.514,69.514,0,0,1-69.433,69.433m0-133.695a64.261,64.261,0,1,0,64.261,64.261,64.333,64.333,0,0,0-64.261-64.261" transform="translate(853.541 344.281)" fill="#6c245a"/>
      <path id="Path_890" data-name="Path 890" d="M177.717,110.791a2.587,2.587,0,0,1-2.589-2.583V74.173a2.589,2.589,0,1,1,5.178,0v34.035a2.587,2.587,0,0,1-2.589,2.583" transform="translate(909.594 371.799)" fill="#6c245a"/>
      <path id="Path_891" data-name="Path 891" d="M217.593,82.251H177.717a2.586,2.586,0,1,1,0-5.172h39.876a2.586,2.586,0,1,1,0,5.172" transform="translate(909.594 400.339)" fill="#6c245a"/>
      <path id="Path_892" data-name="Path 892" d="M180.4,70.135a2.642,2.642,0,1,1-2.645-2.639,2.646,2.646,0,0,1,2.645,2.639" transform="translate(909.552 350.566)" fill="#6c245a"/>
      <path id="Path_893" data-name="Path 893" d="M186.4,74.807a2.641,2.641,0,1,1,0-3.735,2.647,2.647,0,0,1,0,3.735" transform="translate(944.712 365.132)" fill="#6c245a"/>
      <path id="Path_894" data-name="Path 894" d="M187.333,82.348a2.639,2.639,0,1,1,2.639-2.639,2.641,2.641,0,0,1-2.639,2.639" transform="translate(959.278 400.297)" fill="#6c245a"/>
      <path id="Path_895" data-name="Path 895" d="M182.662,88.346a2.641,2.641,0,1,1,3.735,0,2.647,2.647,0,0,1-3.735,0" transform="translate(944.717 435.452)" fill="#6c245a"/>
      <path id="Path_896" data-name="Path 896" d="M175.12,89.283a2.639,2.639,0,1,1,2.639,2.639,2.641,2.641,0,0,1-2.639-2.639" transform="translate(909.552 450.018)" fill="#6c245a"/>
      <path id="Path_897" data-name="Path 897" d="M169.122,84.616a2.641,2.641,0,1,1,0,3.735,2.636,2.636,0,0,1,0-3.735" transform="translate(874.392 435.453)" fill="#6c245a"/>
      <path id="Path_898" data-name="Path 898" d="M168.185,77.07a2.639,2.639,0,1,1-2.639,2.639,2.641,2.641,0,0,1,2.639-2.639" transform="translate(859.826 400.292)" fill="#6c245a"/>
      <path id="Path_899" data-name="Path 899" d="M172.857,71.072a2.641,2.641,0,1,1-3.735,0,2.647,2.647,0,0,1,3.735,0" transform="translate(874.392 365.132)" fill="#6c245a"/>
      <path id="Path_900" data-name="Path 900" d="M230.21,76.332H192.743a2.586,2.586,0,1,1,0-5.172H230.21a2.586,2.586,0,0,1,0,5.172" transform="translate(987.637 369.596)" fill="#ef5488"/>
      <path id="Path_901" data-name="Path 901" d="M230.21,88.17H192.743a2.586,2.586,0,1,1,0-5.172H230.21a2.586,2.586,0,0,1,0,5.172" transform="translate(987.637 431.082)" fill="#ef5488"/>
      <path id="Path_902" data-name="Path 902" d="M265,82.253H195.013a2.586,2.586,0,1,1,0-5.172H265a2.586,2.586,0,1,1,0,5.172" transform="translate(999.427 400.349)" fill="#ef5488"/>
      <rect id="Rectangle_228" data-name="Rectangle 228" width="41.388" height="41.387" transform="translate(1345.156 1446.5)" fill="#fff"/>
      <path id="Path_903" data-name="Path 903" d="M264.467,280.83h-47.81V233.019h47.81Zm-41.387-6.423h34.964V239.442H223.079Z" transform="translate(1125.285 1210.272)" fill="#6c245a"/>
      <path id="Path_904" data-name="Path 904" d="M265.9,239.343H228.436a2.586,2.586,0,1,1,0-5.172H265.9a2.586,2.586,0,0,1,0,5.172" transform="translate(1173.022 1216.256)" fill="#6c245a"/>
      <path id="Path_905" data-name="Path 905" d="M279.982,243.922H229.347c-1.932,0-3.5-1.158-3.5-2.589s1.567-2.583,3.5-2.583h50.635c1.932,0,3.493,1.158,3.493,2.583s-1.561,2.589-3.493,2.589" transform="translate(1173.022 1240.038)" fill="#6c245a"/>
      <path id="Path_906" data-name="Path 906" d="M298.421,241.5H228.436a2.586,2.586,0,1,1,0-5.172h69.984a2.586,2.586,0,0,1,0,5.172" transform="translate(1173.022 1227.48)" fill="#6c245a"/>
      <rect id="Rectangle_229" data-name="Rectangle 229" width="41.387" height="41.387" transform="translate(436.365 839.159)" fill="#fff"/>
      <path id="Path_907" data-name="Path 907" d="M117.743,182.774H69.932V134.963h47.811Zm-41.387-6.423H111.32V141.386H76.355Z" transform="translate(363.218 700.981)" fill="#6c245a"/>
      <path id="Path_908" data-name="Path 908" d="M64.165,141.288h37.467a2.586,2.586,0,1,0,0-5.172H64.165a2.586,2.586,0,1,0,0,5.172" transform="translate(319.818 706.97)" fill="#64034b"/>
      <path id="Path_909" data-name="Path 909" d="M62.65,145.867h50.635c1.932,0,3.5-1.158,3.5-2.583s-1.567-2.589-3.5-2.589H62.65c-1.932,0-3.493,1.158-3.493,2.589s1.561,2.583,3.493,2.583" transform="translate(307.254 730.753)" fill="#64034b"/>
      <path id="Path_910" data-name="Path 910" d="M58.915,143.449H128.9a2.586,2.586,0,1,0,0-5.172H58.915a2.586,2.586,0,1,0,0,5.172" transform="translate(292.55 718.194)" fill="#64034b"/>
      <rect id="Rectangle_230" data-name="Rectangle 230" width="12.846" height="552.451" transform="translate(1698.622 994.675)" fill="#6c245a"/>
      <path id="Path_911" data-name="Path 911" d="M309.834,278.1H307.01A38.22,38.22,0,0,1,268.9,239.99V188.946a38.22,38.22,0,0,1,38.111-38.111h2.824a38.224,38.224,0,0,1,38.111,38.111V239.99A38.224,38.224,0,0,1,309.834,278.1" transform="translate(1396.629 783.419)" fill="url(#linear-gradient-2)"/>
      <path id="Path_912" data-name="Path 912" d="M285.095,169.341q6.782,1.087,13.559,2.18c3.035.483,4.336-4.156,1.282-4.645q-6.782-1.1-13.559-2.18c-3.035-.489-4.342,4.156-1.282,4.645" transform="translate(1471.687 855.22)" fill="#64034b"/>
      <path id="Path_913" data-name="Path 913" d="M286.089,165.166a39.57,39.57,0,0,1,10.647-.372c3.085.3,3.066-4.522,0-4.813a43.76,43.76,0,0,0-11.929.539c-3.047.539-1.753,5.184,1.282,4.645" transform="translate(1470.222 829.949)" fill="#64034b"/>
      <path id="Path_914" data-name="Path 914" d="M285.745,163.837l10.393-4.125c2.849-1.127,1.61-5.791-1.276-4.645l-10.4,4.125c-2.849,1.127-1.6,5.791,1.282,4.645" transform="translate(1469.098 804.464)" fill="#64034b"/>
      <path id="Path_915" data-name="Path 915" d="M266.786,172.23a54.964,54.964,0,0,0,10.393-2.477c2.917-1,1.666-5.655-1.276-4.645a55.134,55.134,0,0,1-10.4,2.477c-3.06.421-1.753,5.067,1.282,4.645" transform="translate(1369.934 856.808)" fill="#64034b"/>
      <path id="Path_916" data-name="Path 916" d="M265.188,164.651a52.989,52.989,0,0,1,13.069,2c2.992.842,4.268-3.8,1.282-4.645a58.618,58.618,0,0,0-14.351-2.174c-3.1-.081-3.1,4.732,0,4.819" transform="translate(1365.277 830.142)" fill="#64034b"/>
      <path id="Path_917" data-name="Path 917" d="M265.322,158.211q5.2,1.654,10.406,3.32c2.961.941,4.224-3.71,1.282-4.645q-5.2-1.663-10.406-3.32c-2.961-.941-4.23,3.7-1.282,4.645" transform="translate(1369.348 796.953)" fill="#64034b"/>
      <path id="Path_918" data-name="Path 918" d="M270.44,312.908l8.566-73.837h41.753l9.631,72.772Z" transform="translate(1404.631 1241.705)" fill="url(#linear-gradient)"/>
      <path id="Path_919" data-name="Path 919" d="M213.176,222.673c-1.9-11.737-10.214-42.038-28.51-32.444-29.607,15.522,6.1,74.45-29.57,84.838-1.908-23.494-6.956-39.672-17.56-38.712-21.877,1.988-16.061,52.865-16.42,64.317-.353,11.4-.923,23.1-1.437,34.9-25.736,4.615-20.65-62.509-36.3-71.793-24.336-14.438-29.508,17.733-28.839,32.6,1.14,25.283,7.941,55.534,31.688,68.963,7.835,4.429,21.635,9.427,32.394,8.523-.118,20.223.749,40.322,4.088,59.5a.217.217,0,0,0,.415,0l.006-.05,14.413.78c0,.087-.006.173-.012.26-.13,6.349,9.768,6.355,9.861,0,.173-12.2,7.674-72.109,8.566-122.88,11.514,1.716,25.99-3.636,34.283-9.718,24.571-18.024,27.451-51.18,22.936-79.09" transform="translate(282.979 978.426)" fill="#6cdd6c"/>
      <path id="Path_920" data-name="Path 920" d="M144.669,444.159a8.042,8.042,0,0,1-4.156-1.127,6.912,6.912,0,0,1-3.116-4.026l-10.629-.576-3.871.13-.595-2.428c-2.837-16.29-4.156-34.506-4.138-57.12-11.836-.006-24.813-5.494-30.994-8.981C61.839,355.7,55.2,323.385,54.1,298.8c-.44-9.892,1.641-30.35,12.71-36.984,5.612-3.37,12.431-2.725,20.254,1.914,7.569,4.484,10.449,18.266,13.788,34.221,4.522,21.61,8.585,37.169,18.495,37.411l.235-5.3c.415-9.179.824-18.266,1.1-27.172.056-1.747-.037-4.429-.155-7.724-.694-20.031-1.976-57.318,19.059-59.226a11.509,11.509,0,0,1,8.777,2.812c5.872,4.943,9.619,16.352,11.44,34.841,13.286-5.927,12.6-21.332,11.812-38.972-.793-17.838-1.61-36.284,14.079-44.509,5.091-2.663,9.954-2.886,14.444-.632,13.081,6.541,17.566,32.159,18.037,35.057,3.462,21.4,4.943,60.483-24.02,81.734-8.071,5.921-21.679,11.124-33.224,10.517-.743,33.15-4.144,69.662-6.417,94.06-1.133,12.233-2.032,21.883-2.087,25.853a7.3,7.3,0,0,1-3.76,6.448,8.28,8.28,0,0,1-3.989,1.01M127.32,432.985l15.324.83-.074,2.663c-.037,1.27.421,1.666.762,1.871a2.8,2.8,0,0,0,2.67.012,1.821,1.821,0,0,0,.948-1.734c.056-4.181.923-13.453,2.118-26.281,2.329-25.048,5.853-62.893,6.448-96.612l.056-3.115,3.085.458c10.629,1.586,24.553-3.568,32.258-9.216,26.609-19.523,25.116-56.278,21.852-76.445-1.425-8.845-6.417-26.714-15.076-31.044-2.874-1.443-5.971-1.251-9.464.576-12.611,6.615-11.9,22.558-11.149,39.43.824,18.557,1.759,39.591-18.928,45.618l-3.215.935-.273-3.345c-1.9-23.407-6.392-31.762-9.824-34.648a6.139,6.139,0,0,0-4.763-1.555c-15.887,1.437-14.673,36.662-14.085,53.59.118,3.444.211,6.262.155,8.089-.279,8.925-.688,18.043-1.1,27.241l-.44,9.879-2.149.384c-17.615,3.153-22.57-20.557-26.95-41.487-2.824-13.465-5.736-27.383-11.229-30.647-5.965-3.53-10.9-4.187-14.655-1.926-8.157,4.887-10.5,22.255-10.059,32.047,1.047,23.208,7.148,53.62,30.307,66.708,7.99,4.515,21.053,8.981,30.815,8.182l2.979-.248-.019,2.985c-.13,22.577,1.047,40.706,3.679,56.8" transform="translate(280.689 976.122)" fill="#50aa50"/>
      <path id="Path_921" data-name="Path 921" d="M192.424,361.4H87.853a11.012,11.012,0,0,1-11.087-9.074L53.025,230.446l9.848-1.926L86.621,350.4a1.115,1.115,0,0,0,1.233.954H192.424a1.12,1.12,0,0,0,1.239-.948l23.549-121.883,9.854,1.9L203.518,352.317a11,11,0,0,1-11.093,9.08" transform="translate(275.405 1186.905)" fill="#6c245a"/>
      <path id="Path_922" data-name="Path 922" d="M57.7,222.5H231.275c2.961,0,5.382,3.27,5.382,7.278v26.386c0,4-2.422,7.272-5.382,7.272H57.7c-2.961,0-5.376-3.27-5.376-7.272V229.777c0-4.007,2.416-7.278,5.376-7.278" transform="translate(271.785 1155.633)" fill="#ef5488"/>
      <path id="Path_923" data-name="Path 923" d="M233.566,268.463H59.995c-4.472,0-8.108-4.491-8.108-10.009V232.067c0-5.519,3.636-10.009,8.108-10.009H233.566c4.478,0,8.114,4.491,8.114,10.009v26.386c0,5.519-3.636,10.009-8.114,10.009M59.995,227.527c-1.245,0-2.645,1.945-2.645,4.54v26.386c0,2.6,1.4,4.54,2.645,4.54H233.566c1.251,0,2.651-1.945,2.651-4.54V232.067c0-2.6-1.4-4.54-2.651-4.54Z" transform="translate(269.495 1153.342)" fill="#550340"/>
      <path id="Path_924" data-name="Path 924" d="M233.192,267.636H59.621c-4.224,0-7.662-4.286-7.662-9.557V231.693c0-5.271,3.438-9.563,7.662-9.563H233.192c4.23,0,7.668,4.292,7.668,9.563v26.386c0,5.271-3.438,9.557-7.668,9.557M59.621,226.7c-1.462,0-3.091,2.05-3.091,4.992v26.386c0,2.936,1.629,4.986,3.091,4.986H233.192c1.468,0,3.1-2.05,3.1-4.986V231.693c0-2.942-1.629-4.992-3.1-4.992Z" transform="translate(269.869 1153.716)" fill="#b6d0fb"/>
      <path id="Path_925" data-name="Path 925" d="M235.489,272.665H61.911c-5.729,0-10.393-5.513-10.393-12.295V233.99c0-6.782,4.664-12.3,10.393-12.3H235.489c5.736,0,10.4,5.519,10.4,12.3v26.38c0,6.782-4.664,12.295-10.4,12.295M62.227,231.729a3.507,3.507,0,0,0-.669,2.261v26.38a3.2,3.2,0,0,0,.768,2.348l173.162-.093c-.2-.05.359-.855.359-2.255V233.99a3.2,3.2,0,0,0-.774-2.354Z" transform="translate(267.578 1151.426)" fill="#64034b"/>
      <path id="Path_926" data-name="Path 926" d="M58.172,209.83q4.283.548,8.56,1.09c3.072.4,3.041-4.429,0-4.813l-8.56-1.1c-3.066-.39-3.041,4.429,0,4.819" transform="translate(290.246 1064.685)" fill="#50aa50"/>
      <path id="Path_927" data-name="Path 927" d="M58.286,201.606v4.28c0,3.1,4.819,3.109,4.819,0v-4.28c0-3.1-4.819-3.1-4.819,0" transform="translate(302.73 1035.027)" fill="#50aa50"/>
      <path id="Path_928" data-name="Path 928" d="M64.008,213.473q3.131-1.747,6.268-3.487c2.707-1.511.285-5.674-2.434-4.162q-3.131,1.747-6.268,3.487c-2.707,1.511-.279,5.674,2.434,4.162" transform="translate(313.67 1067.334)" fill="#50aa50"/>
      <path id="Path_929" data-name="Path 929" d="M59.918,224.014l7.544-5.277c2.527-1.765.118-5.946-2.428-4.162q-3.772,2.639-7.55,5.277c-2.521,1.765-.118,5.946,2.434,4.162" transform="translate(293.015 1112.222)" fill="#50aa50"/>
      <path id="Path_930" data-name="Path 930" d="M55.423,213.09q2.685,1.05,5.37,2.106c2.886,1.127,4.138-3.53,1.276-4.645q-2.676-1.059-5.364-2.106c-2.893-1.134-4.144,3.524-1.282,4.645" transform="translate(279.455 1081.721)" fill="#50aa50"/>
      <path id="Path_931" data-name="Path 931" d="M61.654,216.705a3.379,3.379,0,0,1,2.533,1.48c1.976,2.391,5.37-1.034,3.407-3.407a8.024,8.024,0,0,0-5.94-2.893c-3.1-.223-3.078,4.6,0,4.819" transform="translate(308.195 1100.473)" fill="#50aa50"/>
      <path id="Path_932" data-name="Path 932" d="M61.608,217.781a16.371,16.371,0,0,0,1.177,9.384c1.2,2.849,5.358.4,4.156-2.428a10.24,10.24,0,0,1-.688-5.674c.471-3.035-4.168-4.342-4.645-1.282" transform="translate(318.808 1122.066)" fill="#50aa50"/>
      <path id="Path_933" data-name="Path 933" d="M66.914,220.434c1.418.378,2.843.762,4.261,1.14,3,.8,4.28-3.846,1.282-4.646-1.418-.378-2.843-.762-4.261-1.14-3-.8-4.28,3.846-1.282,4.645" transform="translate(338.674 1120.299)" fill="#50aa50"/>
      <path id="Path_934" data-name="Path 934" d="M68,210.748a8,8,0,0,0,2.88,7.005c2.354,1.988,5.779-1.4,3.407-3.407a3.694,3.694,0,0,1-1.468-3.6c.279-3.085-4.54-3.066-4.819,0" transform="translate(352.972 1082.62)" fill="#50aa50"/>
      <path id="Path_935" data-name="Path 935" d="M68.168,204.129a7.459,7.459,0,0,0-1.245,6.144c.539,3.047,5.178,1.753,4.645-1.282a2.621,2.621,0,0,1,.762-2.428c1.833-2.5-2.347-4.912-4.162-2.434" transform="translate(346.685 1054.82)" fill="#50aa50"/>
      <path id="Path_936" data-name="Path 936" d="M71.249,207.48v4.28c0,3.1,4.819,3.109,4.819,0v-4.28c0-3.1-4.819-3.1-4.819,0" transform="translate(370.059 1065.548)" fill="#50aa50"/>
      <path id="Path_937" data-name="Path 937" d="M64.93,208.143q1.607,1.069,3.208,2.143c2.589,1.722,5-2.447,2.434-4.162q-1.607-1.068-3.208-2.143c-2.589-1.722-5,2.447-2.434,4.162" transform="translate(331.54 1057.328)" fill="#50aa50"/>
      <path id="Path_938" data-name="Path 938" d="M65.825,201.38a5.994,5.994,0,0,1,1.505,3.636c.235,3.066,5.054,3.1,4.813,0a11.57,11.57,0,0,0-2.911-7.042c-2.019-2.36-5.413,1.065-3.407,3.406" transform="translate(338.704 1024.122)" fill="#50aa50"/>
      <path id="Path_939" data-name="Path 939" d="M67.274,197.457v6.423c0,3.1,4.819,3.1,4.819,0v-6.423c0-3.1-4.819-3.1-4.819,0" transform="translate(349.413 1013.478)" fill="#50aa50"/>
      <path id="Path_940" data-name="Path 940" d="M72.652,203.55c.694.731,1.394,1.462,2.087,2.193,2.143,2.248,5.544-1.158,3.407-3.407-.694-.731-1.394-1.462-2.087-2.193-2.143-2.248-5.544,1.158-3.407,3.407" transform="translate(373.821 1035.691)" fill="#50aa50"/>
      <path id="Path_941" data-name="Path 941" d="M74.8,199.485c2.137.124,4.268.242,6.4.365,3.1.18,3.085-4.639,0-4.819-2.137-.118-4.268-.242-6.4-.365-3.1-.18-3.085,4.639,0,4.819" transform="translate(376.451 1011.047)" fill="#50aa50"/>
      <path id="Path_942" data-name="Path 942" d="M74.551,192.662l4.28,4.28c2.2,2.2,5.605-1.208,3.407-3.407l-4.28-4.28c-2.193-2.193-5.605,1.208-3.407,3.407" transform="translate(383.523 979.294)" fill="#50aa50"/>
      <path id="Path_943" data-name="Path 943" d="M76.953,189.161v7.495c0,3.1,4.819,3.1,4.819,0v-7.495c0-3.1-4.819-3.1-4.819,0" transform="translate(399.685 970.389)" fill="#50aa50"/>
      <path id="Path_944" data-name="Path 944" d="M82.192,200.152c.706-1.072,1.418-2.149,2.125-3.221,1.71-2.6-2.459-5.011-4.162-2.434-.706,1.072-1.412,2.149-2.124,3.221-1.71,2.6,2.459,5.017,4.162,2.434" transform="translate(403.179 1004.477)" fill="#50aa50"/>
      <path id="Path_945" data-name="Path 945" d="M78.157,207.918c1.79-.694,3.58-1.394,5.376-2.087,2.855-1.115,1.61-5.773-1.282-4.645-1.79.694-3.586,1.394-5.376,2.087-2.855,1.109-1.617,5.773,1.282,4.645" transform="translate(390.88 1044.026)" fill="#50aa50"/>
      <path id="Path_946" data-name="Path 946" d="M81.7,205.915c1.784-.372,3.562-.737,5.345-1.109,3.035-.626,1.747-5.271-1.282-4.645-1.778.372-3.561.737-5.345,1.109-3.035.632-1.747,5.277,1.282,4.645" transform="translate(408.667 1039.309)" fill="#50aa50"/>
      <path id="Path_947" data-name="Path 947" d="M76.953,206.618v1.072c0,3.1,4.819,3.1,4.819,0v-1.072c0-3.1-4.819-3.1-4.819,0" transform="translate(399.685 1061.059)" fill="#50aa50"/>
      <path id="Path_948" data-name="Path 948" d="M73.233,222.2q1.607-1.068,3.215-2.143c2.564-1.71.155-5.884-2.434-4.156L70.8,218.039c-2.564,1.716-.155,5.89,2.434,4.162" transform="translate(362.036 1119.238)" fill="#50aa50"/>
      <path id="Path_949" data-name="Path 949" d="M73.293,226.343a13.429,13.429,0,0,1,6.553-3.512c3.016-.706,1.741-5.351-1.282-4.645a18.336,18.336,0,0,0-8.678,4.751c-2.242,2.149,1.164,5.55,3.407,3.407" transform="translate(359.17 1132.854)" fill="#50aa50"/>
      <path id="Path_950" data-name="Path 950" d="M66.857,222.971c.365.712.725,1.425,1.084,2.131,1.412,2.762,5.568.328,4.162-2.428-.359-.712-.725-1.425-1.084-2.137-1.412-2.762-5.568-.328-4.162,2.434" transform="translate(345.761 1139.125)" fill="#50aa50"/>
      <path id="Path_951" data-name="Path 951" d="M64.67,224.482a11.949,11.949,0,0,0,8.318,1.152c3.035-.613,1.753-5.259-1.282-4.645a6.508,6.508,0,0,1-4.6-.669c-2.75-1.425-5.19,2.731-2.434,4.162" transform="translate(329.601 1142.792)" fill="#50aa50"/>
      <path id="Path_952" data-name="Path 952" d="M72.005,218.436l9.619-1.208c3.035-.378,3.072-5.2,0-4.813q-4.813.595-9.619,1.2c-3.035.384-3.072,5.2,0,4.819" transform="translate(362.093 1103.145)" fill="#50aa50"/>
      <path id="Path_953" data-name="Path 953" d="M151.408,308.541q77.783-70.313,155.553-140.632c7.687-6.943-3.7-18.272-11.353-11.353q-77.773,70.313-155.553,140.632c-7.687,6.943,3.7,18.272,11.353,11.353" transform="translate(714.155 801.922)" fill="#f1b2c8"/>
      <path id="Path_954" data-name="Path 954" d="M179.791,320.122Q257.574,249.809,335.344,179.5c7.687-6.95-3.7-18.278-11.353-11.36q-77.773,70.313-155.553,140.632c-7.687,6.943,3.7,18.272,11.354,11.353" transform="translate(861.573 862.073)" fill="#f1b2c8"/>
      <path id="Path_955" data-name="Path 955" d="M148.837,477.494Q311.844,318.537,474.858,159.581c7.42-7.228-3.939-18.582-11.347-11.36Q300.494,307.178,137.477,466.141c-7.414,7.228,3.946,18.575,11.36,11.353" transform="translate(701.508 757.832)" fill="#f1b2c8"/>
      <rect id="Rectangle_231" data-name="Rectangle 231" width="6.993" height="448.672" transform="translate(1341.656 246.739)" fill="#64034b"/>
      <path id="Path_956" data-name="Path 956" d="M269.536,136.155a28.479,28.479,0,1,1-28.479-28.479,28.483,28.483,0,0,1,28.479,28.479" transform="translate(1104.099 559.256)" fill="#64034b"/>
      <path id="Path_957" data-name="Path 957" d="M236.846,190.22c-.471,0-9.768-.093-16.556-6.863-4.528-4.522-6.826-10.8-6.826-18.662a3.769,3.769,0,1,1,7.538,0c0,5.785,1.555,10.269,4.615,13.323,4.559,4.546,11.161,4.664,11.229,4.664a19.269,19.269,0,1,0,.006-38.538,3.77,3.77,0,0,1-3.766-3.772V119.436a3.766,3.766,0,1,1,7.532,0v17.43a26.81,26.81,0,0,1-3.766,53.354Z" transform="translate(1108.706 600.745)" fill="#64034b"/>
      <path id="Path_958" data-name="Path 958" d="M195.523,155.4a3.494,3.494,0,0,1,.087-6.9l154.166-22.713a3.493,3.493,0,0,1,1.016,6.912l-154.16,22.713a3.492,3.492,0,0,1-1.109-.012" transform="translate(1000.466 653.103)" fill="#64034b"/>
      <path id="Path_959" data-name="Path 959" d="M362.168,206.7a3.33,3.33,0,0,1-1.022-.347l-141.753-74a3.5,3.5,0,0,1,3.233-6.2L364.38,200.155a3.494,3.494,0,0,1-2.211,6.541" transform="translate(1129.739 653.101)" fill="#64034b"/>
      <path id="Path_960" data-name="Path 960" d="M580.865,484.424,203.318,418.819a36.352,36.352,0,0,1-29.594-42.038l37.77-217.393a36.36,36.36,0,0,1,42.044-29.594L631.085,195.4a36.355,36.355,0,0,1,29.594,42.044L622.909,454.83a36.355,36.355,0,0,1-42.044,29.594" transform="translate(899.478 671.316)" fill="#fff"/>
      <path id="Path_961" data-name="Path 961" d="M589.885,493.431a42.622,42.622,0,0,1-7.309-.632L207.685,427.659a42.521,42.521,0,0,1-34.611-49.173l37.318-214.729a42.571,42.571,0,0,1,49.167-34.618L634.45,194.286a42.528,42.528,0,0,1,34.624,49.167L631.755,458.188a42.6,42.6,0,0,1-41.87,35.243M252.269,138.144A32.936,32.936,0,0,0,219.881,165.4L182.569,380.133a32.893,32.893,0,0,0,26.77,38.037L584.23,483.3a32.916,32.916,0,0,0,38.03-26.77l37.312-214.729a32.87,32.87,0,0,0-26.77-38.03l-374.9-65.147a32.941,32.941,0,0,0-5.636-.483" transform="translate(895.605 667.456)" fill="#64034b"/>
      <path id="Path_962" data-name="Path 962" d="M560.014,440.981,195.9,377.71A23.22,23.22,0,0,1,177,350.854L211.491,152.34a23.229,23.229,0,0,1,26.857-18.91L602.461,196.7a23.231,23.231,0,0,1,18.91,26.863L586.877,422.071a23.226,23.226,0,0,1-26.863,18.91" transform="translate(917.498 691.223)" fill="url(#linear-gradient-4)"/>
      <path id="Path_963" data-name="Path 963" d="M567.28,449.943a29.107,29.107,0,0,1-5-.434L199.859,386.536a28.912,28.912,0,0,1-23.531-33.428l34.2-196.817a28.916,28.916,0,0,1,33.428-23.531L606.369,195.74A28.932,28.932,0,0,1,629.9,229.162l-34.2,196.81a28.929,28.929,0,0,1-28.424,23.97m-3.363-9.929A19.266,19.266,0,0,0,586.2,424.331l34.2-196.817a19.3,19.3,0,0,0-15.683-22.286L242.306,142.256a19.319,19.319,0,0,0-22.292,15.689l-34.2,196.811a19.277,19.277,0,0,0,15.689,22.286Z" transform="translate(913.565 687.29)" fill="#64054b"/>
      <path id="Path_964" data-name="Path 964" d="M210.656,250.356l94.215-86.349,52.146,111.781Z" transform="translate(1094.124 851.832)" fill="#fff"/>
      <path id="Path_965" data-name="Path 965" d="M368.383,284.473,209.529,256.867l102.261-93.72ZM223.5,252.779l133.856,23.258L309.665,173.8Z" transform="translate(1088.268 847.366)" fill="#64034b"/>
      <path id="Path_966" data-name="Path 966" d="M180.579,301.093,347.615,148.005l92.438,198.173Z" transform="translate(937.904 768.723)" fill="#fff"/>
      <path id="Path_967" data-name="Path 967" d="M451.424,354.858,179.451,307.6,354.527,147.146ZM193.418,303.51,440.4,346.428l-87.99-188.635Z" transform="translate(932.047 764.258)" fill="#64034b"/>
      <path id="Path_968" data-name="Path 968" d="M278.5,175.635a23.358,23.358,0,1,1-19.015-27.012A23.362,23.362,0,0,1,278.5,175.635" transform="translate(1205.632 770.12)" fill="#fff"/>
      <path id="Path_969" data-name="Path 969" d="M258.228,200.912a26.968,26.968,0,0,1-4.6-.4,26.39,26.39,0,1,1,4.6.4m-.093-46.733a20.187,20.187,0,1,0,3.487.3,20,20,0,0,0-3.487-.3" transform="translate(1202.945 767.42)" fill="#64034b"/>
      <rect id="Rectangle_232" data-name="Rectangle 232" width="350.121" height="38.526" transform="translate(1283.855 231.645)" fill="#c64a73"/>
      <path id="Path_970" data-name="Path 970" d="M410.4,1027.771H294.163V.083H410.4Zm-104.738-11.5H398.9V11.579H305.659Z" transform="translate(1527.847 0.431)" fill="#6c245a"/>
      <path id="Path_971" data-name="Path 971" d="M407.716,113.317H294.4V0H407.716ZM306.044,101.673h90.022V11.651H306.044Z" transform="translate(1529.073)" fill="#6c245a"/>
      <rect id="Rectangle_233" data-name="Rectangle 233" width="11.65" height="143.778" transform="translate(1825.176 9.946) rotate(-45)" fill="#6c245a"/>
      <rect id="Rectangle_234" data-name="Rectangle 234" width="143.78" height="11.652" transform="matrix(0.707, -0.707, 0.707, 0.707, 1825.174, 103.375)" fill="#6c245a"/>
      <path id="Path_972" data-name="Path 972" d="M407.716,129.731H294.4V16.414H407.716ZM306.044,118.087h90.022V28.065H306.044Z" transform="translate(1529.073 85.252)" fill="#6c245a"/>
      <rect id="Rectangle_235" data-name="Rectangle 235" width="11.65" height="143.778" transform="translate(1825.176 111.614) rotate(-45)" fill="#6c245a"/>
      <rect id="Rectangle_236" data-name="Rectangle 236" width="143.78" height="11.652" transform="matrix(0.707, -0.707, 0.707, 0.707, 1825.174, 205.043)" fill="#6c245a"/>
      <path id="Path_973" data-name="Path 973" d="M407.716,146.146H294.4V32.829H407.716ZM306.044,134.5h90.022V44.474H306.044Z" transform="translate(1529.073 170.51)" fill="#6c245a"/>
      <rect id="Rectangle_237" data-name="Rectangle 237" width="11.65" height="143.778" transform="translate(1825.176 213.283) rotate(-45)" fill="#6c245a"/>
      <rect id="Rectangle_238" data-name="Rectangle 238" width="143.78" height="11.652" transform="matrix(0.707, -0.707, 0.707, 0.707, 1825.174, 306.712)" fill="#6c245a"/>
      <path id="Path_974" data-name="Path 974" d="M407.716,162.56H294.4V49.243H407.716ZM306.044,150.909h90.022V60.887H306.044Z" transform="translate(1529.073 255.762)" fill="#6c245a"/>
      <rect id="Rectangle_239" data-name="Rectangle 239" width="11.65" height="143.778" transform="translate(1825.176 314.951) rotate(-45)" fill="#6c245a"/>
      <rect id="Rectangle_240" data-name="Rectangle 240" width="143.78" height="11.652" transform="matrix(0.707, -0.707, 0.707, 0.707, 1825.174, 408.38)" fill="#6c245a"/>
      <path id="Path_975" data-name="Path 975" d="M407.716,178.974H294.4V65.657H407.716ZM306.044,167.33h90.022V77.308H306.044Z" transform="translate(1529.073 341.014)" fill="#6c245a"/>
      <rect id="Rectangle_241" data-name="Rectangle 241" width="11.65" height="143.778" transform="translate(1825.176 416.618) rotate(-45)" fill="#6c245a"/>
      <rect id="Rectangle_242" data-name="Rectangle 242" width="143.78" height="11.652" transform="matrix(0.707, -0.707, 0.707, 0.707, 1825.174, 510.047)" fill="#6c245a"/>
      <path id="Path_976" data-name="Path 976" d="M407.716,195.389H294.4V82.072H407.716ZM306.044,183.738h90.022V93.717H306.044Z" transform="translate(1529.073 426.272)" fill="#6c245a"/>
      <rect id="Rectangle_243" data-name="Rectangle 243" width="11.65" height="143.778" transform="translate(1825.176 518.287) rotate(-45)" fill="#6c245a"/>
      <rect id="Rectangle_244" data-name="Rectangle 244" width="143.78" height="11.652" transform="matrix(0.707, -0.707, 0.707, 0.707, 1825.174, 611.716)" fill="#6c245a"/>
      <path id="Path_977" data-name="Path 977" d="M407.716,211.8H294.4V98.486H407.716ZM306.044,200.152h90.022V110.13H306.044Z" transform="translate(1529.073 511.524)" fill="#6c245a"/>
      <rect id="Rectangle_245" data-name="Rectangle 245" width="11.65" height="143.778" transform="translate(1825.176 619.955) rotate(-45)" fill="#6c245a"/>
      <rect id="Rectangle_246" data-name="Rectangle 246" width="143.78" height="11.652" transform="matrix(0.707, -0.707, 0.707, 0.707, 1825.174, 713.384)" fill="#6c245a"/>
      <path id="Path_978" data-name="Path 978" d="M407.716,228.217H294.4V114.9H407.716ZM306.044,216.573h90.022V126.551H306.044Z" transform="translate(1529.073 596.777)" fill="#6c245a"/>
      <rect id="Rectangle_247" data-name="Rectangle 247" width="11.65" height="143.778" transform="translate(1825.176 721.623) rotate(-45)" fill="#6c245a"/>
      <rect id="Rectangle_248" data-name="Rectangle 248" width="143.78" height="11.652" transform="translate(1825.174 815.052) rotate(-45)" fill="#6c245a"/>
      <path id="Path_979" data-name="Path 979" d="M407.716,244.631H294.4V131.314H407.716ZM306.044,232.987h90.022V142.965H306.044Z" transform="translate(1529.073 682.029)" fill="#6c245a"/>
      <rect id="Rectangle_249" data-name="Rectangle 249" width="11.65" height="143.778" transform="translate(1825.176 823.29) rotate(-45)" fill="#6c245a"/>
      <rect id="Rectangle_250" data-name="Rectangle 250" width="143.78" height="11.652" transform="translate(1825.174 916.719) rotate(-45)" fill="#6c245a"/>
      <path id="Path_980" data-name="Path 980" d="M407.716,261.046H294.4V147.729H407.716ZM306.044,249.4h90.022V159.373H306.044Z" transform="translate(1529.073 767.286)" fill="#6c245a"/>
      <rect id="Rectangle_251" data-name="Rectangle 251" width="11.648" height="143.78" transform="translate(1825.177 924.955) rotate(-44.998)" fill="#6c245a"/>
      <rect id="Rectangle_252" data-name="Rectangle 252" width="143.782" height="11.65" transform="translate(1825.174 1018.389) rotate(-45)" fill="#6c245a"/>
      <path id="Path_981" data-name="Path 981" d="M440.377,129.484H327.06V16.167H440.377ZM338.711,117.84h90.022V27.818H338.711Z" transform="translate(1698.71 83.969)" fill="#6c245a"/>
      <rect id="Rectangle_253" data-name="Rectangle 253" width="143.778" height="11.65" transform="matrix(0.707, -0.707, 0.707, 0.707, 2027.476, 203.511)" fill="#6c245a"/>
      <rect id="Rectangle_254" data-name="Rectangle 254" width="11.65" height="143.778" transform="translate(2027.476 110.082) rotate(-45)" fill="#6c245a"/>
      <path id="Path_982" data-name="Path 982" d="M423.963,129.484H310.646V16.167H423.963ZM322.291,117.84h90.022V27.818H322.291Z" transform="translate(1613.457 83.969)" fill="#6c245a"/>
      <rect id="Rectangle_255" data-name="Rectangle 255" width="143.778" height="11.65" transform="matrix(0.707, -0.707, 0.707, 0.707, 1925.809, 203.511)" fill="#6c245a"/>
      <rect id="Rectangle_256" data-name="Rectangle 256" width="11.65" height="143.778" transform="translate(1925.808 110.082) rotate(-45)" fill="#6c245a"/>
      <path id="Path_983" data-name="Path 983" d="M407.548,129.484H294.231V16.167H407.548ZM305.882,117.84H395.9V27.818H305.882Z" transform="translate(1528.2 83.969)" fill="#6c245a"/>
      <path id="Path_984" data-name="Path 984" d="M391.134,129.484H277.817V16.167H391.134ZM289.468,117.84H379.49V27.818H289.468Z" transform="translate(1442.948 83.969)" fill="#6c245a"/>
      <rect id="Rectangle_257" data-name="Rectangle 257" width="143.78" height="11.648" transform="matrix(0.707, -0.707, 0.707, 0.707, 1722.472, 203.513)" fill="#6c245a"/>
      <rect id="Rectangle_258" data-name="Rectangle 258" width="11.648" height="143.78" transform="translate(1722.472 110.08) rotate(-45)" fill="#6c245a"/>
      <path id="Path_985" data-name="Path 985" d="M374.72,129.484H261.4V16.167H374.72ZM273.047,117.84h90.022V27.818H273.047Z" transform="translate(1357.696 83.969)" fill="#6c245a"/>
      <rect id="Rectangle_259" data-name="Rectangle 259" width="143.782" height="11.65" transform="matrix(0.707, -0.707, 0.707, 0.707, 1620.803, 203.513)" fill="#6c245a"/>
      <rect id="Rectangle_260" data-name="Rectangle 260" width="11.648" height="143.78" transform="translate(1620.804 110.08) rotate(-45)" fill="#6c245a"/>
      <path id="Path_986" data-name="Path 986" d="M358.3,129.484H244.988V16.167H358.3ZM256.639,117.84h90.022V27.818H256.639Z" transform="translate(1272.438 83.969)" fill="#6c245a"/>
      <path id="Path_987" data-name="Path 987" d="M336.065,128.056H234.4a5.824,5.824,0,0,1-4.119-9.941L331.947,16.442l8.238,8.238-91.725,91.725h85.2l99.957-99.963,8.238,8.238L340.184,126.352a5.833,5.833,0,0,1-4.119,1.7" transform="translate(1187.189 85.398)" fill="#6c245a"/>
      <rect id="Rectangle_261" data-name="Rectangle 261" width="11.648" height="143.78" transform="translate(1519.134 110.081) rotate(-45)" fill="#6c245a"/>
      <path id="Path_988" data-name="Path 988" d="M410.645,279.32H294.163V166H410.645Zm-104.5-11.651h92.531V177.647H306.142Z" transform="translate(1527.847 862.199)" fill="#6c245a"/>
      <path id="Path_989" data-name="Path 989" d="M398.95,276.183l-104.5-101.666,8.467-8.238,104.5,101.666Z" transform="translate(1529.321 863.632)" fill="#6c245a"/>
      <path id="Path_990" data-name="Path 990" d="M302.914,276.183l-8.467-8.238,104.5-101.666,8.473,8.238Z" transform="translate(1529.319 863.632)" fill="#6c245a"/>
      <path id="Path_991" data-name="Path 991" d="M410.645,344.977H294.163V231.66H410.645Zm-104.5-11.651h92.531V243.3H306.142Z" transform="translate(1527.847 1203.214)" fill="#6c245a"/>
      <path id="Path_992" data-name="Path 992" d="M398.95,341.84l-104.5-101.666,8.467-8.238L407.417,333.6Z" transform="translate(1529.321 1204.645)" fill="#6c245a"/>
      <path id="Path_993" data-name="Path 993" d="M302.914,341.84l-8.467-8.238,104.5-101.666,8.473,8.238Z" transform="translate(1529.319 1204.645)" fill="#6c245a"/>
      <path id="Path_994" data-name="Path 994" d="M410.645,294.179H294.163V180.862H410.645Zm-104.5-11.651h92.531V192.507H306.142Z" transform="translate(1527.847 939.375)" fill="#6c245a"/>
      <path id="Path_995" data-name="Path 995" d="M398.95,291.042l-104.5-101.666,8.467-8.238L407.417,282.8Z" transform="translate(1529.321 940.806)" fill="#6c245a"/>
      <path id="Path_996" data-name="Path 996" d="M302.914,291.042l-8.467-8.238,104.5-101.666,8.473,8.238Z" transform="translate(1529.319 940.806)" fill="#6c245a"/>
      <path id="Path_997" data-name="Path 997" d="M410.645,310.593H294.163V197.276H410.645Zm-104.5-11.651h92.531V208.921H306.142Z" transform="translate(1527.847 1024.628)" fill="#6c245a"/>
      <path id="Path_998" data-name="Path 998" d="M398.95,307.456l-104.5-101.666,8.467-8.238,104.5,101.666Z" transform="translate(1529.321 1026.059)" fill="#6c245a"/>
      <path id="Path_999" data-name="Path 999" d="M302.914,307.456l-8.467-8.238,104.5-101.666,8.473,8.238Z" transform="translate(1529.319 1026.059)" fill="#6c245a"/>
      <path id="Path_1000" data-name="Path 1000" d="M410.645,327.007H294.163V213.69H410.645Zm-104.5-11.651h92.531V225.335H306.142Z" transform="translate(1527.847 1109.88)" fill="#6c245a"/>
      <path id="Path_1001" data-name="Path 1001" d="M398.95,323.87,294.447,222.2l8.467-8.238,104.5,101.666Z" transform="translate(1529.321 1111.312)" fill="#6c245a"/>
      <path id="Path_1002" data-name="Path 1002" d="M302.914,323.87l-8.467-8.238,104.5-101.666,8.473,8.238Z" transform="translate(1529.319 1111.312)" fill="#6c245a"/>
      <path id="Path_1003" data-name="Path 1003" d="M110.9,115.713c12.4,0,12.419-19.269,0-19.269-12.4,0-12.419,19.269,0,19.269" transform="translate(527.664 500.918)" fill="#ef5488"/>
      <path id="Path_1004" data-name="Path 1004" d="M279.6,83.212c12.4,0,12.419-19.263,0-19.263-12.4,0-12.419,19.263,0,19.263" transform="translate(1403.861 332.143)" fill="#ef5488"/>
      <line id="Line_42" data-name="Line 42" x2="4.28" transform="translate(2115.98 1095.183)" fill="#405b91"/>
      <path id="Path_1005" data-name="Path 1005" d="M349.712,194.531h4.28c5.042,0,9.873-4.429,9.638-9.638a9.8,9.8,0,0,0-9.638-9.632h-4.28c-5.042,0-9.867,4.429-9.638,9.632a9.808,9.808,0,0,0,9.638,9.638" transform="translate(1766.265 910.289)" fill="#ef5488"/>
      <path id="Path_1006" data-name="Path 1006" d="M49.367,217.346c12.4,0,12.419-19.269,0-19.269-12.4,0-12.419,19.269,0,19.269" transform="translate(208.069 1028.788)" fill="#ef5488"/>
      <path id="Path_1007" data-name="Path 1007" d="M198.015,68.007c12.4,0,12.419-19.269,0-19.269-12.4,0-12.419,19.269,0,19.269" transform="translate(980.128 253.139)" fill="#ef5488"/>
    </g>
  </g>
</svg>
