<?xml version="1.0" encoding="iso-8859-1"?>
<!-- Generator: Adobe Illustrator 18.0.0, SVG Export Plug-In . SVG Version: 6.00 Build 0)  -->
<!DOCTYPE svg PUBLIC "-//W3C//DTD SVG 1.1//EN" "http://www.w3.org/Graphics/SVG/1.1/DTD/svg11.dtd">
<svg version="1.1" id="Capa_1" xmlns="http://www.w3.org/2000/svg" xmlns:xlink="http://www.w3.org/1999/xlink" x="0px" y="0px"
	 viewBox="0 0 60 60" style="enable-background:new 0 0 60 60;" xml:space="preserve">
<g fill="#d63384">
	<path d="M34.224,10.494H14.776C6.628,10.494,0,17.122,0,25.27v11.346C0,44.348,6.313,50.93,14,51.46v6.48
		c0,0.893,0.602,1.565,1.4,1.565c0.379,0,0.75-0.162,1.047-0.459l1.521-1.521c3.89-3.89,9.151-6.032,14.813-6.032h1.443
		C42.372,51.494,49,44.819,49,36.615V25.27C49,17.122,42.372,10.494,34.224,10.494z M13,35.494c-2.206,0-4-1.794-4-4s1.794-4,4-4
		s4,1.794,4,4S15.206,35.494,13,35.494z M25,35.494c-2.206,0-4-1.794-4-4s1.794-4,4-4s4,1.794,4,4S27.206,35.494,25,35.494z
		 M37,35.494c-2.206,0-4-1.794-4-4s1.794-4,4-4s4,1.794,4,4S39.206,35.494,37,35.494z"/>
	<path d="M45.224,0.494H25.776c-5.654,0-10.719,3.244-13.185,8.159c0.717-0.094,1.443-0.159,2.185-0.159h19.448
		C43.475,8.494,51,16.02,51,25.27v11.346c0,1.296-0.16,2.552-0.436,3.765C56.101,38.122,60,32.65,60,26.615V15.27
		C60,7.122,53.372,0.494,45.224,0.494z"/>
</g>
<g>
</g>
<g>
</g>
<g>
</g>
<g>
</g>
<g>
</g>
<g>
</g>
<g>
</g>
<g>
</g>
<g>
</g>
<g>
</g>
<g>
</g>
<g>
</g>
<g>
</g>
<g>
</g>
<g>
</g>
</svg>
