<svg width="614" height="507" viewBox="0 0 614 507" fill="none" xmlns="http://www.w3.org/2000/svg">
<g clip-path="url(#clip0_98_5105)">
<path d="M603.354 147.28L593.752 193.738L587.571 187.723L577.056 195.212L569.019 185.246L550.999 198.34L535.597 172.604L518.419 182.66L511.606 173.266L489.793 185.547L483.231 171.511L498.523 97.5137L580.498 114.427L603.354 147.28Z" fill="#EBEBEB"/>
<path d="M580.498 114.426L603.354 147.279L574.919 141.414L580.498 114.426Z" fill="#DBDBDB"/>
<path d="M591.705 203.031L577.628 271.194L467.208 248.427L481.184 180.795L487.746 194.841L509.57 182.559L516.372 191.943L533.56 181.888L548.952 207.623L566.982 194.53L575.009 204.495L585.535 197.006L591.705 203.031Z" fill="#EBEBEB"/>
<path d="M433.665 195.042L321.138 201.999L312.198 57.6631L395.758 52.5L426.431 78.2052L433.665 195.042Z" fill="#EBEBEB"/>
<path d="M395.758 52.5L426.431 78.2052L397.454 79.9998L395.758 52.5Z" fill="#DBDBDB"/>
<path d="M364.563 149.606L364.132 146.348C362.998 139.601 364.844 132.052 370.714 124.162C376.002 117.184 378.871 112.101 378.56 106.437C378.199 100.021 373.935 95.9704 365.998 96.2912C361.463 96.5418 356.516 98.3364 353.506 100.903L350.044 93.1532C354.028 89.905 361.092 87.4889 367.764 87.1179C382.232 86.3059 389.276 94.8676 389.818 104.422C390.3 112.974 385.865 119.4 380.226 126.909C375.058 133.756 373.353 139.401 374.085 145.797L374.396 149.055L364.583 149.606H364.563ZM362.777 167.372C362.516 162.72 365.476 159.271 369.881 159.03C374.286 158.78 377.487 161.888 377.747 166.539C377.998 170.941 375.289 174.5 370.634 174.76C366.229 175.011 363.018 171.783 362.767 167.382L362.777 167.372Z" fill="#DBDBDB"/>
<path d="M83.1389 125.065L71.8109 119.932L70.2457 123.4C69.7841 124.423 68.7807 125.065 67.667 125.115C67.0449 125.145 66.4329 125.205 65.8208 125.295C64.7171 125.466 63.6134 125.015 62.9612 124.112L60.7438 121.024L50.6298 128.263L52.8473 131.351C53.4995 132.253 53.5597 133.446 53.048 134.438C52.757 134.99 52.5061 135.551 52.2854 136.133C51.884 137.175 50.9409 137.917 49.8271 138.018L46.0344 138.388L47.2585 150.75L51.0613 150.369C52.175 150.259 53.2286 150.81 53.8406 151.752C54.0012 152.013 54.1717 152.264 54.3523 152.514C54.5329 152.765 54.7135 153.006 54.9042 153.246C55.5965 154.118 55.7871 155.291 55.3256 156.304L53.7403 159.793L65.0683 164.926L66.6436 161.457C67.1051 160.434 68.1085 159.793 69.2222 159.743C69.8343 159.713 70.4564 159.652 71.0684 159.562C72.1721 159.392 73.2758 159.843 73.928 160.745L76.1454 163.833L86.2594 156.595L84.0419 153.507C83.3898 152.605 83.3295 151.412 83.8413 150.419C84.1222 149.868 84.3831 149.306 84.6038 148.735C85.0052 147.692 85.9483 146.95 87.0621 146.84L90.8548 146.469L89.6307 134.108L85.8279 134.479C84.7142 134.589 83.6707 134.037 83.0586 133.095C82.8981 132.834 82.7175 132.584 82.5369 132.333C82.3563 132.082 82.1757 131.842 81.985 131.601C81.2827 130.729 81.1021 129.546 81.5636 128.533L83.1389 125.065ZM76.7174 136.504C79.9883 141.075 78.9448 147.421 74.3695 150.7C69.7941 153.968 63.4328 152.925 60.1518 148.364C56.8808 143.792 57.9243 137.426 62.4997 134.158C67.075 130.889 73.4364 131.942 76.7073 136.514L76.7174 136.504Z" fill="#EBEBEB"/>
<path d="M594.755 289.081L587.21 293.432L588.544 295.737C588.936 296.419 588.896 297.251 588.474 297.903C588.233 298.264 588.023 298.645 587.822 299.026C587.471 299.718 586.758 300.169 585.986 300.169H583.317V308.871H585.986C586.769 308.871 587.471 309.322 587.822 310.014C588.023 310.405 588.233 310.776 588.474 311.137C588.906 311.788 588.936 312.63 588.544 313.302L587.21 315.608L594.755 319.959L596.09 317.643C596.481 316.961 597.224 316.59 598.016 316.63C598.227 316.641 598.448 316.651 598.658 316.651C598.869 316.651 599.09 316.651 599.301 316.63C600.083 316.59 600.826 316.961 601.217 317.633L602.561 319.959L610.107 315.608L608.772 313.292C608.381 312.61 608.421 311.778 608.853 311.127C609.093 310.766 609.304 310.395 609.505 310.004C609.856 309.312 610.558 308.861 611.341 308.861H614.01V300.159H611.341C610.558 300.159 609.856 299.708 609.505 299.016C609.304 298.625 609.093 298.254 608.853 297.893C608.421 297.241 608.381 296.399 608.772 295.727L610.107 293.412L602.561 289.061L601.227 291.376C600.836 292.058 600.093 292.429 599.311 292.389C599.1 292.379 598.879 292.369 598.668 292.369C598.458 292.369 598.237 292.369 598.026 292.389C597.244 292.429 596.491 292.058 596.1 291.376L594.765 289.061L594.755 289.081ZM598.658 297.402C602.602 297.402 605.792 300.59 605.792 304.53C605.792 308.47 602.602 311.658 598.658 311.658C594.715 311.658 591.524 308.46 591.524 304.53C591.524 300.6 594.725 297.402 598.658 297.402Z" fill="#EBEBEB"/>
<path d="M106.036 88.0201L99.1126 93.3035L100.738 95.4189C101.22 96.0405 101.29 96.8726 100.949 97.5844C100.758 97.9754 100.598 98.3764 100.447 98.7874C100.186 99.5193 99.544 100.061 98.7714 100.161L96.1226 100.502L97.2463 109.134L99.8952 108.793C100.668 108.693 101.43 109.043 101.872 109.695C102.123 110.056 102.384 110.397 102.665 110.728C103.176 111.319 103.317 112.141 103.016 112.873L101.992 115.329L110.039 118.668L111.063 116.202C111.364 115.48 112.056 115.009 112.839 114.948C113.049 114.928 113.26 114.908 113.481 114.878C113.691 114.848 113.902 114.818 114.113 114.778C114.886 114.638 115.668 114.908 116.14 115.53L117.775 117.665L124.698 112.382L123.073 110.257C122.601 109.635 122.531 108.803 122.872 108.091C123.063 107.7 123.223 107.299 123.374 106.898C123.635 106.166 124.277 105.625 125.05 105.525L127.698 105.184L126.575 96.5518L123.926 96.8926C123.153 96.9929 122.391 96.642 121.949 96.0004C121.708 95.6395 121.437 95.2986 121.157 94.9677C120.645 94.3762 120.504 93.5542 120.805 92.8223L121.829 90.356L113.782 87.0176L112.758 89.4838C112.457 90.2057 111.765 90.6668 110.992 90.737C110.782 90.7571 110.561 90.7771 110.35 90.8072C110.14 90.8373 109.929 90.8673 109.718 90.9074C108.946 91.0478 108.153 90.7771 107.681 90.1555L106.056 88.0402L106.036 88.0201ZM110.982 95.7698C114.886 95.2585 118.468 98.0155 118.979 101.915C119.491 105.815 116.732 109.404 112.829 109.906C108.926 110.417 105.333 107.66 104.832 103.75C104.32 99.8501 107.079 96.2711 110.992 95.7598L110.982 95.7698Z" fill="#EBEBEB"/>
<path d="M54.3824 314.214C54.7737 304.509 54.6232 294.795 53.981 285.11C52.6666 265.129 49.3756 245.299 44.8504 225.81C42.3018 214.832 39.1713 204.044 35.9104 193.267C35.8101 192.946 35.2883 193.036 35.3786 193.377C45.4725 231.374 53.7603 270.573 53.1884 310.073C53.0278 321.121 51.7435 331.979 50.7 342.967C50.6699 343.258 51.1515 343.378 51.2218 343.077C53.3088 333.673 53.981 323.828 54.3723 314.234L54.3824 314.214Z" fill="#EBEBEB"/>
<path d="M35.3787 193.367C35.3787 193.367 20.0773 232.166 23.5089 241.279C26.9303 250.402 33.994 252.347 33.994 252.347C33.994 252.347 24.6326 265.701 31.1746 278.222C37.7165 290.744 52.2453 290.153 53.2085 304.349C53.2085 304.349 54.0212 244.978 35.3787 193.367Z" fill="#EBEBEB"/>
<path d="M51.5529 279.836C51.573 279.776 51.5629 279.706 51.5328 279.636C49.3856 253.259 44.6999 226.962 36.693 201.588C36.673 201.518 36.5425 201.538 36.5626 201.618C39.5928 212.967 42.2918 224.376 44.5996 235.845C42.6129 233.8 40.0142 232.627 37.2951 231.774C37.2449 231.754 37.2148 231.835 37.265 231.855C40.0944 233.078 42.8035 234.491 44.8002 236.887C45.2518 239.133 45.6832 241.389 46.1046 243.634C42.6831 239.815 37.9472 237.92 33.2013 236.125C33.1311 236.095 33.101 236.206 33.1612 236.226C38.0977 238.231 43.0243 240.827 46.3755 245.078C47.5394 251.514 48.5629 257.981 49.4458 264.457C46.9474 261.851 43.8671 260.096 40.3252 259.234C40.2148 259.204 40.1546 259.364 40.265 259.394C43.8972 260.437 47.0277 262.472 49.5161 265.32C49.5361 265.34 49.5562 265.35 49.5763 265.36C49.8873 267.635 50.1682 269.921 50.4392 272.207C48.5127 270.563 46.3856 269.32 44.0477 268.357C43.9875 268.327 43.9474 268.427 44.0176 268.457C46.3956 269.47 48.5328 270.924 50.4191 272.688C50.4492 272.708 50.4693 272.708 50.4994 272.718C50.7502 274.894 51.0111 277.059 51.2318 279.245C47.72 275.024 43.3855 271.966 38.2583 269.991C38.158 269.951 38.1078 270.102 38.1981 270.152C43.1848 272.317 47.5796 275.756 50.981 279.987C51.0713 280.107 51.1917 280.117 51.302 280.087C51.6332 283.425 51.9241 286.774 52.175 290.122C52.175 290.173 52.2552 290.173 52.2552 290.122C52.0646 286.694 51.8238 283.265 51.5429 279.836H51.5529Z" fill="white"/>
<path d="M39.2618 227.914C36.6129 226.09 33.2416 225.318 30.0709 225.047C29.9907 225.047 29.9907 225.157 30.0709 225.167C33.362 225.658 36.1313 226.851 39.1614 228.135C39.2919 228.195 39.3822 227.994 39.2718 227.914H39.2618Z" fill="white"/>
<path d="M41.1181 268.999C39.021 267.736 36.623 267.024 34.2149 266.643C34.1346 266.633 34.1246 266.763 34.2149 266.773C36.6531 267.215 38.8204 268.087 41.0378 269.17C41.1281 269.22 41.2084 269.059 41.1181 269.009V268.999Z" fill="white"/>
<path d="M94.5973 241.91C88.2159 246.392 82.0954 251.565 76.8879 257.38C71.3393 263.575 67.2957 270.613 64.4662 278.423C58.6768 294.424 55.5062 311.748 55.2152 328.751C55.0547 338.285 55.8975 347.739 57.9444 357.052C58.0146 357.393 58.5263 357.293 58.4761 356.952C55.9778 340.561 56.0681 323.838 58.7571 307.487C61.3859 291.436 65.5097 273.972 75.724 260.929C81.2827 253.831 88.2159 248.236 95.0689 242.462C95.4301 242.161 94.9686 241.66 94.5973 241.92V241.91Z" fill="#EBEBEB"/>
<path d="M57.4727 317.191C57.4727 317.191 62.7303 308.348 70.376 300.709C78.0317 293.07 84.4733 287.636 85.4666 282.573C86.4599 277.52 77.8009 273.791 77.8009 273.791C77.8009 273.791 88.3864 275.685 91.2861 271.254C94.1859 266.813 95.5805 241.098 95.5805 241.098C95.5805 241.098 76.3159 254.843 67.3358 274.111C58.3556 293.38 57.4626 317.201 57.4626 317.201L57.4727 317.191Z" fill="#EBEBEB"/>
<path d="M88.9284 247.684C80.8212 255.644 72.6638 264.116 67.8878 274.572C66.2523 278.152 64.8576 281.871 63.6335 285.661C63.6335 285.661 63.6335 285.671 63.6335 285.681C63.3827 286.443 63.1419 287.194 62.9011 287.966C62.881 288.007 62.8609 288.047 62.8609 288.087C60.503 295.897 58.8374 303.967 57.3926 311.847C57.3926 311.897 57.4628 311.927 57.4728 311.877C58.3056 307.867 59.2187 303.817 60.2421 299.776C60.2823 299.776 60.3124 299.776 60.3525 299.756C61.988 299.065 63.6436 298.634 65.4095 298.473C65.5198 298.463 65.5198 298.263 65.3994 298.273C63.6937 298.353 62.0181 298.654 60.4027 299.185C61.3358 295.546 62.3492 291.906 63.493 288.327C67.2155 287.415 71.0986 286.924 74.9214 286.834C74.9615 286.834 74.9716 286.773 74.9214 286.773C71.0685 286.593 67.4463 286.924 63.6837 287.726C63.8844 287.114 64.085 286.503 64.2957 285.891C66.8042 285.32 69.3326 284.839 71.9013 284.608C71.9514 284.608 71.9414 284.528 71.9013 284.528C69.3828 284.598 66.9045 284.859 64.4563 285.43C65.4998 282.332 66.6336 279.274 67.8978 276.297C68.9413 273.831 70.1755 271.495 71.54 269.239C73.5969 268.778 75.5936 268.327 77.7107 268.136C77.7709 268.136 77.7609 268.036 77.7107 268.036C75.7943 267.916 73.7976 268.056 71.9414 268.607C72.9548 266.973 74.0184 265.369 75.1622 263.815C79.4867 262.863 83.8614 261.971 88.2762 262.803C88.3565 262.813 88.3765 262.692 88.3063 262.672C84.1022 261.569 79.9282 262.201 75.7341 263.033C76.1957 262.422 76.6572 261.83 77.1288 261.229C79.7777 260.407 82.4165 260.016 85.2059 259.965C85.2661 259.965 85.2761 259.885 85.2059 259.875C82.6674 259.635 80.1289 259.875 77.6806 260.547C81.2526 256.116 85.1959 251.945 89.099 247.825C89.2796 247.634 89.1391 247.524 88.9484 247.714L88.9284 247.684Z" fill="white"/>
<path d="M88.7077 265.209C87.4435 265.078 86.1491 264.928 84.8748 265.078C84.7243 265.098 84.7344 265.349 84.8849 265.349C86.1491 265.389 87.4234 265.289 88.6876 265.359C88.788 265.359 88.798 265.219 88.6977 265.209H88.7077Z" fill="white"/>
<path d="M74.841 290.163C72.8142 290.143 70.7974 290.684 68.901 291.356C68.8509 291.376 68.881 291.456 68.9311 291.436C70.8877 290.965 72.8744 290.784 74.861 290.453C75.0216 290.423 75.0115 290.163 74.841 290.163Z" fill="white"/>
<path d="M70.687 281.54C69.8643 281.5 68.9813 281.64 68.1686 281.771C68.0883 281.781 68.0883 281.921 68.1686 281.921C68.9914 281.931 69.8844 281.961 70.6971 281.801C70.8376 281.771 70.8375 281.55 70.687 281.54Z" fill="white"/>
<path d="M0.993384 269.21C7.19419 271.366 13.3448 274.133 18.9035 277.631C24.8233 281.371 29.7298 286.123 33.8235 291.787C42.2117 303.397 48.7837 316.691 52.9477 330.375C55.2855 338.055 56.7805 345.895 57.2923 353.905C57.3123 354.196 56.8809 354.236 56.8407 353.945C55.0648 340.11 51.1216 326.596 45.1716 313.974C39.332 301.592 31.9472 288.419 20.6694 280.218C14.5288 275.757 7.62564 272.829 0.742543 269.741C0.381331 269.581 0.642206 269.07 1.00342 269.19L0.993384 269.21Z" fill="#EBEBEB"/>
<path d="M48.4525 321.553C48.4525 321.553 42.1514 315.608 34.1947 311.197C26.238 306.776 19.7563 303.868 17.7897 300.009C15.813 296.149 21.9637 291.136 21.9637 291.136C21.9637 291.136 13.8364 295.116 10.4651 292.199C7.09378 289.271 0.0100098 268.779 0.0100098 268.779C0.0100098 268.779 18.783 275.456 30.5023 288.971C42.2216 302.485 48.4626 321.563 48.4626 321.563L48.4525 321.553Z" fill="#EBEBEB"/>
<path d="M47.4692 317.323C38.0777 299.719 25.5557 283.788 8.38807 273.271C8.38807 273.271 8.368 273.271 8.38807 273.282C12.9032 276.159 17.0672 279.477 20.9502 283.106C17.4786 283.006 13.9367 283.568 10.8564 285.232C10.7861 285.272 10.8363 285.362 10.9065 285.342C14.338 284.179 17.6391 283.417 21.2914 283.588C21.3415 283.588 21.3716 283.568 21.4118 283.548C22.0238 284.129 22.6258 284.711 23.2178 285.302C21.4118 285.382 19.5856 285.633 17.8297 286.014C17.7796 286.024 17.7996 286.094 17.8398 286.084C19.7462 285.713 21.6024 285.593 23.5389 285.613C26.6895 288.771 29.6193 292.149 32.3886 295.658C31.1344 295.478 29.82 295.578 28.6159 295.929C28.5256 295.959 28.5457 296.079 28.646 296.069C30.0106 295.899 31.315 295.919 32.6695 296.009C33.1813 296.661 33.703 297.312 34.2047 297.974C30.3417 297.744 26.559 298.115 22.8165 299.077C22.7563 299.087 22.7763 299.177 22.8365 299.167C26.7095 298.405 30.6026 298.165 34.5358 298.405C35.0174 299.037 35.4689 299.689 35.9405 300.33C33.6328 300.26 31.4053 300.551 29.1578 301.102C29.0674 301.122 29.0976 301.252 29.1879 301.242C31.4956 300.721 33.8435 300.581 36.2114 300.691C38.2282 303.468 40.1647 306.315 42.0209 309.193C41.0376 308.992 40.0041 309.102 39.0409 309.373C38.9907 309.383 39.0008 309.463 39.061 309.453C40.1647 309.323 41.1981 309.463 42.2818 309.604C43.9574 312.2 45.5728 314.827 47.118 317.474C47.2484 317.694 47.6097 317.534 47.4893 317.293L47.4692 317.323Z" fill="white"/>
<path d="M32.8703 302.726C31.0342 302.565 29.1679 302.856 27.412 303.387C27.3618 303.407 27.3719 303.478 27.4321 303.468C29.2381 303.137 31.0241 303.006 32.8503 302.916C32.9707 302.916 32.9907 302.736 32.8603 302.726H32.8703Z" fill="white"/>
<path d="M16.4954 281.261C15.6626 281.171 14.7997 281.271 13.9769 281.411C13.8766 281.431 13.9067 281.572 14.007 281.562C14.8298 281.471 15.6525 281.502 16.4753 281.482C16.6057 281.482 16.6358 281.281 16.4954 281.271V281.261Z" fill="white"/>
<path d="M72.6637 379.78H30.2915L36.3318 335.558L37.877 324.219H65.0782L66.6234 335.558L72.6637 379.78Z" fill="#DBDBDB"/>
<path d="M66.6234 335.558H36.3318L37.877 324.219H65.0782L66.6234 335.558Z" fill="#C7C7C7"/>
<path d="M68.9612 320.289H33.9839V329.893H68.9612V320.289Z" fill="#DBDBDB"/>
<path d="M3.35132 379.781L79.6172 379.53L155.883 379.45L308.415 379.279L460.947 379.44L537.212 379.53L613.478 379.781L537.212 380.021L460.947 380.111L308.415 380.282L155.883 380.111L79.6172 380.021L3.35132 379.781Z" fill="#263238"/>
<path d="M310.422 454.5C469.317 454.5 598.127 440.397 598.127 423C598.127 405.603 469.317 391.5 310.422 391.5C151.526 391.5 22.7163 405.603 22.7163 423C22.7163 440.397 151.526 454.5 310.422 454.5Z" fill="#EBEBEB"/>
<path d="M243.447 417.776C241.109 418.568 174.074 418.798 171.505 417.194C170.532 416.593 169.93 406.838 169.529 395.028C169.439 392.481 169.368 389.845 169.308 387.168L163.87 351.437L208.68 351.146L212.914 386.877L212.744 394.737C212.744 394.737 238.45 406.116 241.069 408.181C243.678 410.246 245.775 416.963 243.437 417.755L243.447 417.776Z" fill="#EB9481"/>
<path d="M243.447 417.775C241.109 418.567 174.074 418.797 171.505 417.193C170.321 416.451 169.679 402.205 169.318 387.177L212.924 386.896L212.754 394.756C212.754 394.756 238.46 406.135 241.079 408.201C243.688 410.266 245.785 416.983 243.447 417.775Z" fill="white"/>
<path d="M243.447 417.775C241.109 418.567 174.074 418.797 171.505 417.193C170.532 416.592 169.93 406.837 169.529 395.027L212.754 394.746C212.754 394.746 238.46 406.125 241.079 408.19C243.688 410.255 245.785 416.972 243.447 417.764V417.775Z" fill="#A6A6A6"/>
<path d="M242.473 415.096C231.236 414.856 185.884 414.966 174.756 415.588C174.666 415.588 174.666 415.658 174.756 415.658C185.894 416.139 231.236 415.658 242.473 415.277C242.714 415.277 242.714 415.096 242.473 415.096Z" fill="#263238"/>
<path d="M236.764 405.804C234.095 405.704 231.497 406.977 230.052 408.571C228.657 410.095 227.473 412.251 227.563 414.577C227.563 414.647 227.694 414.647 227.704 414.577C228.326 410.175 232.319 406.306 236.774 405.945C236.865 405.945 236.865 405.804 236.774 405.804H236.764Z" fill="#263238"/>
<path d="M217.118 395.859C212.623 395.808 207.416 397.413 204.626 401.102C204.516 401.242 204.727 401.393 204.857 401.322C208.921 399.217 212.774 397.643 217.199 396.41C217.51 396.32 217.439 395.859 217.118 395.859Z" fill="#263238"/>
<path d="M220.6 397.202C216.105 397.152 210.897 398.756 208.108 402.446C207.998 402.586 208.208 402.736 208.339 402.666C212.392 400.561 216.255 398.987 220.68 397.754C220.991 397.663 220.921 397.202 220.6 397.202Z" fill="#263238"/>
<path d="M224.072 398.546C219.577 398.496 214.369 400.1 211.58 403.789C211.469 403.93 211.68 404.08 211.811 404.01C215.864 401.905 219.727 400.331 224.152 399.097C224.463 399.007 224.393 398.546 224.072 398.546Z" fill="#263238"/>
<path d="M227.553 399.878C223.058 399.828 217.851 401.432 215.061 405.121C214.951 405.262 215.162 405.412 215.292 405.342C219.346 403.237 223.209 401.663 227.634 400.429C227.945 400.339 227.874 399.878 227.553 399.878Z" fill="#263238"/>
<path d="M177.586 404.922C172.539 404.952 172.579 412.792 177.636 412.762C182.683 412.732 182.643 404.892 177.586 404.922Z" fill="#263238"/>
<path d="M221.935 383.849C219.647 381.974 216.787 383.829 215.393 385.784C213.135 388.962 211.58 393.413 211.349 397.293C211.349 397.393 211.419 397.423 211.49 397.423C211.59 397.744 211.971 398.015 212.302 397.784C215.493 395.559 219.185 393.574 221.604 390.436C223.018 388.601 224.102 385.624 221.935 383.849ZM216.456 393.423C214.911 394.556 213.326 395.609 211.821 396.792C212.613 394.546 213.306 392.28 214.329 390.125C214.821 389.092 215.332 388.04 215.965 387.087C216.938 385.603 221.343 381.824 221.804 386.716C222.065 389.413 218.302 392.07 216.456 393.423Z" fill="#263238"/>
<path d="M200.182 399.008C204.105 399.599 208.138 398.467 211.981 397.855C212.383 397.795 212.473 397.334 212.312 397.033C212.373 396.983 212.393 396.913 212.322 396.842C209.463 394.216 205.259 392.08 201.426 391.348C199.058 390.897 195.707 391.549 195.365 394.486C195.044 397.263 197.894 398.657 200.182 398.998V399.008ZM197.452 396.451C194.392 392.612 200.182 392.281 201.917 392.672C203.031 392.932 204.135 393.323 205.198 393.734C207.436 394.587 209.503 395.74 211.64 396.802C209.734 396.983 207.857 397.334 205.961 397.584C203.693 397.885 199.138 398.577 197.452 396.451Z" fill="#263238"/>
<path d="M98.0291 186.309C98.0291 186.309 150.074 274.773 151.468 280.979C153.606 290.523 164.964 384.772 164.964 384.772L219.115 383.8C219.115 383.8 209.784 300.699 200.944 273.32C194.573 253.6 148.649 188.194 148.649 188.194L98.0391 186.299L98.0291 186.309Z" fill="#37474F"/>
<path d="M214.189 375.509C206.413 375.449 178.85 375.138 168.506 376.11C168.425 376.11 168.425 376.251 168.506 376.261C172.067 376.772 206.423 375.98 214.189 375.729C214.339 375.729 214.329 375.519 214.189 375.519V375.509Z" fill="#263238"/>
<path d="M106.909 194.43C110.32 199.773 113.922 205.007 117.404 210.31C120.896 215.614 124.367 220.917 127.799 226.261C134.652 236.928 141.334 247.705 147.886 258.553C150.957 263.635 153.886 268.779 156.004 274.323C158.091 279.817 159.515 285.541 160.569 291.306C161.632 297.11 162.325 302.975 162.987 308.84C163.689 315.086 164.382 321.322 165.084 327.568C166.509 340.34 167.934 353.113 169.368 365.885C169.539 367.449 169.72 369.023 169.87 370.587C169.89 370.817 169.479 370.858 169.449 370.627C167.853 357.935 166.529 345.212 165.084 332.5C164.362 326.174 163.639 319.848 162.927 313.522C162.255 307.637 161.622 301.752 160.709 295.897C159.816 290.153 158.642 284.428 156.897 278.864C155.07 273.049 152.472 267.596 149.411 262.312C143.14 251.495 136.498 240.868 129.856 230.261C123.153 219.564 116.401 208.907 109.387 198.4C108.524 197.107 107.651 195.813 106.748 194.54C106.678 194.44 106.849 194.35 106.919 194.45L106.909 194.43Z" fill="#263238"/>
<path d="M115.086 423C112.618 422.85 48.8641 397.044 47.0881 394.598C47.0279 394.518 46.9978 394.357 46.9878 394.127C46.9978 391.941 51.4126 384.272 55.105 374.206C55.3358 373.565 56.9813 370.577 59.269 366.547C65.5501 355.489 76.6573 336.551 76.6573 336.551L118.327 353.093L98.3802 382.928L95.2798 390.147C95.2798 390.147 114.835 410.338 116.491 413.235C118.136 416.123 117.555 423.141 115.096 423H115.086Z" fill="#EB9481"/>
<path d="M115.086 423C112.618 422.85 48.8641 397.044 47.0881 394.598C47.0279 394.518 46.9978 394.357 46.9878 394.127C46.9978 391.941 51.4126 384.272 55.105 374.206C55.3358 373.565 56.9813 370.577 59.269 366.547L98.3802 382.918L95.2798 390.137C95.2798 390.137 114.835 410.328 116.491 413.225C118.136 416.113 117.555 423.13 115.096 422.99L115.086 423Z" fill="white"/>
<path d="M115.086 422.991C112.618 422.85 48.8741 397.035 47.0982 394.589C46.4259 393.666 49.2755 384.964 55.1151 374.207L95.2798 390.147C95.2798 390.147 114.835 410.329 116.491 413.226C118.137 416.113 117.555 423.131 115.086 422.991Z" fill="#A6A6A6"/>
<path d="M115.187 420.152C104.862 415.721 62.7808 398.818 52.2354 395.229C52.1451 395.199 52.125 395.259 52.2053 395.299C62.3493 399.911 104.561 416.473 115.116 420.333C115.337 420.413 115.407 420.252 115.187 420.162V420.152Z" fill="#263238"/>
<path d="M113.38 409.396C110.942 408.303 108.063 408.513 106.116 409.446C104.25 410.338 102.343 411.882 101.551 414.078C101.531 414.138 101.641 414.188 101.681 414.128C103.909 410.288 109.066 408.193 113.33 409.526C113.421 409.556 113.461 409.436 113.38 409.396Z" fill="#263238"/>
<path d="M98.902 392.803C94.7481 391.078 89.3198 390.607 85.3565 392.983C85.206 393.074 85.3365 393.294 85.487 393.274C90.0423 392.843 94.2062 392.833 98.7716 393.344C99.0926 393.384 99.203 392.923 98.902 392.803Z" fill="#263238"/>
<path d="M101.621 395.349C97.467 393.615 92.0388 393.154 88.0755 395.53C87.925 395.62 88.0555 395.841 88.206 395.821C92.7613 395.39 96.9252 395.38 101.491 395.891C101.812 395.931 101.922 395.47 101.621 395.349Z" fill="#263238"/>
<path d="M104.35 397.897C100.196 396.172 94.7681 395.701 90.8048 398.077C90.6543 398.167 90.7847 398.388 90.9352 398.368C95.4905 397.937 99.6545 397.927 104.22 398.438C104.541 398.478 104.651 398.017 104.35 397.897Z" fill="#263238"/>
<path d="M107.069 400.443C102.916 398.709 97.4873 398.248 93.524 400.624C93.3735 400.714 93.504 400.934 93.6545 400.914C98.2097 400.483 102.374 400.473 106.939 400.985C107.26 401.025 107.37 400.564 107.069 400.443Z" fill="#263238"/>
<path d="M58.8577 386.387C54.172 384.522 51.2622 391.801 55.958 393.665C60.6437 395.53 63.5535 388.252 58.8577 386.387Z" fill="#263238"/>
<path d="M107.882 383.48C106.467 380.883 103.126 381.525 101.089 382.828C97.7984 384.923 94.6979 388.472 93.0223 391.981C92.9822 392.071 93.0324 392.132 93.1026 392.152C93.0725 392.483 93.3233 392.884 93.7147 392.793C97.5074 391.931 101.681 391.47 105.093 389.475C107.09 388.302 109.217 385.946 107.882 383.49V383.48ZM99.2031 390.297C97.3468 390.768 95.4806 391.149 93.6344 391.681C95.2097 389.896 96.7047 388.061 98.4706 386.437C99.3134 385.665 100.186 384.883 101.119 384.232C102.574 383.219 108.073 381.374 106.668 386.076C105.896 388.673 101.41 389.726 99.193 390.287L99.2031 390.297Z" fill="#263238"/>
<path d="M82.0254 389.375C85.4369 391.39 89.6009 391.851 93.3936 392.733C93.7849 392.824 94.0458 392.433 94.0157 392.102C94.0859 392.082 94.1361 392.022 94.0959 391.931C92.4304 388.423 89.34 384.863 86.0489 382.758C84.0221 381.455 80.6709 380.803 79.2562 383.39C77.9116 385.846 80.0287 388.202 82.0254 389.375ZM80.4602 385.986C79.0655 381.274 84.564 383.139 86.0188 384.162C86.952 384.813 87.8249 385.595 88.6677 386.377C90.4236 388.001 91.9086 389.846 93.4839 391.631C91.6477 391.089 89.7815 390.708 87.9252 390.227C85.7178 389.656 81.2328 388.583 80.4702 385.986H80.4602Z" fill="#263238"/>
<path d="M101.601 381.254L54.9546 362.436C54.9546 362.436 112.789 277.481 113.21 271.155C113.591 265.55 88.1861 216.807 87.1827 202.601C86.0991 187.272 93.4939 175.402 101.611 168.043L149.733 188.475C149.733 188.475 144.656 196.595 136.659 201.107C136.659 201.107 161.331 257.45 159.937 274.774C158.532 292.188 101.601 381.254 101.601 381.254Z" fill="#37474F"/>
<path d="M103.668 372.392C96.9255 369.494 98.9021 370.226 92.1194 367.409C88.7982 366.026 67.0051 356.973 63.684 356.231C63.6138 356.211 63.5636 356.331 63.6238 356.371C66.5235 358.146 88.4772 366.818 91.8284 368.141C98.6613 370.828 96.7248 369.986 103.588 372.602C103.718 372.652 103.799 372.462 103.668 372.402V372.392Z" fill="#263238"/>
<path d="M144.575 200.085C139.559 201.157 134.642 202.932 129.916 204.837C129.736 204.907 129.816 205.187 130.017 205.127C134.933 203.694 139.94 202.35 144.766 200.656C145.147 200.526 144.957 200.004 144.575 200.085Z" fill="#263238"/>
<path d="M138.866 198.11C138.395 198.932 137.993 199.804 137.632 200.686C137.351 201.368 137 202.1 137 202.842C137 202.982 137.191 203.022 137.281 202.932C137.843 202.38 138.134 201.578 138.485 200.897C138.896 200.105 139.318 199.313 139.709 198.511C139.97 197.979 139.147 197.598 138.856 198.1L138.866 198.11Z" fill="#263238"/>
<path d="M139.448 193.588C139.739 192.846 140.04 192.115 140.351 191.373C140.672 190.611 141.044 189.869 141.314 189.087C141.355 188.967 141.555 189.047 141.505 189.167C141.214 189.909 141.023 190.701 140.783 191.463C140.542 192.225 140.301 192.987 140.04 193.749C139.569 195.162 138.997 196.566 138.385 197.929C139.167 197.919 139.98 197.889 140.692 197.528C141.465 197.137 141.937 196.315 142.318 195.573C142.739 194.741 143.131 193.899 143.572 193.077C144.054 192.165 144.585 191.272 144.907 190.29C144.947 190.17 145.137 190.25 145.097 190.37C144.375 192.395 143.662 194.43 142.529 196.295C142.087 197.027 141.726 197.799 140.913 198.08C140.04 198.39 139.077 198.33 138.164 198.26C138.054 198.29 137.903 198.22 137.943 198.08C138.375 196.566 138.856 195.032 139.448 193.568V193.588Z" fill="#263238"/>
<path d="M137.401 202.953C139.107 206.572 140.612 210.181 142.217 213.79C143.783 217.319 145.238 220.888 146.662 224.467C149.532 231.716 152.101 239.094 154.358 246.553C155.472 250.243 156.505 253.962 157.428 257.701C158.362 261.451 159.265 265.241 159.656 269.1C160.047 272.97 159.766 276.79 158.693 280.529C157.599 284.319 156.154 287.637 154.448 291.186C153.405 293.352 153.044 293.061 153.545 291.968C154.98 288.861 158.743 279.447 158.472 271.537C158.341 267.717 157.559 263.957 156.696 260.248C155.813 256.458 154.82 252.699 153.736 248.969C151.599 241.611 149.06 234.402 146.452 227.204C144.987 223.174 143.421 219.184 141.936 215.153C140.441 211.103 138.896 207.454 137.241 203.023C137.201 202.902 137.371 202.842 137.421 202.953H137.401Z" fill="#263238"/>
<path d="M101.992 190.983C102.825 190.672 103.989 191.183 104.842 191.323C105.936 191.504 107.039 191.614 108.143 191.654C109.237 191.694 110.33 191.654 111.424 191.544C112.508 191.444 113.622 191.303 114.565 190.712C116.16 189.719 117.484 187.975 118.568 186.461C119.752 184.807 120.986 182.902 121.689 180.987C121.729 180.867 121.899 180.947 121.869 181.067C121.518 182.18 121.257 183.313 120.806 184.406C120.384 185.429 119.842 186.411 119.27 187.363C118.197 189.128 116.963 191.023 115.117 192.075C113.18 193.178 110.692 193.108 108.534 192.988C107.29 192.918 106.046 192.747 104.822 192.496C103.939 192.306 102.454 192.166 101.892 191.394C101.792 191.253 101.842 191.043 102.013 190.983H101.992Z" fill="#263238"/>
<path d="M68.2693 353.554C75.9351 341.965 83.4603 330.275 90.8451 318.505C98.2499 306.705 105.524 294.815 112.698 282.865C114.414 280.008 116.391 277.15 117.494 273.982C118.699 270.544 118.016 267.205 116.923 263.836C114.926 257.661 112.448 251.656 109.759 245.751C107.07 239.826 104.17 234.001 101.32 228.156C98.4907 222.361 95.4907 216.536 93.3435 210.441C91.2966 204.616 90.514 198.581 92.0892 192.546C93.6445 186.55 97.0158 181.177 100.538 176.154C101.471 174.831 102.414 173.517 103.347 172.194C103.417 172.094 103.568 172.214 103.498 172.314C99.6145 177.548 95.8318 183.092 93.5542 189.237C92.4304 192.275 91.6979 195.473 91.6277 198.711C91.5575 202 92.1695 205.268 93.1428 208.406C95.0291 214.501 98.0091 220.276 100.788 226C103.628 231.855 106.538 237.67 109.277 243.575C112.026 249.51 114.605 255.545 116.722 261.741C117.665 264.498 118.719 267.385 118.648 270.343C118.578 273.581 117.033 276.499 115.428 279.226C108.454 291.116 101.21 302.845 93.8853 314.515C86.5306 326.225 79.0254 337.854 71.3998 349.394C70.4366 350.847 69.4734 352.301 68.5101 353.755C68.3897 353.935 68.1289 353.725 68.2493 353.544L68.2693 353.554Z" fill="#263238"/>
<path d="M152.401 134.436C156.746 143.961 178.68 157.084 188.954 158.498C196.349 159.51 218.794 159.861 226.49 158.688C235.51 157.315 228.617 132.993 223.289 133.614C208.64 135.329 196.198 137.234 192.295 137.234C187.519 137.234 161.683 128.943 158.562 127.78C150.947 124.922 149.933 129.043 152.401 134.436Z" fill="#EB9481"/>
<path d="M152.542 136.963C158.04 145.094 176.322 158.388 176.322 158.388L178.86 152.773L187.258 134.216C187.258 134.216 170.472 128.923 159.425 126.567C157.93 126.246 156.615 126.056 155.472 126.006C148.418 125.625 147.806 129.986 152.552 136.973L152.542 136.963Z" fill="#EF5388"/>
<path d="M152.542 136.964C158.04 145.094 176.322 158.388 176.322 158.388L178.86 152.774C172.047 144.864 161.522 132.883 155.472 125.996C148.418 125.615 147.806 129.976 152.552 136.964H152.542Z" fill="#263238"/>
<path d="M173.02 154.629C174.415 151.221 180.616 137.456 182.161 134.568C182.271 134.368 182.422 134.388 182.332 134.608C178.398 144.925 174.686 151.401 173.151 154.679C173.111 154.76 172.98 154.719 173.01 154.629H173.02Z" fill="#263238"/>
<path d="M220.61 133.886C229.53 132.713 240.557 130.718 249.888 134.678C251.725 135.45 252.387 136.824 252.387 136.824C256.601 138.528 257.062 141.024 257.062 141.024C260.504 143.811 260.624 146.438 260.624 146.438C260.624 146.438 265.551 148.493 264.808 151.671C263.986 155.24 257.223 151.671 252.296 151.962C241.019 152.654 225.175 156.794 221.945 157.326L220.6 133.896L220.61 133.886Z" fill="#EB9481"/>
<path d="M239.965 144.394C243.286 144.253 246.547 144.033 249.878 144.344C253.531 144.684 256.982 145.627 260.514 146.499C260.624 146.529 260.675 146.379 260.564 146.329C254.404 143.742 246.507 143.06 239.955 144.243C239.795 144.273 239.795 144.404 239.955 144.394H239.965Z" fill="#263238"/>
<path d="M238.56 137.646C241.801 137.686 247.5 137.807 257.032 141.125C257.063 141.135 257.093 141.085 257.063 141.075C251.163 138.097 245.112 137.035 238.57 137.496C238.37 137.506 238.35 137.646 238.57 137.646H238.56Z" fill="#263238"/>
<path d="M237.868 134.017C243.377 134.297 246.818 135.18 252.357 136.844C252.387 136.844 252.417 136.804 252.377 136.784C246.276 134.227 243.778 133.997 237.848 133.826C237.647 133.826 237.647 134.007 237.868 134.017Z" fill="#263238"/>
<path d="M238.761 153.656C237.326 154.328 237.667 155.08 240.417 155.721C243.186 156.373 254.544 156.544 254.143 160.504C253.751 164.484 237.677 163.972 233.192 162.569C228.707 161.175 221.945 157.316 221.945 157.316C225.095 156.784 232.6 154.769 238.761 153.656Z" fill="#EB9481"/>
<path d="M164.332 149.625C164.261 151.339 164.091 153.084 163.85 154.808C163.87 154.748 163.9 154.688 163.92 154.628C164.251 153.726 164.582 152.803 164.984 151.931C165.004 151.881 165.084 151.901 165.074 151.951C164.893 152.893 164.562 153.846 164.201 154.738C164.03 155.169 163.85 155.59 163.669 156.011C163.549 156.783 163.408 157.545 163.248 158.297C162.947 159.731 161.592 165.826 161.291 166.859C161.231 167.079 160.97 167.029 160.98 166.789C161.05 165.666 162.194 159.31 162.425 157.876C162.867 155.119 163.479 152.302 164.211 149.605C164.231 149.545 164.321 149.575 164.321 149.635L164.332 149.625Z" fill="#263238"/>
<path d="M153.876 195.201C151.197 196.585 147.746 198.72 132.194 195.653C131.22 195.452 130.247 195.222 129.264 194.931C114.685 190.55 97.1862 173.416 96.2029 172.213C96.2029 172.213 119.361 134.688 148.99 122.888C152.652 121.434 158.713 124.241 162.074 127.74C163.268 128.994 165.877 138.197 164.873 145.656C163.87 153.105 156.565 193.838 153.866 195.201H153.876Z" fill="#EF5388"/>
<path d="M151.81 145.314C151.89 146.116 151.83 146.908 151.729 147.69C151.609 148.472 151.458 149.244 151.157 149.996C151.067 149.194 151.137 148.402 151.238 147.62C151.358 146.838 151.509 146.066 151.81 145.314Z" fill="white"/>
<path d="M141.706 170.869C141.786 171.671 141.726 172.463 141.625 173.245C141.505 174.027 141.354 174.799 141.053 175.551C140.963 174.749 141.033 173.957 141.134 173.175C141.254 172.393 141.405 171.621 141.706 170.869Z" fill="white"/>
<path d="M124.538 151.561C124.618 152.363 124.558 153.155 124.458 153.937C124.337 154.719 124.187 155.491 123.886 156.242C123.796 155.44 123.866 154.648 123.966 153.866C124.087 153.084 124.237 152.312 124.538 151.561Z" fill="white"/>
<path d="M158.422 169.576C158.502 170.378 158.442 171.17 158.341 171.952C158.221 172.734 158.07 173.506 157.769 174.258C157.679 173.456 157.749 172.664 157.85 171.882C157.97 171.1 158.121 170.328 158.422 169.576Z" fill="white"/>
<path d="M136.378 148.242C137.18 148.162 137.973 148.222 138.756 148.322C139.538 148.443 140.311 148.593 141.063 148.894C140.261 148.984 139.468 148.914 138.685 148.814C137.903 148.693 137.13 148.543 136.378 148.242Z" fill="white"/>
<path d="M116.892 166.709C117.695 166.629 118.488 166.689 119.27 166.789C120.053 166.91 120.826 167.06 121.578 167.361C120.775 167.451 119.983 167.381 119.2 167.28C118.417 167.16 117.645 167.01 116.892 166.709Z" fill="white"/>
<path d="M139.809 186.69C140.612 186.609 141.404 186.669 142.187 186.77C142.97 186.89 143.742 187.04 144.495 187.341C143.692 187.431 142.899 187.361 142.117 187.261C141.334 187.141 140.562 186.99 139.809 186.69Z" fill="white"/>
<path d="M110.882 179.432C111.685 179.351 112.477 179.412 113.26 179.512C114.043 179.632 114.815 179.783 115.568 180.083C114.765 180.174 113.972 180.103 113.19 180.003C112.407 179.883 111.635 179.732 110.882 179.432Z" fill="white"/>
<path d="M151.659 127.359C152.462 127.279 153.254 127.339 154.037 127.44C154.82 127.56 155.592 127.71 156.345 128.011C155.542 128.101 154.749 128.031 153.967 127.931C153.184 127.811 152.411 127.66 151.659 127.359Z" fill="white"/>
<path d="M145.99 133.756C145.478 134.387 144.876 134.899 144.254 135.38C143.622 135.851 142.97 136.282 142.217 136.603C142.729 135.971 143.331 135.46 143.953 134.979C144.585 134.508 145.247 134.077 145.99 133.756Z" fill="white"/>
<path d="M115.096 151.922C114.585 152.553 113.983 153.065 113.361 153.546C112.728 154.017 112.076 154.448 111.324 154.769C111.835 154.138 112.437 153.626 113.06 153.145C113.692 152.684 114.354 152.243 115.096 151.922Z" fill="white"/>
<path d="M153.676 160.133C153.164 160.764 152.562 161.276 151.94 161.757C151.308 162.228 150.656 162.659 149.903 162.98C150.415 162.348 151.017 161.837 151.639 161.356C152.271 160.895 152.933 160.454 153.676 160.133Z" fill="white"/>
<path d="M128.692 175.852C128.18 176.483 127.578 176.994 126.956 177.476C126.324 177.947 125.672 178.378 124.919 178.699C125.431 178.067 126.033 177.556 126.655 177.075C127.287 176.603 127.949 176.172 128.692 175.852Z" fill="white"/>
<path d="M163.248 138.648C162.736 139.28 162.134 139.791 161.512 140.273C160.88 140.744 160.228 141.175 159.475 141.496C159.987 140.864 160.589 140.353 161.211 139.872C161.843 139.41 162.505 138.969 163.248 138.648Z" fill="white"/>
<path d="M162.716 156.875C162.084 156.364 161.572 155.762 161.091 155.141C160.619 154.509 160.188 153.857 159.866 153.105C160.499 153.617 161.01 154.218 161.492 154.84C161.953 155.471 162.395 156.133 162.716 156.875Z" fill="white"/>
<path d="M107.039 169.416C106.407 168.905 105.895 168.303 105.414 167.682C104.942 167.05 104.511 166.398 104.19 165.646C104.822 166.158 105.334 166.759 105.815 167.381C106.277 168.012 106.718 168.674 107.039 169.416Z" fill="white"/>
<path d="M155.953 184.354C155.321 183.842 154.809 183.241 154.328 182.619C153.856 181.988 153.425 181.336 153.104 180.584C153.736 181.095 154.248 181.697 154.729 182.318C155.191 182.95 155.632 183.612 155.953 184.354Z" fill="white"/>
<path d="M131.441 141.797C130.809 141.286 130.297 140.684 129.816 140.063C129.344 139.431 128.913 138.779 128.592 138.027C129.224 138.539 129.735 139.14 130.217 139.762C130.679 140.393 131.12 141.055 131.441 141.797Z" fill="white"/>
<path d="M131.873 192.855C131.24 192.344 130.729 191.743 130.247 191.121C129.775 190.489 129.344 189.838 129.023 189.086C129.655 189.597 130.167 190.199 130.648 190.82C131.11 191.452 131.551 192.114 131.873 192.855Z" fill="white"/>
<path d="M136.037 162.729C135.404 162.217 134.893 161.616 134.411 160.994C133.94 160.363 133.508 159.711 133.187 158.959C133.819 159.47 134.331 160.072 134.812 160.693C135.274 161.325 135.715 161.987 136.037 162.729Z" fill="white"/>
<path d="M156.636 137.725C152.863 137.024 149.301 129.214 148.849 123.96C148.819 123.599 150.615 120.742 152.632 117.163C153.846 114.988 155.151 112.531 156.174 110.216C156.385 109.734 157.619 111.328 157.619 111.328L160.308 113.384L169.188 120.191C169.188 120.191 165.596 124.432 163.83 128.492C163.689 128.833 163.579 129.164 163.509 129.494C163.499 129.545 163.489 129.595 163.459 129.665C162.957 131.61 160.258 138.417 156.616 137.735L156.636 137.725Z" fill="#EB9481"/>
<path d="M163.529 129.495C163.529 129.495 163.509 129.596 163.479 129.666C162.997 129.525 162.485 129.335 161.943 129.084C152.221 124.533 156.505 111.51 156.505 111.51L160.308 113.395L169.188 120.202C169.188 120.202 165.596 124.443 163.83 128.503C163.689 128.844 163.579 129.175 163.509 129.505L163.529 129.495Z" fill="#263238"/>
<path d="M179.402 92.4512C179.402 92.4512 183.847 95.2683 183.877 100.281C183.907 105.294 181.911 110.196 181.449 110.367C180.987 110.537 179.412 92.4512 179.412 92.4512H179.402Z" fill="#263238"/>
<path d="M157.348 95.0473C154.679 100.321 154.809 116.903 158.151 121.174C162.987 127.369 172.298 129.505 177.927 123.379C183.375 117.444 182.823 95.8293 178.961 91.7991C173.281 85.864 161.301 87.2676 157.358 95.0473H157.348Z" fill="#EB9481"/>
<path d="M171.516 108.34C171.516 108.34 171.425 108.4 171.435 108.44C171.496 109.573 171.375 110.876 170.362 111.277C170.332 111.287 170.332 111.347 170.372 111.337C171.616 111.137 171.756 109.403 171.516 108.34Z" fill="#263238"/>
<path d="M170.482 107.178C168.656 107.078 168.606 110.737 170.292 110.817C171.957 110.907 172.007 107.258 170.482 107.178Z" fill="#263238"/>
<path d="M177.706 108.303C177.706 108.303 177.797 108.353 177.797 108.403C177.747 109.536 177.867 110.839 178.89 111.23C178.921 111.24 178.921 111.3 178.88 111.29C177.636 111.1 177.476 109.365 177.717 108.303H177.706Z" fill="#263238"/>
<path d="M178.74 107.129C180.566 107.019 180.647 110.668 178.961 110.769C177.295 110.869 177.215 107.22 178.74 107.129Z" fill="#263238"/>
<path d="M169.338 104.402C169.84 104.281 170.282 104.091 170.763 103.93C171.305 103.74 171.756 103.65 172.118 103.169C172.308 102.908 172.238 102.447 172.007 102.236C171.465 101.745 170.743 101.805 170.081 102.006C169.358 102.226 168.857 102.577 168.435 103.199C168.024 103.8 168.676 104.562 169.328 104.412L169.338 104.402Z" fill="#263238"/>
<path d="M180.004 106.026C179.502 105.936 179.051 105.765 178.559 105.625C178.007 105.465 177.546 105.394 177.165 104.933C176.954 104.683 177.004 104.221 177.225 103.991C177.737 103.469 178.459 103.5 179.141 103.66C179.874 103.84 180.385 104.161 180.847 104.763C181.288 105.344 180.686 106.136 180.014 106.016L180.004 106.026Z" fill="#263238"/>
<path d="M168.937 119.049C169.208 119.32 169.469 119.691 169.88 119.731C170.271 119.771 170.733 119.601 171.104 119.471C171.144 119.461 171.174 119.501 171.154 119.531C170.853 119.962 170.231 120.222 169.71 120.122C169.198 120.022 168.957 119.581 168.837 119.11C168.817 119.039 168.907 119.019 168.947 119.06L168.937 119.049Z" fill="#263238"/>
<path d="M175.509 114.217C175.509 114.217 175.559 115.911 175.469 116.693C175.469 116.763 173.241 116.332 170.853 116.854C170.492 116.934 170.532 116.643 170.944 116.453C171.776 116.072 172.82 115.711 174.867 115.931C174.947 115.721 174.746 113.325 174.867 113.335C175.298 113.345 176.121 113.726 176.613 113.936C176.613 110.407 176.051 106.908 176.101 103.399C176.101 103.279 176.292 103.259 176.312 103.369C177.165 106.999 177.245 111.059 177.345 114.698C177.365 115.149 175.81 114.387 175.509 114.217Z" fill="#263238"/>
<path d="M173.252 116.09C173.252 116.09 172.459 118.075 171.145 118.607C169.629 119.218 169.108 117.845 170.653 116.632C171.466 116 173.252 116.09 173.252 116.09Z" fill="#263238"/>
<path d="M171.676 118.295C171.506 118.425 171.335 118.536 171.145 118.606C169.75 119.167 169.198 118.054 170.322 116.932C171.084 116.992 171.917 117.273 171.676 118.295Z" fill="#FF99BA"/>
<path d="M156.585 109.243C158.422 109.805 160.529 104.291 161.131 102.175C161.652 100.31 162.265 94.3854 162.355 93.9743C162.445 93.5733 170.352 99.2176 174.977 97.8642C179.603 96.5108 182.693 92.3703 182.753 90.4354C182.813 88.5005 177.074 83.588 172.108 83.3374C167.141 83.0867 160.418 89.3927 160.418 89.3927C160.418 89.3927 162.706 86.6658 162.626 86.4452C162.545 86.2247 159.335 87.5079 158.743 89.7837C158.743 89.7837 159.375 86.9164 159.134 86.8663C158.893 86.8162 156.395 89.2724 156.957 91.1271C156.957 91.1271 154.067 93.6235 153.806 96.3604C153.535 99.0973 154.428 108.571 156.585 109.233V109.243Z" fill="#263238"/>
<path d="M178.258 96.9014C176.854 97.543 175.439 98.2548 173.894 98.4653C172.218 98.6859 170.472 98.2648 168.907 97.6633C167.312 97.0517 165.857 96.1595 164.532 95.0767C163.378 94.1243 162.345 92.9814 161.111 92.1292C160.8 91.9187 160.449 92.3598 160.629 92.6506C162.505 95.4577 165.827 97.8137 169.017 98.8262C172.379 99.8889 175.549 99.1471 178.268 96.9415C178.288 96.9314 178.268 96.8913 178.248 96.9014H178.258Z" fill="#263238"/>
<path d="M158.502 108.753C158.502 108.753 155.652 102.978 153.084 103.91C150.515 104.843 152.1 112.833 154.719 114.287C157.338 115.751 158.743 113.354 158.743 113.354L158.502 108.753Z" fill="#EB9481"/>
<path d="M153.595 106.186C153.595 106.186 153.535 106.236 153.565 106.256C155.391 107.349 156.144 109.314 156.575 111.289C156.104 110.477 155.381 109.965 154.308 110.507C154.248 110.537 154.288 110.627 154.348 110.617C155.171 110.567 155.733 110.798 156.164 111.519C156.475 112.031 156.646 112.642 156.846 113.204C156.907 113.394 157.238 113.344 157.208 113.133C157.208 113.113 157.208 113.103 157.208 113.083C157.639 110.607 156.244 106.837 153.615 106.176L153.595 106.186Z" fill="#263238"/>
<path d="M139.689 134.527C137.722 145.886 150.003 184.153 157.9 191.301C169.649 201.928 191.372 208.916 199.249 211.191C202.68 212.184 212.172 188.063 208.7 186.469C201.265 183.07 178.168 175.872 175.99 174.017C173.813 172.172 160.539 153.084 154.639 142.086C146.722 127.319 140.672 128.782 139.679 134.527H139.689Z" fill="#EB9481"/>
<path d="M202.85 184.354C202.85 184.354 213.095 186.96 219.717 188.986C223.409 190.108 229.57 192.615 231.908 194.68C235.4 197.778 248.022 212.936 244.41 216.074C241.139 218.911 231.948 204.505 231.948 204.505C231.948 204.505 242.504 218.22 237.938 220.917C233.373 223.613 225.155 205.959 225.155 205.959C225.155 205.959 235.691 220.295 230.533 222.33C226.64 223.864 218.292 208.295 218.292 208.295C218.292 208.295 227.262 220.676 223.329 222.43C218.985 224.365 210.376 210.48 210.376 210.48C199.62 213.257 193.369 210.179 189.175 207.462C188.161 206.801 202.861 184.344 202.861 184.344L202.85 184.354Z" fill="#EB9481"/>
<path d="M228.597 199.532C229.891 201.096 231.216 202.68 232.38 204.354C233.533 206.029 234.627 207.753 235.62 209.528C238.059 213.889 238.901 216.997 238.831 216.806C237.105 212.395 233.062 206.329 231.908 204.655C230.754 202.981 229.691 201.247 228.537 199.572C228.507 199.532 228.567 199.492 228.607 199.532H228.597Z" fill="#263238"/>
<path d="M222.466 203.583C224.694 205.347 229.36 211.914 231.166 216.305C231.246 216.486 231.146 216.475 231.035 216.305C229.62 214.13 223.931 205.708 222.416 203.613C222.396 203.583 222.436 203.553 222.466 203.583Z" fill="#263238"/>
<path d="M216.577 206.12C219.155 208.666 221.312 212.145 223.018 216.165C223.098 216.346 222.948 216.316 222.848 216.145C220.771 212.767 219.165 210.1 216.476 206.2C216.436 206.14 216.526 206.05 216.587 206.11L216.577 206.12Z" fill="#263238"/>
<path d="M150.856 135.37C141.695 122.427 136.217 127.219 138.053 141.275C139.769 154.418 144.384 170.078 144.384 170.078L167.502 158.89C167.502 158.89 156.716 143.661 150.856 135.37Z" fill="#EF5388"/>
<path d="M156.455 140.453C156.786 141.195 156.957 141.967 157.107 142.739C157.237 143.511 157.328 144.303 157.268 145.105C156.936 144.363 156.756 143.601 156.615 142.819C156.495 142.047 156.405 141.255 156.455 140.453Z" fill="white"/>
<path d="M142.779 148.333C143.522 148.002 144.284 147.832 145.067 147.681C145.839 147.551 146.632 147.461 147.435 147.521C146.692 147.852 145.93 148.032 145.147 148.173C144.374 148.293 143.582 148.383 142.779 148.333Z" fill="white"/>
<path d="M143.371 128.191C143.08 128.943 142.659 129.615 142.217 130.267C141.756 130.908 141.264 131.52 140.652 132.051C140.943 131.299 141.364 130.628 141.806 129.976C142.267 129.334 142.759 128.723 143.371 128.191Z" fill="white"/>
<path d="M162.876 154.377C162.585 155.129 162.164 155.801 161.722 156.452C161.261 157.094 160.769 157.705 160.157 158.237C160.448 157.485 160.87 156.813 161.311 156.161C161.773 155.52 162.264 154.908 162.876 154.377Z" fill="white"/>
<path d="M146.883 162.229C146.13 161.938 145.458 161.517 144.806 161.076C144.164 160.615 143.552 160.123 143.02 159.512C143.772 159.802 144.445 160.224 145.097 160.665C145.739 161.126 146.351 161.617 146.883 162.229Z" fill="white"/>
<path d="M153.926 139.26C155.161 140.954 156.435 142.608 157.699 144.272C157.378 143.43 157.097 142.588 156.846 141.716C156.836 141.676 156.896 141.656 156.906 141.696C157.167 142.358 157.448 143.019 157.699 143.681C157.82 144.002 157.94 144.323 158.06 144.643C158.09 144.714 158.111 144.784 158.141 144.854C159.134 146.147 160.117 147.451 161.06 148.774C162.194 150.348 163.288 151.962 164.392 153.566C165.525 155.22 166.609 157.165 167.803 158.779C167.903 158.92 165.756 159.782 165.556 159.902C165.355 160.012 165.214 159.822 165.425 159.752C165.626 159.692 167.331 158.649 167.352 158.629C166.248 157.015 164.974 155.521 163.82 153.937C162.676 152.363 161.522 150.799 160.408 149.195C158.151 145.947 156.074 142.578 153.836 139.32C153.806 139.28 153.876 139.24 153.906 139.28L153.926 139.26Z" fill="#263238"/>
<path d="M138.625 150.569C138.976 151.25 139.358 151.932 139.669 152.634C139.799 152.925 139.919 153.215 140.05 153.506C139.518 151 139.006 148.503 138.495 145.997C138.495 145.967 138.535 145.957 138.545 145.987C139.608 150.047 140.672 154.097 141.655 158.178C142.598 162.068 143.722 165.998 144.264 169.968C144.585 169.857 146.381 169.116 146.431 169.236C146.481 169.356 144.083 170.489 144.043 170.389C142.739 166.519 141.926 162.108 141.033 158.128C140.782 157.005 140.552 155.882 140.311 154.749C140.05 154.067 139.739 153.416 139.428 152.764C139.097 152.062 138.836 151.34 138.555 150.619C138.535 150.579 138.605 150.548 138.625 150.589V150.569Z" fill="#263238"/>
<path d="M144.756 166.208C147.966 164.393 161.381 157.456 164.392 156.152C164.602 156.062 164.713 156.172 164.502 156.293C155.01 161.947 148.077 164.714 144.836 166.338C144.756 166.378 144.675 166.268 144.756 166.218V166.208Z" fill="#263238"/>
<path d="M512.419 429.777H206.714L250.912 179.291H556.618L512.419 429.777Z" fill="#EF5388"/>
<path d="M355.543 153.346H255.497L250.912 179.292H357.981L355.543 153.346Z" fill="#EF5388"/>
<g opacity="0.1">
<path d="M512.419 429.777H206.714L250.912 179.291H556.618L512.419 429.777Z" fill="black"/>
<path d="M355.543 153.346H255.497L250.912 179.292H357.981L355.543 153.346Z" fill="black"/>
</g>
<path d="M244.701 163.933C244.31 162.479 244.22 161.026 244.199 159.572C244.209 158.118 244.3 156.665 244.701 155.211C245.102 156.665 245.193 158.118 245.203 159.572C245.183 161.026 245.092 162.479 244.701 163.933Z" fill="#263238"/>
<path d="M235.811 166.499C234.738 165.436 233.935 164.223 233.193 162.97C232.48 161.706 231.828 160.403 231.447 158.939C232.52 160.002 233.323 161.215 234.066 162.468C234.778 163.732 235.43 165.035 235.811 166.499Z" fill="#263238"/>
<path d="M229.39 173.166C227.935 172.785 226.631 172.133 225.356 171.421C224.102 170.679 222.888 169.877 221.824 168.805C223.279 169.186 224.584 169.837 225.858 170.549C227.112 171.291 228.326 172.093 229.39 173.166Z" fill="#263238"/>
<path d="M227.172 182.14C225.718 182.531 224.263 182.621 222.808 182.641C221.353 182.631 219.898 182.541 218.443 182.14C219.898 181.739 221.353 181.649 222.808 181.639C224.263 181.659 225.718 181.749 227.172 182.14Z" fill="#263238"/>
<path d="M229.741 191.021C228.677 192.094 227.463 192.896 226.209 193.638C224.945 194.35 223.64 195.002 222.176 195.383C223.239 194.31 224.453 193.508 225.707 192.766C226.972 192.054 228.276 191.402 229.741 191.021Z" fill="#263238"/>
<path d="M236.413 197.438C236.032 198.891 235.38 200.194 234.668 201.468C233.925 202.721 233.122 203.934 232.049 204.997C232.43 203.543 233.082 202.24 233.795 200.966C234.537 199.713 235.34 198.5 236.413 197.438Z" fill="#263238"/>
<path d="M245.404 199.654C245.795 201.108 245.885 202.562 245.905 204.015C245.895 205.469 245.805 206.923 245.404 208.376C245.002 206.923 244.912 205.469 244.902 204.015C244.922 202.562 245.012 201.108 245.404 199.654Z" fill="#263238"/>
<path d="M254.293 197.088C255.367 198.151 256.17 199.364 256.912 200.617C257.625 201.88 258.277 203.183 258.658 204.647C257.585 203.584 256.782 202.371 256.039 201.118C255.327 199.855 254.675 198.552 254.293 197.088Z" fill="#263238"/>
<path d="M260.705 190.42C262.16 190.801 263.464 191.453 264.738 192.164C265.993 192.906 267.207 193.708 268.27 194.781C266.815 194.4 265.511 193.748 264.237 193.037C262.982 192.295 261.768 191.493 260.705 190.42Z" fill="#263238"/>
<path d="M262.922 181.437C264.377 181.046 265.832 180.956 267.287 180.936C268.742 180.946 270.197 181.036 271.652 181.437C270.197 181.838 268.742 181.928 267.287 181.938C265.832 181.918 264.377 181.828 262.922 181.437Z" fill="#263238"/>
<path d="M260.354 172.554C261.417 171.482 262.631 170.68 263.886 169.938C265.15 169.226 266.454 168.574 267.919 168.193C266.856 169.266 265.641 170.068 264.387 170.81C263.123 171.522 261.819 172.173 260.354 172.554Z" fill="#263238"/>
<path d="M253.681 166.149C254.063 164.695 254.715 163.392 255.427 162.119C256.17 160.866 256.972 159.653 258.046 158.59C257.665 160.044 257.013 161.347 256.3 162.62C255.558 163.873 254.755 165.086 253.681 166.149Z" fill="#263238"/>
<path d="M511.968 429.777H205.6L162.104 188.385H468.472L511.968 429.777Z" fill="#EF5388"/>
<path d="M268.27 335.948C275.302 335.948 281.003 330.253 281.003 323.226C281.003 316.2 275.302 310.504 268.27 310.504C261.238 310.504 255.537 316.2 255.537 323.226C255.537 330.253 261.238 335.948 268.27 335.948Z" fill="#263238"/>
<path d="M368.928 335.948C375.96 335.948 381.661 330.253 381.661 323.226C381.661 316.2 375.96 310.504 368.928 310.504C361.896 310.504 356.195 316.2 356.195 323.226C356.195 330.253 361.896 335.948 368.928 335.948Z" fill="#263238"/>
<path d="M336.89 337.973L336.188 336.64C336.128 336.52 329.546 324.369 316.311 324.369C304.241 324.369 301.301 335.808 301.18 336.299L300.819 337.753L297.899 337.051L298.251 335.587C298.281 335.447 301.833 321.361 316.311 321.361C330.79 321.361 338.556 334.675 338.857 335.247L339.559 336.58L336.89 337.973Z" fill="#263238"/>
<path d="M491.64 321.762C492.292 321.622 492.944 321.471 493.596 321.301" stroke="#263238" stroke-miterlimit="10"/>
<path d="M497.439 320.169C512.79 314.986 525.644 302.925 526.848 288.829C529.517 257.751 491.629 240.587 495.543 204.666C499.275 170.409 535.236 167.963 549.654 172.695C565.578 177.928 560.119 193.217 545.701 191.242C520.707 187.823 504.994 160.674 516.864 129.876C525.734 106.868 547.838 98.1858 556.818 95.5391" stroke="#263238" stroke-miterlimit="10"/>
<path d="M558.775 95.0176C560.019 94.6967 560.721 94.5664 560.721 94.5664" stroke="#263238" stroke-miterlimit="10"/>
<path d="M576.635 89.0219C574.076 81.1018 556.939 83.949 560.28 94.2953C563.621 104.652 579.194 96.942 576.635 89.0219Z" fill="#263238"/>
<path d="M550.959 85.8239C551.089 82.3451 555.925 79.6783 562.768 80.9114C569.611 82.1445 576.053 86.7462 576.053 86.7462C576.053 86.7462 569.29 90.8767 562.377 91.6086C555.464 92.3404 550.838 89.3127 550.969 85.8239H550.959Z" fill="#EBEBEB"/>
<path d="M576.043 86.7457C572.491 86.7657 568.949 86.6554 565.397 86.5451C561.855 86.3948 558.303 86.2544 554.771 85.9637C558.323 85.9336 561.865 86.0539 565.417 86.1642C568.959 86.3146 572.511 86.4549 576.043 86.7457Z" fill="#263238"/>
<path d="M557.832 82.7461C558.855 83.2073 559.808 83.7887 560.762 84.3602C561.695 84.9717 562.638 85.5733 563.501 86.2951C562.477 85.8339 561.524 85.2525 560.571 84.681C559.638 84.0694 558.695 83.4679 557.832 82.7461Z" fill="#263238"/>
<path d="M567.133 86.4258C566.23 87.1877 565.257 87.8293 564.283 88.481C563.29 89.0925 562.297 89.7141 561.233 90.2154C562.136 89.4535 563.109 88.8118 564.083 88.1602C565.076 87.5486 566.069 86.9271 567.133 86.4258Z" fill="#263238"/>
<path d="M568.167 84.4609C568.698 84.6915 569.14 85.0324 569.581 85.3632C570.003 85.7241 570.424 86.0851 570.765 86.5563C570.233 86.3257 569.792 85.9848 569.35 85.654C568.929 85.293 568.508 84.9321 568.167 84.4609Z" fill="#263238"/>
<path d="M557.481 106.456C559.618 109.203 565.106 108.541 569.932 103.548C574.759 98.5557 577.287 91.0566 577.287 91.0566C577.287 91.0566 569.381 91.6582 563.35 95.1069C557.32 98.5557 555.333 103.709 557.481 106.466V106.456Z" fill="#EBEBEB"/>
<path d="M577.287 91.0469C574.387 93.1021 571.588 95.2676 568.769 97.4331C565.979 99.6286 563.19 101.814 560.481 104.11C563.38 102.055 566.18 99.8893 568.999 97.7238C571.789 95.5282 574.578 93.3427 577.287 91.0469Z" fill="#263238"/>
<path d="M564.855 104.932C565.417 103.96 565.849 102.927 566.29 101.904C566.692 100.862 567.103 99.8291 567.374 98.7363C566.812 99.7088 566.381 100.741 565.939 101.764C565.538 102.807 565.126 103.839 564.855 104.932Z" fill="#263238"/>
<path d="M570.244 96.5213C569.07 96.431 567.896 96.4812 566.732 96.5213C565.568 96.6015 564.394 96.6716 563.24 96.8922C564.414 96.9824 565.588 96.9323 566.752 96.8922C567.916 96.812 569.09 96.7318 570.244 96.5213Z" fill="#263238"/>
<path d="M572.23 97.5031C572.531 97.0118 572.682 96.4805 572.852 95.9491C572.983 95.4077 573.113 94.8664 573.113 94.2949C572.812 94.7862 572.662 95.3175 572.491 95.8489C572.361 96.3902 572.23 96.9316 572.23 97.5031Z" fill="#263238"/>
<path d="M576.635 89.023C575.06 89.5343 573.364 88.662 572.852 87.088C572.341 85.514 573.213 83.8197 574.789 83.3085C576.364 82.7972 578.06 83.6694 578.571 85.2434C579.083 86.8174 578.21 88.5117 576.635 89.023Z" fill="#455A64"/>
<path d="M578.481 94.7358C576.906 95.2471 575.21 94.3749 574.698 92.8009C574.187 91.2269 575.06 89.5326 576.635 89.0213C578.21 88.51 579.906 89.3823 580.418 90.9563C580.929 92.5302 580.056 94.2245 578.481 94.7358Z" fill="#455A64"/>
<path d="M249.527 92.1904C248.092 105.915 235.781 115.88 222.055 114.447C216.506 113.865 211.57 111.509 207.747 108L195.235 109.835L201.496 99.0277C199.981 95.3383 199.339 91.2279 199.78 86.9972C201.215 73.2724 213.526 63.3071 227.253 64.7407C240.989 66.1743 250.962 78.4756 249.527 92.1904Z" fill="white"/>
<path d="M249.527 92.19C249.006 96.7515 247.34 101.223 244.48 104.852C243.828 105.805 242.975 106.597 242.213 107.459C241.34 108.211 240.537 109.043 239.574 109.694C237.748 111.098 235.691 112.201 233.544 113.053C231.407 113.955 229.109 114.386 226.811 114.657C225.657 114.717 224.493 114.827 223.339 114.727C222.176 114.697 221.022 114.577 219.878 114.366C215.302 113.534 210.968 111.399 207.506 108.261L207.797 108.351L195.295 110.266L194.392 110.406L194.854 109.604L201.075 98.7767L201.045 99.2078C198.014 92.0797 198.697 83.5781 202.59 76.9413C204.526 73.6128 207.235 70.7455 210.426 68.6101C213.617 66.4647 217.309 65.1213 221.102 64.61C224.895 64.1087 228.788 64.4496 232.41 65.6526C236.022 66.8657 239.343 68.9109 242.052 71.5576C247.571 76.8009 250.35 84.6709 249.537 92.19H249.527ZM249.527 92.19C250.29 84.6609 247.46 76.841 241.932 71.6679C239.193 69.0813 235.871 67.1163 232.289 65.9835C228.697 64.8606 224.865 64.5899 221.162 65.1513C217.47 65.7128 213.888 67.0963 210.838 69.2317C207.787 71.3771 205.219 74.1742 203.352 77.3824C201.456 80.5905 200.473 84.2699 200.182 87.9592C199.951 91.6586 200.553 95.4081 201.938 98.8468L202.028 99.0674L201.908 99.2679L195.606 110.055L195.155 109.394L207.677 107.639L207.847 107.619L207.968 107.739C211.279 110.847 215.463 113.013 219.938 113.905C221.052 114.126 222.186 114.276 223.329 114.316C224.473 114.436 225.607 114.356 226.751 114.316C229.019 114.086 231.296 113.705 233.433 112.842C235.57 112.04 237.647 110.988 239.464 109.594C240.427 108.963 241.229 108.14 242.102 107.389C242.875 106.536 243.718 105.754 244.38 104.812C247.25 101.213 248.945 96.7616 249.497 92.2L249.527 92.19Z" fill="#263238"/>
<path d="M212.433 101.233C212.433 99.7397 213.466 98.667 214.881 98.667C216.376 98.667 217.329 99.7397 217.329 101.233C217.329 102.727 216.376 103.8 214.881 103.8C213.386 103.8 212.433 102.677 212.433 101.233ZM213.466 95.3084L212.884 75.418H216.868L216.286 95.3084H213.466Z" fill="#EF5388"/>
<path d="M221.965 101.233C221.965 99.7397 222.998 98.667 224.413 98.667C225.908 98.667 226.861 99.7397 226.861 101.233C226.861 102.727 225.908 103.8 224.413 103.8C222.918 103.8 221.965 102.677 221.965 101.233ZM223.008 95.3084L222.426 75.418H226.41L225.828 95.3084H223.008Z" fill="#EF5388"/>
<path d="M231.507 101.233C231.507 99.7397 232.54 98.667 233.955 98.667C235.45 98.667 236.403 99.7397 236.403 101.233C236.403 102.727 235.45 103.8 233.955 103.8C232.46 103.8 231.507 102.677 231.507 101.233ZM232.55 95.3084L231.968 75.418H235.952L235.37 95.3084H232.55Z" fill="#EF5388"/>
</g>
<defs>
<clipPath id="clip0_98_5105">
<rect width="614" height="402" fill="white" transform="translate(0 52.5)"/>
</clipPath>
</defs>
</svg>
