<svg width="582" height="609" viewBox="0 0 582 609" fill="none" xmlns="http://www.w3.org/2000/svg">
<mask id="mask0_913_6802" style="mask-type:luminance" maskUnits="userSpaceOnUse" x="0" y="0" width="582" height="526">
<path d="M582 0H0V525.35H582V0Z" fill="white"/>
</mask>
<g mask="url(#mask0_913_6802)">
<path d="M428.587 106.62L415.442 106.421L378.591 105.758C378.45 105.776 378.307 105.762 378.172 105.716C378.037 105.67 377.915 105.593 377.814 105.492C377.713 105.391 377.637 105.269 377.591 105.134C377.545 104.999 377.53 104.855 377.549 104.714V91.3674C376.908 88.5821 377.996 85.2552 380.81 81.3868L430.491 21.8015C430.632 21.6292 430.7 21.4086 430.68 21.1867C430.661 20.9648 430.555 20.7594 430.386 20.6145C430.235 20.4881 430.042 20.421 429.845 20.4255L381.72 20.5083C381.505 20.5083 381.299 20.4228 381.147 20.2704C380.995 20.1181 380.909 19.9114 380.909 19.696L380.826 1.32633C380.799 1.15163 380.812 0.972825 380.866 0.804368C380.92 0.63591 381.013 0.48253 381.137 0.356632C381.261 0.230734 381.413 0.135852 381.58 0.0796581C381.748 0.0234641 381.926 0.00753573 382.101 0.0331611L457.541 2.91143e-06C457.789 -0.000433019 458.035 0.0480892 458.264 0.142793C458.493 0.237497 458.701 0.376523 458.877 0.551917C459.052 0.727311 459.191 0.935629 459.286 1.16495C459.381 1.39427 459.43 1.6401 459.43 1.88836C459.43 1.91655 459.43 1.94473 459.43 1.97292C459.215 8.02429 460.755 19.2483 456.732 24.0397C439.945 44.0551 423.28 63.9942 406.736 83.8571C406.63 83.9872 406.563 84.1447 406.542 84.3115C406.521 84.4783 406.548 84.6476 406.618 84.7999C406.689 84.9523 406.802 85.0815 406.943 85.1728C407.083 85.2641 407.247 85.3137 407.415 85.316L459.38 85.3658C459.511 85.3658 459.64 85.3915 459.761 85.4415C459.881 85.4915 459.991 85.5648 460.083 85.6571C460.175 85.7495 460.248 85.8592 460.298 85.9799C460.348 86.1005 460.374 86.2299 460.374 86.3605L460.407 104.83C460.407 105.144 460.284 105.445 460.064 105.668C459.844 105.892 459.545 106.019 459.231 106.023L428.587 106.62Z" fill="#AAB2C5"/>
<path d="M380.81 81.3857C377.995 85.2541 376.908 88.581 377.548 91.3663C351.784 82.5538 324.583 78.7169 297.39 80.0594C191.721 85.6465 102.905 167.1 91.9784 274.184C87.1223 321.733 96.862 366.651 121.198 408.939C122.058 410.442 123.063 410.547 124.211 409.254C161.591 367.077 186.705 313.675 191.688 257.108C193.161 240.379 191.44 222.54 194.039 206.889C197.385 185.947 206.52 166.362 220.409 150.352C234.298 134.342 252.386 122.546 272.624 116.301C273.665 116.047 274.605 115.483 275.32 114.684C276.035 113.886 276.492 112.889 276.63 111.825C278.529 99.9764 284.03 91.9245 293.136 87.6692C297.17 85.7117 301.585 84.6659 306.068 84.6057C310.55 84.5456 314.991 85.4725 319.077 87.321C329.186 91.6316 334.997 100.363 336.509 113.516C336.533 113.789 336.634 114.05 336.801 114.268C336.969 114.485 337.195 114.65 337.453 114.743C345.879 118.092 355.1 121.408 362.351 125.619C391.409 142.508 409.824 167.2 417.594 199.694C421.121 214.4 420.475 232.438 421.038 248.652C423.107 309.299 450.389 366.745 490.253 411.641C490.492 411.909 490.827 412.07 491.185 412.091C491.543 412.112 491.894 411.99 492.162 411.752C492.257 411.667 492.339 411.568 492.406 411.459C528.031 352.752 534.968 279.738 508.695 215.56C503.594 203.323 497.636 191.461 490.866 180.064L497.107 172.09C519.357 205.824 531.723 242.116 534.206 280.965C537.418 331.233 525.907 377.356 499.673 419.334C499.323 419.898 499.185 420.569 499.285 421.226C499.386 421.882 499.717 422.482 500.219 422.915L515.218 435.93C515.361 436.059 515.462 436.229 515.507 436.416C515.552 436.604 515.54 436.801 515.472 436.981C515.405 437.162 515.284 437.318 515.126 437.429C514.969 437.54 514.782 437.601 514.589 437.604L488.979 437.637C488.287 437.637 487.605 437.793 486.983 438.095C486.361 438.396 485.815 438.835 485.386 439.378C460.004 471.4 426.46 495.965 388.295 510.48C350.13 524.994 308.76 528.92 268.552 521.843C212.584 511.763 166.369 484.28 129.905 439.395C129.444 438.829 128.863 438.374 128.205 438.062C127.546 437.749 126.827 437.587 126.098 437.588L97.1766 437.687C97.0913 437.688 97.0066 437.672 96.9277 437.639C96.8487 437.607 96.777 437.559 96.7169 437.499C96.6567 437.438 96.6092 437.366 96.5773 437.287C96.5454 437.207 96.5296 437.123 96.5309 437.037C96.5304 436.944 96.5493 436.851 96.5863 436.766C96.6234 436.68 96.6778 436.603 96.7461 436.54L114.062 420.972C114.563 420.603 114.898 420.051 114.994 419.437C115.09 418.822 114.94 418.194 114.576 417.689C84.3135 366.99 74.2979 312.86 84.5287 255.297C95.8191 191.816 136.312 133.938 191.804 101.426C250.098 67.2625 313.1 60.5811 380.81 81.3824M285.918 122.983C278.981 125.138 271.217 126.945 265.075 129.813C226.751 147.768 202.25 183.297 203.028 226.552C203.206 236.446 202.99 245.603 202.382 254.024C197.846 317.538 168.246 378.516 124.707 423.993C122.865 425.916 123.274 426.878 125.932 426.878L487.356 426.911C489.728 426.911 490.087 426.054 488.432 424.341C455.342 390.289 431.41 348.393 418.869 302.567C414.35 286.37 410.641 266.027 410.509 250.31C410.377 235.173 410.973 218.097 408.291 204.552C400.195 163.552 367.864 132.317 327.57 123.331C327.135 123.232 326.75 122.984 326.481 122.629C326.211 122.275 326.075 121.836 326.096 121.391C326.295 116.417 326.477 111.046 324.457 106.553C322.933 103.01 320.395 99.9981 317.163 97.8982C313.932 95.7983 310.151 94.7041 306.299 94.7538C302.447 94.8034 298.696 95.9947 295.52 98.1772C292.343 100.36 289.883 103.436 288.451 107.017C286.613 111.377 287.143 116.716 286.928 121.673C286.917 121.97 286.814 122.255 286.633 122.49C286.452 122.725 286.202 122.898 285.918 122.983ZM360.265 440.406C358.107 452.658 351.77 463.779 342.336 471.873C310.982 498.217 267.972 477.676 261.317 439.693C261.272 439.423 261.162 439.168 260.998 438.948C260.834 438.729 260.62 438.553 260.374 438.433C259.126 437.873 257.768 437.601 256.4 437.637L144.225 437.67C143.996 437.669 143.772 437.734 143.579 437.856C143.386 437.979 143.232 438.155 143.136 438.363C143.04 438.571 143.006 438.803 143.037 439.03C143.069 439.257 143.165 439.47 143.315 439.643C189.95 493.409 260.506 521.876 331.096 513.752C387.404 507.274 434.232 482.676 471.58 439.958C472.904 438.445 472.556 437.688 470.537 437.687L363.593 437.637C362.803 437.639 362.039 437.917 361.431 438.422C360.824 438.927 360.412 439.629 360.265 440.406ZM324.557 470.713C338.595 464.86 346.127 453.752 350.548 439.61C350.606 439.421 350.627 439.222 350.609 439.025C350.591 438.827 350.534 438.635 350.442 438.46C350.349 438.285 350.224 438.129 350.071 438.003C349.919 437.876 349.743 437.781 349.554 437.722C349.409 437.677 349.258 437.654 349.106 437.654L272.954 437.604C272.574 437.603 272.209 437.752 271.938 438.02C271.668 438.287 271.515 438.651 271.512 439.032C271.512 439.137 271.523 439.242 271.546 439.345C276.645 462.755 300.55 480.726 324.555 470.713" fill="#D6DCE8"/>
<path d="M377.548 91.3691V104.715C377.53 104.857 377.545 105.001 377.591 105.135C377.637 105.27 377.713 105.393 377.814 105.494C377.914 105.595 378.037 105.671 378.172 105.717C378.307 105.763 378.45 105.778 378.591 105.76L415.442 106.423C416.436 106.533 417.059 107.324 417.313 108.794C417.354 109.061 417.454 109.316 417.606 109.539C417.758 109.763 417.958 109.95 418.19 110.087C440.109 123.496 459.688 140.41 476.149 160.156L446.598 160.255C446.309 160.255 446.031 160.371 445.826 160.576C445.621 160.781 445.506 161.059 445.506 161.35L445.572 172.06C445.573 172.224 445.606 172.387 445.67 172.538C445.734 172.689 445.827 172.827 445.944 172.942C446.061 173.058 446.199 173.149 446.351 173.211C446.503 173.273 446.666 173.304 446.83 173.303L477.01 173.071C477.738 173.06 477.87 173.336 477.407 173.9C467.01 186.699 456.62 199.343 446.234 211.833C442.493 216.326 443.056 221.681 443.668 227.102C443.697 227.337 443.81 227.552 443.987 227.708C444.164 227.864 444.393 227.949 444.628 227.948L496.296 227.997C496.572 227.997 496.838 227.887 497.033 227.692C497.229 227.496 497.339 227.23 497.339 226.953V226.936L497.206 216.061C497.206 215.792 497.1 215.535 496.911 215.345C496.721 215.156 496.464 215.049 496.197 215.049L464.56 215.198C464.327 215.201 464.098 215.137 463.9 215.014C463.701 214.89 463.542 214.713 463.442 214.502C463.341 214.291 463.302 214.056 463.33 213.824C463.358 213.592 463.452 213.373 463.6 213.192L490.866 180.067C497.636 191.464 503.594 203.325 508.695 215.563C534.968 279.741 528.031 352.755 492.405 411.462C492.312 411.612 492.19 411.743 492.046 411.846C491.902 411.949 491.739 412.023 491.567 412.062C491.394 412.102 491.216 412.108 491.041 412.078C490.867 412.049 490.7 411.985 490.55 411.891C490.44 411.823 490.34 411.74 490.253 411.644C450.389 366.748 423.107 309.301 421.038 248.655C420.475 232.441 421.121 214.403 417.594 199.697C409.826 167.202 391.411 142.51 362.351 125.622C355.1 121.41 345.879 118.095 337.453 114.746C337.195 114.653 336.969 114.488 336.801 114.271C336.634 114.053 336.533 113.792 336.509 113.519C334.997 100.366 329.186 91.6344 319.077 87.3238C314.991 85.4753 310.55 84.5484 306.068 84.6085C301.585 84.6687 297.17 85.7145 293.136 87.672C284.03 91.9273 278.529 99.9792 276.63 111.828C276.492 112.892 276.035 113.888 275.32 114.687C274.605 115.486 273.665 116.05 272.624 116.304C252.386 122.549 234.297 134.344 220.408 150.355C206.52 166.365 197.385 185.95 194.039 206.892C191.439 222.543 193.161 240.382 191.688 257.11C186.705 313.678 161.591 367.08 124.21 409.257C123.063 410.55 122.058 410.445 121.198 408.942C96.862 366.654 87.1223 321.736 91.9783 274.187C102.904 167.102 191.721 85.6493 297.39 80.0622C324.583 78.7198 351.784 82.5566 377.548 91.3691Z" fill="#F1F3F9"/>
<path d="M286.927 121.675C287.143 116.717 286.613 111.379 288.45 107.019C289.883 103.437 292.343 100.361 295.52 98.179C298.696 95.9964 302.447 94.8052 306.299 94.7555C310.151 94.7059 313.931 95.8 317.163 97.8999C320.395 99.9998 322.933 103.011 324.457 106.554C326.477 111.047 326.295 116.419 326.096 121.393C326.075 121.838 326.211 122.276 326.48 122.631C326.75 122.986 327.135 123.234 327.569 123.333C367.864 132.318 400.195 163.553 408.291 204.554C410.972 218.099 410.376 235.175 410.509 250.312C410.641 266.029 414.35 286.371 418.869 302.569C431.41 348.395 455.342 390.29 488.432 424.343C490.088 426.056 489.729 426.912 487.356 426.912L125.932 426.879C123.271 426.879 122.863 425.918 124.707 423.995C168.246 378.518 197.846 317.54 202.382 254.026C202.989 245.603 203.204 236.446 203.028 226.554C202.25 183.299 226.751 147.77 265.075 129.815C271.217 126.947 278.981 125.14 285.918 122.984C286.202 122.899 286.452 122.727 286.633 122.492C286.814 122.257 286.917 121.971 286.927 121.675ZM293.152 264.089C295.37 258.402 290.619 253.611 284.643 256.612C284.203 256.83 283.839 257.177 283.6 257.607C281.514 261.304 279.825 265.482 277.094 268.3C272.943 272.504 267.331 274.94 261.429 275.097C255.527 275.255 249.793 273.123 245.425 269.146C241.998 266.079 240.044 261.586 238.074 257.292C237.964 257.033 237.799 256.801 237.59 256.612C237.381 256.423 237.134 256.281 236.866 256.197C232.384 254.639 229.443 256.026 228.042 260.359C227.888 260.814 227.876 261.306 228.009 261.768C237.445 293.931 281.249 294.827 293.152 264.089ZM335.632 282.558C354.901 292.771 378.012 283.039 384.551 261.702C384.717 261.187 384.7 260.63 384.501 260.127C383.078 256.402 380.313 255.037 376.207 256.032C375.898 256.099 375.608 256.235 375.358 256.43C375.109 256.625 374.907 256.875 374.767 257.159C372.598 261.155 370.43 265.581 367.566 268.549C365.277 270.854 362.515 272.633 359.471 273.763C356.428 274.893 353.175 275.346 349.939 275.093C346.703 274.839 343.561 273.883 340.73 272.292C337.9 270.702 335.448 268.513 333.546 265.88C331.732 263.171 330.127 260.327 328.745 257.375C328.516 256.902 328.121 256.53 327.636 256.33C322.007 254.009 318.282 257.341 319.358 263.028C320.914 271.152 328.811 278.944 335.632 282.558ZM320.318 346.471C320.318 343.746 319.512 341.082 318 338.816C316.488 336.551 314.34 334.785 311.826 333.742C309.312 332.699 306.546 332.427 303.878 332.958C301.209 333.49 298.758 334.802 296.834 336.729C294.91 338.655 293.6 341.11 293.069 343.783C292.538 346.455 292.81 349.225 293.852 351.743C294.893 354.26 296.656 356.412 298.918 357.926C301.181 359.44 303.841 360.248 306.561 360.248C310.21 360.247 313.709 358.796 316.289 356.212C318.868 353.628 320.318 350.124 320.318 346.471Z" fill="white"/>
<path d="M428.587 106.621C430.594 107.417 432.449 108.179 434.149 108.909C435.97 109.708 437.701 110.697 439.314 111.86C458.313 125.441 475.133 141.844 489.194 160.503L476.149 160.155C459.688 140.409 440.109 123.495 418.19 110.086C417.958 109.949 417.758 109.762 417.606 109.538C417.455 109.315 417.354 109.06 417.313 108.793C417.06 107.322 416.437 106.531 415.442 106.422L428.587 106.621Z" fill="#D6DCE8"/>
<path d="M97.5741 126.383C100.007 126.383 102.385 127.105 104.408 128.459C106.431 129.812 108.007 131.736 108.938 133.987C109.869 136.238 110.113 138.715 109.638 141.104C109.163 143.494 107.992 145.689 106.272 147.411C104.551 149.134 102.36 150.307 99.9738 150.783C97.5878 151.258 95.1146 151.014 92.867 150.082C90.6195 149.149 88.6984 147.57 87.3469 145.545C85.9953 143.519 85.2739 141.137 85.2739 138.701C85.2744 135.434 86.5704 132.301 88.8771 129.991C91.1837 127.681 94.312 126.383 97.5741 126.383Z" fill="#F1F3F9"/>
<path d="M476.149 160.152L489.194 160.501L495.137 160.368C495.262 160.347 495.39 160.355 495.512 160.39C495.634 160.425 495.747 160.487 495.842 160.571C495.937 160.655 496.012 160.76 496.062 160.876C496.112 160.993 496.135 161.12 496.13 161.247L497.107 172.089L490.866 180.064L463.6 213.189C463.451 213.369 463.357 213.588 463.328 213.821C463.3 214.053 463.339 214.288 463.44 214.499C463.541 214.71 463.7 214.888 463.898 215.011C464.097 215.135 464.327 215.198 464.56 215.195L496.196 215.046C496.464 215.046 496.721 215.152 496.911 215.342C497.1 215.532 497.206 215.789 497.206 216.057L497.339 226.933C497.341 227.07 497.316 227.206 497.266 227.334C497.215 227.461 497.14 227.578 497.045 227.676C496.95 227.775 496.836 227.854 496.71 227.908C496.585 227.963 496.449 227.992 496.312 227.994H496.296L444.628 227.944C444.393 227.946 444.164 227.861 443.987 227.705C443.81 227.549 443.697 227.333 443.668 227.099C443.056 221.677 442.493 216.322 446.234 211.829C456.619 199.34 467.01 186.695 477.407 173.896C477.87 173.333 477.738 173.056 477.01 173.067L446.83 173.3C446.666 173.301 446.503 173.269 446.351 173.207C446.199 173.146 446.061 173.054 445.944 172.939C445.827 172.823 445.734 172.686 445.67 172.535C445.606 172.383 445.573 172.221 445.572 172.056L445.506 161.346C445.506 161.056 445.621 160.778 445.826 160.572C446.031 160.367 446.309 160.252 446.598 160.252L476.149 160.152Z" fill="#AAB2C5"/>
<path d="M293.152 264.088C281.249 294.825 237.445 293.93 228.009 261.766C227.877 261.304 227.888 260.813 228.042 260.357C229.445 256.026 232.386 254.639 236.866 256.196C237.134 256.28 237.381 256.421 237.59 256.61C237.799 256.799 237.964 257.031 238.074 257.29C240.044 261.584 241.998 266.077 245.425 269.144C249.793 273.121 255.527 275.253 261.429 275.096C267.331 274.938 272.943 272.503 277.094 268.299C279.826 265.48 281.514 261.302 283.6 257.605C283.839 257.176 284.203 256.829 284.643 256.61C290.619 253.61 295.37 258.401 293.152 264.088Z" fill="#AAB2C5"/>
<path d="M384.551 261.7C378.012 283.037 354.902 292.769 335.632 282.556C328.811 278.942 320.915 271.15 319.359 263.026C318.282 257.34 322.007 254.007 327.636 256.328C328.121 256.528 328.516 256.9 328.745 257.373C330.128 260.326 331.732 263.169 333.546 265.878C335.448 268.512 337.9 270.7 340.731 272.29C343.561 273.881 346.704 274.837 349.94 275.091C353.176 275.345 356.428 274.891 359.472 273.761C362.515 272.631 365.277 270.852 367.566 268.547C370.43 265.579 372.599 261.153 374.767 257.157C374.907 256.873 375.109 256.623 375.359 256.428C375.608 256.233 375.898 256.097 376.208 256.03C380.313 255.035 383.078 256.4 384.502 260.125C384.7 260.628 384.717 261.185 384.551 261.7Z" fill="#AAB2C5"/>
<path d="M306.562 332.691C309.283 332.691 311.942 333.499 314.205 335.013C316.467 336.527 318.23 338.679 319.272 341.196C320.313 343.714 320.585 346.484 320.054 349.156C319.524 351.829 318.213 354.284 316.289 356.211C314.365 358.137 311.914 359.45 309.246 359.981C306.577 360.513 303.811 360.24 301.297 359.197C298.783 358.154 296.635 356.389 295.123 354.123C293.612 351.857 292.805 349.194 292.805 346.469C292.805 342.815 294.255 339.311 296.835 336.727C299.414 334.144 302.913 332.692 306.562 332.691Z" fill="#AAB2C5"/>
<path d="M22.6801 342.242C27.1657 342.242 31.5507 343.574 35.2804 346.07C39.0101 348.566 41.9171 352.113 43.6337 356.264C45.3503 360.414 45.7994 364.981 44.9243 369.387C44.0492 373.793 41.8891 377.84 38.7173 381.016C35.5454 384.193 31.5042 386.356 27.1047 387.232C22.7052 388.109 18.145 387.659 14.0008 385.94C9.85654 384.221 6.31439 381.31 3.82228 377.574C1.33016 373.839 0 369.448 0 364.956C0 358.932 2.3895 353.154 6.64283 348.895C10.8962 344.635 16.6649 342.242 22.6801 342.242Z" fill="#F1F3F9"/>
<path d="M569.75 346.371C572.172 346.371 574.541 347.091 576.556 348.439C578.57 349.787 580.14 351.703 581.068 353.945C581.995 356.186 582.237 358.653 581.765 361.033C581.292 363.413 580.125 365.599 578.412 367.315C576.699 369.031 574.516 370.199 572.14 370.672C569.763 371.146 567.3 370.903 565.061 369.974C562.823 369.046 560.91 367.473 559.564 365.456C558.217 363.438 557.499 361.066 557.499 358.64C557.499 357.029 557.816 355.433 558.432 353.945C559.047 352.456 559.95 351.104 561.087 349.964C562.225 348.825 563.575 347.922 565.061 347.305C566.548 346.688 568.141 346.371 569.75 346.371Z" fill="#F1F3F9"/>
<path d="M543.527 405.324C547.056 405.324 550.507 406.372 553.441 408.336C556.376 410.3 558.664 413.091 560.014 416.357C561.365 419.623 561.718 423.216 561.03 426.683C560.341 430.15 558.642 433.335 556.146 435.834C553.65 438.334 550.47 440.036 547.008 440.725C543.546 441.415 539.958 441.061 536.697 439.708C533.436 438.356 530.649 436.065 528.688 433.126C526.727 430.187 525.681 426.731 525.681 423.196C525.681 418.456 527.561 413.911 530.908 410.559C534.254 407.207 538.794 405.324 543.527 405.324Z" fill="#F1F3F9"/>
<path d="M342.336 471.876C351.77 463.782 358.107 452.66 360.265 440.409C360.412 439.632 360.824 438.93 361.431 438.425C362.039 437.919 362.803 437.642 363.593 437.64L470.537 437.69C472.556 437.69 472.904 438.447 471.58 439.961C434.232 482.68 387.404 507.278 331.096 513.755C260.506 521.878 189.95 493.412 143.315 439.646C143.165 439.472 143.069 439.259 143.037 439.032C143.006 438.805 143.04 438.574 143.136 438.366C143.232 438.158 143.386 437.982 143.579 437.859C143.772 437.736 143.997 437.672 144.225 437.673L256.401 437.64C257.768 437.603 259.126 437.875 260.374 438.436C260.62 438.555 260.834 438.732 260.998 438.951C261.162 439.17 261.272 439.426 261.317 439.696C267.972 477.678 310.982 498.22 342.336 471.876Z" fill="#F1F3F9"/>
<path d="M350.548 439.612C346.127 453.753 338.595 464.862 324.557 470.714C300.552 480.728 276.647 462.756 271.548 439.346C271.508 439.162 271.504 438.973 271.537 438.787C271.57 438.602 271.639 438.425 271.74 438.267C271.842 438.108 271.973 437.971 272.127 437.864C272.282 437.756 272.456 437.68 272.639 437.64C272.743 437.617 272.849 437.605 272.955 437.605L349.107 437.655C349.305 437.655 349.501 437.693 349.684 437.769C349.867 437.844 350.033 437.955 350.174 438.095C350.314 438.235 350.425 438.402 350.501 438.585C350.576 438.768 350.615 438.964 350.615 439.162C350.615 439.315 350.592 439.466 350.548 439.612Z" fill="white"/>
</g>
<path d="M121 561.672L132.152 578.547V561.516C132.152 560.409 132.386 559.582 132.855 559.035C133.337 558.475 133.981 558.195 134.789 558.195C135.622 558.195 136.28 558.475 136.761 559.035C137.243 559.582 137.484 560.409 137.484 561.516V584.035C137.484 586.548 136.442 587.805 134.359 587.805C133.838 587.805 133.369 587.727 132.953 587.57C132.536 587.427 132.145 587.193 131.781 586.867C131.416 586.542 131.078 586.164 130.765 585.734C130.453 585.292 130.14 584.842 129.828 584.387L118.949 567.707V584.484C118.949 585.578 118.695 586.405 118.187 586.965C117.679 587.525 117.028 587.805 116.234 587.805C115.414 587.805 114.756 587.525 114.261 586.965C113.767 586.392 113.519 585.565 113.519 584.484V562.395C113.519 561.457 113.623 560.721 113.832 560.188C114.079 559.602 114.489 559.126 115.062 558.762C115.635 558.384 116.254 558.195 116.918 558.195C117.438 558.195 117.881 558.28 118.246 558.449C118.623 558.618 118.949 558.846 119.222 559.133C119.509 559.419 119.795 559.79 120.082 560.246C120.381 560.702 120.687 561.177 121 561.672ZM163.422 576.965C163.422 578.553 163.174 580.018 162.679 581.359C162.185 582.701 161.468 583.853 160.531 584.816C159.593 585.78 158.474 586.522 157.172 587.043C155.869 587.551 154.405 587.805 152.777 587.805C151.162 587.805 149.711 587.544 148.422 587.023C147.132 586.503 146.013 585.76 145.062 584.797C144.125 583.82 143.408 582.674 142.914 581.359C142.432 580.031 142.191 578.566 142.191 576.965C142.191 575.35 142.438 573.872 142.933 572.531C143.428 571.19 144.138 570.044 145.062 569.094C145.987 568.143 147.106 567.414 148.422 566.906C149.737 566.385 151.188 566.125 152.777 566.125C154.392 566.125 155.856 566.385 157.172 566.906C158.487 567.427 159.613 568.169 160.55 569.133C161.488 570.096 162.198 571.242 162.679 572.57C163.174 573.898 163.422 575.363 163.422 576.965ZM158.07 576.965C158.07 574.79 157.588 573.098 156.625 571.887C155.674 570.676 154.392 570.07 152.777 570.07C151.735 570.07 150.817 570.344 150.023 570.891C149.229 571.424 148.617 572.219 148.187 573.273C147.757 574.328 147.543 575.559 147.543 576.965C147.543 578.358 147.751 579.576 148.168 580.617C148.597 581.659 149.203 582.46 149.984 583.02C150.778 583.566 151.709 583.84 152.777 583.84C154.392 583.84 155.674 583.234 156.625 582.023C157.588 580.799 158.07 579.113 158.07 576.965ZM185.57 561.672L196.722 578.547V561.516C196.722 560.409 196.957 559.582 197.425 559.035C197.907 558.475 198.552 558.195 199.359 558.195C200.192 558.195 200.85 558.475 201.332 559.035C201.813 559.582 202.054 560.409 202.054 561.516V584.035C202.054 586.548 201.013 587.805 198.929 587.805C198.408 587.805 197.94 587.727 197.523 587.57C197.106 587.427 196.716 587.193 196.351 586.867C195.987 586.542 195.648 586.164 195.336 585.734C195.023 585.292 194.711 584.842 194.398 584.387L183.519 567.707V584.484C183.519 585.578 183.265 586.405 182.757 586.965C182.25 587.525 181.599 587.805 180.804 587.805C179.984 587.805 179.326 587.525 178.832 586.965C178.337 586.392 178.089 585.565 178.089 584.484V562.395C178.089 561.457 178.194 560.721 178.402 560.188C178.649 559.602 179.06 559.126 179.632 558.762C180.205 558.384 180.824 558.195 181.488 558.195C182.009 558.195 182.451 558.28 182.816 558.449C183.194 558.618 183.519 558.846 183.793 559.133C184.079 559.419 184.366 559.79 184.652 560.246C184.951 560.702 185.257 561.177 185.57 561.672ZM227.992 576.965C227.992 578.553 227.744 580.018 227.25 581.359C226.755 582.701 226.039 583.853 225.101 584.816C224.164 585.78 223.044 586.522 221.742 587.043C220.44 587.551 218.975 587.805 217.347 587.805C215.733 587.805 214.281 587.544 212.992 587.023C211.703 586.503 210.583 585.76 209.632 584.797C208.695 583.82 207.979 582.674 207.484 581.359C207.002 580.031 206.761 578.566 206.761 576.965C206.761 575.35 207.009 573.872 207.504 572.531C207.998 571.19 208.708 570.044 209.632 569.094C210.557 568.143 211.677 567.414 212.992 566.906C214.307 566.385 215.759 566.125 217.347 566.125C218.962 566.125 220.427 566.385 221.742 566.906C223.057 567.427 224.183 568.169 225.121 569.133C226.058 570.096 226.768 571.242 227.25 572.57C227.744 573.898 227.992 575.363 227.992 576.965ZM222.64 576.965C222.64 574.79 222.158 573.098 221.195 571.887C220.244 570.676 218.962 570.07 217.347 570.07C216.306 570.07 215.388 570.344 214.593 570.891C213.799 571.424 213.187 572.219 212.757 573.273C212.328 574.328 212.113 575.559 212.113 576.965C212.113 578.358 212.321 579.576 212.738 580.617C213.168 581.659 213.773 582.46 214.554 583.02C215.349 583.566 216.28 583.84 217.347 583.84C218.962 583.84 220.244 583.234 221.195 582.023C222.158 580.799 222.64 579.113 222.64 576.965ZM232.504 566.594H233.089V563.391C233.089 562.531 233.109 561.861 233.148 561.379C233.2 560.884 233.33 560.461 233.539 560.109C233.747 559.745 234.047 559.452 234.437 559.23C234.828 558.996 235.264 558.879 235.746 558.879C236.423 558.879 237.035 559.133 237.582 559.641C237.946 559.979 238.174 560.396 238.265 560.891C238.369 561.372 238.422 562.062 238.422 562.961V566.594H240.375C241.13 566.594 241.703 566.776 242.093 567.141C242.497 567.492 242.699 567.948 242.699 568.508C242.699 569.224 242.412 569.725 241.839 570.012C241.28 570.298 240.472 570.441 239.418 570.441H238.422V580.246C238.422 581.079 238.448 581.724 238.5 582.18C238.565 582.622 238.721 582.987 238.968 583.273C239.229 583.547 239.645 583.684 240.218 583.684C240.531 583.684 240.954 583.632 241.488 583.527C242.022 583.41 242.438 583.352 242.738 583.352C243.168 583.352 243.552 583.527 243.89 583.879C244.242 584.217 244.418 584.641 244.418 585.148C244.418 586.008 243.949 586.665 243.011 587.121C242.074 587.577 240.726 587.805 238.968 587.805C237.302 587.805 236.039 587.525 235.179 586.965C234.32 586.405 233.754 585.63 233.48 584.641C233.22 583.651 233.089 582.329 233.089 580.676V570.441H232.386C231.618 570.441 231.032 570.259 230.629 569.895C230.225 569.53 230.023 569.068 230.023 568.508C230.023 567.948 230.231 567.492 230.648 567.141C231.078 566.776 231.696 566.594 232.504 566.594ZM251.722 569.152V584.562C251.722 585.63 251.468 586.438 250.961 586.984C250.453 587.531 249.808 587.805 249.027 587.805C248.246 587.805 247.608 587.525 247.113 586.965C246.631 586.405 246.39 585.604 246.39 584.562V569.309C246.39 568.254 246.631 567.46 247.113 566.926C247.608 566.392 248.246 566.125 249.027 566.125C249.808 566.125 250.453 566.392 250.961 566.926C251.468 567.46 251.722 568.202 251.722 569.152ZM249.086 563.645C248.343 563.645 247.705 563.417 247.172 562.961C246.651 562.505 246.39 561.861 246.39 561.027C246.39 560.272 246.657 559.654 247.191 559.172C247.738 558.677 248.369 558.43 249.086 558.43C249.776 558.43 250.388 558.651 250.922 559.094C251.455 559.536 251.722 560.181 251.722 561.027C251.722 561.848 251.462 562.492 250.941 562.961C250.42 563.417 249.802 563.645 249.086 563.645ZM256.82 566.594H258.089V564.992C258.089 563.326 258.298 562.004 258.714 561.027C259.144 560.038 259.86 559.322 260.863 558.879C261.879 558.423 263.265 558.195 265.023 558.195C268.135 558.195 269.691 558.957 269.691 560.48C269.691 560.975 269.528 561.398 269.203 561.75C268.877 562.102 268.493 562.277 268.05 562.277C267.842 562.277 267.484 562.238 266.976 562.16C266.468 562.082 266.039 562.043 265.687 562.043C264.724 562.043 264.105 562.329 263.832 562.902C263.558 563.462 263.422 564.27 263.422 565.324V566.594H264.73C266.761 566.594 267.777 567.206 267.777 568.43C267.777 569.302 267.504 569.855 266.957 570.09C266.423 570.324 265.681 570.441 264.73 570.441H263.422V584.562C263.422 585.617 263.168 586.424 262.66 586.984C262.165 587.531 261.52 587.805 260.726 587.805C259.971 587.805 259.339 587.531 258.832 586.984C258.337 586.424 258.089 585.617 258.089 584.562V570.441H256.625C255.83 570.441 255.218 570.266 254.789 569.914C254.359 569.549 254.144 569.081 254.144 568.508C254.144 567.232 255.036 566.594 256.82 566.594ZM276.41 569.152V584.562C276.41 585.63 276.156 586.438 275.648 586.984C275.14 587.531 274.496 587.805 273.714 587.805C272.933 587.805 272.295 587.525 271.8 586.965C271.319 586.405 271.078 585.604 271.078 584.562V569.309C271.078 568.254 271.319 567.46 271.8 566.926C272.295 566.392 272.933 566.125 273.714 566.125C274.496 566.125 275.14 566.392 275.648 566.926C276.156 567.46 276.41 568.202 276.41 569.152ZM273.773 563.645C273.031 563.645 272.393 563.417 271.859 562.961C271.338 562.505 271.078 561.861 271.078 561.027C271.078 560.272 271.345 559.654 271.879 559.172C272.425 558.677 273.057 558.43 273.773 558.43C274.463 558.43 275.075 558.651 275.609 559.094C276.143 559.536 276.41 560.181 276.41 561.027C276.41 561.848 276.149 562.492 275.629 562.961C275.108 563.417 274.489 563.645 273.773 563.645ZM301.058 581.203C301.058 581.867 300.856 582.577 300.453 583.332C300.062 584.087 299.457 584.81 298.636 585.5C297.829 586.177 296.807 586.724 295.57 587.141C294.333 587.557 292.94 587.766 291.39 587.766C288.096 587.766 285.524 586.809 283.675 584.895C281.826 582.967 280.902 580.389 280.902 577.16C280.902 574.973 281.325 573.039 282.172 571.359C283.018 569.68 284.242 568.384 285.843 567.473C287.445 566.548 289.359 566.086 291.586 566.086C292.966 566.086 294.229 566.288 295.375 566.691C296.533 567.095 297.51 567.616 298.304 568.254C299.112 568.892 299.724 569.576 300.14 570.305C300.57 571.021 300.785 571.691 300.785 572.316C300.785 572.954 300.544 573.495 300.062 573.938C299.593 574.38 299.02 574.602 298.343 574.602C297.901 574.602 297.53 574.491 297.23 574.27C296.944 574.035 296.618 573.664 296.254 573.156C295.602 572.167 294.919 571.424 294.203 570.93C293.5 570.435 292.601 570.188 291.507 570.188C289.932 570.188 288.662 570.806 287.699 572.043C286.735 573.267 286.254 574.947 286.254 577.082C286.254 578.085 286.377 579.009 286.625 579.855C286.872 580.689 287.23 581.405 287.699 582.004C288.168 582.59 288.734 583.039 289.398 583.352C290.062 583.651 290.791 583.801 291.586 583.801C292.653 583.801 293.565 583.553 294.32 583.059C295.088 582.564 295.765 581.809 296.351 580.793C296.677 580.194 297.028 579.725 297.406 579.387C297.783 579.048 298.246 578.879 298.793 578.879C299.444 578.879 299.984 579.126 300.414 579.621C300.843 580.116 301.058 580.643 301.058 581.203ZM319.203 584.797C317.914 585.799 316.664 586.555 315.453 587.062C314.255 587.557 312.907 587.805 311.41 587.805C310.043 587.805 308.838 587.538 307.797 587.004C306.768 586.457 305.974 585.721 305.414 584.797C304.854 583.872 304.574 582.87 304.574 581.789C304.574 580.331 305.036 579.087 305.961 578.059C306.885 577.03 308.155 576.34 309.769 575.988C310.108 575.91 310.948 575.734 312.289 575.461C313.63 575.188 314.776 574.94 315.726 574.719C316.69 574.484 317.731 574.204 318.851 573.879C318.786 572.473 318.5 571.444 317.992 570.793C317.497 570.129 316.462 569.797 314.886 569.797C313.532 569.797 312.51 569.986 311.82 570.363C311.143 570.741 310.557 571.307 310.062 572.062C309.58 572.818 309.235 573.319 309.027 573.566C308.832 573.801 308.402 573.918 307.738 573.918C307.139 573.918 306.618 573.729 306.175 573.352C305.746 572.961 305.531 572.466 305.531 571.867C305.531 570.93 305.863 570.018 306.527 569.133C307.191 568.247 308.226 567.518 309.632 566.945C311.039 566.372 312.79 566.086 314.886 566.086C317.23 566.086 319.073 566.366 320.414 566.926C321.755 567.473 322.699 568.345 323.246 569.543C323.806 570.741 324.086 572.329 324.086 574.309C324.086 575.559 324.079 576.62 324.066 577.492C324.066 578.365 324.06 579.335 324.047 580.402C324.047 581.405 324.209 582.453 324.535 583.547C324.873 584.628 325.043 585.324 325.043 585.637C325.043 586.184 324.782 586.685 324.261 587.141C323.754 587.583 323.174 587.805 322.523 587.805C321.976 587.805 321.436 587.551 320.902 587.043C320.368 586.522 319.802 585.773 319.203 584.797ZM318.851 577.082C318.07 577.368 316.931 577.674 315.433 578C313.949 578.312 312.92 578.547 312.347 578.703C311.774 578.846 311.227 579.139 310.707 579.582C310.186 580.012 309.925 580.617 309.925 581.398C309.925 582.206 310.231 582.896 310.843 583.469C311.455 584.029 312.256 584.309 313.246 584.309C314.3 584.309 315.27 584.081 316.156 583.625C317.054 583.156 317.712 582.557 318.129 581.828C318.61 581.021 318.851 579.693 318.851 577.844V577.082ZM328.793 566.594H329.379V563.391C329.379 562.531 329.398 561.861 329.437 561.379C329.489 560.884 329.619 560.461 329.828 560.109C330.036 559.745 330.336 559.452 330.726 559.23C331.117 558.996 331.553 558.879 332.035 558.879C332.712 558.879 333.324 559.133 333.871 559.641C334.235 559.979 334.463 560.396 334.554 560.891C334.658 561.372 334.711 562.062 334.711 562.961V566.594H336.664C337.419 566.594 337.992 566.776 338.382 567.141C338.786 567.492 338.988 567.948 338.988 568.508C338.988 569.224 338.701 569.725 338.129 570.012C337.569 570.298 336.761 570.441 335.707 570.441H334.711V580.246C334.711 581.079 334.737 581.724 334.789 582.18C334.854 582.622 335.01 582.987 335.257 583.273C335.518 583.547 335.935 583.684 336.507 583.684C336.82 583.684 337.243 583.632 337.777 583.527C338.311 583.41 338.727 583.352 339.027 583.352C339.457 583.352 339.841 583.527 340.179 583.879C340.531 584.217 340.707 584.641 340.707 585.148C340.707 586.008 340.238 586.665 339.3 587.121C338.363 587.577 337.015 587.805 335.257 587.805C333.591 587.805 332.328 587.525 331.468 586.965C330.609 586.405 330.043 585.63 329.769 584.641C329.509 583.651 329.379 582.329 329.379 580.676V570.441H328.675C327.907 570.441 327.321 570.259 326.918 569.895C326.514 569.53 326.312 569.068 326.312 568.508C326.312 567.948 326.52 567.492 326.937 567.141C327.367 566.776 327.985 566.594 328.793 566.594ZM348.011 569.152V584.562C348.011 585.63 347.757 586.438 347.25 586.984C346.742 587.531 346.097 587.805 345.316 587.805C344.535 587.805 343.897 587.525 343.402 586.965C342.92 586.405 342.679 585.604 342.679 584.562V569.309C342.679 568.254 342.92 567.46 343.402 566.926C343.897 566.392 344.535 566.125 345.316 566.125C346.097 566.125 346.742 566.392 347.25 566.926C347.757 567.46 348.011 568.202 348.011 569.152ZM345.375 563.645C344.632 563.645 343.994 563.417 343.461 562.961C342.94 562.505 342.679 561.861 342.679 561.027C342.679 560.272 342.946 559.654 343.48 559.172C344.027 558.677 344.658 558.43 345.375 558.43C346.065 558.43 346.677 558.651 347.211 559.094C347.744 559.536 348.011 560.181 348.011 561.027C348.011 561.848 347.751 562.492 347.23 562.961C346.709 563.417 346.091 563.645 345.375 563.645ZM373.5 576.965C373.5 578.553 373.252 580.018 372.757 581.359C372.263 582.701 371.547 583.853 370.609 584.816C369.672 585.78 368.552 586.522 367.25 587.043C365.948 587.551 364.483 587.805 362.855 587.805C361.241 587.805 359.789 587.544 358.5 587.023C357.211 586.503 356.091 585.76 355.14 584.797C354.203 583.82 353.487 582.674 352.992 581.359C352.51 580.031 352.269 578.566 352.269 576.965C352.269 575.35 352.517 573.872 353.011 572.531C353.506 571.19 354.216 570.044 355.14 569.094C356.065 568.143 357.185 567.414 358.5 566.906C359.815 566.385 361.267 566.125 362.855 566.125C364.47 566.125 365.935 566.385 367.25 566.906C368.565 567.427 369.691 568.169 370.629 569.133C371.566 570.096 372.276 571.242 372.757 572.57C373.252 573.898 373.5 575.363 373.5 576.965ZM368.148 576.965C368.148 574.79 367.666 573.098 366.703 571.887C365.752 570.676 364.47 570.07 362.855 570.07C361.813 570.07 360.895 570.344 360.101 570.891C359.307 571.424 358.695 572.219 358.265 573.273C357.836 574.328 357.621 575.559 357.621 576.965C357.621 578.358 357.829 579.576 358.246 580.617C358.675 581.659 359.281 582.46 360.062 583.02C360.856 583.566 361.787 583.84 362.855 583.84C364.47 583.84 365.752 583.234 366.703 582.023C367.666 580.799 368.148 579.113 368.148 576.965ZM382.562 569.074V569.719C383.5 568.482 384.522 567.577 385.629 567.004C386.748 566.418 388.031 566.125 389.476 566.125C390.882 566.125 392.139 566.431 393.246 567.043C394.352 567.655 395.179 568.521 395.726 569.641C396.078 570.292 396.306 570.995 396.41 571.75C396.514 572.505 396.566 573.469 396.566 574.641V584.562C396.566 585.63 396.319 586.438 395.824 586.984C395.342 587.531 394.711 587.805 393.929 587.805C393.135 587.805 392.491 587.525 391.996 586.965C391.501 586.405 391.254 585.604 391.254 584.562V575.676C391.254 573.918 391.006 572.577 390.511 571.652C390.03 570.715 389.06 570.246 387.601 570.246C386.651 570.246 385.785 570.533 385.004 571.105C384.222 571.665 383.649 572.44 383.285 573.43C383.024 574.224 382.894 575.708 382.894 577.883V584.562C382.894 585.643 382.64 586.457 382.132 587.004C381.638 587.538 380.993 587.805 380.199 587.805C379.431 587.805 378.799 587.525 378.304 586.965C377.81 586.405 377.562 585.604 377.562 584.562V569.152C377.562 568.137 377.783 567.382 378.226 566.887C378.669 566.379 379.274 566.125 380.043 566.125C380.511 566.125 380.935 566.236 381.312 566.457C381.69 566.678 381.989 567.01 382.211 567.453C382.445 567.896 382.562 568.436 382.562 569.074ZM418.656 584.27V575.188L411.664 564.348C411.052 563.371 410.616 562.609 410.355 562.062C410.108 561.516 409.984 561.04 409.984 560.637C409.984 559.973 410.238 559.4 410.746 558.918C411.267 558.436 411.905 558.195 412.66 558.195C413.454 558.195 414.053 558.423 414.457 558.879C414.873 559.322 415.492 560.214 416.312 561.555L421.664 570.246L427.074 561.555C427.399 561.021 427.673 560.572 427.894 560.207C428.116 559.842 428.356 559.504 428.617 559.191C428.89 558.866 429.19 558.618 429.515 558.449C429.841 558.28 430.238 558.195 430.707 558.195C431.436 558.195 432.041 558.436 432.523 558.918C433.018 559.387 433.265 559.934 433.265 560.559C433.265 561.066 433.142 561.574 432.894 562.082C432.647 562.59 432.224 563.293 431.625 564.191L424.457 575.188V584.27C424.457 585.454 424.183 586.34 423.636 586.926C423.089 587.512 422.393 587.805 421.547 587.805C420.687 587.805 419.991 587.518 419.457 586.945C418.923 586.359 418.656 585.467 418.656 584.27ZM449.242 578.273H438.812C438.825 579.484 439.066 580.552 439.535 581.477C440.017 582.401 440.648 583.098 441.429 583.566C442.224 584.035 443.096 584.27 444.047 584.27C444.685 584.27 445.264 584.198 445.785 584.055C446.319 583.898 446.833 583.664 447.328 583.352C447.823 583.026 448.278 582.681 448.695 582.316C449.112 581.952 449.652 581.457 450.316 580.832C450.589 580.598 450.98 580.48 451.488 580.48C452.035 580.48 452.477 580.63 452.816 580.93C453.155 581.229 453.324 581.652 453.324 582.199C453.324 582.681 453.135 583.247 452.757 583.898C452.38 584.536 451.807 585.155 451.039 585.754C450.283 586.34 449.326 586.828 448.168 587.219C447.022 587.609 445.7 587.805 444.203 587.805C440.778 587.805 438.116 586.828 436.214 584.875C434.313 582.922 433.363 580.272 433.363 576.926C433.363 575.35 433.597 573.892 434.066 572.551C434.535 571.197 435.218 570.038 436.117 569.074C437.015 568.111 438.122 567.375 439.437 566.867C440.752 566.346 442.211 566.086 443.812 566.086C445.895 566.086 447.679 566.529 449.164 567.414C450.661 568.286 451.781 569.419 452.523 570.812C453.265 572.206 453.636 573.625 453.636 575.07C453.636 576.411 453.252 577.284 452.484 577.688C451.716 578.078 450.635 578.273 449.242 578.273ZM438.812 575.246H448.48C448.35 573.423 447.855 572.062 446.996 571.164C446.149 570.253 445.03 569.797 443.636 569.797C442.308 569.797 441.214 570.259 440.355 571.184C439.509 572.095 438.994 573.449 438.812 575.246ZM458.441 566.594H459.027V563.391C459.027 562.531 459.047 561.861 459.086 561.379C459.138 560.884 459.268 560.461 459.476 560.109C459.685 559.745 459.984 559.452 460.375 559.23C460.765 558.996 461.201 558.879 461.683 558.879C462.36 558.879 462.972 559.133 463.519 559.641C463.884 559.979 464.112 560.396 464.203 560.891C464.307 561.372 464.359 562.062 464.359 562.961V566.594H466.312C467.067 566.594 467.64 566.776 468.031 567.141C468.435 567.492 468.636 567.948 468.636 568.508C468.636 569.224 468.35 569.725 467.777 570.012C467.217 570.298 466.41 570.441 465.355 570.441H464.359V580.246C464.359 581.079 464.385 581.724 464.437 582.18C464.502 582.622 464.658 582.987 464.906 583.273C465.166 583.547 465.583 583.684 466.156 583.684C466.468 583.684 466.892 583.632 467.425 583.527C467.959 583.41 468.376 583.352 468.675 583.352C469.105 583.352 469.489 583.527 469.828 583.879C470.179 584.217 470.355 584.641 470.355 585.148C470.355 586.008 469.886 586.665 468.949 587.121C468.011 587.577 466.664 587.805 464.906 587.805C463.239 587.805 461.976 587.525 461.117 586.965C460.257 586.405 459.691 585.63 459.418 584.641C459.157 583.651 459.027 582.329 459.027 580.676V570.441H458.324C457.556 570.441 456.97 570.259 456.566 569.895C456.162 569.53 455.961 569.068 455.961 568.508C455.961 567.948 456.169 567.492 456.586 567.141C457.015 566.776 457.634 566.594 458.441 566.594ZM484.086 574.914L483.461 565.559C483.343 563.736 483.285 562.427 483.285 561.633C483.285 560.552 483.565 559.712 484.125 559.113C484.698 558.501 485.446 558.195 486.371 558.195C487.491 558.195 488.239 558.586 488.617 559.367C488.994 560.135 489.183 561.249 489.183 562.707C489.183 563.566 489.138 564.439 489.047 565.324L488.207 574.953C488.116 576.099 487.92 576.978 487.621 577.59C487.321 578.202 486.826 578.508 486.136 578.508C485.433 578.508 484.945 578.215 484.672 577.629C484.398 577.03 484.203 576.125 484.086 574.914ZM486.254 587.766C485.459 587.766 484.763 587.512 484.164 587.004C483.578 586.483 483.285 585.76 483.285 584.836C483.285 584.029 483.565 583.345 484.125 582.785C484.698 582.212 485.394 581.926 486.214 581.926C487.035 581.926 487.731 582.212 488.304 582.785C488.89 583.345 489.183 584.029 489.183 584.836C489.183 585.747 488.89 586.464 488.304 586.984C487.718 587.505 487.035 587.766 486.254 587.766Z" fill="#989FB0"/>
</svg>
