<svg width="923" height="236" viewBox="0 0 923 236" fill="none" xmlns="http://www.w3.org/2000/svg">
<path d="M713.493 61.5312H663.68C660.75 61.5312 657.82 64.4614 656.355 67.3916L635.844 196.319C635.844 199.249 637.309 200.714 640.239 200.714H666.61C669.541 200.714 671.006 199.249 671.006 196.319L676.866 159.692C676.866 156.762 679.796 153.831 684.191 153.831H700.307C734.004 153.831 753.05 137.715 757.446 105.484C760.376 92.298 757.445 80.5773 751.585 73.2519C742.795 65.9265 729.609 61.5312 713.493 61.5312ZM719.353 109.879C716.423 127.46 703.237 127.46 690.052 127.46H681.261L687.122 93.7631C687.122 92.298 688.587 90.8329 691.517 90.8329H694.447C703.238 90.8329 712.028 90.8329 716.423 96.6932C719.353 98.1583 719.353 102.554 719.353 109.879Z" fill="#139AD6"/>
<path d="M354.548 61.5332H304.735C301.805 61.5332 298.875 64.4634 297.41 67.3935L276.898 196.321C276.898 199.251 278.364 200.716 281.294 200.716H304.735C307.665 200.716 310.595 197.786 312.06 194.856L317.921 159.694C317.921 156.763 320.851 153.833 325.246 153.833H341.362C375.059 153.833 394.105 137.717 398.5 105.486C401.43 92.2999 398.5 80.5793 392.64 73.2539C383.849 65.9285 372.129 61.5332 354.548 61.5332ZM360.408 109.881C357.478 127.462 344.292 127.462 331.106 127.462H323.781L329.641 93.765C329.641 92.2999 331.106 90.8348 334.037 90.8348H336.967C345.757 90.8348 354.548 90.8348 358.943 96.6952C360.408 98.1602 361.873 102.556 360.408 109.881Z" fill="#263B80"/>
<path d="M505.452 108.417H482.01C480.545 108.417 477.615 109.882 477.615 111.347L476.15 118.672L474.685 115.742C468.825 108.417 458.569 105.486 446.849 105.486C420.477 105.486 397.036 125.997 392.64 153.834C389.71 168.485 394.106 181.671 401.431 190.461C408.756 199.252 419.012 202.182 432.198 202.182C454.174 202.182 465.895 188.996 465.895 188.996L464.43 196.321C464.43 199.252 465.895 200.717 468.825 200.717H490.801C493.731 200.717 496.661 197.786 498.126 194.856L511.312 112.812C509.847 111.347 506.917 108.417 505.452 108.417ZM471.755 155.299C468.825 168.485 458.569 178.74 443.918 178.74C436.593 178.74 430.733 175.81 427.802 172.88C424.872 168.485 423.407 162.625 423.407 155.299C424.872 142.113 436.593 131.858 449.779 131.858C457.104 131.858 461.499 134.788 465.895 137.718C470.29 142.113 471.755 149.439 471.755 155.299Z" fill="#263B80"/>
<path d="M862.932 108.415H839.491C838.026 108.415 835.096 109.88 835.096 111.345L833.631 118.67L832.165 115.74C826.305 108.415 816.05 105.484 804.329 105.484C777.958 105.484 754.516 125.996 750.121 153.832C747.191 168.483 751.586 181.669 758.911 190.459C766.237 199.25 776.492 202.18 789.678 202.18C811.654 202.18 823.375 188.994 823.375 188.994L821.91 196.319C821.91 199.25 823.375 200.715 826.305 200.715H848.281C851.212 200.715 854.142 197.785 855.607 194.854L868.793 112.81C867.327 111.345 865.862 108.415 862.932 108.415ZM829.235 155.297C826.305 168.483 816.05 178.738 801.399 178.738C794.073 178.738 788.213 175.808 785.283 172.878C782.353 168.483 780.888 162.623 780.888 155.297C782.353 142.111 794.073 131.856 807.259 131.856C814.585 131.856 818.98 134.786 823.375 137.716C829.235 142.111 830.7 149.437 829.235 155.297Z" fill="#139AD6"/>
<path d="M632.917 108.418H608.01C605.08 108.418 603.615 109.883 602.15 111.348L569.918 161.161L555.267 114.278C553.802 111.348 552.337 109.883 547.942 109.883H524.501C521.571 109.883 520.105 112.813 520.105 115.743L546.477 193.393L521.571 228.555C520.105 231.485 521.571 235.88 524.501 235.88H547.942C550.872 235.88 552.337 234.415 553.802 232.95L634.382 117.208C638.777 112.813 635.847 108.418 632.917 108.418Z" fill="#263B80"/>
<path d="M890.769 65.9288L870.258 197.786C870.258 200.716 871.723 202.181 874.653 202.181H895.164C898.094 202.181 901.024 199.251 902.49 196.321L923.001 67.3938C923.001 64.4637 921.536 62.9986 918.605 62.9986H895.164C893.699 61.5335 892.234 62.9986 890.769 65.9288Z" fill="#139AD6"/>
<path d="M168.484 17.581C158.229 5.86031 139.183 0 112.811 0H39.5572C35.162 0 30.7667 4.39522 29.3016 8.79047L0 200.716C0 205.111 2.93016 208.042 5.86033 208.042H51.2779L62.9985 136.253V139.183C64.4636 134.788 68.8588 130.392 73.2541 130.392H95.2303C137.718 130.392 169.949 112.811 180.205 64.4636C180.205 62.9985 180.205 61.5334 180.205 60.0683C178.74 60.0683 178.74 60.0683 180.205 60.0683C181.67 41.0223 178.74 29.3016 168.484 17.581Z" fill="#263B80"/>
<path d="M178.744 60.0684C178.744 61.5334 178.744 62.9985 178.744 64.4636C168.488 114.276 136.257 130.392 93.7693 130.392H71.7931C67.3979 130.392 63.0026 134.788 61.5375 139.183L46.8867 228.553C46.8867 231.483 48.3518 234.413 52.747 234.413H90.8392C95.2344 234.413 99.6297 231.483 99.6297 227.088V225.623L106.955 180.205V177.275C106.955 172.88 111.35 169.949 115.746 169.949H121.606C158.233 169.949 187.535 155.299 194.86 111.346C197.79 93.7652 196.325 77.6493 187.535 67.3938C186.069 64.4636 183.139 61.5334 178.744 60.0684Z" fill="#139AD6"/>
<path d="M168.482 55.6726C167.017 55.6726 165.552 54.2075 164.087 54.2075C162.622 54.2075 161.157 54.2075 159.691 52.7424C153.831 51.2773 147.971 51.2773 140.645 51.2773H83.5072C82.0422 51.2773 80.5771 51.2773 79.112 52.7424C76.1818 54.2075 74.7167 57.1376 74.7167 60.0678L62.9961 136.252V139.182C64.4612 134.787 68.8564 130.392 73.2517 130.392H95.2279C137.715 130.392 169.947 112.811 180.203 64.4631C180.203 62.998 180.203 61.5329 181.668 60.0678C178.738 58.6027 177.272 57.1377 174.342 57.1377C169.947 55.6726 169.947 55.6726 168.482 55.6726Z" fill="#232C65"/>
</svg>
