<svg width="923" height="289" viewBox="0 0 923 289" fill="none" xmlns="http://www.w3.org/2000/svg">
<path d="M919.885 85.2428C911.507 61.3125 888.675 44.1282 861.857 44.1282H861.295C843.862 44.1282 828.15 51.3768 816.966 63.0132C805.763 51.3768 790.051 44.1282 772.636 44.1282H772.075C756.751 44.1282 742.742 49.7336 731.984 59.0122V54.2956C731.616 49.5982 727.746 45.9068 722.967 45.9068H681.83C676.799 45.9068 672.736 49.9659 672.736 55.0107V278.173C672.736 283.218 676.799 287.278 681.83 287.278H722.967C727.552 287.278 731.326 283.857 731.926 279.43L731.906 119.224C731.902 118.689 731.928 118.153 731.983 117.62C732.641 110.468 737.885 104.592 746.167 103.857H753.751C757.215 104.166 760.136 105.384 762.439 107.22C766.018 110.062 768.012 114.431 768.012 119.224L768.166 278.637C768.166 283.682 772.249 287.761 777.26 287.761H818.397C823.254 287.761 827.201 283.895 827.433 279.082L827.414 119.012C827.395 113.754 829.833 108.999 834.109 106.177C836.218 104.823 838.753 103.915 841.674 103.645H849.259C858.16 104.418 863.539 111.164 863.52 119.012L863.675 278.212C863.675 283.257 867.758 287.316 872.769 287.316H913.906C918.917 287.316 923 283.257 923 278.212V106.989C923 95.3133 921.685 90.3457 919.885 85.2428ZM641.397 46.4882H617.869V8.2924C617.868 3.71114 614.153 0 609.568 0C609.026 0 608.503 0.0767104 608.001 0.173694C581.917 7.32585 587.142 43.4148 539.523 46.4882H534.898C534.202 46.4882 533.544 46.5846 532.906 46.7199C528.842 47.629 525.785 51.2431 525.785 55.5734V96.6683C525.785 101.675 529.868 105.753 534.898 105.753H559.724L559.685 280.012C559.685 284.979 563.71 289 568.682 289H609.355C614.308 289 618.333 284.979 618.333 280.012L618.352 105.753H641.397C646.409 105.753 650.491 101.675 650.491 96.6683V55.5734C650.491 50.567 646.409 46.4882 641.397 46.4882Z" fill="#00BAF2"/>
<path d="M493.394 46.4884H452.257C447.246 46.4884 443.182 50.5672 443.182 55.5731V140.547C443.085 145.805 438.829 150.019 433.546 150.019H416.325C410.985 150.019 406.67 145.728 406.67 140.392L406.515 55.5736C406.515 50.5672 402.432 46.4889 397.421 46.4889H356.284C351.253 46.4889 347.19 50.5672 347.19 55.5736V148.705C347.19 184.078 372.441 209.304 407.869 209.304C407.869 209.304 434.456 209.304 435.268 209.458C440.067 209.999 443.801 214.02 443.801 218.968C443.801 223.859 440.144 227.86 435.404 228.459C435.172 228.498 434.959 228.556 434.707 228.595L374.55 228.807C369.519 228.807 365.456 232.885 365.456 237.892V278.968C365.456 283.994 369.519 288.053 374.55 288.053H441.809C477.256 288.053 502.488 262.847 502.488 227.454V55.5736C502.488 50.5672 498.424 46.4884 493.394 46.4884ZM95.2183 121.788V147.149C95.2183 152.464 90.9034 156.794 85.5825 156.794L59.4801 156.813V105.995H85.5825C90.9034 105.995 95.2183 110.286 95.2183 115.621V121.788ZM98.8367 46.4785H8.92003C3.98585 46.4785 0 50.4801 0 55.3895V95.6537C0 95.731 0.019197 95.8083 0.019197 95.8855C0.019197 96.0789 0 96.2724 0 96.4461V278.688C0 283.636 3.7149 287.676 8.32054 287.792H50.2304C55.2419 287.792 59.3243 283.733 59.3243 278.707L59.4795 216.252H98.8361C131.768 216.252 154.717 193.424 154.717 160.389V102.42C154.717 69.3848 131.769 46.4785 98.8367 46.4785ZM265.901 218.267V224.684C265.901 225.206 265.824 225.709 265.747 226.192C265.65 226.645 265.521 227.091 265.359 227.526C264.082 231.121 260.483 233.73 256.207 233.73H239.083C233.742 233.73 229.389 229.671 229.389 224.684V216.933C229.389 216.837 229.369 216.74 229.369 216.643L229.389 196.018V189.562L229.408 189.504C229.427 184.536 233.742 180.516 239.083 180.516H256.207C261.567 180.516 265.901 184.556 265.901 189.562L265.901 218.267ZM259.362 46.7147H202.281C197.231 46.7147 193.148 50.542 193.148 55.2388V71.2248C193.148 71.3212 193.168 71.4374 193.168 71.5338C193.168 71.65 193.148 71.7656 193.148 71.8817V93.7826C193.148 98.7507 197.483 102.81 202.823 102.81H257.175C261.471 103.486 264.876 106.618 265.36 111.508V116.804C264.876 121.463 261.51 124.865 257.407 125.251H230.493C194.696 125.251 169.194 149.008 169.194 182.371V230.155C169.194 263.325 191.117 286.926 226.661 286.926H301.253C314.643 286.926 325.498 276.797 325.498 264.33V108.396C325.498 70.587 305.994 46.7147 259.362 46.7147Z" fill="#1F336B"/>
</svg>
