<svg width="16" height="16" viewBox="0 0 16 16" fill="none" xmlns="http://www.w3.org/2000/svg">
<g opacity="1" clip-path="url(#clip0_1736_6008)">
<path d="M15 14H3.66667C3.22464 14 2.80072 13.8244 2.48816 13.5118C2.17559 13.1993 2 12.7754 2 12.3333V1C2 0.734784 1.89464 0.48043 1.70711 0.292893C1.51957 0.105357 1.26522 0 1 0C0.734784 0 0.48043 0.105357 0.292893 0.292893C0.105357 0.48043 0 0.734784 0 1L0 12.3333C0.00105878 13.3055 0.387707 14.2375 1.07511 14.9249C1.76252 15.6123 2.69453 15.9989 3.66667 16H15C15.2652 16 15.5196 15.8946 15.7071 15.7071C15.8946 15.5196 16 15.2652 16 15C16 14.7348 15.8946 14.4804 15.7071 14.2929C15.5196 14.1054 15.2652 14 15 14Z" fill="#090029"/>
<path d="M6.33301 6C6.06779 6 5.81344 6.10536 5.6259 6.29289C5.43836 6.48043 5.33301 6.73478 5.33301 7V11.6667C5.33301 11.9319 5.43836 12.1862 5.6259 12.3738C5.81344 12.5613 6.06779 12.6667 6.33301 12.6667C6.59822 12.6667 6.85258 12.5613 7.04011 12.3738C7.22765 12.1862 7.33301 11.9319 7.33301 11.6667V7C7.33301 6.73478 7.22765 6.48043 7.04011 6.29289C6.85258 6.10536 6.59822 6 6.33301 6Z" fill="#090029"/>
<path d="M9.33301 9V11.6667C9.33301 11.9319 9.43836 12.1862 9.6259 12.3738C9.81344 12.5613 10.0678 12.6667 10.333 12.6667C10.5982 12.6667 10.8526 12.5613 11.0401 12.3738C11.2277 12.1862 11.333 11.9319 11.333 11.6667V9C11.333 8.73478 11.2277 8.48043 11.0401 8.29289C10.8526 8.10536 10.5982 8 10.333 8C10.0678 8 9.81344 8.10536 9.6259 8.29289C9.43836 8.48043 9.33301 8.73478 9.33301 9Z" fill="#090029"/>
<path d="M13.333 6.33203V11.6654C13.333 11.9306 13.4384 12.1849 13.6259 12.3725C13.8134 12.56 14.0678 12.6654 14.333 12.6654C14.5982 12.6654 14.8526 12.56 15.0401 12.3725C15.2277 12.1849 15.333 11.9306 15.333 11.6654V6.33203C15.333 6.06681 15.2277 5.81246 15.0401 5.62492C14.8526 5.43739 14.5982 5.33203 14.333 5.33203C14.0678 5.33203 13.8134 5.43739 13.6259 5.62492C13.4384 5.81246 13.333 6.06681 13.333 6.33203Z" fill="#090029"/>
<path d="M3.99972 4.99929C4.22669 4.99977 4.44696 4.92235 4.62372 4.77996L6.14239 3.56596C6.44905 3.31976 6.83586 3.19557 7.22852 3.21722C7.62118 3.23888 7.99199 3.40487 8.26972 3.68329C8.91065 4.31608 9.76447 4.68721 10.6644 4.7242C11.5643 4.76118 12.4457 4.46136 13.1364 3.88329L15.6457 1.75996C15.7526 1.67732 15.8417 1.57388 15.9075 1.45587C15.9733 1.33786 16.0146 1.20773 16.0287 1.07335C16.0428 0.938967 16.0296 0.803113 15.9897 0.673991C15.9499 0.54487 15.8843 0.42516 15.7969 0.32209C15.7096 0.21902 15.6022 0.134728 15.4813 0.0743035C15.3605 0.0138792 15.2286 -0.0214238 15.0937 -0.0294738C14.9589 -0.0375238 14.8237 -0.0181538 14.6966 0.0274667C14.5694 0.0730871 14.4527 0.144012 14.3537 0.235957L11.8451 2.35929C11.5378 2.6155 11.146 2.74792 10.7463 2.73066C10.3466 2.7134 9.96775 2.5477 9.68372 2.26596C9.05843 1.63891 8.22359 1.26489 7.33943 1.21567C6.45526 1.16646 5.58407 1.44552 4.89305 1.99929L3.37505 3.21862C3.21333 3.34809 3.0958 3.52459 3.03872 3.72373C2.98163 3.92288 2.9878 4.13483 3.05638 4.33032C3.12496 4.5258 3.25255 4.69516 3.42154 4.815C3.59052 4.93484 3.79256 4.99923 3.99972 4.99929Z" fill="#090029"/>
</g>
<defs>
<clipPath id="clip0_1736_6008">
<rect width="16" height="16" fill="white"/>
</clipPath>
</defs>
</svg>
