<svg width="923" height="384" viewBox="0 0 923 384" fill="none" xmlns="http://www.w3.org/2000/svg">
<path fill-rule="evenodd" clip-rule="evenodd" d="M923.001 198.409C923.001 132.785 891.209 81.0039 830.445 81.0039C769.424 81.0039 732.504 132.785 732.504 197.896C732.504 275.055 776.09 314.019 838.649 314.019C869.159 314.019 892.234 307.098 909.669 297.357V246.088C892.234 254.804 872.236 260.187 846.853 260.187C821.984 260.187 799.934 251.471 797.114 221.223H922.488C922.488 217.891 923.001 204.561 923.001 198.409ZM796.345 174.056C796.345 145.089 814.036 133.041 830.188 133.041C845.828 133.041 862.493 145.089 862.493 174.056H796.345Z" fill="#32325D"/>
<path fill-rule="evenodd" clip-rule="evenodd" d="M633.538 81.0039C608.412 81.0039 592.259 92.7956 583.286 100.999L579.953 85.1054H523.547V384L587.644 370.414L587.901 297.869C597.131 304.534 610.719 314.019 633.281 314.019C679.175 314.019 720.967 277.105 720.967 195.845C720.71 121.506 678.406 81.0039 633.538 81.0039ZM618.155 257.624C603.028 257.624 594.054 252.24 587.901 245.575L587.644 150.473C594.31 143.039 603.54 137.912 618.155 137.912C641.486 137.912 657.638 164.059 657.638 197.639C657.638 231.989 641.742 257.624 618.155 257.624Z" fill="#32325D"/>
<path fill-rule="evenodd" clip-rule="evenodd" d="M499.701 0L435.348 13.5861V65.8799L499.701 52.0374V0Z" fill="#32325D"/>
<path fill-rule="evenodd" clip-rule="evenodd" d="M435.348 85.3613H499.701V309.661H435.348V85.3613Z" fill="#32325D"/>
<path fill-rule="evenodd" clip-rule="evenodd" d="M366.381 104.332L362.279 85.3626H306.898V309.662H370.996V157.651C386.123 137.913 411.762 141.501 419.71 144.321V85.3626C411.505 82.2865 381.508 76.6469 366.381 104.332Z" fill="#32325D"/>
<path fill-rule="evenodd" clip-rule="evenodd" d="M238.183 29.7363L175.624 43.0661L175.367 248.396C175.367 286.335 203.826 314.276 241.772 314.276C262.796 314.276 278.179 310.431 286.64 305.817V253.779C278.436 257.112 237.926 268.903 237.926 230.965V139.963H286.64V85.3625H237.926L238.183 29.7363Z" fill="#32325D"/>
<path fill-rule="evenodd" clip-rule="evenodd" d="M64.8665 150.473C64.8665 140.475 73.071 136.63 86.6596 136.63C106.145 136.63 130.759 142.526 150.244 153.036V92.7956C128.964 84.3363 107.94 81.0039 86.6596 81.0039C34.6126 81.0039 0 108.176 0 153.549C0 224.299 97.4279 213.02 97.4279 243.525C97.4279 255.316 87.1724 259.162 72.8146 259.162C51.5343 259.162 24.357 250.446 2.82028 238.654V299.664C26.6645 309.917 50.7651 314.275 72.8146 314.275C126.144 314.275 162.807 287.872 162.807 241.987C162.551 165.597 64.8665 179.183 64.8665 150.473Z" fill="#32325D"/>
</svg>
