<svg width="16" height="16" viewBox="0 0 16 16" fill="none" xmlns="http://www.w3.org/2000/svg">
<g clip-path="url(#clip0_2027_11421)">
<path opacity="1" d="M9.99969 4C9.99969 1.794 8.20569 0 5.99969 0C3.79369 0 1.99969 1.794 1.99969 4C1.99969 6.206 3.79369 8 5.99969 8C8.20569 8 9.99969 6.206 9.99969 4ZM5.99969 6C4.89702 6 3.99969 5.10267 3.99969 4C3.99969 2.89733 4.89702 2 5.99969 2C7.10236 2 7.99969 2.89733 7.99969 4C7.99969 5.10267 7.10236 6 5.99969 6ZM5.99169 10.2093C6.06036 10.7573 5.67169 11.2567 5.12302 11.3253C3.37169 11.544 1.99902 13.158 1.99902 15C1.99902 15.5527 1.55169 16 0.999023 16C0.446357 16 -0.000976562 15.5527 -0.000976562 15C-0.000976562 12.1673 2.14102 9.682 4.87502 9.34133C5.42036 9.27067 5.92236 9.66133 5.99102 10.21L5.99169 10.2093ZM15.333 12.332L14.9077 12.0813C14.9637 11.84 14.9997 11.5913 14.9997 11.3327C14.9997 11.074 14.9637 10.826 14.9077 10.584L15.333 10.3333C15.809 10.0533 15.9677 9.44 15.687 8.964C15.4064 8.488 14.7937 8.33067 14.3177 8.61L13.8857 8.86467C13.537 8.55067 13.123 8.31467 12.6657 8.16933V7.666C12.6657 7.11333 12.2184 6.666 11.6657 6.666C11.113 6.666 10.6657 7.11333 10.6657 7.666V8.16933C10.2084 8.31467 9.79436 8.55067 9.44569 8.86467L9.01369 8.61C8.53836 8.33133 7.92569 8.488 7.64436 8.964C7.36436 9.44 7.52236 10.0527 7.99836 10.3333L8.42369 10.584C8.36769 10.8253 8.33169 11.074 8.33169 11.3327C8.33169 11.5913 8.36769 11.8393 8.42369 12.0813L7.99836 12.332C7.52236 12.612 7.36369 13.2253 7.64436 13.7013C7.83102 14.018 8.16436 14.194 8.50702 14.194C8.67969 14.194 8.85436 14.1493 9.01369 14.0553L9.44569 13.8007C9.79436 14.1147 10.2084 14.3507 10.6657 14.496V14.9993C10.6657 15.552 11.113 15.9993 11.6657 15.9993C12.2184 15.9993 12.6657 15.552 12.6657 14.9993V14.496C13.123 14.3507 13.537 14.1147 13.8857 13.8007L14.3177 14.0553C14.477 14.1493 14.6517 14.194 14.8244 14.194C15.167 14.194 15.5004 14.018 15.687 13.7013C15.967 13.2253 15.809 12.6127 15.333 12.332ZM11.6664 12.3327C11.115 12.3327 10.6664 11.884 10.6664 11.3327C10.6664 10.7813 11.115 10.3327 11.6664 10.3327C12.2177 10.3327 12.6664 10.7813 12.6664 11.3327C12.6664 11.884 12.2177 12.3327 11.6664 12.3327Z" fill="#090029"/>
</g>
<defs>
<clipPath id="clip0_2027_11421">
<rect width="16" height="16" fill="white"/>
</clipPath>
</defs>
</svg>
