<svg id="vs" xmlns="http://www.w3.org/2000/svg" width="791.317" height="792.567" viewBox="0 0 791.317 792.567">
  <rect id="Rectangle_2813" width="791.317" height="792.567" fill="none"/>
  <path id="Path_11442" d="M46,506.47c13.126-39.378,26.877-78.757,40-118.135,36.253-108.759,73.131-216.893,109.384-325.652a9.706,9.706,0,0,1,10.626-8.126H549.792V506.47Zm370.656-339.4H292.9V307.078h76.881v47.5H292.9v45.629H416.031V260.2H339.15V212.7h77.507Z" transform="translate(241.524 286.096)" fill="#ef5488"/>
  <path id="Path_11443" d="M501.917,0c-13.126,39.378-26.877,78.757-40,118.76C425.661,227.519,388.783,336.278,352.53,444.412c-1.875,5.625-3.75,7.5-10,7.5H7.5a33.03,33.03,0,0,1-7.5-.625V0ZM140.637,113.76,174.39,341.279h80.632C266.9,265.648,278.774,190.016,290.65,113.76l-45.629-6.876L215.643,293.775h-1.25c-9.376-62.505-18.752-124.385-28.127-186.891l-45.629,6.876" fill="#ef5488"/>
  <path id="Path_11444" d="M209.26,72.5v45.629H131.754v47.5h76.881V305.645H85.5V260.016h76.881v-47.5H85.5V72.5Z" transform="translate(448.92 380.663)" fill="#fff"/>
  <path id="Path_11445" d="M22.5,23.976,68.129,17.1C77.5,79.605,86.88,142.111,96.256,203.991h1.25L126.884,17.1l45.629,6.876L136.885,251.495H56.253L22.5,23.976" transform="translate(118.137 89.784)" fill="#fff"/>
</svg>
