<svg width="16" height="16" viewBox="0 0 16 16" fill="none" xmlns="http://www.w3.org/2000/svg">
<g opacity="1" clip-path="url(#clip0_1736_6029)">
<path d="M13.6667 4.0013H3.66667C3.14067 4.0013 2.64667 3.75064 2.33333 3.3353C2.638 2.93064 3.12267 2.66797 3.66667 2.66797H15C16.3147 2.6453 16.314 0.689969 15 0.667969H3.66667C1.64533 0.667969 0 2.31264 0 4.33464V11.668C0 13.69 1.64533 15.3346 3.66667 15.3346H13.6667C14.9533 15.3346 16 14.288 16 13.0013V6.33464C16 5.04797 14.9533 4.0013 13.6667 4.0013ZM14 13.0013C14 13.1853 13.85 13.3346 13.6667 13.3346H3.66667C2.74733 13.3346 2 12.5866 2 11.668V5.59864C2.50867 5.85864 3.07867 6.0013 3.66667 6.0013H13.6667C13.85 6.0013 14 6.15064 14 6.33464V13.0013ZM12.6667 9.66797C12.644 10.9826 10.6887 10.982 10.6667 9.66797C10.6893 8.3533 12.6447 8.35397 12.6667 9.66797Z" fill="#090029"/>
</g>
<defs>
<clipPath id="clip0_1736_6029">
<rect width="16" height="16" fill="white"/>
</clipPath>
</defs>
</svg>
