<svg width="50" height="62" viewBox="0 0 50 62" fill="none" xmlns="http://www.w3.org/2000/svg">
<g clip-path="url(#clip0_742_16750)">
<path d="M46.1712 22.7323C46.1712 18.5125 44.9291 14.3875 42.602 10.879C40.2749 7.37053 36.9674 4.63612 33.0977 3.02165C29.228 1.40717 24.9701 0.985139 20.8623 1.80894C16.7546 2.63274 12.9815 4.66535 10.0205 7.64972C7.0594 10.6341 5.04328 14.4361 4.22711 18.575C3.41094 22.7139 3.83137 27.0036 5.43524 30.9017C7.0391 34.7998 9.75435 38.1312 13.2376 40.4744C16.7208 42.8177 20.8155 44.0676 25.0039 44.0661C30.6185 44.064 36.0025 41.8154 39.9719 37.8148C43.9413 33.8142 46.1712 28.389 46.1712 22.7323Z" fill="#FFDA2D"/>
<path d="M26.2231 1.39827C26.2231 1.15455 26.1514 0.916307 26.017 0.713665C25.8826 0.511022 25.6916 0.353082 25.4681 0.259816C25.2446 0.16655 24.9987 0.142147 24.7614 0.189694C24.5242 0.23724 24.3063 0.354601 24.1352 0.526934C23.9642 0.699267 23.8477 0.918833 23.8005 1.15787C23.7533 1.3969 23.7775 1.64466 23.8701 1.86983C23.9627 2.09499 24.1194 2.28744 24.3205 2.42284C24.5217 2.55825 24.7582 2.63052 25.0001 2.63052C25.3244 2.63052 25.6355 2.50069 25.8649 2.2696C26.0943 2.03851 26.2231 1.72508 26.2231 1.39827Z" fill="black"/>
<path d="M25.0019 46.6437C24.8461 46.9033 24.7327 47.0816 24.6288 47.2656L17.5481 59.8051C17.45 59.9776 17.3557 60.1461 17.2538 60.3205C17.1575 60.5622 16.9866 60.7663 16.7664 60.9027C16.5462 61.0391 16.2883 61.1006 16.0307 61.0781C15.7737 61.0501 15.5319 60.9416 15.3394 60.7678C15.1469 60.594 15.0134 60.3637 14.9577 60.1093C14.1384 57.7585 13.3128 55.4102 12.4807 53.0646C12.3904 52.8069 12.2884 52.5531 12.1731 52.247L8.47113 53.0123C7.10574 53.2951 5.73844 53.5645 4.37882 53.8725C4.12877 53.9655 3.85609 53.9772 3.59911 53.9059C3.34213 53.8347 3.11376 53.6841 2.94613 53.4753C2.78196 53.249 2.69654 52.9743 2.70315 52.6941C2.70976 52.4138 2.80801 52.1436 2.98267 51.9253C5.12241 48.1433 7.25703 44.3581 9.38651 40.5696C9.9519 39.568 9.94228 39.5776 9.14228 38.7561C5.37623 35.001 3.07893 30.0046 2.67113 24.6821C2.2227 19.4138 3.62862 14.1545 6.64257 9.82565C9.65653 5.49682 14.0863 2.37455 19.1557 1.00589C20.2115 0.719142 21.0057 1.29264 20.8731 2.25364C20.8307 2.52047 20.7033 2.76615 20.51 2.95352C20.3167 3.14089 20.0682 3.25975 19.8019 3.29214C18.0641 3.72544 16.4025 4.42461 14.875 5.36527C11.5563 7.24529 8.85746 10.0642 7.11226 13.4733C5.36706 16.8825 4.65208 20.7323 5.05574 24.5465C5.37266 28.7158 6.98146 32.6795 9.65499 35.8778C12.3285 39.0762 15.9317 41.3477 19.9557 42.3715C25.0616 43.6363 30.4563 42.8308 34.9785 40.1283C39.5008 37.4259 42.7891 33.0425 44.1357 27.9218C45.4823 22.8011 44.7795 17.3525 42.1785 12.7486C39.5776 8.14478 35.2865 4.75385 30.2288 3.3057C29.6846 3.15458 29.2307 2.9182 29.1211 2.30208C28.9538 1.36627 29.7365 0.71333 30.7327 0.97683C32.5656 1.43283 34.3244 2.1505 35.9557 3.10808C39.6194 5.11732 42.638 8.13789 44.6573 11.8152C46.6766 15.4925 47.6127 19.6738 47.3557 23.8684C47.2807 26.7206 46.6423 29.5291 45.4777 32.1299C44.3131 34.7307 42.6458 37.0716 40.5731 39.0158C40.4751 39.0791 40.3917 39.163 40.3287 39.2616C40.2656 39.3602 40.2243 39.4713 40.2075 39.5874C40.1908 39.7035 40.1989 39.8218 40.2315 39.9345C40.264 40.0471 40.3201 40.1514 40.3961 40.2403C42.5865 44.063 44.7346 47.907 46.8961 51.7471C46.9538 51.8498 47.0077 51.9563 47.0692 52.0571C47.2248 52.266 47.306 52.5217 47.2998 52.7829C47.2935 53.0441 47.2001 53.2955 47.0346 53.4966C46.8806 53.6917 46.6715 53.835 46.4349 53.9077C46.1983 53.9803 45.9454 53.9789 45.7096 53.9035C43.2711 53.3843 40.825 52.896 38.3884 52.3535C37.9173 52.2489 37.7481 52.3535 37.5942 52.803C36.7865 55.1784 35.9346 57.5383 35.1096 59.9098C34.9038 60.491 34.6423 61.0238 33.9404 61.0723C33.2673 61.1246 32.9346 60.6731 32.6365 60.1442C30.225 55.8572 27.807 51.574 25.3827 47.2947C25.2769 47.101 25.1654 46.9208 24.9981 46.636M16.3942 57.0403L23.0134 45.3185C18.9724 44.9366 15.1056 43.4759 11.8115 41.087L6.21151 51.0302C6.49421 50.9934 6.6519 50.9818 6.80382 50.9508L12.4519 49.7747C13.4019 49.581 13.825 49.8173 14.1557 50.7435C14.7096 52.307 15.2577 53.8725 15.8096 55.438C15.9846 55.934 16.1692 56.4261 16.3865 57.0403M26.9634 45.3146L33.5769 57.0268C33.6942 56.7265 33.7692 56.5482 33.8346 56.3661C34.5057 54.4673 35.1692 52.5647 35.8461 50.6679C35.8802 50.4908 35.9526 50.3235 36.0581 50.1778C36.1636 50.0322 36.2997 49.9117 36.4567 49.8249C36.6136 49.7382 36.7876 49.6873 36.9662 49.676C37.1449 49.6646 37.3238 49.693 37.4904 49.7592C38.8365 50.0401 40.1827 50.323 41.5288 50.6001C42.2423 50.7473 42.9577 50.883 43.7846 51.0476L38.1673 41.0831C34.8787 43.4761 31.0141 44.9385 26.975 45.3185" fill="black"/>
<path d="M43.1308 22.8097C43.1311 26.4232 42.0681 29.9556 40.0761 32.9605C38.084 35.9654 35.2524 38.3077 31.9392 39.6914C28.626 41.0751 24.98 41.438 21.4621 40.7343C17.9442 40.0306 14.7123 38.2918 12.1752 35.7378C9.63801 33.1837 7.90943 29.9291 7.20795 26.3854C6.50647 22.8418 6.8636 19.1681 8.23419 15.8289C9.60478 12.4896 11.9273 9.6348 14.9081 7.62527C17.8889 5.61574 21.3942 4.54174 24.9808 4.53906C29.7904 4.54367 34.4019 6.46959 37.8042 9.89456C41.2066 13.3195 43.1221 17.964 43.1308 22.8097ZM24.9711 38.6468C28.0794 38.6518 31.1194 37.7282 33.7069 35.9928C36.2943 34.2574 38.3129 31.7882 39.5077 28.8971C40.7025 26.0061 41.0197 22.8231 40.4192 19.7504C39.8188 16.6778 38.3277 13.8535 36.1343 11.6345C33.941 9.41548 31.1439 7.90144 28.0967 7.28373C25.0494 6.66602 21.8888 6.97237 19.0144 8.16406C16.1399 9.35575 13.6806 11.3793 11.9474 13.9789C10.2142 16.5785 9.2849 19.6374 9.27691 22.769C9.27332 26.9698 10.9236 31.0005 13.8657 33.977C16.8079 36.9536 20.8017 38.633 24.9711 38.6468Z" fill="black"/>
<path d="M16.3942 57.0393C16.1711 56.4251 15.9865 55.933 15.8173 55.437C15.2634 53.8735 14.7173 52.306 14.1634 50.7425C13.8327 49.8086 13.4096 49.5683 12.4596 49.7737L6.80959 50.9575C6.65767 50.9885 6.5019 51.0002 6.21729 51.037L11.8154 41.0898C15.1094 43.4789 18.9763 44.9395 23.0173 45.3213L16.3981 57.0471" fill="#FF641A"/>
<path d="M26.975 45.3135C31.0165 44.9362 34.8839 43.4751 38.175 41.082L43.7904 51.0466C42.9635 50.8819 42.252 50.7463 41.5346 50.599C40.1885 50.3219 38.8424 50.0372 37.4962 49.7582C37.3298 49.6923 37.151 49.6642 36.9726 49.6757C36.7942 49.6873 36.6205 49.7382 36.4637 49.8249C36.307 49.9116 36.1712 50.032 36.0658 50.1775C35.9604 50.323 35.8881 50.49 35.8539 50.6668C35.1789 52.5656 34.5077 54.4663 33.8423 56.365C33.7789 56.5472 33.7039 56.7235 33.5846 57.0257L26.9712 45.3135" fill="#FF641A"/>
<path d="M20.3981 26.2768C20.282 26.4082 20.139 26.5127 19.9789 26.5829C19.8154 26.6528 19.6391 26.6872 19.4616 26.6837C19.2793 26.683 19.0989 26.6462 18.9308 26.5752C18.7511 26.4949 18.5934 26.3719 18.4712 26.2168C18.3258 26.0356 18.2215 25.8247 18.1654 25.5987L16.85 21.0862L15.5308 25.5987C15.4746 25.8246 15.3703 26.0356 15.225 26.2168C15.1028 26.3718 14.9451 26.4948 14.7654 26.5752C14.5985 26.6458 14.4195 26.6827 14.2385 26.6837C14.061 26.6868 13.8848 26.6525 13.7212 26.5829C13.5603 26.5132 13.4165 26.4086 13.3 26.2768C13.1804 26.1445 13.0975 25.9828 13.0597 25.808L11.8039 20.4352C11.7615 20.2835 11.7604 20.123 11.8006 19.9707C11.8409 19.8183 11.921 19.6796 12.0327 19.5692C12.1285 19.4616 12.2542 19.3855 12.3934 19.3509C12.5327 19.3164 12.6791 19.3249 12.8135 19.3754C12.9728 19.4438 13.1101 19.5554 13.2102 19.6977C13.3104 19.8399 13.3694 20.0074 13.3808 20.1814L14.377 24.7539L15.5308 20.9371C15.5819 20.7265 15.6461 20.5195 15.7231 20.3171C15.7881 20.1519 15.8713 19.9946 15.9712 19.8482C16.063 19.709 16.1897 19.5967 16.3385 19.5227C16.5004 19.4527 16.6748 19.4166 16.851 19.4166C17.0272 19.4166 17.2016 19.4527 17.3635 19.5227C17.5129 19.5975 17.6398 19.7112 17.7308 19.8521C17.83 19.9986 17.9126 20.1559 17.977 20.321C18.0521 20.5233 18.1163 20.7296 18.1693 20.939L19.3231 24.7559L20.3231 20.1834C20.3345 20.0093 20.3935 19.8419 20.4937 19.6996C20.5938 19.5573 20.7312 19.4458 20.8904 19.3774C21.0232 19.3289 21.1674 19.3214 21.3044 19.3559C21.4415 19.3904 21.5651 19.4654 21.6597 19.5711C21.7703 19.6822 21.8495 19.8211 21.8891 19.9733C21.9287 20.1256 21.9271 20.2857 21.8847 20.4372L20.6289 25.8099C20.591 25.9847 20.5081 26.1464 20.3885 26.2788" fill="black"/>
<path d="M23.6115 25.8539C23.0353 25.0263 22.7262 24.0399 22.7262 23.029C22.7262 22.0181 23.0353 21.0318 23.6115 20.2042C24.3502 19.5935 25.2762 19.2598 26.2317 19.2598C27.1872 19.2598 28.1132 19.5935 28.8519 20.2042C29.4281 21.0318 29.7372 22.0181 29.7372 23.029C29.7372 24.0399 29.4281 25.0263 28.8519 25.8539C28.113 26.4642 27.1871 26.7977 26.2317 26.7977C25.2763 26.7977 24.3504 26.4642 23.6115 25.8539ZM27.4788 24.92C27.9725 23.7071 27.9725 22.3471 27.4788 21.1341C27.335 20.9435 27.1452 20.793 26.9274 20.697C26.7097 20.6011 26.4712 20.5628 26.2346 20.5859C25.9083 20.569 25.5845 20.6499 25.3038 20.8183C25.0483 21.0085 24.8667 21.2826 24.7904 21.5933C24.6645 22.0656 24.6081 22.5539 24.623 23.0426C24.5699 23.6948 24.6984 24.349 24.9942 24.9317C25.1522 25.1047 25.3441 25.2428 25.5577 25.3373C25.7714 25.4318 26.0022 25.4806 26.2355 25.4806C26.4689 25.4806 26.6997 25.4318 26.9134 25.3373C27.1271 25.2428 27.3189 25.1047 27.4769 24.9317" fill="black"/>
<path d="M31.1962 26.3679C31.0488 26.2113 30.9686 26.0024 30.9731 25.7867V20.4624C30.9565 20.1806 31.0481 19.9031 31.2289 19.6874C31.3086 19.5966 31.407 19.5244 31.5173 19.4759C31.6276 19.4274 31.747 19.4037 31.8673 19.4065C32.2237 19.4065 32.5885 19.69 32.9616 20.257L35.8673 24.0545V20.2338C35.8629 20.0184 35.9423 19.8098 36.0885 19.6525C36.1558 19.5752 36.239 19.5135 36.3323 19.4717C36.4256 19.4298 36.5268 19.4089 36.6289 19.4103C36.7315 19.4094 36.8331 19.4305 36.9269 19.4723C37.0208 19.514 37.1047 19.5755 37.1731 19.6525C37.3216 19.8086 37.4025 20.0177 37.3981 20.2338V25.1182C37.3995 25.3073 37.3886 25.4963 37.3654 25.684C37.3441 25.8434 37.3034 25.9995 37.2443 26.149C37.193 26.2892 37.0987 26.4093 36.975 26.4919C36.8391 26.5749 36.682 26.616 36.5231 26.6101C36.3214 26.6056 36.1281 26.5279 35.9789 26.3912C35.7734 26.2084 35.5918 26.0001 35.4385 25.7712L32.5096 21.8962V25.7867C32.5116 25.894 32.4924 26.0006 32.4531 26.1004C32.4139 26.2002 32.3553 26.2911 32.2808 26.3679C32.2125 26.4446 32.1289 26.5059 32.0354 26.5476C31.942 26.5894 31.8407 26.6107 31.7385 26.6101C31.6361 26.6114 31.5347 26.5904 31.4411 26.5486C31.3475 26.5068 31.264 26.4452 31.1962 26.3679Z" fill="black"/>
</g>
<defs>
<clipPath id="clip0_742_16750">
<rect width="50" height="62" fill="white"/>
</clipPath>
</defs>
</svg>
