<svg xmlns="http://www.w3.org/2000/svg" xmlns:xlink="http://www.w3.org/1999/xlink" width="56" height="56" viewBox="0 0 56 56">
  <defs>
    <clipPath id="clip-path">
      <circle id="back" cx="28" cy="28" r="28" transform="translate(30 232)" fill="#ef5388"/>
    </clipPath>
  </defs>
  <g id="_1" data-name="1" transform="translate(-30 -232)" clip-path="url(#clip-path)">
    <g id="_002-man-15" data-name="002-man-15" transform="translate(30 232)">
      <circle id="Ellipse_297" data-name="Ellipse 297" cx="28" cy="28" r="28" fill="#ffda45"/>
      <path id="Path_17600" data-name="Path 17600" d="M15.319,29.7,39.257,53.643A28.007,28.007,0,0,0,55.981,28.972L37.324,10.314Z" fill="#ffbc36"/>
      <path id="Path_17601" data-name="Path 17601" d="M28,35.323h0a13.1,13.1,0,0,1-13.1-13.1V19.511A13.1,13.1,0,0,1,28,6.414h0a13.1,13.1,0,0,1,13.1,13.1v2.714A13.1,13.1,0,0,1,28,35.323Z" fill="#8c6239"/>
      <path id="Path_17602" data-name="Path 17602" d="M28,6.414h-.005V35.323H28a13.1,13.1,0,0,0,13.1-13.1V19.511A13.1,13.1,0,0,0,28,6.414Z" fill="#754c24"/>
      <circle id="Ellipse_298" data-name="Ellipse 298" cx="3.175" cy="3.175" r="3.175" transform="translate(13.98 23.94)" fill="#ffcdbe"/>
      <circle id="Ellipse_299" data-name="Ellipse 299" cx="3.175" cy="3.175" r="3.175" transform="translate(35.669 23.94)" fill="#faa68e"/>
      <path id="Path_17603" data-name="Path 17603" d="M28,56a27.879,27.879,0,0,0,17.417-6.077l-.692-6.364A3.576,3.576,0,0,0,41.616,40.4l-9.551-1.1V33.575H23.936v5.718l-9.551,1.1a3.576,3.576,0,0,0-3.109,3.161l-.692,6.364A27.879,27.879,0,0,0,28,56Z" fill="#ffcdbe"/>
      <path id="Path_17604" data-name="Path 17604" d="M45.417,49.923l-.692-6.364A3.576,3.576,0,0,0,41.616,40.4l-9.551-1.1V33.575H27.995V56H28A27.879,27.879,0,0,0,45.417,49.923Z" fill="#faa68e"/>
      <path id="Path_17605" data-name="Path 17605" d="M28,37.486h0a11.2,11.2,0,0,1-11.2-11.2v-6.4A11.2,11.2,0,0,1,28,8.686h0a11.2,11.2,0,0,1,11.2,11.2v6.4A11.2,11.2,0,0,1,28,37.486Z" fill="#ffdecf"/>
      <path id="Path_17606" data-name="Path 17606" d="M28,8.686h-.005v28.8H28a11.2,11.2,0,0,0,11.2-11.2v-6.4A11.2,11.2,0,0,0,28,8.686Z" fill="#ffbeaa"/>
      <path id="Path_17607" data-name="Path 17607" d="M28,34.379a3.327,3.327,0,0,1-3.323-3.323H25.99a2.01,2.01,0,0,0,4.021,0h1.313A3.327,3.327,0,0,1,28,34.379Z" fill="#ff9451"/>
      <path id="Path_17608" data-name="Path 17608" d="M30.01,31.056A2.013,2.013,0,0,1,28,33.066h-.005v1.313H28a3.327,3.327,0,0,0,3.323-3.323Z" fill="#f7674f"/>
      <path id="Path_17609" data-name="Path 17609" d="M38.007,22.471v7.682a1.662,1.662,0,0,0,1.663-1.663V17.428a7.561,7.561,0,0,0-3.816-6.568l-1.386-.79a3.418,3.418,0,0,0-3.691-2.617l-4.546.485A12.206,12.206,0,0,0,15.319,20.075v3.011l1.012-.312V28.49a1.662,1.662,0,0,0,1.662,1.663h0v-2.9a5.113,5.113,0,0,1,5.113-5.113h6.371a4.1,4.1,0,0,0,4.1-4.1h0A4.429,4.429,0,0,1,38.007,22.471Z" fill="#8c6239"/>
      <path id="Path_17610" data-name="Path 17610" d="M35.853,10.859l-1.386-.79a3.418,3.418,0,0,0-3.691-2.617l-2.782.3V22.144h1.482a4.1,4.1,0,0,0,4.1-4.1h0a4.429,4.429,0,0,1,4.429,4.429v7.682a1.662,1.662,0,0,0,1.663-1.663V17.428A7.56,7.56,0,0,0,35.853,10.859Z" fill="#754c24"/>
      <path id="Path_17611" data-name="Path 17611" d="M23.16,30.844a4.484,4.484,0,1,1,4.484-4.484A4.49,4.49,0,0,1,23.16,30.844Zm0-7.656a3.172,3.172,0,1,0,3.172,3.172A3.175,3.175,0,0,0,23.16,23.188Z" fill="#666"/>
      <path id="Path_17612" data-name="Path 17612" d="M32.84,30.844a4.484,4.484,0,1,1,4.484-4.484A4.49,4.49,0,0,1,32.84,30.844Zm0-7.656a3.172,3.172,0,1,0,3.172,3.172A3.175,3.175,0,0,0,32.84,23.188Z" fill="#4d4d4d"/>
      <rect id="Rectangle_17727" data-name="Rectangle 17727" width="2.242" height="1.313" transform="translate(26.934 25.594)" fill="#666"/>
      <rect id="Rectangle_17728" data-name="Rectangle 17728" width="1.181" height="1.313" transform="translate(27.995 25.594)" fill="#4d4d4d"/>
      <path id="Path_17613" data-name="Path 17613" d="M44.725,43.559A3.576,3.576,0,0,0,41.616,40.4L32.557,39.35a5.159,5.159,0,0,1-9.115,0L14.384,40.4a3.576,3.576,0,0,0-3.109,3.161l-.692,6.364a28,28,0,0,0,34.834,0Z" fill="#06a"/>
      <path id="Path_17614" data-name="Path 17614" d="M45.417,49.923l-.692-6.364A3.576,3.576,0,0,0,41.616,40.4L32.557,39.35A5.157,5.157,0,0,1,28,42.091h-.005V56H28A27.879,27.879,0,0,0,45.417,49.923Z" fill="#1e2d64"/>
      <path id="Path_17615" data-name="Path 17615" d="M23.246,28.155h0a.889.889,0,0,1-.889-.889v-1.3a.889.889,0,0,1,.889-.889h0a.889.889,0,0,1,.889.889v1.3A.889.889,0,0,1,23.246,28.155Z" fill="#4d4d4d"/>
      <path id="Path_17616" data-name="Path 17616" d="M32.754,28.155h0a.889.889,0,0,1-.889-.889v-1.3a.889.889,0,0,1,.889-.889h0a.889.889,0,0,1,.889.889v1.3A.889.889,0,0,1,32.754,28.155Z" fill="#333"/>
    </g>
  </g>
</svg>
