<svg xmlns="http://www.w3.org/2000/svg" xmlns:xlink="http://www.w3.org/1999/xlink" width="56" height="56" viewBox="0 0 56 56">
  <defs>
    <clipPath id="clip-path">
      <circle id="back" cx="28" cy="28" r="28" transform="translate(289 303)" fill="#ef5388"/>
    </clipPath>
  </defs>
  <g id="_10" data-name="10" transform="translate(-289 -303)" clip-path="url(#clip-path)">
    <g id="_045-man-2" data-name="045-man-2" transform="translate(289 303)">
      <circle id="Ellipse_326" data-name="Ellipse 326" cx="28" cy="28" r="28" fill="#733c82"/>
      <path id="Path_17797" data-name="Path 17797" d="M36.972,54.532a28.029,28.029,0,0,0,18.818-23.1L40.5,16.121l-.474.543L36.163,12.8,14.726,29.159l6.395,6.395-2.039,1.088Z" fill="#4b285a"/>
      <path id="Path_17798" data-name="Path 17798" d="M28,20.119h0a13.057,13.057,0,0,1-9.4-3.979,2.144,2.144,0,0,0-3.7,1.455c0,.019,0,.038,0,.057v2.714A13.1,13.1,0,0,0,28,33.463h0a13.1,13.1,0,0,0,13.1-13.1V17.652c0-.019,0-.038,0-.057a2.145,2.145,0,0,0-3.7-1.455A13.057,13.057,0,0,1,28,20.119Z" fill="#ff6838"/>
      <path id="Path_17799" data-name="Path 17799" d="M41.1,17.595a2.145,2.145,0,0,0-3.7-1.455A13.057,13.057,0,0,1,28,20.119h-.005V33.463H28a13.1,13.1,0,0,0,13.1-13.1V17.652C41.1,17.633,41.1,17.614,41.1,17.595Z" fill="#e86035"/>
      <circle id="Ellipse_327" data-name="Ellipse 327" cx="3.175" cy="3.175" r="3.175" transform="translate(13.98 23.94)" fill="#ffcdbe"/>
      <circle id="Ellipse_328" data-name="Ellipse 328" cx="3.175" cy="3.175" r="3.175" transform="translate(35.669 23.94)" fill="#faa68e"/>
      <path id="Path_17800" data-name="Path 17800" d="M28,56a27.879,27.879,0,0,0,17.417-6.077l-.692-6.364A3.576,3.576,0,0,0,41.616,40.4l-9.551-1.1V33.575H23.936v5.718l-9.551,1.1a3.576,3.576,0,0,0-3.109,3.161l-.692,6.364A27.879,27.879,0,0,0,28,56Z" fill="#ffcdbe"/>
      <path id="Path_17801" data-name="Path 17801" d="M45.417,49.923l-.692-6.364A3.576,3.576,0,0,0,41.616,40.4l-9.551-1.1V33.575H27.995V56H28A27.879,27.879,0,0,0,45.417,49.923Z" fill="#faa68e"/>
      <path id="Path_17802" data-name="Path 17802" d="M28,37.486h0a11.2,11.2,0,0,1-11.2-11.2V20.471A11.2,11.2,0,0,1,28,9.271h0a11.2,11.2,0,0,1,11.2,11.2v5.815A11.2,11.2,0,0,1,28,37.486Z" fill="#ffdecf"/>
      <path id="Path_17803" data-name="Path 17803" d="M28,9.271h-.005V37.486H28a11.2,11.2,0,0,0,11.2-11.2V20.471A11.2,11.2,0,0,0,28,9.271Z" fill="#ffbeaa"/>
      <path id="Path_17804" data-name="Path 17804" d="M44.725,43.559A3.576,3.576,0,0,0,41.616,40.4L32.557,39.35a5.159,5.159,0,0,1-9.115,0L14.384,40.4a3.576,3.576,0,0,0-3.109,3.161l-.692,6.364a28,28,0,0,0,34.834,0Z" fill="#c18761"/>
      <path id="Path_17805" data-name="Path 17805" d="M45.417,49.923l-.692-6.364A3.576,3.576,0,0,0,41.616,40.4L32.557,39.35A5.157,5.157,0,0,1,28,42.091h-.005V56H28A27.879,27.879,0,0,0,45.417,49.923Z" fill="#aa6e4d"/>
      <path id="Path_17806" data-name="Path 17806" d="M23.246,28.155h0a.889.889,0,0,1-.889-.889v-1.3a.889.889,0,0,1,.889-.889h0a.889.889,0,0,1,.889.889v1.3A.889.889,0,0,1,23.246,28.155Z" fill="#4d4d4d"/>
      <path id="Path_17807" data-name="Path 17807" d="M32.754,28.155h0a.889.889,0,0,1-.889-.889v-1.3a.889.889,0,0,1,.889-.889h0a.889.889,0,0,1,.889.889v1.3A.889.889,0,0,1,32.754,28.155Z" fill="#333"/>
      <path id="Path_17808" data-name="Path 17808" d="M38.746,26.578a3.8,3.8,0,0,0-2.92,1.351,4.429,4.429,0,0,1-3.41,1.6H23.583a4.429,4.429,0,0,1-3.41-1.6,3.8,3.8,0,0,0-2.92-1.351h0v5.667a6.2,6.2,0,0,0,6.2,6.2h9.093a6.2,6.2,0,0,0,6.2-6.2V26.578Z" fill="#fc5427"/>
      <path id="Path_17809" data-name="Path 17809" d="M35.826,27.93a4.429,4.429,0,0,1-3.41,1.6H27.995v8.919h4.552a6.2,6.2,0,0,0,6.2-6.2V26.578A3.8,3.8,0,0,0,35.826,27.93Z" fill="#e03d1e"/>
      <path id="Path_17810" data-name="Path 17810" d="M28,34.379a3.327,3.327,0,0,1-3.136-2.225l1.239-.434a2.011,2.011,0,0,0,3.795,0l1.239.434A3.326,3.326,0,0,1,28,34.379Z" fill="#ff9451"/>
      <path id="Path_17811" data-name="Path 17811" d="M29.9,31.721A2.012,2.012,0,0,1,28,33.067h-.005v1.313H28a3.326,3.326,0,0,0,3.136-2.225Z" fill="#f7674f"/>
      <path id="Path_17812" data-name="Path 17812" d="M15.463,16.434a12.887,12.887,0,0,0-.315,2.838h1.393v8.973a1.881,1.881,0,0,0,1.881,1.881V22.766a3.489,3.489,0,0,1,1.415-2.809,11.518,11.518,0,0,1-2.462-3.688A1.009,1.009,0,0,0,15.463,16.434Z" fill="#ff6838"/>
      <path id="Path_17813" data-name="Path 17813" d="M38.624,16.27a11.519,11.519,0,0,1-2.462,3.688,3.49,3.49,0,0,1,1.415,2.809v7.359a1.881,1.881,0,0,0,1.881-1.881V19.271h1.393a12.887,12.887,0,0,0-.315-2.838A1.009,1.009,0,0,0,38.624,16.27Z" fill="#e86035"/>
    </g>
  </g>
</svg>
