<svg xmlns="http://www.w3.org/2000/svg" xmlns:xlink="http://www.w3.org/1999/xlink" width="56" height="56" viewBox="0 0 56 56">
  <defs>
    <clipPath id="clip-path">
      <circle id="back" cx="28" cy="28" r="28" transform="translate(95 232)" fill="#ef5388"/>
    </clipPath>
  </defs>
  <g id="_2" data-name="2" transform="translate(-95 -232)" clip-path="url(#clip-path)">
    <g id="_003-woman-20" data-name="003-woman-20" transform="translate(95 232)">
      <circle id="Ellipse_303" data-name="Ellipse 303" cx="28" cy="28" r="28" fill="#ff3f84"/>
      <path id="Path_17633" data-name="Path 17633" d="M16.432,36.729,34.856,55.153A28.013,28.013,0,0,0,55.97,29.275L37.423,10.681Z" fill="#983262"/>
      <path id="Path_17634" data-name="Path 17634" d="M36.4,37.907H19.6a4.854,4.854,0,0,1-4.854-4.854V20A13.254,13.254,0,0,1,28,6.748h0A13.254,13.254,0,0,1,41.254,20V33.053A4.854,4.854,0,0,1,36.4,37.907Z" fill="#4d4d4d"/>
      <path id="Path_17635" data-name="Path 17635" d="M28,6.748h-.005V37.907H36.4a4.854,4.854,0,0,0,4.854-4.854V20A13.254,13.254,0,0,0,28,6.748Z" fill="#333"/>
      <circle id="Ellipse_304" data-name="Ellipse 304" cx="2.93" cy="2.93" r="2.93" transform="translate(15.062 24.577)" fill="#ffcdbe"/>
      <circle id="Ellipse_305" data-name="Ellipse 305" cx="2.93" cy="2.93" r="2.93" transform="translate(35.077 24.577)" fill="#faa68e"/>
      <path id="Path_17636" data-name="Path 17636" d="M28,56a27.867,27.867,0,0,0,14.7-4.164L41.68,42.508a3.3,3.3,0,0,0-2.869-2.918l-7.061-.844V33.469h-7.5v5.277l-7.061.844a3.3,3.3,0,0,0-2.869,2.918L13.3,51.836A27.867,27.867,0,0,0,28,56Z" fill="#ffcdbe"/>
      <path id="Path_17637" data-name="Path 17637" d="M42.7,51.836,41.68,42.508a3.3,3.3,0,0,0-2.869-2.918l-7.061-.844V33.469H27.995V56H28A27.867,27.867,0,0,0,42.7,51.836Z" fill="#faa68e"/>
      <path id="Path_17638" data-name="Path 17638" d="M28,37.078h0A10.336,10.336,0,0,1,17.664,26.742V20.836A10.336,10.336,0,0,1,28,10.5h0A10.336,10.336,0,0,1,38.336,20.836v5.906A10.336,10.336,0,0,1,28,37.078Z" fill="#ffdecf"/>
      <path id="Path_17639" data-name="Path 17639" d="M28,10.5h-.005V37.078H28A10.336,10.336,0,0,0,38.336,26.742V20.836A10.336,10.336,0,0,0,28,10.5Z" fill="#ffbeaa"/>
      <path id="Path_17640" data-name="Path 17640" d="M18.362,36.729h0v-9.8a4.915,4.915,0,0,1,4.915-4.915H29.4a3.943,3.943,0,0,0,3.943-3.943h0A4.257,4.257,0,0,1,37.6,22.329V33.805a1.6,1.6,0,0,0,1.6-1.6V17.481a7.267,7.267,0,0,0-3.668-6.313L34.2,10.408A3.286,3.286,0,0,0,30.65,7.893l-4.37.466A11.733,11.733,0,0,0,15.791,20.025V34.158a2.571,2.571,0,0,0,2.571,2.571Z" fill="#4d4d4d"/>
      <path id="Path_17641" data-name="Path 17641" d="M35.529,11.167,34.2,10.408A3.286,3.286,0,0,0,30.65,7.893l-2.655.283V22.014h1.4a3.943,3.943,0,0,0,3.943-3.943h0A4.257,4.257,0,0,1,37.6,22.329V33.805a1.6,1.6,0,0,0,1.6-1.6V17.481A7.268,7.268,0,0,0,35.529,11.167Z" fill="#333"/>
      <path id="Path_17642" data-name="Path 17642" d="M23.246,28.155h0a.889.889,0,0,1-.889-.889v-1.3a.889.889,0,0,1,.889-.889h0a.889.889,0,0,1,.889.889v1.3A.889.889,0,0,1,23.246,28.155Z" fill="#4d4d4d"/>
      <path id="Path_17643" data-name="Path 17643" d="M32.754,28.155h0a.889.889,0,0,1-.889-.889v-1.3a.889.889,0,0,1,.889-.889h0a.889.889,0,0,1,.889.889v1.3A.889.889,0,0,1,32.754,28.155Z" fill="#333"/>
      <path id="Path_17644" data-name="Path 17644" d="M28,34.262a3.121,3.121,0,0,1-3.117-3.117H26.2a1.8,1.8,0,0,0,3.609,0h1.313A3.121,3.121,0,0,1,28,34.262Z" fill="#ff6838"/>
      <path id="Path_17645" data-name="Path 17645" d="M29.8,31.145a1.807,1.807,0,0,1-1.8,1.8h-.005v1.313H28a3.121,3.121,0,0,0,3.117-3.117Z" fill="#e86035"/>
      <path id="Path_17646" data-name="Path 17646" d="M13.958,45.828,13.3,51.836a28.015,28.015,0,0,0,29.391,0l-.654-6.008Z" fill="#91cdff"/>
      <path id="Path_17647" data-name="Path 17647" d="M42.7,51.836l-.654-6.008H27.995V56H28A27.867,27.867,0,0,0,42.7,51.836Z" fill="#1e8ce6"/>
      <path id="Path_17648" data-name="Path 17648" d="M27.021,51.982A.984.984,0,0,1,28,51h0a.984.984,0,0,1,.985.983h0a.984.984,0,0,1-.982.985h0A.985.985,0,0,1,27.021,51.982Zm-1.711.184a.985.985,0,0,1-.316-1.356h0a.984.984,0,0,1,1.356-.315h0a.983.983,0,0,1,.315,1.355h0a.983.983,0,0,1-.837.465h0A.979.979,0,0,1,25.31,52.165Zm4.035-.32a.984.984,0,0,1,.313-1.356h0a.983.983,0,0,1,1.356.313h0a.984.984,0,0,1-.312,1.356h0a.982.982,0,0,1-.522.15h0A.984.984,0,0,1,29.345,51.845Zm-5.97-1.481a.984.984,0,0,1,.18-1.38h0a.984.984,0,0,1,1.38.182h0a.984.984,0,0,1-.18,1.38h0a.987.987,0,0,1-.6.2h0A.981.981,0,0,1,23.376,50.364Zm7.877.173a.985.985,0,0,1-.183-1.38h0a.983.983,0,0,1,1.38-.183h0a.984.984,0,0,1,.183,1.379h0a.981.981,0,0,1-.782.386h0A.98.98,0,0,1,31.253,50.537Zm-9.163-2.343a.985.985,0,0,1,.487-1.3h0a.984.984,0,0,1,1.3.487h0a.985.985,0,0,1-.487,1.3h0a.984.984,0,0,1-.408.089h0A.983.983,0,0,1,22.089,48.194Zm10.523.476a.984.984,0,0,1-.488-1.3h0a.985.985,0,0,1,1.3-.488h0a.985.985,0,0,1,.488,1.3h0a.982.982,0,0,1-.9.576h0A.984.984,0,0,1,32.612,48.67Zm-11.351-2.8a.985.985,0,0,1,.7-1.206h0a.985.985,0,0,1,1.206.7h0a.985.985,0,0,1-.7,1.206h0a.986.986,0,0,1-.256.034h0A.986.986,0,0,1,21.261,45.871Zm12.275.684a.983.983,0,0,1-.7-1.205h0a.983.983,0,0,1,1.205-.7h0a.984.984,0,0,1,.7,1.205h0a.986.986,0,0,1-.95.73h0A.978.978,0,0,1,33.537,46.554ZM20.8,43.477a.985.985,0,0,1,.854-1.1h0a.985.985,0,0,1,1.1.854h0a.985.985,0,0,1-.854,1.1h0a.949.949,0,0,1-.124.008h0A.985.985,0,0,1,20.8,43.477Zm13.31.842a.985.985,0,0,1-.855-1.1h0a.986.986,0,0,1,1.1-.855h0a.984.984,0,0,1,.854,1.1h0a.984.984,0,0,1-.976.862h0A.933.933,0,0,1,34.106,44.319Zm-13.46-3.264a.984.984,0,0,1,.983-.984h0a.984.984,0,0,1,.985.983h0a.985.985,0,0,1-.983.985h0A.984.984,0,0,1,20.647,41.055Zm12.738-.012v-.012h0V41.02h0a.984.984,0,0,1,.983-.985h0a.984.984,0,0,1,.985.983h0v.013h0v.012h0a.984.984,0,0,1-.984.984h0A.984.984,0,0,1,33.385,41.043ZM21.65,39.733a.985.985,0,0,1-.856-1.1h0a.985.985,0,0,1,1.1-.856h0a.985.985,0,0,1,.856,1.1h0a.986.986,0,0,1-.977.864h0A1.148,1.148,0,0,1,21.65,39.733Zm11.6-.89a.985.985,0,0,1,.854-1.1h0a.984.984,0,0,1,1.1.853h0a.983.983,0,0,1-.853,1.1h0a.954.954,0,0,1-.125.008h0A.986.986,0,0,1,33.248,38.842Z" fill="#fff"/>
      <g id="Group_17195" data-name="Group 17195">
        <path id="Path_17649" data-name="Path 17649" d="M34.223,39.7a.954.954,0,0,0,.125-.008.985.985,0,1,0-.125.008Z" fill="#e0e0e0"/>
        <path id="Path_17650" data-name="Path 17650" d="M33.428,46.878a.984.984,0,1,0,.488,1.3A.985.985,0,0,0,33.428,46.878Z" fill="#e0e0e0"/>
        <path id="Path_17651" data-name="Path 17651" d="M34.35,42.365a.984.984,0,1,0-.244,1.953.933.933,0,0,0,.123.008.984.984,0,0,0,.121-1.961Z" fill="#e0e0e0"/>
        <path id="Path_17652" data-name="Path 17652" d="M34.368,40.035a.984.984,0,0,0-.983.985v.023a.984.984,0,0,0,1.969,0v-.025A.984.984,0,0,0,34.368,40.035Z" fill="#e0e0e0"/>
        <path id="Path_17653" data-name="Path 17653" d="M34.045,44.653a.984.984,0,1,0,.7,1.205A.983.983,0,0,0,34.045,44.653Z" fill="#e0e0e0"/>
        <path id="Path_17654" data-name="Path 17654" d="M32.45,48.974a.984.984,0,1,0,.183,1.379A.983.983,0,0,0,32.45,48.974Z" fill="#e0e0e0"/>
        <path id="Path_17655" data-name="Path 17655" d="M28,51h-.01v1.968h.013A.984.984,0,0,0,28,51Z" fill="#e0e0e0"/>
        <path id="Path_17656" data-name="Path 17656" d="M29.658,50.489a.984.984,0,1,0,1.356.313A.984.984,0,0,0,29.658,50.489Z" fill="#e0e0e0"/>
      </g>
    </g>
  </g>
</svg>
