<svg xmlns="http://www.w3.org/2000/svg" xmlns:xlink="http://www.w3.org/1999/xlink" width="57" height="56" viewBox="0 0 57 56">
  <defs>
    <clipPath id="clip-path">
      <ellipse id="back" cx="28.5" cy="28" rx="28.5" ry="28" transform="translate(159 232)" fill="#ef5388"/>
    </clipPath>
  </defs>
  <g id="_3" data-name="3" transform="translate(-159 -232)" clip-path="url(#clip-path)">
    <g id="_010-boy-1" data-name="010-boy-1" transform="translate(159.5 232)">
      <circle id="Ellipse_309" data-name="Ellipse 309" cx="28" cy="28" r="28" fill="#06a"/>
      <path id="Path_17679" data-name="Path 17679" d="M14.9,29.353l24.355,24.29A28,28,0,0,0,56,28c0-.775-.033-1.542-.095-2.3L38.893,8.686Z" fill="#1e2d64"/>
      <path id="Path_17680" data-name="Path 17680" d="M28,35.323h0a13.1,13.1,0,0,1-13.1-13.1V19.511c0-7.233,5.864-11.162,13.1-11.162V8.276c7.233,0,13.1,4,13.1,11.235v2.714A13.1,13.1,0,0,1,28,35.323Z" fill="#ffda45"/>
      <path id="Path_17681" data-name="Path 17681" d="M28,8.276v.073h-.005V35.322H28a13.1,13.1,0,0,0,13.1-13.1V19.511C41.1,12.278,35.233,8.276,28,8.276Z" fill="#ffbc36"/>
      <circle id="Ellipse_310" data-name="Ellipse 310" cx="3.175" cy="3.175" r="3.175" transform="translate(13.98 23.94)" fill="#ffcdbe"/>
      <circle id="Ellipse_311" data-name="Ellipse 311" cx="3.175" cy="3.175" r="3.175" transform="translate(35.669 23.94)" fill="#faa68e"/>
      <path id="Path_17682" data-name="Path 17682" d="M28,56a27.879,27.879,0,0,0,17.417-6.077l-.692-6.364A3.576,3.576,0,0,0,41.616,40.4l-9.551-1.1V33.575H23.936v5.718l-9.551,1.1a3.576,3.576,0,0,0-3.109,3.161l-.692,6.364A27.879,27.879,0,0,0,28,56Z" fill="#ffcdbe"/>
      <path id="Path_17683" data-name="Path 17683" d="M45.417,49.923l-.692-6.364A3.576,3.576,0,0,0,41.616,40.4l-9.551-1.1V33.575H27.995V56H28A27.88,27.88,0,0,0,45.417,49.923Z" fill="#faa68e"/>
      <path id="Path_17684" data-name="Path 17684" d="M28,37.486h0a11.2,11.2,0,0,1-11.2-11.2v-6.4A11.2,11.2,0,0,1,28,8.686h0a11.2,11.2,0,0,1,11.2,11.2v6.4A11.2,11.2,0,0,1,28,37.486Z" fill="#ffdecf"/>
      <path id="Path_17685" data-name="Path 17685" d="M28,8.686h-.005v28.8H28a11.2,11.2,0,0,0,11.2-11.2v-6.4A11.2,11.2,0,0,0,28,8.686Z" fill="#ffbeaa"/>
      <path id="Path_17686" data-name="Path 17686" d="M28,34.379a3.327,3.327,0,0,1-3.323-3.323H25.99a2.01,2.01,0,1,0,4.021,0h1.313A3.327,3.327,0,0,1,28,34.379Z" fill="#ff9451"/>
      <path id="Path_17687" data-name="Path 17687" d="M30.01,31.056A2.013,2.013,0,0,1,28,33.066h-.005v1.313H28a3.327,3.327,0,0,0,3.323-3.323Z" fill="#f7674f"/>
      <path id="Path_17688" data-name="Path 17688" d="M38.007,22.471v7.682a1.662,1.662,0,0,0,1.663-1.663V17.428a7.561,7.561,0,0,0-3.816-6.568l-1.386-.79a3.418,3.418,0,0,0-3.691-2.617l-4.546.485A12.206,12.206,0,0,0,15.319,20.075v3.011l1.012-.312V28.49a1.662,1.662,0,0,0,1.662,1.663h0v-2.9a5.113,5.113,0,0,1,5.113-5.113h6.371a4.1,4.1,0,0,0,4.1-4.1h0A4.429,4.429,0,0,1,38.007,22.471Z" fill="#ffda45"/>
      <path id="Path_17689" data-name="Path 17689" d="M35.853,10.859l-1.386-.79a3.418,3.418,0,0,0-3.691-2.617l-2.782.3V22.144h1.482a4.1,4.1,0,0,0,4.1-4.1h0a4.429,4.429,0,0,1,4.429,4.429v7.682a1.663,1.663,0,0,0,1.663-1.663V17.428A7.56,7.56,0,0,0,35.853,10.859Z" fill="#ffbc36"/>
      <path id="Path_17690" data-name="Path 17690" d="M14.551,14.178v5.51h26.9v-5.51A7.177,7.177,0,0,0,34.271,7H21.729A7.177,7.177,0,0,0,14.551,14.178Z" fill="#ff9451"/>
      <path id="Path_17691" data-name="Path 17691" d="M41.449,14.178A7.177,7.177,0,0,0,34.271,7H27.995V19.688H41.449Z" fill="#f7674f"/>
      <path id="Path_17692" data-name="Path 17692" d="M22.2,14.178v5.51H33.8v-5.51C33.8,10.213,32.412,7,30.7,7H25.3C23.588,7,22.2,10.213,22.2,14.178Z" fill="#ffb344"/>
      <path id="Path_17693" data-name="Path 17693" d="M33.8,14.178C33.8,10.213,32.412,7,30.7,7H27.995V19.688h5.8Z" fill="#ff9451"/>
      <path id="Path_17694" data-name="Path 17694" d="M44.725,43.559A3.576,3.576,0,0,0,41.616,40.4L32.557,39.35a5.159,5.159,0,0,1-9.115,0L14.384,40.4a3.576,3.576,0,0,0-3.109,3.161l-.692,6.364a28,28,0,0,0,34.834,0Z" fill="#ff6838"/>
      <path id="Path_17695" data-name="Path 17695" d="M45.417,49.923l-.692-6.364A3.576,3.576,0,0,0,41.616,40.4L32.557,39.35A5.157,5.157,0,0,1,28,42.091h-.005V56H28A27.88,27.88,0,0,0,45.417,49.923Z" fill="#e86035"/>
      <path id="Path_17696" data-name="Path 17696" d="M23.246,28.155h0a.889.889,0,0,1-.889-.889v-1.3a.889.889,0,0,1,.889-.889h0a.889.889,0,0,1,.889.889v1.3A.889.889,0,0,1,23.246,28.155Z" fill="#4d4d4d"/>
      <path id="Path_17697" data-name="Path 17697" d="M32.754,28.155h0a.889.889,0,0,1-.889-.889v-1.3a.889.889,0,0,1,.889-.889h0a.889.889,0,0,1,.889.889v1.3A.889.889,0,0,1,32.754,28.155Z" fill="#333"/>
      <path id="Path_17698" data-name="Path 17698" d="M14.551,19.688H47.323a2.953,2.953,0,0,0-2.953-2.953H14.551Z" fill="#f7674f"/>
      <path id="Path_17699" data-name="Path 17699" d="M47.323,19.688a2.953,2.953,0,0,0-2.953-2.953H27.995v2.953Z" fill="#d14e3d"/>
    </g>
  </g>
</svg>
