<svg xmlns="http://www.w3.org/2000/svg" xmlns:xlink="http://www.w3.org/1999/xlink" width="56" height="56" viewBox="0 0 56 56">
  <defs>
    <clipPath id="clip-path">
      <circle id="back" cx="28" cy="28" r="28" transform="translate(224 232)" fill="#ef5388"/>
    </clipPath>
  </defs>
  <g id="_4" data-name="4" transform="translate(-224 -232)" clip-path="url(#clip-path)">
    <g id="_017-woman-13" data-name="017-woman-13" transform="translate(224 232)">
      <circle id="Ellipse_315" data-name="Ellipse 315" cx="28" cy="28" r="28" fill="#733c82"/>
      <path id="Path_17719" data-name="Path 17719" d="M27.681,40.514,40.317,53.15A28,28,0,0,0,55.971,29.245l-18.23-18.23Z" fill="#4b285a"/>
      <path id="Path_17720" data-name="Path 17720" d="M28,39.076v9.356A13.254,13.254,0,0,1,14.746,35.177V20A13.254,13.254,0,0,1,28,6.748h0A13.254,13.254,0,0,1,41.254,20v5.82A13.254,13.254,0,0,1,28,39.076Z" fill="#ffda45"/>
      <path id="Path_17721" data-name="Path 17721" d="M28,6.748h-.005V48.431H28V39.076A13.254,13.254,0,0,0,41.254,25.822V20A13.254,13.254,0,0,0,28,6.748Z" fill="#ffbc36"/>
      <path id="Path_17722" data-name="Path 17722" d="M28,56a27.867,27.867,0,0,0,14.7-4.164L41.68,42.508a3.3,3.3,0,0,0-2.869-2.918l-7.061-.844V33.469h-7.5v5.277l-7.061.844a3.3,3.3,0,0,0-2.869,2.918L13.3,51.836A27.867,27.867,0,0,0,28,56Z" fill="#ffcdbe"/>
      <path id="Path_17723" data-name="Path 17723" d="M42.7,51.836,41.68,42.508a3.3,3.3,0,0,0-2.869-2.918l-7.061-.844V33.469H27.995V56H28A27.867,27.867,0,0,0,42.7,51.836Z" fill="#faa68e"/>
      <path id="Path_17724" data-name="Path 17724" d="M41.68,42.508a3.3,3.3,0,0,0-2.869-2.918l-4.554-.544a6.617,6.617,0,0,1-12.725.025l-4.343.519a3.3,3.3,0,0,0-2.869,2.918L13.3,51.836a28.015,28.015,0,0,0,29.391,0Z" fill="#fff"/>
      <path id="Path_17725" data-name="Path 17725" d="M42.7,51.836,41.68,42.508a3.3,3.3,0,0,0-2.869-2.918l-4.554-.544a6.618,6.618,0,0,1-6.262,4.812V56H28A27.867,27.867,0,0,0,42.7,51.836Z" fill="#e0e0e0"/>
      <path id="Path_17726" data-name="Path 17726" d="M16.9,53.71a28.058,28.058,0,0,0,22.2,0V39.64c-.1-.021-.192-.038-.29-.05l-4.554-.544a6.617,6.617,0,0,1-12.726.025l-4.343.519c-.1.012-.2.029-.291.05V53.71Z" fill="#f2f2f2"/>
      <path id="Path_17727" data-name="Path 17727" d="M38.811,39.59l-4.554-.544a6.618,6.618,0,0,1-6.262,4.812V56H28a27.894,27.894,0,0,0,11.1-2.29V39.64C39.006,39.619,38.91,39.6,38.811,39.59Z" fill="#e6e6e6"/>
      <circle id="Ellipse_316" data-name="Ellipse 316" cx="2.93" cy="2.93" r="2.93" transform="translate(15.062 24.577)" fill="#ffcdbe"/>
      <circle id="Ellipse_317" data-name="Ellipse 317" cx="2.93" cy="2.93" r="2.93" transform="translate(35.077 24.577)" fill="#faa68e"/>
      <path id="Path_17728" data-name="Path 17728" d="M28,37.078h0A10.336,10.336,0,0,1,17.664,26.742V20.836A10.336,10.336,0,0,1,28,10.5h0A10.336,10.336,0,0,1,38.336,20.836v5.906A10.336,10.336,0,0,1,28,37.078Z" fill="#ffdecf"/>
      <path id="Path_17729" data-name="Path 17729" d="M28,10.5h-.005V37.078H28A10.336,10.336,0,0,0,38.336,26.742V20.836A10.336,10.336,0,0,0,28,10.5Z" fill="#ffbeaa"/>
      <path id="Path_17730" data-name="Path 17730" d="M28,34.262a3.121,3.121,0,0,1-3.117-3.117H26.2a1.8,1.8,0,0,0,3.609,0h1.313A3.121,3.121,0,0,1,28,34.262Z" fill="#ff6838"/>
      <path id="Path_17731" data-name="Path 17731" d="M29.8,31.145a1.807,1.807,0,0,1-1.8,1.8h-.005v1.313H28a3.121,3.121,0,0,0,3.117-3.117Z" fill="#e86035"/>
      <path id="Path_17732" data-name="Path 17732" d="M26.245,7.938A12.206,12.206,0,0,0,15.333,20.075v3.011l1.012-.312V28.49a1.662,1.662,0,0,0,1.662,1.663h0v-2.9a5.113,5.113,0,0,1,5.113-5.113H29.49a4.1,4.1,0,0,0,4.1-4.1h0a4.429,4.429,0,0,1,4.429,4.429v7.682a1.662,1.662,0,0,0,1.663-1.663V17.428a7.561,7.561,0,0,0-3.816-6.568Z" fill="#ffda45"/>
      <path id="Path_17733" data-name="Path 17733" d="M35.867,10.859l-7.872-2.39V22.144h1.5a4.1,4.1,0,0,0,4.1-4.1h0a4.429,4.429,0,0,1,4.429,4.429v7.682a1.662,1.662,0,0,0,1.663-1.663V17.428A7.56,7.56,0,0,0,35.867,10.859Z" fill="#ffbc36"/>
      <path id="Path_17734" data-name="Path 17734" d="M23.246,28.155h0a.889.889,0,0,1-.889-.889v-1.3a.889.889,0,0,1,.889-.889h0a.889.889,0,0,1,.889.889v1.3A.889.889,0,0,1,23.246,28.155Z" fill="#4d4d4d"/>
      <path id="Path_17735" data-name="Path 17735" d="M32.754,28.155h0a.889.889,0,0,1-.889-.889v-1.3a.889.889,0,0,1,.889-.889h0a.889.889,0,0,1,.889.889v1.3A.889.889,0,0,1,32.754,28.155Z" fill="#333"/>
      <path id="Path_17736" data-name="Path 17736" d="M22.729,45.363H14.745V35h5.807a2.177,2.177,0,0,1,2.177,2.177v8.186Z" fill="#ffda45"/>
      <path id="Path_17737" data-name="Path 17737" d="M16.9,53.71a28.058,28.058,0,0,0,22.2,0v-.791H16.9Z" fill="#06a"/>
      <path id="Path_17738" data-name="Path 17738" d="M27.995,52.919V56H28a27.9,27.9,0,0,0,11.1-2.29v-.791Z" fill="#1e2d64"/>
      <rect id="Rectangle_17730" data-name="Rectangle 17730" width="22.203" height="1.823" transform="translate(16.898 49.287)" fill="#06a"/>
      <rect id="Rectangle_17731" data-name="Rectangle 17731" width="11.107" height="1.823" transform="translate(27.995 49.287)" fill="#1e2d64"/>
      <g id="Group_17196" data-name="Group 17196">
        <path id="Path_17739" data-name="Path 17739" d="M13.525,49.815l3.374,1.3V49.287L13.71,48.11Z" fill="#06a"/>
        <path id="Path_17740" data-name="Path 17740" d="M13.89,46.459,16.9,47.615V45.792l-2.823-1.043Z" fill="#06a"/>
        <path id="Path_17741" data-name="Path 17741" d="M16.9,52.92,13.33,51.6l-.025.235A27.947,27.947,0,0,0,16.9,53.71Z" fill="#06a"/>
      </g>
      <g id="Group_17197" data-name="Group 17197">
        <path id="Path_17742" data-name="Path 17742" d="M42.29,48.11,39.1,49.287V51.11l3.374-1.3Z" fill="#1e2d64"/>
        <path id="Path_17743" data-name="Path 17743" d="M41.924,44.749,39.1,45.792v1.823l3.009-1.155Z" fill="#1e2d64"/>
        <path id="Path_17744" data-name="Path 17744" d="M39.1,53.71A27.947,27.947,0,0,0,42.7,51.836L42.67,51.6,39.1,52.92Z" fill="#1e2d64"/>
      </g>
      <rect id="Rectangle_17732" data-name="Rectangle 17732" width="22.203" height="1.823" transform="translate(16.898 45.792)" fill="#06a"/>
      <rect id="Rectangle_17733" data-name="Rectangle 17733" width="11.107" height="1.823" transform="translate(27.995 45.792)" fill="#1e2d64"/>
      <path id="Path_17745" data-name="Path 17745" d="M18.841,39.8l-1.292-.455a2.8,2.8,0,0,1-2.8-2.8V35.248h1.292a2.8,2.8,0,0,1,2.8,2.8Z" fill="#ffbc36"/>
      <path id="Path_17746" data-name="Path 17746" d="M18.841,41.532H17.55a2.8,2.8,0,0,1-2.8-2.8V37.437h1.292a2.8,2.8,0,0,1,2.8,2.8Z" fill="#ffda45"/>
      <path id="Path_17747" data-name="Path 17747" d="M18.632,42l1.292-.513a2.8,2.8,0,0,0,2.8-2.8V37.392H21.436a2.8,2.8,0,0,0-2.8,2.8Z" fill="#ffbc36"/>
      <path id="Path_17748" data-name="Path 17748" d="M18.632,43.691h1.292a2.8,2.8,0,0,0,2.8-2.8V39.6H21.436a2.8,2.8,0,0,0-2.8,2.8Z" fill="#ffda45"/>
      <path id="Path_17749" data-name="Path 17749" d="M18.841,44.1l-1.292-.378a2.8,2.8,0,0,1-2.8-2.8V39.625h1.292a2.8,2.8,0,0,1,2.8,2.8Z" fill="#ffbc36"/>
      <path id="Path_17750" data-name="Path 17750" d="M18.841,45.909H17.55a2.8,2.8,0,0,1-2.8-2.8V41.813h1.292a2.8,2.8,0,0,1,2.8,2.8Z" fill="#ffda45"/>
      <path id="Path_17751" data-name="Path 17751" d="M18.632,46.238l1.292-.344a2.8,2.8,0,0,0,2.8-2.8V41.8H21.436a2.8,2.8,0,0,0-2.8,2.8Z" fill="#ffbc36"/>
      <g id="Group_17198" data-name="Group 17198">
        <path id="Path_17752" data-name="Path 17752" d="M18.632,48.1h1.292a2.8,2.8,0,0,0,2.8-2.8V44H21.436a2.8,2.8,0,0,0-2.8,2.8Z" fill="#ffda45"/>
        <path id="Path_17753" data-name="Path 17753" d="M18.765,53.543l1.1-1.1a3.392,3.392,0,0,0,0-4.8l-1.1-1.1-1.1,1.1a3.392,3.392,0,0,0,0,4.8Z" fill="#ffda45"/>
      </g>
      <path id="Path_17754" data-name="Path 17754" d="M18.841,48.1H17.55a2.8,2.8,0,0,1-2.8-2.8V44h1.292a2.8,2.8,0,0,1,2.8,2.8Z" fill="#ffbc36"/>
      <path id="Path_17755" data-name="Path 17755" d="M29.176,25.594h-1.6a4.485,4.485,0,1,0,.032,1.313h1.566ZM23.16,29.531a3.172,3.172,0,1,1,3.172-3.172A3.175,3.175,0,0,1,23.16,29.531Z" fill="#666"/>
      <path id="Path_17756" data-name="Path 17756" d="M32.84,21.875a4.491,4.491,0,0,0-4.418,3.719h-.427v1.313h.4a4.484,4.484,0,1,0,4.45-5.031Zm0,7.656a3.172,3.172,0,1,1,3.172-3.172A3.175,3.175,0,0,1,32.84,29.531Z" fill="#4d4d4d"/>
    </g>
  </g>
</svg>
