<svg xmlns="http://www.w3.org/2000/svg" xmlns:xlink="http://www.w3.org/1999/xlink" width="56" height="56" viewBox="0 0 56 56">
  <defs>
    <clipPath id="clip-path">
      <circle id="back" cx="28" cy="28" r="28" transform="translate(289 232)" fill="#ef5388"/>
    </clipPath>
  </defs>
  <g id="_5" data-name="5" transform="translate(-289 -232)" clip-path="url(#clip-path)">
    <g id="_033-man-5" data-name="033-man-5" transform="translate(289 232)">
      <circle id="Ellipse_323" data-name="Ellipse 323" cx="28" cy="28" r="28" fill="#91cdff"/>
      <path id="Path_17772" data-name="Path 17772" d="M37.265,10.254,14.9,29.353l24.31,24.31A28.007,28.007,0,0,0,55.981,28.97Z" fill="#1e8ce6"/>
      <path id="Path_17773" data-name="Path 17773" d="M28,35.323h0a13.1,13.1,0,0,1-13.1-13.1V19.511A13.1,13.1,0,0,1,28,6.414h0a13.1,13.1,0,0,1,13.1,13.1v2.714A13.1,13.1,0,0,1,28,35.323Z" fill="#aa6e4d"/>
      <path id="Path_17774" data-name="Path 17774" d="M28,6.414h-.005V35.322H28a13.1,13.1,0,0,0,13.1-13.1V19.511A13.1,13.1,0,0,0,28,6.414Z" fill="#9b6043"/>
      <path id="Path_17775" data-name="Path 17775" d="M14.9,20.672v1.553A13.1,13.1,0,0,0,28,35.323h0a13.1,13.1,0,0,0,13.1-13.1V20.672Z" fill="#c18761"/>
      <path id="Path_17776" data-name="Path 17776" d="M27.995,20.672V35.322H28a13.1,13.1,0,0,0,13.1-13.1V20.672Z" fill="#aa6e4d"/>
      <circle id="Ellipse_324" data-name="Ellipse 324" cx="3.175" cy="3.175" r="3.175" transform="translate(13.98 23.94)" fill="#ffcdbe"/>
      <circle id="Ellipse_325" data-name="Ellipse 325" cx="3.175" cy="3.175" r="3.175" transform="translate(35.669 23.94)" fill="#faa68e"/>
      <path id="Path_17777" data-name="Path 17777" d="M28,56a27.879,27.879,0,0,0,17.417-6.077l-.692-6.364A3.576,3.576,0,0,0,41.616,40.4l-9.551-1.1V33.575H23.936v5.718l-9.551,1.1a3.576,3.576,0,0,0-3.109,3.161l-.692,6.364A27.879,27.879,0,0,0,28,56Z" fill="#ffcdbe"/>
      <path id="Path_17778" data-name="Path 17778" d="M45.417,49.923l-.692-6.364A3.576,3.576,0,0,0,41.616,40.4l-9.551-1.1V33.575H27.995V56H28A27.88,27.88,0,0,0,45.417,49.923Z" fill="#faa68e"/>
      <path id="Path_17779" data-name="Path 17779" d="M28,37.486h0a11.2,11.2,0,0,1-11.2-11.2v-6.4A11.2,11.2,0,0,1,28,8.686h0a11.2,11.2,0,0,1,11.2,11.2v6.4A11.2,11.2,0,0,1,28,37.486Z" fill="#ffdecf"/>
      <path id="Path_17780" data-name="Path 17780" d="M28,8.686h-.005v28.8H28a11.2,11.2,0,0,0,11.2-11.2v-6.4A11.2,11.2,0,0,0,28,8.686Z" fill="#ffbeaa"/>
      <path id="Path_17781" data-name="Path 17781" d="M28,33.906a3.327,3.327,0,0,1-3.323-3.323H25.99a2.01,2.01,0,0,0,4.021,0h1.313A3.327,3.327,0,0,1,28,33.906Z" fill="#ff9451"/>
      <path id="Path_17782" data-name="Path 17782" d="M30.01,30.583A2.013,2.013,0,0,1,28,32.593h-.005v1.313H28a3.327,3.327,0,0,0,3.323-3.323Z" fill="#f7674f"/>
      <path id="Path_17783" data-name="Path 17783" d="M25.5,8.422a9.171,9.171,0,0,0-9.171,9.171v10.9a1.662,1.662,0,0,0,1.662,1.663V16.924A2.419,2.419,0,0,1,20.413,14.5h0a2.419,2.419,0,0,1,2.419,2.419v.016a2.419,2.419,0,0,0,2.419,2.419h5.5a2.419,2.419,0,0,0,2.419-2.419v-.016A2.419,2.419,0,0,1,35.588,14.5h0a2.419,2.419,0,0,1,2.419,2.419V30.153a1.662,1.662,0,0,0,1.662-1.663v-10.9A9.171,9.171,0,0,0,30.5,8.422Z" fill="#aa6e4d"/>
      <path id="Path_17784" data-name="Path 17784" d="M30.5,8.422h-2.5V19.359h2.754a2.419,2.419,0,0,0,2.419-2.419v-.016a2.419,2.419,0,1,1,4.839,0V30.153a1.662,1.662,0,0,0,1.663-1.663v-10.9A9.171,9.171,0,0,0,30.5,8.422Z" fill="#9b6043"/>
      <path id="Path_17785" data-name="Path 17785" d="M16.331,28.49a1.662,1.662,0,0,0,1.662,1.663V20.672H16.331Z" fill="#c18761"/>
      <path id="Path_17786" data-name="Path 17786" d="M38.007,20.672v9.481a1.662,1.662,0,0,0,1.663-1.663V20.672Z" fill="#aa6e4d"/>
      <path id="Path_17787" data-name="Path 17787" d="M23.246,28.155h0a.889.889,0,0,1-.889-.889v-1.3a.889.889,0,0,1,.889-.889h0a.889.889,0,0,1,.889.889v1.3A.889.889,0,0,1,23.246,28.155Z" fill="#4d4d4d"/>
      <path id="Path_17788" data-name="Path 17788" d="M32.754,28.155h0a.889.889,0,0,1-.889-.889v-1.3a.889.889,0,0,1,.889-.889h0a.889.889,0,0,1,.889.889v1.3A.889.889,0,0,1,32.754,28.155Z" fill="#333"/>
      <path id="Path_17789" data-name="Path 17789" d="M33.434,32.747a1.92,1.92,0,0,0-1.476.683,2.24,2.24,0,0,1-1.724.808H25.767a2.239,2.239,0,0,1-1.724-.808,1.92,1.92,0,0,0-1.476-.683h0v2.866A3.135,3.135,0,0,0,25.7,38.748h4.6a3.135,3.135,0,0,0,3.135-3.135V32.747Z" fill="#aa6e4d"/>
      <g id="Group_17201" data-name="Group 17201">
        <path id="Path_17790" data-name="Path 17790" d="M31.958,33.43a2.239,2.239,0,0,1-1.724.808H27.995v4.51h2.3a3.135,3.135,0,0,0,3.135-3.135V32.747A1.92,1.92,0,0,0,31.958,33.43Z" fill="#9b6043"/>
        <path id="Path_17791" data-name="Path 17791" d="M22.566,33.456a1.92,1.92,0,0,0,1.476-.683,2.24,2.24,0,0,1,1.724-.808h4.467a2.239,2.239,0,0,1,1.724.808,1.92,1.92,0,0,0,1.476.683h0v-.527A3.135,3.135,0,0,0,30.3,29.794H25.7a3.135,3.135,0,0,0-3.135,3.135v.527Z" fill="#9b6043"/>
      </g>
      <path id="Path_17792" data-name="Path 17792" d="M30.3,29.794h-2.3v2.171h2.239a2.239,2.239,0,0,1,1.724.808,1.92,1.92,0,0,0,1.476.683v-.527A3.135,3.135,0,0,0,30.3,29.794Z" fill="#7c4a35"/>
      <path id="Path_17793" data-name="Path 17793" d="M44.725,43.559A3.576,3.576,0,0,0,41.616,40.4L32.557,39.35c-.867,1.63-2.582,6.186-4.557,6.186s-3.691-4.556-4.557-6.186L14.384,40.4a3.576,3.576,0,0,0-3.109,3.161l-.692,6.364a28,28,0,0,0,34.834,0Z" fill="#e6e6e6"/>
      <path id="Path_17794" data-name="Path 17794" d="M45.417,49.923l-.692-6.364A3.576,3.576,0,0,0,41.616,40.4L32.557,39.35c-.867,1.63-2.582,6.186-4.557,6.186h-.005V56H28A27.88,27.88,0,0,0,45.417,49.923Z" fill="#ccc"/>
      <path id="Path_17795" data-name="Path 17795" d="M32.557,39.35,28,45.536,32.63,47.9l2.712-8.227Z" fill="#e0e0e0"/>
      <path id="Path_17796" data-name="Path 17796" d="M23.443,39.35l4.552,6.186L23.37,47.9l-2.712-8.227Z" fill="#fff"/>
    </g>
  </g>
</svg>
