<svg xmlns="http://www.w3.org/2000/svg" xmlns:xlink="http://www.w3.org/1999/xlink" width="56" height="56" viewBox="0 0 56 56">
  <defs>
    <clipPath id="clip-path">
      <circle id="back" cx="28" cy="28" r="28" transform="translate(30 303)" fill="#ef5388"/>
    </clipPath>
  </defs>
  <g id="_6" data-name="6" transform="translate(-30 -303)" clip-path="url(#clip-path)">
    <g id="_006-man-14" data-name="006-man-14" transform="translate(30 303)">
      <circle id="Ellipse_300" data-name="Ellipse 300" cx="28" cy="28" r="28" fill="#06a"/>
      <path id="Path_17617" data-name="Path 17617" d="M14.815,29.26l24.4,24.4A28.007,28.007,0,0,0,55.98,29L34.769,7.788Z" fill="#1e2d64"/>
      <path id="Path_17618" data-name="Path 17618" d="M14.465,27.043c0-1.883.875-1.883.875-3.766s-.875-1.883-.875-3.766c0-1.173,1.014-2.2,1.3-3.278.3-1.119-.059-2.511.508-3.491s1.965-1.377,2.771-2.183,1.189-2.2,2.183-2.771,2.372-.209,3.491-.508c1.082-.289,2.105-1.3,3.278-1.3v0c1.173,0,2.2,1.014,3.278,1.3,1.119.3,2.511-.059,3.491.508s1.377,1.965,2.183,2.771,2.2,1.189,2.771,2.183.209,2.372.508,3.491c.289,1.081,1.3,2.105,1.3,3.278,0,1.883-.875,1.883-.875,3.766s.875,1.883.875,3.766Z" fill="#ff6838"/>
      <path id="Path_17619" data-name="Path 17619" d="M40.66,23.277c0-1.883.875-1.883.875-3.766,0-1.173-1.014-2.2-1.3-3.278-.3-1.119.059-2.511-.508-3.491s-1.965-1.377-2.771-2.183-1.189-2.2-2.183-2.771S32.4,7.579,31.278,7.28c-1.082-.289-2.105-1.3-3.278-1.3v0h-.005V27.043h13.54C41.535,25.159,40.66,25.159,40.66,23.277Z" fill="#e86035"/>
      <circle id="Ellipse_301" data-name="Ellipse 301" cx="3.175" cy="3.175" r="3.175" transform="translate(13.98 23.94)" fill="#ffcdbe"/>
      <circle id="Ellipse_302" data-name="Ellipse 302" cx="3.175" cy="3.175" r="3.175" transform="translate(35.669 23.94)" fill="#faa68e"/>
      <path id="Path_17620" data-name="Path 17620" d="M28,56a27.879,27.879,0,0,0,17.417-6.077l-.692-6.364A3.576,3.576,0,0,0,41.616,40.4l-9.551-1.1V33.575H23.936v5.718l-9.551,1.1a3.576,3.576,0,0,0-3.109,3.161l-.692,6.364A27.879,27.879,0,0,0,28,56Z" fill="#ffcdbe"/>
      <path id="Path_17621" data-name="Path 17621" d="M45.417,49.923l-.692-6.364A3.576,3.576,0,0,0,41.616,40.4l-9.551-1.1V33.575H27.995V56H28A27.879,27.879,0,0,0,45.417,49.923Z" fill="#faa68e"/>
      <path id="Path_17622" data-name="Path 17622" d="M28,37.486h0a11.2,11.2,0,0,1-11.2-11.2v-6.4A11.2,11.2,0,0,1,28,8.686h0a11.2,11.2,0,0,1,11.2,11.2v6.4A11.2,11.2,0,0,1,28,37.486Z" fill="#ffdecf"/>
      <path id="Path_17623" data-name="Path 17623" d="M28,8.686h-.005v28.8H28a11.2,11.2,0,0,0,11.2-11.2v-6.4A11.2,11.2,0,0,0,28,8.686Z" fill="#ffbeaa"/>
      <path id="Path_17624" data-name="Path 17624" d="M28,34.379a3.327,3.327,0,0,1-3.323-3.323H25.99a2.01,2.01,0,0,0,4.021,0h1.313A3.327,3.327,0,0,1,28,34.379Z" fill="#ff9451"/>
      <path id="Path_17625" data-name="Path 17625" d="M30.01,31.056A2.013,2.013,0,0,1,28,33.066h-.005v1.313H28a3.327,3.327,0,0,0,3.323-3.323Z" fill="#f7674f"/>
      <path id="Path_17626" data-name="Path 17626" d="M44.725,43.559A3.576,3.576,0,0,0,41.616,40.4L32.557,39.35a5.159,5.159,0,0,1-9.115,0L14.384,40.4a3.576,3.576,0,0,0-3.109,3.161l-.692,6.364a28,28,0,0,0,34.834,0Z" fill="#f2f2f2"/>
      <path id="Path_17627" data-name="Path 17627" d="M45.417,49.923l-.692-6.364A3.576,3.576,0,0,0,41.616,40.4L32.557,39.35A5.157,5.157,0,0,1,28,42.091h-.005V56H28A27.879,27.879,0,0,0,45.417,49.923Z" fill="#e6e6e6"/>
      <path id="Path_17628" data-name="Path 17628" d="M23.246,28.155h0a.889.889,0,0,1-.889-.889v-1.3a.889.889,0,0,1,.889-.889h0a.889.889,0,0,1,.889.889v1.3A.889.889,0,0,1,23.246,28.155Z" fill="#4d4d4d"/>
      <path id="Path_17629" data-name="Path 17629" d="M32.754,28.155h0a.889.889,0,0,1-.889-.889v-1.3a.889.889,0,0,1,.889-.889h0a.889.889,0,0,1,.889.889v1.3A.889.889,0,0,1,32.754,28.155Z" fill="#333"/>
      <path id="Path_17630" data-name="Path 17630" d="M35.853,10.859l-1.386-.79a3.418,3.418,0,0,0-3.691-2.617l-4.546.485A12.206,12.206,0,0,0,15.319,20.075v3.011l1.012-.312V28.49a1.662,1.662,0,0,0,1.662,1.663v-2.9a5.108,5.108,0,0,1,2.413-4.342,3.086,3.086,0,0,0,1.973.71h3a3.1,3.1,0,0,0,2.643-1.481h1.459a4.1,4.1,0,0,0,4.1-4.1h0a4.429,4.429,0,0,1,4.429,4.429v7.682a1.662,1.662,0,0,0,1.663-1.663V17.428A7.56,7.56,0,0,0,35.853,10.859Z" fill="#ff6838"/>
      <path id="Path_17631" data-name="Path 17631" d="M35.853,10.859l-1.386-.79a3.418,3.418,0,0,0-3.691-2.617l-2.782.3V22.18l.023-.035h1.458a4.1,4.1,0,0,0,4.1-4.1h0a4.429,4.429,0,0,1,4.429,4.429v7.682a1.662,1.662,0,0,0,1.663-1.663V17.428A7.56,7.56,0,0,0,35.853,10.859Z" fill="#e86035"/>
      <path id="Path_17632" data-name="Path 17632" d="M36.908,52.081,34.73,53.288l-2.063-1.2a1.928,1.928,0,0,1-.959-1.667V46.1H37.9v4.29A1.928,1.928,0,0,1,36.908,52.081Z" fill="silver"/>
    </g>
  </g>
</svg>
