<svg xmlns="http://www.w3.org/2000/svg" xmlns:xlink="http://www.w3.org/1999/xlink" width="56" height="56" viewBox="0 0 56 56">
  <defs>
    <clipPath id="clip-path">
      <circle id="back" cx="28" cy="28" r="28" transform="translate(95 303)" fill="#ef5388"/>
    </clipPath>
  </defs>
  <g id="_7" data-name="7" transform="translate(-95 -303)" clip-path="url(#clip-path)">
    <g id="_029-man-7" data-name="029-man-7" transform="translate(95 303)">
      <circle id="Ellipse_306" data-name="Ellipse 306" cx="28" cy="28" r="28" fill="#ffda45"/>
      <path id="Path_17657" data-name="Path 17657" d="M39.222,53.658a28.005,28.005,0,0,0,16.771-25.14l-18.5-18.5-.064.58L34.714,7.883l-19.968,21.3Z" fill="#ffbc36"/>
      <path id="Path_17658" data-name="Path 17658" d="M20.739,36.6H39.083v5.724H16.99V36.6Z" fill="#b9eaff"/>
      <rect id="Rectangle_17729" data-name="Rectangle 17729" width="11.088" height="5.724" transform="translate(27.995 36.605)" fill="#91cdff"/>
      <path id="Path_17659" data-name="Path 17659" d="M14.575,27.629c0-1.015.656-1.015.656-2.029s-.656-1.015-.656-2.029.656-1.015.656-2.03-.656-1.015-.656-2.03c0-.58.691-1.108.764-1.668s-.456-1.261-.31-1.808.953-.888,1.171-1.412-.113-1.333.172-1.826,1.15-.607,1.5-1.06.234-1.316.638-1.72,1.266-.289,1.72-.638.563-1.21,1.06-1.5,1.3.048,1.826-.172.856-1.022,1.412-1.171,1.235.384,1.808.31S27.42,6.086,28,6.086v0c.58,0,1.108.691,1.668.764s1.261-.456,1.808-.31.888.953,1.412,1.171,1.333-.113,1.826.172.607,1.15,1.06,1.5,1.316.234,1.72.638.289,1.266.638,1.72,1.21.563,1.5,1.06-.048,1.3.172,1.826,1.022.856,1.171,1.412-.384,1.235-.31,1.808.764,1.088.764,1.668c0,1.014-.656,1.014-.656,2.028s.656,1.014.656,2.029-.656,1.015-.656,2.029.656,1.014.656,2.029Z" fill="#4d4d4d"/>
      <path id="Path_17660" data-name="Path 17660" d="M40.769,21.54c0-1.014.656-1.014.656-2.028,0-.58-.691-1.108-.764-1.668s.456-1.261.31-1.808-.953-.888-1.171-1.412.113-1.333-.172-1.826-1.15-.607-1.5-1.06-.234-1.316-.638-1.72-1.266-.289-1.72-.638-.563-1.21-1.06-1.5-1.3.048-1.826-.172-.856-1.022-1.412-1.171-1.235.384-1.808.31S28.58,6.086,28,6.086v0h-.005V27.628l13.43,0c0-1.014-.656-1.014-.656-2.029s.656-1.015.656-2.029S40.769,22.554,40.769,21.54Z" fill="#333"/>
      <circle id="Ellipse_307" data-name="Ellipse 307" cx="3.175" cy="3.175" r="3.175" transform="translate(13.98 23.94)" fill="#aa6e4d"/>
      <circle id="Ellipse_308" data-name="Ellipse 308" cx="3.175" cy="3.175" r="3.175" transform="translate(35.669 23.94)" fill="#9b6043"/>
      <path id="Path_17661" data-name="Path 17661" d="M28,56a27.879,27.879,0,0,0,17.417-6.077l-.692-6.364A3.576,3.576,0,0,0,41.616,40.4l-9.551-1.1V33.575H23.936v5.718l-9.551,1.1a3.576,3.576,0,0,0-3.109,3.161l-.692,6.364A27.879,27.879,0,0,0,28,56Z" fill="#aa6e4d"/>
      <path id="Path_17662" data-name="Path 17662" d="M45.417,49.923l-.692-6.364A3.576,3.576,0,0,0,41.616,40.4l-9.551-1.1V33.575H27.995V56H28A27.88,27.88,0,0,0,45.417,49.923Z" fill="#9b6043"/>
      <path id="Path_17663" data-name="Path 17663" d="M28,37.486h0a11.2,11.2,0,0,1-11.2-11.2v-6.4A11.2,11.2,0,0,1,28,8.686h0a11.2,11.2,0,0,1,11.2,11.2v6.4A11.2,11.2,0,0,1,28,37.486Z" fill="#c18761"/>
      <path id="Path_17664" data-name="Path 17664" d="M28,8.686h-.005v28.8H28a11.2,11.2,0,0,0,11.2-11.2v-6.4A11.2,11.2,0,0,0,28,8.686Z" fill="#aa6e4d"/>
      <path id="Path_17665" data-name="Path 17665" d="M28,34.379a3.327,3.327,0,0,1-3.323-3.323H25.99a2.01,2.01,0,0,0,4.021,0h1.313A3.327,3.327,0,0,1,28,34.379Z" fill="#9b6043"/>
      <path id="Path_17666" data-name="Path 17666" d="M30.01,31.056A2.013,2.013,0,0,1,28,33.066h-.005v1.313H28a3.327,3.327,0,0,0,3.323-3.323Z" fill="#7f462d"/>
      <path id="Path_17667" data-name="Path 17667" d="M44.725,43.559A3.576,3.576,0,0,0,41.616,40.4L32.557,39.35a5.159,5.159,0,0,1-9.115,0L14.384,40.4a3.576,3.576,0,0,0-3.109,3.161l-.692,6.364a28,28,0,0,0,34.834,0Z" fill="#91cdff"/>
      <path id="Path_17668" data-name="Path 17668" d="M45.417,49.923l-.692-6.364A3.576,3.576,0,0,0,41.616,40.4L32.557,39.35A5.157,5.157,0,0,1,28,42.091h-.005V56H28A27.88,27.88,0,0,0,45.417,49.923Z" fill="#1e8ce6"/>
      <path id="Path_17669" data-name="Path 17669" d="M23.246,28.155h0a.889.889,0,0,1-.889-.889v-1.3a.889.889,0,0,1,.889-.889h0a.889.889,0,0,1,.889.889v1.3A.889.889,0,0,1,23.246,28.155Z" fill="#4d4d4d"/>
      <path id="Path_17670" data-name="Path 17670" d="M32.754,28.155h0a.889.889,0,0,1-.889-.889v-1.3a.889.889,0,0,1,.889-.889h0a.889.889,0,0,1,.889.889v1.3A.889.889,0,0,1,32.754,28.155Z" fill="#333"/>
      <path id="Path_17671" data-name="Path 17671" d="M35.853,10.859l-1.386-.79a3.418,3.418,0,0,0-3.691-2.617l-4.546.485A12.206,12.206,0,0,0,15.319,20.075v3.011l1.012-.312V28.49a1.662,1.662,0,0,0,1.662,1.663V30.11a.84.84,0,0,1,.461-.736,1.02,1.02,0,0,0-.124-1.856.5.5,0,0,1-.321-.493v-.013a.511.511,0,0,1,.455-.478,1.057,1.057,0,0,0,.172-.037,1.02,1.02,0,0,0,.435-1.685.493.493,0,0,1-.041-.643l.01-.013a.488.488,0,0,1,.636-.126,1.02,1.02,0,0,0,1.524-.693,1.04,1.04,0,0,0-.008-.41.433.433,0,0,1,.277-.514L21.5,22.4a.452.452,0,0,1,.539.215,1.02,1.02,0,0,0,1.857-.147.5.5,0,0,1,.479-.328h0a.5.5,0,0,1,.479.328,1.02,1.02,0,0,0,1.926-.009.458.458,0,0,1,.429-.319h.057a.458.458,0,0,1,.429.319,1.021,1.021,0,0,0,1.892.095.812.812,0,0,1,.584-.472l.051-.009a.9.9,0,0,1,.67.13,1.02,1.02,0,0,0,1.582-1.016.616.616,0,0,1,.14-.5l0-.005a.675.675,0,0,1,.479-.233.993.993,0,0,0,.3-.066,1.032,1.032,0,0,0,.658-.843,1.016,1.016,0,0,0-.208-.735,1.236,1.236,0,0,1-.26-.76v-.005H33.8a.365.365,0,0,1,.361.34,1,1,0,0,0,.05.241,1.032,1.032,0,0,0,.862.694,1.018,1.018,0,0,0,.909-.387.15.15,0,0,1,.207-.033l.024.018a.151.151,0,0,1,.023.215,1.015,1.015,0,0,0-.216.709,1.02,1.02,0,0,0,1.336.891.293.293,0,0,1,.361.177l.007.02a.294.294,0,0,1-.139.356,1.02,1.02,0,0,0,.058,1.8.645.645,0,0,1,.358.579h0a.645.645,0,0,1-.358.579,1.021,1.021,0,0,0,.032,1.846.535.535,0,0,1,.327.484v.051a.535.535,0,0,1-.327.484,1.02,1.02,0,0,0-.212,1.733,1.48,1.48,0,0,1,.539,1.169v.146a1.662,1.662,0,0,0,1.663-1.663V17.428A7.561,7.561,0,0,0,35.853,10.859Z" fill="#4d4d4d"/>
      <path id="Path_17672" data-name="Path 17672" d="M35.853,10.859l-1.386-.79a3.418,3.418,0,0,0-3.691-2.617l-2.782.3V22.907a1.02,1.02,0,0,0,1.588-.35.813.813,0,0,1,.584-.472l.051-.009a.9.9,0,0,1,.67.13,1.02,1.02,0,0,0,1.582-1.016.616.616,0,0,1,.14-.5l0-.005a.675.675,0,0,1,.479-.233.993.993,0,0,0,.3-.066,1.032,1.032,0,0,0,.658-.843,1.016,1.016,0,0,0-.208-.735,1.236,1.236,0,0,1-.26-.76v-.005H33.8a.365.365,0,0,1,.361.34,1,1,0,0,0,.05.241,1.031,1.031,0,0,0,.862.694,1.018,1.018,0,0,0,.909-.387.15.15,0,0,1,.207-.033l.024.018a.151.151,0,0,1,.023.215,1.015,1.015,0,0,0-.216.709,1.02,1.02,0,0,0,1.336.891.293.293,0,0,1,.361.177l.007.019a.294.294,0,0,1-.139.356,1.02,1.02,0,0,0,.058,1.8.647.647,0,0,1,0,1.158,1.021,1.021,0,0,0,.031,1.847.536.536,0,0,1,.327.484v.051a.536.536,0,0,1-.327.484,1.02,1.02,0,0,0-.212,1.733,1.479,1.479,0,0,1,.539,1.169v.146a1.662,1.662,0,0,0,1.663-1.663V17.428A7.56,7.56,0,0,0,35.853,10.859Z" fill="#333"/>
      <path id="Path_17673" data-name="Path 17673" d="M38.719,40.76a2.195,2.195,0,0,0-.121-.712l-6.041-.7a5.159,5.159,0,0,1-9.115,0l-6.419.742a1.518,1.518,0,0,0-.107.668c.283,1.964,11.078,8.747,11.078,8.747S38.719,43.4,38.719,40.76Z" fill="#f1333f"/>
      <path id="Path_17674" data-name="Path 17674" d="M38.6,40.049l-6.041-.7A5.157,5.157,0,0,1,28,42.091h-.005v7.416h0S38.719,43.4,38.719,40.76A2.194,2.194,0,0,0,38.6,40.049Z" fill="#ae283f"/>
      <path id="Path_17675" data-name="Path 17675" d="M19.284,41.958a2.874,2.874,0,0,1-1.42-2.479h0A2.875,2.875,0,0,1,20.739,36.6H16.8a2.875,2.875,0,0,0-2.875,2.875h0a2.874,2.874,0,0,0,1.42,2.479l12.648,7.549-.128-.749a.64.64,0,0,0-.047-.152,7.73,7.73,0,0,0-3.129-3.477Z" fill="#fff"/>
      <path id="Path_17676" data-name="Path 17676" d="M36.716,41.958a2.874,2.874,0,0,0,1.42-2.479h0A2.875,2.875,0,0,0,35.261,36.6H39.2a2.875,2.875,0,0,1,2.875,2.875h0a2.874,2.874,0,0,1-1.42,2.479L27.995,49.507l.138-.749a.64.64,0,0,1,.047-.152,7.73,7.73,0,0,1,3.129-3.477Z" fill="#e0e0e0"/>
      <path id="Path_17677" data-name="Path 17677" d="M25.1,54.25a.656.656,0,0,1-.656-.656V46.977a.656.656,0,0,1,1.313,0v6.617A.656.656,0,0,1,25.1,54.25Z" fill="#008cc3"/>
      <path id="Path_17678" data-name="Path 17678" d="M30.9,54.25a.656.656,0,0,1-.656-.656V46.977a.656.656,0,0,1,1.313,0v6.617A.656.656,0,0,1,30.9,54.25Z" fill="#0074a3"/>
    </g>
  </g>
</svg>
