<svg xmlns="http://www.w3.org/2000/svg" xmlns:xlink="http://www.w3.org/1999/xlink" width="57" height="56" viewBox="0 0 57 56">
  <defs>
    <clipPath id="clip-path">
      <ellipse id="back" cx="28.5" cy="28" rx="28.5" ry="28" transform="translate(159 303)" fill="#ef5388"/>
    </clipPath>
  </defs>
  <g id="_8" data-name="8" transform="translate(-159 -303)" clip-path="url(#clip-path)">
    <g id="_043-woman-2" data-name="043-woman-2" transform="translate(159.5 303)">
      <circle id="Ellipse_312" data-name="Ellipse 312" cx="28" cy="28" r="28" fill="#ff3f84"/>
      <path id="Path_17700" data-name="Path 17700" d="M18.9,33.7,38.966,53.77a28.011,28.011,0,0,0,17-24.517L36.886,10.168Z" fill="#983262"/>
      <path id="Path_17701" data-name="Path 17701" d="M28,37.322h0A13.254,13.254,0,0,1,14.746,24.068V20A13.254,13.254,0,0,1,28,6.748h0A13.254,13.254,0,0,1,41.254,20v4.065A13.254,13.254,0,0,1,28,37.322Z" fill="#ffda45"/>
      <path id="Path_17702" data-name="Path 17702" d="M28,6.748h-.005V37.322H28A13.254,13.254,0,0,0,41.254,24.068V20A13.254,13.254,0,0,0,28,6.748Z" fill="#ffbc36"/>
      <path id="Path_17703" data-name="Path 17703" d="M28,8.286h0c-6.584,0-11.921,5.078-11.921,11.342V22.75c0-6.264,5.337-11.342,11.921-11.342h0c6.584,0,11.921,5.078,11.921,11.342V19.628C39.921,13.364,34.584,8.286,28,8.286Z" fill="#733c82"/>
      <path id="Path_17704" data-name="Path 17704" d="M28,8.286h-.005v3.122H28c6.584,0,11.921,5.078,11.921,11.342V19.628C39.921,13.364,34.584,8.286,28,8.286Z" fill="#4b285a"/>
      <circle id="Ellipse_313" data-name="Ellipse 313" cx="2.93" cy="2.93" r="2.93" transform="translate(15.062 24.577)" fill="#ffcdbe"/>
      <circle id="Ellipse_314" data-name="Ellipse 314" cx="2.93" cy="2.93" r="2.93" transform="translate(35.077 24.577)" fill="#faa68e"/>
      <path id="Path_17705" data-name="Path 17705" d="M28,56a27.867,27.867,0,0,0,14.7-4.164L41.68,42.508a3.3,3.3,0,0,0-2.869-2.918l-7.061-.844V33.469h-7.5v5.277l-7.061.844a3.3,3.3,0,0,0-2.869,2.918L13.3,51.836A27.867,27.867,0,0,0,28,56Z" fill="#ffcdbe"/>
      <path id="Path_17706" data-name="Path 17706" d="M42.7,51.836,41.68,42.508a3.3,3.3,0,0,0-2.869-2.918l-7.061-.844V33.469H27.995V56H28A27.867,27.867,0,0,0,42.7,51.836Z" fill="#faa68e"/>
      <path id="Path_17707" data-name="Path 17707" d="M28,37.078h0A10.336,10.336,0,0,1,17.664,26.742V20.836A10.336,10.336,0,0,1,28,10.5h0A10.336,10.336,0,0,1,38.336,20.836v5.906A10.336,10.336,0,0,1,28,37.078Z" fill="#ffdecf"/>
      <path id="Path_17708" data-name="Path 17708" d="M28,10.5h-.005V37.078H28A10.336,10.336,0,0,0,38.336,26.742V20.836A10.336,10.336,0,0,0,28,10.5Z" fill="#ffbeaa"/>
      <path id="Path_17709" data-name="Path 17709" d="M23.246,28.155h0a.889.889,0,0,1-.889-.889v-1.3a.889.889,0,0,1,.889-.889h0a.889.889,0,0,1,.889.889v1.3A.889.889,0,0,1,23.246,28.155Z" fill="#4d4d4d"/>
      <path id="Path_17710" data-name="Path 17710" d="M32.754,28.155h0a.889.889,0,0,1-.889-.889v-1.3a.889.889,0,0,1,.889-.889h0a.889.889,0,0,1,.889.889v1.3A.889.889,0,0,1,32.754,28.155Z" fill="#333"/>
      <path id="Path_17711" data-name="Path 17711" d="M28,34.262a3.121,3.121,0,0,1-3.117-3.117H26.2a1.8,1.8,0,0,0,3.609,0h1.313A3.121,3.121,0,0,1,28,34.262Z" fill="#ff6838"/>
      <path id="Path_17712" data-name="Path 17712" d="M29.8,31.145a1.807,1.807,0,0,1-1.8,1.8h-.005v1.313H28a3.121,3.121,0,0,0,3.117-3.117Z" fill="#e86035"/>
      <path id="Path_17713" data-name="Path 17713" d="M41.68,42.508a3.3,3.3,0,0,0-2.869-2.918l-4.554-.544a6.617,6.617,0,0,1-12.725.025l-4.343.519a3.3,3.3,0,0,0-2.869,2.918L13.3,51.836a28.015,28.015,0,0,0,29.391,0Z" fill="#4b285a"/>
      <path id="Path_17714" data-name="Path 17714" d="M42.7,51.836,41.68,42.508a3.3,3.3,0,0,0-2.869-2.918l-4.554-.544a6.619,6.619,0,0,1-6.262,4.813V56H28A27.867,27.867,0,0,0,42.7,51.836Z" fill="#330822"/>
      <path id="Path_17715" data-name="Path 17715" d="M40.513,22.681a12.512,12.512,0,1,0-25.025,0h1.356V28a1.831,1.831,0,0,0,1.831,1.831V26.084a3.4,3.4,0,0,1,3.4-3.4H33.922a3.4,3.4,0,0,1,3.4,3.4v3.749A1.831,1.831,0,0,0,39.156,28V22.681Z" fill="#ffda45"/>
      <path id="Path_17716" data-name="Path 17716" d="M28,10.168h-.005V22.681h5.927a3.4,3.4,0,0,1,3.4,3.4v3.749A1.831,1.831,0,0,0,39.156,28V22.681h1.356A12.512,12.512,0,0,0,28,10.168Z" fill="#ffbc36"/>
      <path id="Path_17717" data-name="Path 17717" d="M20.182,39.232l3.866,5.4a2.119,2.119,0,0,0,3.5-.073l.451-.7-4.56-5.015Z" fill="#ff3f84"/>
      <path id="Path_17718" data-name="Path 17718" d="M35.818,39.232l-3.866,5.4a2.119,2.119,0,0,1-3.5-.073l-.462-.7,4.571-5.015Z" fill="#983262"/>
    </g>
  </g>
</svg>
