<svg xmlns="http://www.w3.org/2000/svg" xmlns:xlink="http://www.w3.org/1999/xlink" width="56" height="56" viewBox="0 0 56 56">
  <defs>
    <clipPath id="clip-path">
      <circle id="back" cx="28" cy="28" r="28" transform="translate(224 303)" fill="#ef5388"/>
    </clipPath>
  </defs>
  <g id="_9" data-name="9" transform="translate(-224 -303)" clip-path="url(#clip-path)">
    <g id="_013-woman-16" data-name="013-woman-16" transform="translate(224 303)">
      <circle id="Ellipse_318" data-name="Ellipse 318" cx="28" cy="28" r="28" fill="#06a"/>
      <path id="Path_17757" data-name="Path 17757" d="M10.734,28.155,3.681,25,34.026,55.348A28.029,28.029,0,0,0,55.409,22.255l-11-11Z" fill="#1e2d64"/>
      <path id="Path_17758" data-name="Path 17758" d="M52.319,25a6.376,6.376,0,0,1-6.345-5.833V15.186a5.638,5.638,0,0,0-5.483-5.669,5.578,5.578,0,0,0-5.674,5.577v7.159a6.563,6.563,0,0,0,6.563,6.563h.729a9.329,9.329,0,0,0,3.96-.882Z" fill="#e89f00"/>
      <path id="Path_17759" data-name="Path 17759" d="M3.681,25a6.376,6.376,0,0,0,6.345-5.833V15.186a5.638,5.638,0,0,1,5.483-5.669,5.578,5.578,0,0,1,5.674,5.577v7.159a6.563,6.563,0,0,1-6.562,6.563H13.89a9.329,9.329,0,0,1-3.96-.882Z" fill="#ffbc36"/>
      <circle id="Ellipse_319" data-name="Ellipse 319" cx="6.289" cy="6.289" r="6.289" transform="translate(14.019 8.094)" fill="#ff6838"/>
      <circle id="Ellipse_320" data-name="Ellipse 320" cx="6.289" cy="6.289" r="6.289" transform="translate(29.403 8.094)" fill="#e86035"/>
      <path id="SVGCleanerId_0" d="M28,56a27.867,27.867,0,0,0,14.7-4.164L41.68,42.508a3.3,3.3,0,0,0-2.869-2.918l-7.061-.844V33.469h-7.5v5.277l-7.061.844a3.3,3.3,0,0,0-2.869,2.918L13.3,51.836A27.867,27.867,0,0,0,28,56Z" fill="#ffcdbe"/>
      <path id="Path_17760" data-name="Path 17760" d="M28,35.568h0A13.254,13.254,0,0,1,14.746,22.313V20A13.254,13.254,0,0,1,28,6.748h0A13.254,13.254,0,0,1,41.254,20v2.311A13.254,13.254,0,0,1,28,35.568Z" fill="#ffda45"/>
      <path id="Path_17761" data-name="Path 17761" d="M28,6.748h-.005V35.567H28A13.254,13.254,0,0,0,41.254,22.313V20A13.254,13.254,0,0,0,28,6.748Z" fill="#ffbc36"/>
      <circle id="Ellipse_321" data-name="Ellipse 321" cx="2.93" cy="2.93" r="2.93" transform="translate(15.062 24.577)" fill="#ffcdbe"/>
      <circle id="Ellipse_322" data-name="Ellipse 322" cx="2.93" cy="2.93" r="2.93" transform="translate(35.077 24.577)" fill="#faa68e"/>
      <g id="Group_17199" data-name="Group 17199">
        <path id="SVGCleanerId_0_1_" d="M28,56a27.867,27.867,0,0,0,14.7-4.164L41.68,42.508a3.3,3.3,0,0,0-2.869-2.918l-7.061-.844V33.469h-7.5v5.277l-7.061.844a3.3,3.3,0,0,0-2.869,2.918L13.3,51.836A27.867,27.867,0,0,0,28,56Z" fill="#ffcdbe"/>
      </g>
      <path id="Path_17762" data-name="Path 17762" d="M42.7,51.836,41.68,42.508a3.3,3.3,0,0,0-2.869-2.918l-7.061-.844V33.469H27.995V56H28A27.867,27.867,0,0,0,42.7,51.836Z" fill="#faa68e"/>
      <path id="Path_17763" data-name="Path 17763" d="M28,37.078h0A10.336,10.336,0,0,1,17.664,26.742V20.836A10.336,10.336,0,0,1,28,10.5h0A10.336,10.336,0,0,1,38.336,20.836v5.906A10.336,10.336,0,0,1,28,37.078Z" fill="#ffdecf"/>
      <path id="Path_17764" data-name="Path 17764" d="M28,10.5h-.005V37.078H28A10.336,10.336,0,0,0,38.336,26.742V20.836A10.336,10.336,0,0,0,28,10.5Z" fill="#ffbeaa"/>
      <path id="Path_17765" data-name="Path 17765" d="M23.246,28.155h0a.889.889,0,0,1-.889-.889v-1.3a.889.889,0,0,1,.889-.889h0a.889.889,0,0,1,.889.889v1.3A.889.889,0,0,1,23.246,28.155Z" fill="#4d4d4d"/>
      <path id="Path_17766" data-name="Path 17766" d="M32.754,28.155h0a.889.889,0,0,1-.889-.889v-1.3a.889.889,0,0,1,.889-.889h0a.889.889,0,0,1,.889.889v1.3A.889.889,0,0,1,32.754,28.155Z" fill="#333"/>
      <path id="SVGCleanerId_1" d="M28,34.262a3.121,3.121,0,0,1-3.117-3.117H26.2a1.8,1.8,0,0,0,3.609,0h1.313A3.121,3.121,0,0,1,28,34.262Z" fill="#ff6838"/>
      <g id="Group_17200" data-name="Group 17200">
        <path id="SVGCleanerId_1_1_" d="M28,34.262a3.121,3.121,0,0,1-3.117-3.117H26.2a1.8,1.8,0,0,0,3.609,0h1.313A3.121,3.121,0,0,1,28,34.262Z" fill="#ff6838"/>
      </g>
      <path id="Path_17767" data-name="Path 17767" d="M29.8,31.145a1.807,1.807,0,0,1-1.8,1.8h-.005v1.313H28a3.121,3.121,0,0,0,3.117-3.117Z" fill="#e86035"/>
      <path id="Path_17768" data-name="Path 17768" d="M40.513,22.681a12.512,12.512,0,1,0-25.025,0h1.356V28a1.831,1.831,0,0,0,1.831,1.831V26.084a3.4,3.4,0,0,1,3.4-3.4H33.922a3.4,3.4,0,0,1,3.4,3.4v3.749A1.831,1.831,0,0,0,39.156,28V22.681Z" fill="#ffda45"/>
      <path id="Path_17769" data-name="Path 17769" d="M28,10.168h-.005V22.681h5.927a3.4,3.4,0,0,1,3.4,3.4v3.749A1.831,1.831,0,0,0,39.156,28V22.681h1.356A12.512,12.512,0,0,0,28,10.168Z" fill="#ffbc36"/>
      <path id="Path_17770" data-name="Path 17770" d="M41.68,42.508a3.3,3.3,0,0,0-2.869-2.918l-6.073-.726a5.631,5.631,0,0,1-9.477,0l-6.073.726a3.3,3.3,0,0,0-2.869,2.918L13.3,51.836a28.015,28.015,0,0,0,29.391,0Z" fill="#ff3f84"/>
      <path id="Path_17771" data-name="Path 17771" d="M42.7,51.836,41.68,42.508a3.3,3.3,0,0,0-2.869-2.918l-6.073-.726A5.627,5.627,0,0,1,28,41.453h-.005V56H28A27.867,27.867,0,0,0,42.7,51.836Z" fill="#983262"/>
    </g>
  </g>
</svg>
