<svg xmlns="http://www.w3.org/2000/svg" width="696" height="272" viewBox="0 0 696 272">
  <g id="elite_logo" data-name="elite logo" opacity="0.5">
    <path id="Path_541" data-name="Path 541" d="M62.5,102.322c-1.334,0-3.057-.065-3.962-.155a26.936,26.936,0,0,1-15.305-6.646,26.616,26.616,0,0,1-8.383-14.346A27.343,27.343,0,0,1,45.1,52.45a27.725,27.725,0,0,1,38.657,5.567,27.34,27.34,0,0,1,4.639,9.658c.07.275.139.55.2.822a27.368,27.368,0,0,1-3.449,20.758,27.722,27.722,0,0,1-17.2,12.281q-.394.095-.792.172A28.459,28.459,0,0,1,62.5,102.322Z" transform="translate(122.715 169.678)" fill="#ef5388"/>
    <path id="Path_542" data-name="Path 542" d="M127.129.142a16.25,16.25,0,0,1,9.348,4.549,16.107,16.107,0,0,1,1.383,21.36,15.506,15.506,0,0,1-9.578,5.9,16.191,16.191,0,0,1-10.767-1.565,15.987,15.987,0,0,1-7.3-8.01,13.916,13.916,0,0,1-1.166-5.081,16.149,16.149,0,0,1,.853-6.552,15.759,15.759,0,0,1,4.609-6.78A15.976,15.976,0,0,1,121.916.383a14.645,14.645,0,0,1,2.692-.367,11.734,11.734,0,0,1,2.507.139ZM125.1,5.278a10.83,10.83,0,0,0-7.67,3.021,10.67,10.67,0,0,0-3.282,7.52v.3a10.84,10.84,0,0,0,3.176,7.73,11,11,0,0,0,7.753,3.232h.134a11.131,11.131,0,0,0,7.7-3.291,10.984,10.984,0,0,0,3.19-7.7,10.84,10.84,0,0,0-3.24-7.671,10.989,10.989,0,0,0-7.757-3.148Z" transform="translate(393.41 0)" fill="#ef5388"/>
    <path id="Path_543" data-name="Path 543" d="M169.176,155.534c-.981-.689-12.223-11.921-13.018-13.019.147-.306.29-.659.476-.986a73.7,73.7,0,0,0,7.994-21.171,75.464,75.464,0,0,0,1.4-10.022,68.272,68.272,0,0,0,.2-6.942,74.2,74.2,0,0,0-61.193-71.282,56.768,56.768,0,0,0-9.192-.982c-1.107,0-2.214-.177-3.321-.168A74.131,74.131,0,0,0,18.385,98.816a69.57,69.57,0,0,0-.151,10.56,73.511,73.511,0,0,0,12.452,36.993,72.01,72.01,0,0,0,8.077,10.017,2.507,2.507,0,0,0,1.167.909c.5-.125.822-.577,1.189-.943q3.645-3.622,7.277-7.257L64.873,132.61c.4-.4.782-.831,1.128-1.2a2.722,2.722,0,0,0-.956-1.378A36.609,36.609,0,0,1,57,115.952a36.114,36.114,0,0,1-1.578-12.717A36.77,36.77,0,0,1,73.77,73.283a34.87,34.87,0,0,1,12.928-4.5,36.75,36.75,0,0,1,39.537,22.4,36.473,36.473,0,0,1,2.648,15.932,36.046,36.046,0,0,1-5.621,17.722,31.005,31.005,0,0,1-4.4,5.542q-6.321,6.27-12.586,12.6a3.27,3.27,0,0,0-1.09,1.378,5.41,5.41,0,0,0,.4.556c.329.353.674.689,1.016,1.034l34.858,34.892a4.972,4.972,0,0,1,1.12,1.292A86.03,86.03,0,0,1,119.2,193.346a91.788,91.788,0,0,1-48.857,1.421,90.34,90.34,0,0,1-41.9-22.958,92.267,92.267,0,0,1-2.871-130.4q.64-.668,1.3-1.327a92.232,92.232,0,0,1,130.518-.065q.864.862,1.669,1.723a92.241,92.241,0,0,1,17.195,101.286A62.857,62.857,0,0,1,169.176,155.534Z" transform="translate(0 46.932)" fill="#ef5388"/>
    <path id="Path_544" data-name="Path 544" d="M118.748,126.431a3.279,3.279,0,0,0-1.557.731,84.444,84.444,0,0,1-13.843,7,58.339,58.339,0,0,1-13.709,3.525,70.139,70.139,0,0,1-12.862.457A43.324,43.324,0,0,1,63.9,135.6,29.139,29.139,0,0,1,47.16,120.1a43.728,43.728,0,0,1-3.534-12.313,68.135,68.135,0,0,1-.619-10.21q.026-33.665.039-67.321V28.21a5.579,5.579,0,0,1,1.5-3.465,5.516,5.516,0,0,1,3.358-1.7,12.974,12.974,0,0,1,1.3-.035H81.358a8.172,8.172,0,0,1,1.73.087,5.842,5.842,0,0,1,3.954,2.951,3.8,3.8,0,0,1,.5,1.815c0,.779.039,1.562.039,2.341q.026,28.978.056,57.954a37.766,37.766,0,0,0,.432,6.559,14.563,14.563,0,0,0,1.181,3.917,6.426,6.426,0,0,0,6.844,3.843,30.559,30.559,0,0,0,7.6-1.741c.588-.213,1.146-.505,1.73-.762,2-.87,4-1.706,6-2.563.532-.23,1.051-.492,1.579-.736a1.14,1.14,0,0,0,.538-.468,1.154,1.154,0,0,0,.158-.7V93.772l.026-63.221V28.375a5.609,5.609,0,0,1,1.555-3.637,5.545,5.545,0,0,1,3.559-1.69c.48-.03.965-.022,1.449-.022h32.593a5.4,5.4,0,0,1,3.709,1.574,5.467,5.467,0,0,1,1.607,3.713v1.741q0,49.394.03,98.8v1.9a5.469,5.469,0,0,1-1.618,3.561,5.4,5.4,0,0,1-3.574,1.552H127.551a6.947,6.947,0,0,1-3.721-1,4.779,4.779,0,0,1-1.908-2.133c-.818-1.767-1.692-3.5-2.557-5.249C119.189,127.153,118.977,126.827,118.748,126.431Z" transform="translate(155.199 83.034)" fill="#ef5388"/>
    <path id="Path_545" data-name="Path 545" d="M142.307,95.8a4.45,4.45,0,0,0,.773.223c.479.026.963.021,1.447.021h32.521a5.71,5.71,0,0,1,3.724,1.679,5.619,5.619,0,0,1,1.632,3.72v26.908a5.506,5.506,0,0,1-1.6,3.658,5.593,5.593,0,0,1-3.674,1.631h-90.8a5.459,5.459,0,0,1-3.71-1.54A5.36,5.36,0,0,1,81,128.459V104.768a1.733,1.733,0,0,1,.51-1.283c.648-.71,1.269-1.442,1.9-2.165l20-22.732,14.473-16.451c.337-.381.786-.706.864-1.215-.165-.351-.432-.334-.652-.346H90.334a10.028,10.028,0,0,1-2.294-.2A5.309,5.309,0,0,1,85.35,58.9a5.233,5.233,0,0,1-1.412-2.706,10.143,10.143,0,0,1-.224-2.426c0-4.279.078-8.536.1-12.8V29.6c0-.625.026-1.245.047-1.869a5.113,5.113,0,0,1,1.526-3.239,5.205,5.205,0,0,1,3.29-1.467c.531,0,1.058-.026,1.589-.026H173.8c.535,0,1.06.026,1.59.03a5.261,5.261,0,0,1,2.895,1.181,5.164,5.164,0,0,1,1.7,2.606,10.53,10.53,0,0,1,.29,2.276c.023,7.817,0,15.634.037,23.451a2.68,2.68,0,0,1-.18,1.041,2.6,2.6,0,0,1-.567.893q-6.2,6.845-12.368,13.691L147.762,89.677c-1.481,1.639-2.971,3.273-4.448,4.92C143.033,94.88,142.752,95.257,142.307,95.8Z" transform="translate(292.351 83.034)" fill="#ef5388"/>
    <path id="Path_546" data-name="Path 546" d="M70.058,79.617V29.077c0-.68,0-1.36.027-2.04a5.757,5.757,0,0,1,1.451-3.582,3.8,3.8,0,0,1,1.3-1.056,3.872,3.872,0,0,1,1.642-.4h27.7a12.436,12.436,0,0,1,7.139,2.451,8.954,8.954,0,0,1,1.092.979,3.188,3.188,0,0,1,.794,1.128,3.13,3.13,0,0,1,.237,1.349c-.035,1.26,0,2.521,0,3.781q.022,49.15.044,98.309c0,.775,0,1.555-.044,2.326a5.716,5.716,0,0,1-1.539,3.547,3.781,3.781,0,0,1-1.33,1.022,3.853,3.853,0,0,1-1.651.355H75.374a5.14,5.14,0,0,1-1.949-.272,5.062,5.062,0,0,1-1.693-.982,4.947,4.947,0,0,1-1.18-1.543,4.861,4.861,0,0,1-.486-1.867V132.5c-.075-.771-.066-1.55-.066-2.325V79.608Z" transform="translate(252.649 79.424)" fill="#ef5388"/>
    <path id="Path_547" data-name="Path 547" d="M111.483,32.8a20.442,20.442,0,0,1-5.9,14.547A20.65,20.65,0,0,1,91.08,53.491h-.306a20.83,20.83,0,0,1-14.69-6.057A20.62,20.62,0,0,1,70,32.818v-.126A20.682,20.682,0,0,1,82.8,13.583a21.052,21.052,0,0,1,15.84-.072,20.543,20.543,0,0,1,11.217,11.024,20.4,20.4,0,0,1,1.615,7.835C111.483,32.5,111.483,32.653,111.483,32.8Z" transform="translate(252.649 43.322)" fill="#ef5388"/>
    <path id="Path_548" data-name="Path 548" d="M153.187,60.268H133.132a13.773,13.773,0,0,1-4.121-.556,11.418,11.418,0,0,1-5.752-4.039,11.066,11.066,0,0,1-2.236-6.593q-.048-4.948,0-9.9a11.02,11.02,0,0,1,2.738-7.234A11.406,11.406,0,0,1,130.63,28.2,17.416,17.416,0,0,1,132.842,28H173.63a11.682,11.682,0,0,1,4.632.817,11.521,11.521,0,0,1,3.909,2.572,10.81,10.81,0,0,1,3.3,7.651c.069,3.386.1,6.784,0,10.17a11.023,11.023,0,0,1-2.738,7.107,11.376,11.376,0,0,1-6.739,3.725,20.082,20.082,0,0,1-2.913.217Q163.155,60.283,153.187,60.268Zm.088-5.156h19.5a16.4,16.4,0,0,0,2.217-.135A6.012,6.012,0,0,0,177.575,54a5.9,5.9,0,0,0,1.858-2.017,6.692,6.692,0,0,0,.885-3.558V39.352a6.211,6.211,0,0,0-1.825-4.335,6.423,6.423,0,0,0-4.37-1.88H133.308c-.369,0-.747,0-1.111.029a6.379,6.379,0,0,0-3.918,1.622,6.168,6.168,0,0,0-1.991,3.694,8.012,8.012,0,0,0-.088,1.37v9.066a6.14,6.14,0,0,0,1.669,4.183,6.353,6.353,0,0,0,4.1,1.98c.6.053,1.208.065,1.811.065h19.506Z" transform="translate(436.721 101.085)" fill="#ef5388"/>
    <path id="Path_549" data-name="Path 549" d="M137.233,60.268H117.044a14,14,0,0,1-3.849-.5,11.477,11.477,0,0,1-5.914-4.046A11.129,11.129,0,0,1,105,49.01q.028-4.883,0-9.762a11.069,11.069,0,0,1,2.7-7.24,11.423,11.423,0,0,1,6.822-3.8,16.035,16.035,0,0,1,2.212-.2H157.8a11.484,11.484,0,0,1,6.1,1.636,11.068,11.068,0,0,1,4.005,3.947,10.794,10.794,0,0,1,1.516,5.373c.143,3.431.138,6.874,0,10.306a10.96,10.96,0,0,1-2.812,7.149,11.331,11.331,0,0,1-6.854,3.648,23.906,23.906,0,0,1-2.775.188Q147.124,60.28,137.233,60.268Zm.023-27.15H116.366a6.554,6.554,0,0,0-3.955,1.5,6.17,6.17,0,0,0-1.678,2.173,6.068,6.068,0,0,0-.558,2.669v9.606a6.064,6.064,0,0,0,1.6,3.925,6.272,6.272,0,0,0,3.8,1.973,12.239,12.239,0,0,0,1.664.118h39.967a9.59,9.59,0,0,0,1.936-.172,6.044,6.044,0,0,0,3.185-1.6,5.866,5.866,0,0,0,1.705-3.091,9.364,9.364,0,0,0,.217-2.179c.028-2.618,0-5.222,0-7.836,0-.368,0-.732-.023-1.1a6.24,6.24,0,0,0-1.922-4.225,6.448,6.448,0,0,0-4.347-1.779c-.466-.024-.931,0-1.4,0Z" transform="translate(378.974 101.085)" fill="#ef5388"/>
    <path id="Path_550" data-name="Path 550" d="M169.288,60.265H149.141a13.541,13.541,0,0,1-4.268-.614,11.51,11.51,0,0,1-5.623-4.032,11.124,11.124,0,0,1-2.212-6.469c-.037-3.345-.06-6.694,0-10.04a10.979,10.979,0,0,1,2.756-7.183,11.417,11.417,0,0,1,6.854-3.723,19.141,19.141,0,0,1,2.365-.2h40.847a11.877,11.877,0,0,1,4.651.815,11.656,11.656,0,0,1,3.941,2.555,11.027,11.027,0,0,1,2.66,4.155,5.785,5.785,0,0,1,.419,2.008V50.594a5.855,5.855,0,0,1-.47,2.274,10.937,10.937,0,0,1-3.406,4.781,11.316,11.316,0,0,1-5.43,2.4,16.174,16.174,0,0,1-2.789.213Q179.355,60.281,169.288,60.265Zm.129-27.149H149.274a8.423,8.423,0,0,0-2.756.384,6.322,6.322,0,0,0-3.1,2.257,6.093,6.093,0,0,0-1.18,3.6c-.041,1.832,0,3.68,0,5.5,0,1.374-.032,2.752,0,4.122a6.1,6.1,0,0,0,1.636,4.059,6.329,6.329,0,0,0,3.973,1.981,12.228,12.228,0,0,0,1.535.086h40a12.867,12.867,0,0,0,1.945-.148,6.166,6.166,0,0,0,3.226-1.545,5.974,5.974,0,0,0,1.788-3.051,9.84,9.84,0,0,0,.23-2.045c.028-2.564,0-5.132,0-7.7V39.393a6.2,6.2,0,0,0-1.8-4.345,6.471,6.471,0,0,0-4.374-1.908c-.466-.033-.936,0-1.4,0Z" transform="translate(494.47 101.085)" fill="#ef5388"/>
    <path id="Path_551" data-name="Path 551" d="M145.264,80.942a2.487,2.487,0,0,0,.585.227,8,8,0,0,0,1.083.048h23.037a2.251,2.251,0,0,0,1.7-.319,4.908,4.908,0,0,0,.143-1.886V40.037a12.584,12.584,0,0,1,.041-1.614,2.859,2.859,0,0,1,.424-1.225,2.578,2.578,0,0,1,.9-.871,2.486,2.486,0,0,1,3.268.845,2.589,2.589,0,0,1,.392,1.238c.032.438.032.875.032,1.313V84.141a2.774,2.774,0,0,1-.714,1.773,2.389,2.389,0,0,1-1.636.787c-.313.026-.631,0-.945,0H143.194a6.4,6.4,0,0,1-1.079-.044,2.37,2.37,0,0,1-1.424-.789,2.738,2.738,0,0,1-.664-1.574c0-.437-.028-.875-.028-1.313V39.744c0-.437,0-.875.032-1.313a2.732,2.732,0,0,1,.641-1.586,2.38,2.38,0,0,1,1.415-.812,2.354,2.354,0,0,1,1.576.285,2.658,2.658,0,0,1,1.1,1.255,4.6,4.6,0,0,1,.281,1.273,14.213,14.213,0,0,1,.023,1.47V79a5.09,5.09,0,0,0,.166,1.938Z" transform="translate(505.298 129.966)" fill="#ef5388"/>
    <path id="Path_552" data-name="Path 552" d="M129.281,80.957a4.341,4.341,0,0,0,.733.219,9.039,9.039,0,0,0,1.083.026h22.765a3.4,3.4,0,0,0,1.8-.245,5.86,5.86,0,0,0,.152-.8c.028-.49,0-.98,0-1.47V40a11.8,11.8,0,0,1,.042-1.614,2.848,2.848,0,0,1,.466-1.28,2.6,2.6,0,0,1,.991-.866,2.338,2.338,0,0,1,1.254-.231,2.645,2.645,0,0,1,1.959,1.295,2.6,2.6,0,0,1,.313,1.117c.028.538.037,1.076.037,1.619V82.694c0,.49,0,.98-.028,1.47a2.762,2.762,0,0,1-.724,1.768,2.378,2.378,0,0,1-1.646.765c-.313.031-.631,0-.949,0H127.313c-.36,0-.724,0-1.079-.022a2.376,2.376,0,0,1-1.5-.777,2.756,2.756,0,0,1-.7-1.63c-.018-.437-.032-.875-.032-1.313V39.718c-.009-.438,0-.876.032-1.313a2.745,2.745,0,0,1,.655-1.578,2.344,2.344,0,0,1,2.931-.531,2.617,2.617,0,0,1,1.088,1.167,4.853,4.853,0,0,1,.336,1.4,13.054,13.054,0,0,1,0,1.47v38.68a4.655,4.655,0,0,0,.184,1.951Z" transform="translate(447.551 129.966)" fill="#ef5388"/>
    <path id="Path_553" data-name="Path 553" d="M113.287,80.946a2.64,2.64,0,0,0,.585.223,8.108,8.108,0,0,0,1.083.044h23.023a2.258,2.258,0,0,0,1.7-.315,4.711,4.711,0,0,0,.147-1.881V40.049a13.487,13.487,0,0,1,.032-1.614,2.865,2.865,0,0,1,.479-1.312,2.586,2.586,0,0,1,1.023-.875,2.358,2.358,0,0,1,1.3-.2,2.643,2.643,0,0,1,1.894,1.329,2.57,2.57,0,0,1,.29,1.046c.028.49.032.98.032,1.47V82.827c0,.438,0,.875-.018,1.313a2.76,2.76,0,0,1-.714,1.776,2.371,2.371,0,0,1-1.636.783c-.309.031-.631,0-.945,0H111.209a8.264,8.264,0,0,1-.95-.022,2.342,2.342,0,0,1-1.5-.757,2.714,2.714,0,0,1-.705-1.626A12.472,12.472,0,0,1,108,82.98V39.748c0-.438.028-.875.041-1.313a2.719,2.719,0,0,1,.687-1.641,2.357,2.357,0,0,1,3.061-.4,2.632,2.632,0,0,1,1.028,1.323A5.068,5.068,0,0,1,113.052,39c.041.485,0,.98,0,1.47V78.995a5.02,5.02,0,0,0,.171,1.942Z" transform="translate(389.801 129.966)" fill="#ef5388"/>
    <path id="Path_554" data-name="Path 554" d="M30.19,41.472a6.447,6.447,0,0,1-.179-.857c-.026-.442,0-.883,0-1.325V22.947q.057-10.6.171-21.228C30.182.141,30.314,0,31.8,0H51.647c1.139.053,1.28.194,1.305,1.413V5.424c0,.751-.226.932-.964.972H39.564c-1.732,0-1.779.053-1.783,1.811v7.867c.051,1.016.188,1.193,1.212,1.2,3.379.022,6.758,0,10.137,0h1.28c.58.035.8.225.815.8q.043,2.376,0,4.748c0,.495-.235.694-.73.733-.379.031-.759.026-1.139.026H39.791c-.563,0-1.131.035-1.732.053a3.691,3.691,0,0,0-.256.883v9.643a1.629,1.629,0,0,0,.1.4,1.4,1.4,0,0,0,.559.336,1.366,1.366,0,0,0,.645.044H50.96c.568,0,1.131.044,1.733.071a4.533,4.533,0,0,1,.277.883,21.841,21.841,0,0,1-.209,5.345,2.757,2.757,0,0,1-1.5.185H31.842A7.911,7.911,0,0,1,30.19,41.472Z" transform="translate(108.278 0)" fill="#ef5388"/>
    <path id="Path_555" data-name="Path 555" d="M14.083,23.673a2.5,2.5,0,0,0-.372,1.606v8.007c0,1.6.107,1.7,1.615,1.707H27.2a3.112,3.112,0,0,1,1.637.2,21.923,21.923,0,0,1,0,6.1,3.053,3.053,0,0,1-1.5.163H7.755a3.277,3.277,0,0,1-1.611-.2,6.881,6.881,0,0,1-.132-.825c-.026-.494,0-.988,0-1.482q.026-18.463.056-36.921C6.067,0,6.067,0,8.067,0H27.085c1.944,0,1.944,0,1.944,2.087V5.5c0,.679-.209.856-.876.882-.38.026-.761,0-1.145,0h-11.9c-1.282.035-1.453.168-1.461,1.425,0,2.718,0,5.435.034,8.157a5.53,5.53,0,0,0,.205,1.05,3.49,3.49,0,0,0,1.8.238H25.56c1.747,0,1.747,0,1.756,1.765v3.56c0,.772-.192.931-.949.966H15.642A14.485,14.485,0,0,1,14.083,23.673Z" transform="translate(21.656 0)" fill="#ef5388"/>
    <path id="Path_556" data-name="Path 556" d="M120.811,90.347c.157-3.351.323-6.822.489-10.288,0-.382.032-.76.051-1.142.115-2.235.175-4.469.35-6.7.134-1.7.406-3.4.622-5.1q.491-3.887.977-7.778c.309-2.4.622-4.8.926-7.221l.7-5.658c.3-2.4.618-4.8.926-7.221l.705-5.658c.207-1.7.429-3.4.641-5.1l.705-5.658c.217-1.742.452-3.483.654-5.229a4.05,4.05,0,0,0-.516-2.527,3.731,3.731,0,0,0-1.908-1.632,3.442,3.442,0,0,0-2.756.193,3.679,3.679,0,0,0-1.12.9,3.916,3.916,0,0,0-.7,1.285,8.936,8.936,0,0,0-.272,1.253c-.406,2.549-.779,5.072-1.175,7.6-.069.467-.148.939-.249,1.4a2.641,2.641,0,0,1-.3.952,2.553,2.553,0,0,1-.631.754,2.389,2.389,0,0,1-.862.439,2.309,2.309,0,0,1-.954.055l-.226-.042a2.442,2.442,0,0,1-1.507-1.116,2.666,2.666,0,0,1-.323-1.9c.323-2.3.682-4.6,1.028-6.9.129-.85.277-1.7.406-2.549a8.738,8.738,0,0,1,1.954-4.71A8.017,8.017,0,0,1,122.623,8.4a7.947,7.947,0,0,1,3.245-.358,8.048,8.048,0,0,1,3.125.978,8.426,8.426,0,0,1,2.53,2.164,8.921,8.921,0,0,1,1.549,3.019c.046.149.083.3.115.45a9.727,9.727,0,0,1,.235,2.684c-.06,1.47-.235,2.935-.406,4.4C132.7,24.418,132.344,27.1,132,29.8c-.327,2.549-.664,5.1-.982,7.646s-.6,5-.917,7.5q-.6,4.8-1.212,9.609c-.309,2.451-.6,4.9-.908,7.353-.323,2.6-.678,5.178-.973,7.778-.235,2.03-.452,4.065-.572,6.1-.171,2.944-.244,5.9-.35,8.84-.1,2.659-.184,5.327-.295,7.986a4.617,4.617,0,0,1-.217,1.253,2.546,2.546,0,0,1-1.037,1.358,2.333,2.333,0,0,1-1.627.341,2.306,2.306,0,0,1-1.48-.79,2.528,2.528,0,0,1-.613-1.622C120.77,92.276,120.811,91.367,120.811,90.347Z" transform="translate(415.067 28.881)" fill="#ef5388"/>
    <path id="Path_557" data-name="Path 557" d="M163.357,19.049c1.263,0,2.53-.054,3.793,0a27.185,27.185,0,0,1,10.491,2.42,16.11,16.11,0,0,1,6.481,5.262,14.593,14.593,0,0,1,2.563,7.121c.24,2.4.521,4.8.779,7.184.23,2.151.438,4.3.673,6.448.161,1.549.318,3.1.5,4.647a3.865,3.865,0,0,1-.125,1.931,2.783,2.783,0,0,1-1.028,1.339,2.683,2.683,0,0,1-1.595.479,2.607,2.607,0,0,1-1.613-.64,2.713,2.713,0,0,1-.89-1.524,14.756,14.756,0,0,1-.263-1.8c-.235-2.3-.438-4.6-.682-6.9s-.507-4.7-.761-7.045c-.129-1.2-.267-2.4-.369-3.592a8.763,8.763,0,0,0-1.055-3.58,8.522,8.522,0,0,0-2.438-2.778,14.794,14.794,0,0,0-5.126-2.506,24.8,24.8,0,0,0-6.932-.961c-2,0-4-.036-6,.027a22.183,22.183,0,0,0-8.38,1.881,11.315,11.315,0,0,0-4.019,2.955,7.912,7.912,0,0,0-1.941,4.153c-.217,1.589-.383,3.192-.544,4.79-.286,2.744-.553,5.5-.825,8.248q-.332,3.3-.65,6.6a2.761,2.761,0,0,1-.369,1.306,2.676,2.676,0,0,1-.936.963,2.606,2.606,0,0,1-2.563.093,2.761,2.761,0,0,1-1.019-.891,2.853,2.853,0,0,1-.489-1.283,4.179,4.179,0,0,1,0-.9c.226-2.2.438-4.4.682-6.6.254-2.447.493-4.9.747-7.35.207-2,.323-4.014.65-5.994a14.008,14.008,0,0,1,5.084-8.724,19.278,19.278,0,0,1,6.877-3.592A28.744,28.744,0,0,1,160.277,19h3.061Z" transform="translate(498.079 68.593)" fill="#ef5388"/>
    <path id="Path_558" data-name="Path 558" d="M169.083,52.788a3.221,3.221,0,0,1-.207,1.419,2.759,2.759,0,0,1-.8,1.122,2.3,2.3,0,0,1-1.175.532,2.222,2.222,0,0,1-1.254-.195,2.389,2.389,0,0,1-.991-.867,2.868,2.868,0,0,1-.447-1.325c-.194-1.7-.359-3.4-.521-5.1q-.4-3.893-.742-7.793c-.2-2.047-.424-4.094-.576-6.142a9.512,9.512,0,0,0-.954-3.581,8.449,8.449,0,0,0-2.2-2.789,12.867,12.867,0,0,0-4.655-2.514,20.536,20.536,0,0,0-6.3-.965c-1.821,0-3.632-.036-5.448.023a18.736,18.736,0,0,0-7.615,1.868,10.351,10.351,0,0,0-3.577,2.832,8.427,8.427,0,0,0-1.9,4.553c-.18,1.8-.346,3.591-.516,5.387l-.691,7.345c-.207,2.245-.4,4.489-.627,6.734a2.888,2.888,0,0,1-.41,1.33,2.453,2.453,0,0,1-.945.915,2.228,2.228,0,0,1-1.162.27,2.252,2.252,0,0,1-1.138-.375,2.639,2.639,0,0,1-.853-.933,3.026,3.026,0,0,1-.364-1.274,4.128,4.128,0,0,1,0-.754c.217-2.245.447-4.489.655-6.734.23-2.451.419-4.9.641-7.35.184-2,.29-4.018.608-5.989a14.428,14.428,0,0,1,4.688-8.678,17.622,17.622,0,0,1,7.167-3.8,23.748,23.748,0,0,1,6.305-.934c2.088,0,4.171-.063,6.25,0a22.982,22.982,0,0,1,9.546,2.343,15.449,15.449,0,0,1,4.236,3.08A14.819,14.819,0,0,1,167.23,33.8c.207,2.4.47,4.795.705,7.183.2,2.1.4,4.2.6,6.285q.235,2.474.479,4.938C169.046,52.487,169.083,52.689,169.083,52.788Z" transform="translate(443.941 68.593)" fill="#ef5388"/>
    <path id="Path_559" data-name="Path 559" d="M39.3,41.347a37.2,37.2,0,0,1-7.056-.049,5.72,5.72,0,0,1-.15-.805c-.029-.5,0-.991,0-1.487q.024-15.167.045-30.329c0-.544,0-1.088-.053-1.633a.719.719,0,0,0-.187-.468.61.61,0,0,0-.431-.2c-.407-.04-.813-.053-1.22-.053H23.04c-.846-.044-1-.2-1.029-1.177s0-2.084,0-3.124Q22,1.359,22.059.7a.7.7,0,0,1,.187-.469.592.592,0,0,1,.435-.191A8.024,8.024,0,0,1,23.633,0H48.122c1.5,0,1.521.027,1.533,1.659V4.785c0,1.5-.049,1.544-1.484,1.544H40.416c-.74.049-.935.257-1.009,1.088q-.034.441-.024.885l.073,14.72q.044,8.406.1,16.813A2.74,2.74,0,0,1,39.3,41.347Z" transform="translate(79.404 0)" fill="#ef5388"/>
    <path id="Path_560" data-name="Path 560" d="M21.639,34.815A4.181,4.181,0,0,0,23.7,35.1H34.185a2.786,2.786,0,0,1,1.646.221,20.677,20.677,0,0,1,0,5.953,3.219,3.219,0,0,1-1.637.186H14.781c-.51,0-1.02-.049-1.581-.075a8.909,8.909,0,0,1-.187-.937c-.028-.345,0-.694,0-1.039q0-18.783.047-37.567C13.06.015,13.06.01,14.93,0h4.538c.365-.006.731.006,1.094.035a.778.778,0,0,1,.5.189A.7.7,0,0,1,21.3.682a7.7,7.7,0,0,1,.07,1.03c.061,5.79.136,11.579.178,17.369.033,4.654,0,9.3.028,13.957C21.564,33.648,21.615,34.222,21.639,34.815Z" transform="translate(46.92 0)" fill="#ef5388"/>
    <path id="Path_561" data-name="Path 561" d="M142.391,16.191c.47.587.816,1.046,1.185,1.477q3.83,4.477,7.661,8.945a8.945,8.945,0,0,1,.9,1.133,2.836,2.836,0,0,1,.447,1.023,3.092,3.092,0,0,1,.037,1.146,2.978,2.978,0,0,1-.521,1.315,2.459,2.459,0,0,1-1.009.845,2.124,2.124,0,0,1-1.24.153,2.281,2.281,0,0,1-1.143-.579,10.157,10.157,0,0,1-.867-.95l-7.757-9.046a3.783,3.783,0,0,0-1.245-1.174,3.325,3.325,0,0,0-1.212,1.128q-3.893,4.518-7.762,9.046a10.682,10.682,0,0,1-.862.954,2.311,2.311,0,0,1-1.134.617,2.11,2.11,0,0,1-1.244-.117,2.44,2.44,0,0,1-1.028-.821,3.009,3.009,0,0,1-.544-1.307,3.177,3.177,0,0,1,.032-1.216,2.922,2.922,0,0,1,.489-1.077,10.356,10.356,0,0,1,.9-1.124l7.665-8.945a3.942,3.942,0,0,0,1-1.44,3.709,3.709,0,0,0-.982-1.427q-3.872-4.541-7.753-9.06a9.3,9.3,0,0,1-.894-1.133,3.1,3.1,0,0,1-.475-1.256,3.335,3.335,0,0,1,.092-1.367A2.937,2.937,0,0,1,125.765.78,2.348,2.348,0,0,1,126.8.112a1.762,1.762,0,0,1,1.415.078,4.549,4.549,0,0,1,1.47,1.28l7.859,9.175c.369.431.765.835,1.092,1.193.668-.028.94-.55,1.272-.917,1.659-1.913,3.3-3.849,4.955-5.771,1.06-1.234,2.12-2.477,3.185-3.7a6.285,6.285,0,0,1,.9-.918,2.123,2.123,0,0,1,1.493-.462,2.221,2.221,0,0,1,1.42.706,2.968,2.968,0,0,1,.756,1.573,3.212,3.212,0,0,1-.23,1.78,5.6,5.6,0,0,1-.9,1.321q-3.063,3.619-6.163,7.2c-.687.8-1.374,1.592-2.056,2.4C142.995,15.347,142.755,15.7,142.391,16.191Z" transform="translate(451.159 0)" fill="#ef5388"/>
    <path id="Path_562" data-name="Path 562" d="M154.994,20.432a3.546,3.546,0,0,0-1.392,1.228q-3.9,4.51-7.771,9.033a7.876,7.876,0,0,1-.973,1.036,2.164,2.164,0,0,1-1.655.529,2.3,2.3,0,0,1-1.535-.887,3.144,3.144,0,0,1-.055-3.73,9.326,9.326,0,0,1,.811-1.008l7.762-9.042a3.644,3.644,0,0,0,.977-1.425,3.97,3.97,0,0,0-1-1.439q-3.955-4.638-7.951-9.257a4.67,4.67,0,0,1-1.1-1.879,2.97,2.97,0,0,1-.023-1.517A2.645,2.645,0,0,1,141.8.8,2.054,2.054,0,0,1,143,.044,1.863,1.863,0,0,1,144.351.3a6.189,6.189,0,0,1,1.35,1.215c2.637,3.034,5.241,6.09,7.868,9.138.369.431.765.83,1.092,1.187.668-.037.945-.554,1.277-.944q3.955-4.56,7.859-9.166A10.016,10.016,0,0,1,164.867.589,2.107,2.107,0,0,1,165.8.058a1.9,1.9,0,0,1,1.042.031,2.583,2.583,0,0,1,1.493,1.355,3.276,3.276,0,0,1,.226,2.179,3.142,3.142,0,0,1-.392.917,8.815,8.815,0,0,1-.9,1.127l-7.757,9.042a3.738,3.738,0,0,0-.986,1.434,3.906,3.906,0,0,0,.991,1.43q3.823,4.473,7.665,8.936c.249.289.5.582.742.88a3.14,3.14,0,0,1,.636,1.419,3.459,3.459,0,0,1-.083,1.6,2.386,2.386,0,0,1-.521,1.062,1.855,1.855,0,0,1-.922.583,2.244,2.244,0,0,1-1.378.07,2.505,2.505,0,0,1-1.208-.762l-.751-.866q-3.775-4.413-7.568-8.826C155.782,21.271,155.385,20.872,154.994,20.432Z" transform="translate(508.908 0)" fill="#ef5388"/>
    <path id="Path_563" data-name="Path 563" d="M123.879,39.661A13.8,13.8,0,0,1,110,25.95v-.2a13.827,13.827,0,1,1,13.879,13.907Zm-8.624-13.792a8.481,8.481,0,0,0,8.38,8.576h.152a8.454,8.454,0,0,0,8.642-8.268v-.342a8.539,8.539,0,0,0-8.449-8.661h-.157a8.679,8.679,0,0,0-8.573,8.7Z" transform="translate(397.02 43.322)" fill="#ef5388"/>
    <path id="Path_564" data-name="Path 564" d="M138.764,12a13.631,13.631,0,0,1,9.707,3.778,13.549,13.549,0,0,1,4.185,9.513v.558a13.743,13.743,0,0,1-13.666,13.81h-.166a13.814,13.814,0,0,1-12.768-8.485A13.684,13.684,0,0,1,125,25.911v-.23a13.592,13.592,0,0,1,13.51-13.674Zm.106,22.39a8.549,8.549,0,0,0,8.541-8.55v-.179a8.427,8.427,0,0,0-.641-3.244,8.513,8.513,0,0,0-7.854-5.242h-.17A8.5,8.5,0,0,0,130.2,25.6v.158a8.559,8.559,0,0,0,8.481,8.63h.184Z" transform="translate(451.159 43.322)" fill="#ef5388"/>
    <path id="Path_565" data-name="Path 565" d="M154.62,39.644a13.535,13.535,0,0,1-9.606-3.965A13.715,13.715,0,0,1,141,26.043v-.238a13.783,13.783,0,0,1,3.959-9.735A13.611,13.611,0,0,1,154.6,12h.217a13.7,13.7,0,0,1,9.749,3.982,13.855,13.855,0,0,1-4.3,22.589,13.684,13.684,0,0,1-5.255,1.09Zm.042-5.245a8.557,8.557,0,0,0,6.043-2.528,8.671,8.671,0,0,0,2.521-6.079,8.574,8.574,0,0,0-2.461-6.052,8.462,8.462,0,0,0-5.987-2.534h-.124a8.379,8.379,0,0,0-5.96,2.425,8.514,8.514,0,0,0-2.507,5.956v.157a8.625,8.625,0,0,0,2.443,6.086,8.516,8.516,0,0,0,6.006,2.567h.028Z" transform="translate(508.907 43.322)" fill="#ef5388"/>
    <path id="Path_566" data-name="Path 566" d="M27.915,41.348a54.858,54.858,0,0,1-8.716-.062,5.414,5.414,0,0,1-.183-.8c-.035-.394,0-.792,0-1.185q.031-18.714.071-37.424C19.087,0,19.087,0,21.264,0H26.87c.984,0,1.157.2,1.218,1.075v.743q.05,18.785.092,37.575A3.559,3.559,0,0,1,27.915,41.348Z" transform="translate(68.576 0)" fill="#ef5388"/>
    <path id="Path_567" data-name="Path 567" d="M130.388,19.012c.521,0,1.037-.027,1.558,0a2.907,2.907,0,0,1,1.867.8,2.687,2.687,0,0,1,.217,3.68,2.9,2.9,0,0,1-1.77,1,9.368,9.368,0,0,1-1.553.063,26.659,26.659,0,0,0-8.536,1.523,15.043,15.043,0,0,0-3.568,1.833,9.132,9.132,0,0,0-2.761,2.939,8.773,8.773,0,0,0-1.18,3.8c-.383,3.7-.793,7.4-1.185,11.1-.244,2.354-.466,4.708-.714,7.053a5.116,5.116,0,0,1-.341,1.455,2.744,2.744,0,0,1-1.24,1.308,2.9,2.9,0,0,1-1.816.282,2.777,2.777,0,0,1-1.678-.885,2.6,2.6,0,0,1-.678-1.725,10.262,10.262,0,0,1,.046-1.505c.263-2.4.553-4.793.811-7.188s.465-4.8.737-7.188c.166-1.549.327-3.1.572-4.636a13.69,13.69,0,0,1,2.083-5.322,14.241,14.241,0,0,1,4.107-4.085,23,23,0,0,1,9-3.617A29.91,29.91,0,0,1,130.388,19.012Z" transform="translate(386.192 68.593)" fill="#ef5388"/>
    <path id="Path_568" data-name="Path 568" d="M141,37.6c.138-2.113.281-4.14.406-6.17.111-1.722.184-3.443.3-5.165a8.67,8.67,0,0,1,.221-1.694,2.332,2.332,0,0,1,.8-1.228,1.592,1.592,0,0,1,1.24-.321,1.8,1.8,0,0,1,1.125.728A2.722,2.722,0,0,1,145.6,25.2q.021,1.387-.074,2.77c-.1,1.765-.235,3.53-.341,5.3-.1,1.634-.161,3.269-.263,4.9a11.623,11.623,0,0,1-.175,1.444,2.45,2.45,0,0,1-.71,1.357,1.62,1.62,0,0,1-1.245.456,1.669,1.669,0,0,1-1.24-.657,2.592,2.592,0,0,1-.549-1.543C140.991,38.681,141,38.095,141,37.6Z" transform="translate(508.907 83.034)" fill="#ef5388"/>
    <path id="Path_569" data-name="Path 569" d="M114.6,25.956c-.074,1.5-.143,3.01-.23,4.511q-.18,3.05-.373,6.1c-.055.883-.111,1.77-.194,2.654a2.716,2.716,0,0,1-.59,1.575,1.685,1.685,0,0,1-1.268.647,1.766,1.766,0,0,1-1.323-.683,2.835,2.835,0,0,1-.6-1.646,5.679,5.679,0,0,1,0-.792q.083-1.525.18-3.05c.111-1.679.23-3.354.336-5.033q.131-2.187.254-4.38a4.591,4.591,0,0,1,.032-.665,2.693,2.693,0,0,1,.65-1.6A1.664,1.664,0,0,1,112.8,23a1.761,1.761,0,0,1,1.281.751,2.827,2.827,0,0,1,.525,1.675v.531Z" transform="translate(397.02 83.034)" fill="#ef5388"/>
    <path id="Path_570" data-name="Path 570" d="M125,37.7c.272-2.056.549-4.045.788-6.029.212-1.767.378-3.537.631-5.3a5.89,5.89,0,0,1,.4-1.7,2.9,2.9,0,0,1,1.549-1.283,5.621,5.621,0,0,1,2.489-.37,4.916,4.916,0,0,1,2.3.712,2.139,2.139,0,0,1,1.046,1.468,17.734,17.734,0,0,1-.147,2.923c-.18,1.679-.466,3.351-.668,5.031s-.332,3.359-.535,5.038a5.77,5.77,0,0,1-.364,1.442,2.618,2.618,0,0,1-1.424,1.353,5.447,5.447,0,0,1-2.48.453,4.944,4.944,0,0,1-2.475-.663,2.06,2.06,0,0,1-1.088-1.547C124.986,38.7,125,38.167,125,37.7Z" transform="translate(451.159 83.034)" fill="#ef5388"/>
    <path id="Path_571" data-name="Path 571" d="M154.2,37.76a15.331,15.331,0,0,1,0,1.536,2.1,2.1,0,0,1-.991,1.423,4.493,4.493,0,0,1-2.139.7,5.334,5.334,0,0,1-2.452-.321,2.929,2.929,0,0,1-1.562-1.274,4.122,4.122,0,0,1-.383-1.308c-.327-2.573-.608-5.15-.931-7.724-.189-1.508-.438-3.02-.664-4.52a2.316,2.316,0,0,1,.3-1.835A3.183,3.183,0,0,1,147,23.28a5.4,5.4,0,0,1,2.369-.242,4.592,4.592,0,0,1,2.06.659,2.239,2.239,0,0,1,1.037,1.336,19.907,19.907,0,0,1,.373,2.122c.323,2.573.608,5.15.936,7.724C153.9,35.924,154.071,36.938,154.2,37.76Z" transform="translate(523.345 83.034)" fill="#ef5388"/>
    <path id="Path_572" data-name="Path 572" d="M138.2,38.022a12.318,12.318,0,0,1,0,1.24,2.074,2.074,0,0,1-.968,1.433,4.466,4.466,0,0,1-2.134.715,5.31,5.31,0,0,1-2.544-.341A2.817,2.817,0,0,1,131,39.712a4.5,4.5,0,0,1-.336-1.2c-.175-1.379-.323-2.758-.5-4.137-.207-1.646-.443-3.288-.664-4.935-.175-1.288-.4-2.579-.489-3.867a1.909,1.909,0,0,1,.714-1.571,4.176,4.176,0,0,1,2.07-.926,5.6,5.6,0,0,1,2.5.135A3.486,3.486,0,0,1,136.1,24.35a1.783,1.783,0,0,1,.355.757c.18.976.3,1.953.433,2.93.221,1.594.452,3.188.659,4.783C137.772,34.55,137.975,36.24,138.2,38.022Z" transform="translate(465.596 83.034)" fill="#ef5388"/>
  </g>
</svg>
